<?xml version="1.0" standalone="no"?>
<!DOCTYPE svg PUBLIC "-//W3C//DTD SVG 1.1//EN" "http://www.w3.org/Graphics/SVG/1.1/DTD/svg11.dtd" >
<svg xmlns="http://www.w3.org/2000/svg">
<metadata></metadata>
<defs>
<font id="itc_stone_serif_stdsemibold" horiz-adv-x="1214" >
<font-face units-per-em="2048" ascent="1505" descent="-543" />
<missing-glyph horiz-adv-x="606" />
<glyph unicode="&#xfb01;" horiz-adv-x="1392" d="M57 0v63q143 12 152 54q8 39 8 125v635h-158v104h158v139q0 59 26.5 112.5t71.5 93t93 68.5t104 52q110 59 260 59q68 0 132.5 -8t76.5 -24l80 -125q12 -17 -12 -33l-76 -64q-20 -12 -49 9l-86 61q-32 23 -53 36t-55.5 25.5t-67.5 12.5q-83 0 -128 -63.5t-45 -168.5v-182 h256q288 0 429 68l4 -5v-802q0 -86 8 -125q9 -42 149 -54v-63h-567v63q121 15 129 54t8 125v534q0 60 -33.5 80.5t-105.5 20.5h-277v-635q0 -81 9 -125q6 -26 50.5 -37.5t129.5 -16.5v-63h-621z" />
<glyph unicode="&#xfb02;" horiz-adv-x="1392" d="M57 0v63q143 12 152 54q8 41 8 125v635h-158v104h158v143q0 59 26.5 112.5t71.5 93t93 68.5t104 52q114 58 246 55q81 0 112 -12l45 -14q85 -4 259 26l4 -4v-1259q0 -86 8 -125q9 -42 149 -54v-63h-567v63q121 15 129 54t8 125v1044q-38 52 -113 83.5t-143 31.5 q-160 0 -160 -184v-236h302v-63l-93 -41h-209v-635q0 -79 9 -125q6 -26 50.5 -37.5t129.5 -16.5v-63h-621z" />
<glyph horiz-adv-x="2048" />
<glyph horiz-adv-x="2048" />
<glyph unicode="&#xd;" horiz-adv-x="2048" />
<glyph unicode=" "  horiz-adv-x="606" />
<glyph unicode="&#x09;" horiz-adv-x="606" />
<glyph unicode="&#xa0;" horiz-adv-x="606" />
<glyph unicode="!" horiz-adv-x="645" d="M168 129q0 61 46 107.5t108 46.5t108.5 -45.5t46.5 -108.5t-45.5 -108.5t-107.5 -45.5q-61 0 -108.5 46t-47.5 108zM170 1415q-7 45 34 67.5t118 22.5t117.5 -22t33.5 -68q-43 -289 -113 -991h-77q-70 702 -113 991z" />
<glyph unicode="&#x22;" horiz-adv-x="833" d="M137 1339q-20 166 94 166q113 0 93 -166l-56 -417l-1 -12q-1 -12 -2.5 -18t-5 -15.5t-11 -14t-17.5 -4.5q-11 0 -18.5 4.5t-11 14t-5 15.5t-2.5 17.5t-1 12.5zM510 1339q-20 166 92 166t92 -166l-55 -417l-1 -12q-1 -12 -2.5 -18t-5 -15.5t-11 -14t-17.5 -4.5 q-14 0 -22 8.5t-10.5 17t-4 22.5t-2.5 16z" />
<glyph unicode="#" d="M104 438v160h228l37 264h-209v160h231l60 412h135l-58 -412h263l57 412h137l-57 -412h182v-160h-205l-35 -264h189v-160h-213l-60 -438h-135l58 438h-265l-63 -438h-137l63 438h-203zM469 598h264l35 264h-262z" />
<glyph unicode="$" d="M147 66v303h60q21 -138 99 -228t183 -86l52 580q-81 49 -111.5 67.5t-78 51.5t-79.5 63q-118 115 -118 264q0 143 122.5 235t333.5 99l8 90h103l-8 -92q109 0 231 -29q19 -10 19 -26v-275h-56q-17 63 -42 115t-67 93t-91 50l-39 -448q50 -46 143.5 -123.5t132.5 -118.5 q123 -130 123 -299q0 -110 -63 -191.5t-169.5 -125t-246.5 -51.5l-17 -193h-106l16 184q-160 3 -319 64q-15 7 -15 27zM451 1141q0 -59 32 -103.5t86 -70.5l33 370q-67 -13 -109 -61.5t-42 -134.5zM596 68q76 23 121 84.5t45 144.5q0 73 -27 135.5t-96 136.5z" />
<glyph unicode="%" horiz-adv-x="1933" d="M72 1042q0 56 13.5 113t44 112t73.5 97t106.5 68t139.5 26q94 0 168.5 -39t117.5 -101.5t65.5 -133.5t22.5 -142q0 -218 -103.5 -345.5t-270.5 -127.5t-272 127.5t-105 345.5zM287 1034q0 -116 11.5 -199t26.5 -124t40 -64t42 -27t42 -4t41.5 4t41 26.5t39.5 64t26 124.5 t11 199q0 104 -11 178.5t-26 112t-39.5 58.5t-41 24.5t-41.5 3.5t-42 -3.5t-42 -24.5t-40 -58.5t-26.5 -112t-11.5 -178.5zM461 0l856 1434h141l-854 -1434h-143zM1108 457q0 57 13.5 114t44 112t73.5 97t106.5 68t139.5 26q94 0 168.5 -39t118 -101.5t66 -133.5t22.5 -143 q0 -215 -104 -343t-271 -128t-272 128t-105 343zM1323 451q0 -116 11.5 -199t26.5 -124t40 -64t42 -27t42 -4t41.5 4t41.5 26.5t39.5 64t26 124.5t11.5 199q0 104 -11.5 178.5t-26 112t-39.5 58t-41.5 24t-41.5 3.5t-42 -3.5t-42 -24t-40 -58t-26.5 -112t-11.5 -178.5z" />
<glyph unicode="&#x26;" horiz-adv-x="1630" d="M92 397q0 155 104 253t263 116q-10 9 -41.5 38t-41.5 38.5t-36 35t-35.5 38.5t-28 37t-26 42t-17 43t-13 50t-3.5 53q0 141 113 229t299 88q172 0 280 -82v-188h-67q-31 109 -82 158t-137 49q-64 0 -114 -50.5t-50 -125.5q0 -59 26 -114t75 -111.5t145 -149.5l434 -422 q53 107 42 256t-75 209h-209v41l115 69h596v-41l-113 -69h-201q24 -96 1 -255t-83 -272q278 -246 357 -313v-47h-303q-125 118 -185 180q-195 -205 -479 -205q-107 0 -195 26t-145.5 68t-96.5 97.5t-56 113.5t-17 117zM369 408q0 -138 87 -234t232 -96q108 0 190.5 46.5 t137.5 121.5l-496 465q-151 -87 -151 -303z" />
<glyph unicode="'" horiz-adv-x="454" d="M135 1339q-20 166 92 166t92 -166l-55 -417l-1 -12q-1 -12 -2.5 -18t-5 -15.5t-11 -14t-17.5 -4.5q-14 0 -22 8.5t-10.5 17t-4 22.5t-2.5 16z" />
<glyph unicode="(" horiz-adv-x="757" d="M152 567q0 296 137.5 535.5t408.5 402.5l29 -51q-82 -57 -142 -132.5t-96 -156t-57.5 -181.5t-29 -195t-7.5 -211q0 -91 2 -154t9 -146.5t20.5 -145t38 -134.5t59 -131t86 -119t117.5 -113l-35 -57q-540 348 -540 989z" />
<glyph unicode=")" horiz-adv-x="757" d="M31 -371q82 57 142 132.5t96 156t57.5 182t28.5 195.5t7 211q0 92 -1.5 154.5t-9 146t-20.5 144.5t-37.5 134t-59 131t-86 119t-117.5 113l35 57q540 -348 540 -989q0 -296 -138 -535.5t-409 -402.5z" />
<glyph unicode="*" horiz-adv-x="872" d="M57 1094l66 192l248 -119l-39 267h209l-39 -267l248 119l65 -192l-272 -52l194 -190l-168 -131l-133 244l-133 -244l-168 131l195 190z" />
<glyph unicode="+" d="M90 438v160h436v438h160v-438h436v-160h-436v-438h-160v438h-436z" />
<glyph unicode="," horiz-adv-x="606" d="M51 -293q48 53 79.5 106.5t45.5 92t18.5 86t2.5 70t-8 65t-7 51.5q-3 22 66.5 77.5t85.5 55.5q28 0 65 -64.5t37 -111.5q0 -72 -305 -497z" />
<glyph unicode="-" horiz-adv-x="688" d="M86 399v176h510v-176h-510z" />
<glyph unicode="." horiz-adv-x="606" d="M147 129q0 64 47 109t109 45q61 0 107.5 -46.5t46.5 -107.5q0 -60 -46 -107t-106 -47q-63 0 -110.5 45.5t-47.5 108.5z" />
<glyph unicode="/" horiz-adv-x="948" d="M70 -221l653 1726h154l-654 -1726h-153z" />
<glyph unicode="0" d="M41 762q0 95 20.5 190.5t65.5 187t109 162t160 113.5t210 43q115 0 211 -43t161 -113.5t110 -162t65.5 -187t20.5 -190.5q0 -359 -158 -573t-410 -214q-251 0 -408 214t-157 573zM334 748q0 -142 11.5 -255.5t27.5 -185.5t42.5 -123.5t48.5 -77t53 -39.5t48 -16t41 -2 q18 0 31 1t36.5 8t40.5 19t40 36.5t39.5 59t34 88t28.5 121t18 161t7 205.5q0 130 -11.5 233t-28 168.5t-43.5 112.5t-49 70t-53 35.5t-48 14.5t-42 2t-41.5 -2t-47.5 -14.5t-53 -35.5t-48.5 -70t-42.5 -112.5t-27.5 -168.5t-11.5 -233z" />
<glyph unicode="1" d="M184 1257l590 201v-1169q0 -107 10 -162q5 -32 54.5 -42.5t189.5 -21.5v-63h-778v63q164 13 202 25.5t42 38.5q8 55 8 162v862q0 36 -13.5 57t-32 27.5t-48.5 3t-52 -9.5t-53 -17l-96 -34z" />
<glyph unicode="2" d="M86 0v139q34 40 76 81.5t109 104t89 83.5q66 65 109 109t105.5 118t99.5 133.5t64.5 133.5t27.5 140q0 63 -21.5 113t-57 79.5t-76 44.5t-83.5 15q-106 0 -184.5 -68.5t-101.5 -217.5h-82v229q78 105 196.5 163t257.5 58q202 0 326.5 -94t124.5 -260q0 -82 -36 -164 t-112.5 -167t-121.5 -127.5t-136 -120.5q-7 -6 -10 -9q-212 -180 -368 -321h510q107 0 169.5 41.5t98.5 132.5h80l-127 -369h-926z" />
<glyph unicode="3" d="M113.5 259q1.5 7 13.5 17l57 43q32 32 47 13l107 -158q92 -127 221 -127q107 0 180.5 96t73.5 246q0 54 -10 99t-25.5 77t-41 57t-49.5 41t-57 27t-58.5 16.5t-60 8t-54 2t-48.5 -1t-36 -0.5v98q184 6 279.5 87.5t95.5 234.5q0 116 -62.5 183.5t-142.5 67.5 q-83 0 -145 -51t-107 -174l-80 35v170q72 43 172.5 67.5t200.5 24.5q451 0 467 -297q1 -148 -100.5 -243.5t-272.5 -129.5v-4q194 -18 316.5 -121t125.5 -266q1 -100 -46 -181.5t-128 -133.5t-184.5 -79.5t-218.5 -27.5q-104 3 -211.5 33.5t-145.5 57.5l-69 174 q-5 12 -3.5 19z" />
<glyph unicode="4" d="M18 498q60 110 285.5 423.5t380.5 512.5h234v-846h194v-174h-194v-135q0 -103 8 -156q5 -29 42.5 -40t123.5 -19q8 -1 12 -1v-63h-703v63q132 9 181.5 19t54.5 41q8 53 8 156v135h-598zM193 588h452v626q-96 -92 -227 -278t-225 -348z" />
<glyph unicode="5" d="M131 238q-12 27 4 45l62 65q25 25 36 6l115 -180q18 -28 34 -46t43.5 -39t67 -31.5t91.5 -10.5q106 0 179 81.5t73 215.5q0 182 -164.5 283.5t-464.5 101.5l211 705h581l-73 -201h-465l-76 -258q169 0 302.5 -45t214 -121.5t122 -171t41.5 -199.5q0 -103 -44 -191.5 t-116 -147t-164 -91.5t-188 -33q-113 0 -212.5 21.5t-133.5 46.5z" />
<glyph unicode="6" d="M90 561q3 165 74.5 321.5t193 279.5t297 203t373.5 93v-102q-134 2 -247 -45.5t-191.5 -131.5t-129.5 -190t-73 -229q53 39 90.5 61t102.5 42t137 20q83 0 156 -27.5t130.5 -80.5t90.5 -139.5t32 -197.5q-1 -94 -37 -178t-100 -147.5t-159 -100.5t-207 -37 q-237 0 -386.5 161t-146.5 425zM367 494q-9 -193 64.5 -309.5t199.5 -116.5q47 0 86.5 20t66 53t45 76.5t27 89.5t8.5 92q0 160 -65.5 264.5t-188.5 104.5q-104 0 -173.5 -75t-69.5 -199z" />
<glyph unicode="7" d="M197 0q317 493 694 1219h-408q-28 0 -39.5 -0.5t-41.5 -2.5t-47.5 -8.5t-39 -17.5t-34.5 -30t-19 -44h-55v318h903v-99q-275 -587 -653 -1335h-260z" />
<glyph unicode="8" d="M76 375q0 256 321 375q-133 66 -208.5 156.5t-75.5 199.5q0 106 71.5 188t182.5 123t237 41t226.5 -33.5t164.5 -106t64 -175.5q0 -59 -21.5 -111.5t-54 -88.5t-73.5 -64.5t-75.5 -44t-64.5 -23.5v-4q45 -20 76 -35.5t74 -40t72 -47.5t60.5 -56t50.5 -68t31.5 -80.5 t12.5 -96.5q0 -183 -152.5 -295.5t-386.5 -112.5q-242 0 -387 110t-145 290zM317 371q0 -130 83.5 -229t201.5 -99q125 0 202 79t77 204q0 28 -6.5 54t-16.5 47.5t-28.5 43.5t-34.5 38.5t-42.5 35.5t-45.5 31t-51 29t-51 26.5t-53 26t-50 24.5q-92 -53 -138.5 -125 t-46.5 -186zM371 1165q0 -98 81.5 -170t227.5 -133q69 33 115.5 106.5t46.5 172.5q0 111 -63 180.5t-173 69.5q-109 0 -172 -64.5t-63 -161.5z" />
<glyph unicode="9" d="M90 995q1 94 37.5 178t102 147.5t165 100.5t217.5 37q106 0 198 -34.5t163.5 -101t112 -175t38.5 -246.5q-1 -111 -34 -221.5t-90.5 -210t-142.5 -187t-186 -153t-225.5 -106t-257.5 -48.5v103q135 7 246.5 56.5t189 130.5t127.5 184.5t70 224.5l-4 4 q-135 -127 -317 -127q-174 0 -292.5 114t-117.5 330zM354 1034q0 -160 65.5 -264t188.5 -104q102 0 173 75t71 199q9 189 -67 307.5t-185 118.5q-63 0 -112 -30.5t-77.5 -80t-42.5 -106t-14 -115.5z" />
<glyph unicode=":" horiz-adv-x="606" d="M147 129q0 61 46.5 107.5t107.5 46.5q62 0 109 -46t47 -108q0 -63 -46 -108.5t-108 -45.5q-61 0 -108.5 46t-47.5 108zM147 860q0 62 46.5 108t107.5 46q62 0 109 -46t47 -108q0 -63 -46 -108t-108 -45q-61 0 -108.5 45.5t-47.5 107.5z" />
<glyph unicode=";" horiz-adv-x="606" d="M41 -293q48 53 79.5 106.5t45.5 92t18.5 86t2.5 70t-8 65t-7 51.5q-3 22 66.5 77.5t85.5 55.5q28 0 65 -64.5t37 -111.5q0 -72 -305 -497zM156 860q0 63 42.5 108.5t104.5 45.5q69 0 115.5 -42t46.5 -112q0 -64 -45.5 -108.5t-108.5 -44.5q-66 0 -110.5 43.5t-44.5 109.5 z" />
<glyph unicode="&#x3c;" d="M86 463v110l1042 480v-154l-823 -381l823 -381v-153z" />
<glyph unicode="=" d="M90 240v159h1032v-159h-1032zM90 637v160h1032v-160h-1032z" />
<glyph unicode="&#x3e;" d="M86 -16v153l821 381l-821 381v154l1042 -480v-110z" />
<glyph unicode="?" horiz-adv-x="985" d="M102 1329l70 125q32 20 117.5 35.5t159.5 15.5q191 0 312.5 -94t121.5 -256q0 -36 -7 -69.5t-25 -67t-31.5 -56.5t-45 -57t-44.5 -48.5t-51 -50.5t-46 -44q-87 -83 -116 -148t-34 -170h-127q-8 111 14.5 195t100.5 211q113 199 113 332q0 91 -42.5 170.5t-109.5 79.5 q-20 0 -42 -11t-32.5 -19.5t-33 -30.5t-23.5 -23l-86 -91q-21 -16 -51 3l-47 30q-25 15 -15 39zM268 131q0 61 46 106.5t108 45.5t109 -45.5t47 -106.5q0 -63 -46 -109.5t-108 -46.5q-63 0 -109.5 46t-46.5 110z" />
<glyph unicode="@" horiz-adv-x="1630" d="M31 670q0 226 109 407.5t293.5 281t406.5 99.5q122 0 225.5 -24.5t176 -64.5t130 -94.5t92 -112t57.5 -119.5t31.5 -113.5t8.5 -98.5q0 -28 -4.5 -65.5t-17.5 -88.5t-32.5 -100.5t-52.5 -99t-75 -87t-102.5 -60.5t-131.5 -23q-83 0 -141 57.5t-56 96.5l-13 -12 q-13 -12 -28 -26t-40 -31.5t-49.5 -32t-56 -25t-61.5 -12.5q-23 -2 -47.5 1t-59 18.5t-60 43t-44 81.5t-18.5 128q0 107 38 203t97 159.5t129 100.5t135 37q70 0 108 -30.5t66 -82.5l23 86h172l-143 -559q-4 -14 -5.5 -31t1.5 -41t24.5 -39.5t59.5 -15.5q50 0 91 21t69 57.5 t48.5 81.5t32 98.5t16.5 103.5t5 101q0 96 -38.5 192t-110.5 177.5t-189.5 132.5t-259.5 51q-83 0 -165 -21t-164.5 -72.5t-145 -127.5t-101.5 -197.5t-39 -271.5q0 -84 23.5 -173t74.5 -176t121.5 -155.5t173.5 -111t222 -42.5q63 0 116.5 6t101 19.5t74.5 23t74.5 31 t63.5 27.5l43 -62q-280 -119 -500 -119q-125 0 -232.5 24.5t-186 66.5t-141.5 99t-104 119.5t-68 131.5t-38.5 131.5t-11.5 122.5zM674 575q0 -93 25.5 -125t78.5 -32q27 0 59.5 28t65 81t58 144t34.5 201q0 64 -28.5 98t-69.5 34q-35 0 -72.5 -27t-72 -77.5t-56.5 -135.5 t-22 -189z" />
<glyph unicode="A" horiz-adv-x="1478" d="M18 0v63q49 0 98 31t81 94q21 44 60.5 140.5t99 250.5t105.5 274t122.5 322t107.5 283h133q316 -870 447 -1208q70 -187 190 -187v-63h-571v63q113 0 113 83q0 30 -15 71l-84 240h-499l-82 -244q-11 -32 -11 -59q1 -28 13 -50q24 -42 92 -41v-63h-400zM442 549h428 l-202 598h-4z" />
<glyph unicode="B" horiz-adv-x="1378" d="M78 0v63q161 10 170 54q8 39 8 125v950q0 86 -8 125q-6 26 -48 37t-122 16v64h651q471 0 471 -312q0 -132 -87.5 -221t-231.5 -119v-4q184 -9 299.5 -109t115.5 -259q0 -136 -68.5 -229.5t-186 -137t-277.5 -43.5h-686zM545 303q0 -100 16 -149.5t53 -67.5t113 -18 q117 0 181.5 83.5t64.5 235.5q0 89 -25 155.5t-68.5 104.5t-97.5 56t-118 18h-119v-418zM545 788h141q43 0 81.5 16t72.5 49.5t53.5 94.5t19.5 142q0 146 -62.5 211t-193.5 65h-112v-578z" />
<glyph unicode="C" horiz-adv-x="1517" d="M90 725q0 81 20.5 164t61 166t109 155t157 128t212 88t268.5 32q88 0 167.5 -12.5t110 -21.5t107.5 -35q79 -25 79 -80v-265h-55q-11 51 -29.5 97t-52 93t-78 80.5t-110.5 55t-146 21.5q-121 0 -217 -49.5t-158 -137.5t-94.5 -205.5t-33.5 -257.5v-10q0 -145 29 -266 q30 -125 91.5 -220.5t163 -148.5t234.5 -53q85 0 159.5 27.5t130.5 76.5t98 107t75 129h55l-58 -266q-2 -20 -14.5 -33.5t-27 -19.5t-46.5 -17q-8 -3 -12 -4q-196 -68 -395 -68q-174 0 -317.5 44.5t-253 134t-170 235t-60.5 336.5z" />
<glyph unicode="D" horiz-adv-x="1662" d="M78 0v63q161 10 170 54q8 39 8 125v950q0 86 -8 125q-6 26 -48 37t-122 16v64h747q349 0 548.5 -180t199.5 -496q0 -179 -63.5 -324t-175 -239t-261.5 -144.5t-325 -50.5h-670zM545 293q0 -55 2.5 -90t11.5 -62t19.5 -40t34.5 -21t49 -10t69 -2q90 0 167 21.5t145.5 72.5 t116 128.5t75 196t27.5 269.5q0 294 -145.5 452t-422.5 158h-149v-1073z" />
<glyph unicode="E" horiz-adv-x="1290" d="M78 0v63q78 5 121 16.5t49 37.5q8 39 8 125v950q0 86 -8 125q-5 25 -48 36.5t-122 16.5v64h1005v-330h-55q-13 60 -28.5 102t-40.5 78.5t-63.5 55t-90.5 18.5h-260v-574h170q93 0 138.5 52.5t45.5 144.5h55v-477h-55q-7 205 -184 205h-170v-465q0 -47 10 -77.5t26.5 -49 t49.5 -27.5t66.5 -11.5t90.5 -2.5q61 0 108 7.5t82 26t60 38t48 54.5t38 64.5t38 78.5q8 17 12 26h55l-62 -371h-1089z" />
<glyph unicode="F" horiz-adv-x="1103" d="M78 0v63q161 10 170 54q8 39 8 125v950q0 86 -8 125q-6 26 -48 37t-122 16v64h1007v-330h-55q-26 123 -76 188.5t-149 65.5h-260v-615h194q93 0 139 52.5t48 144.5h55v-477h-55q-11 205 -187 205h-194v-426q0 -86 8 -125q9 -44 170 -54v-63h-645z" />
<glyph unicode="G" horiz-adv-x="1630" d="M90 725q0 81 20.5 164t61 166t109 155t157 128t212 88t268.5 32q88 0 167.5 -12.5t110 -21.5t107.5 -35q79 -25 79 -80v-265h-55q-15 66 -42 122t-74.5 109.5t-124.5 84.5t-177 31q-103 0 -187 -33.5t-141.5 -92t-96.5 -141t-57 -178t-19 -205.5q0 -190 54.5 -347 t162 -254t249.5 -97q149 0 207 59t58 213v131q0 79 -9 123q-6 26 -57 38t-166 18v63h678v-63q-80 -7 -122 -19t-48 -37q-8 -39 -8 -123v-376q-255 -95 -518 -95q-173 0 -316.5 44.5t-252.5 134t-169.5 235t-60.5 336.5z" />
<glyph unicode="H" horiz-adv-x="1705" d="M78 0v63q78 5 121 16.5t49 37.5q8 39 8 125v950q0 86 -8 125q-5 25 -48 36.5t-122 16.5v64h647v-64q-80 -5 -123 -16.5t-49 -36.5q-8 -39 -8 -125v-363h616v363q0 86 -8 125q-5 25 -48 36.5t-122 16.5v64h645v-64q-79 -5 -122 -16.5t-48 -36.5q-8 -39 -8 -125v-950 q0 -86 8 -125q6 -26 49 -37.5t121 -16.5v-63h-645v63q78 5 121 16.5t49 37.5q8 39 8 125v487h-616v-487q0 -86 8 -125q6 -26 49.5 -37.5t122.5 -16.5v-63h-647z" />
<glyph unicode="I" horiz-adv-x="800" d="M78 0v63q161 10 170 54q8 39 8 125v950q0 86 -8 125q-6 26 -48 37t-122 16v64h645v-64q-80 -5 -122 -16t-48 -37q-8 -39 -8 -125v-950q0 -86 8 -125q9 -44 170 -54v-63h-645z" />
<glyph unicode="J" horiz-adv-x="796" d="M-186 -231q-4 6 -4 12q0 12 14 26l43 52q11 13 41 -4l74 -45q12 -7 47 -31.5t59.5 -35.5t52.5 -11q48 0 73.5 31.5t38.5 124.5t13 272v1032q0 86 -8 125q-6 26 -48 37t-122 16v64h645v-64q-80 -5 -122 -16t-48 -37q-8 -39 -8 -125v-946q0 -466 -315 -559 q-164 -58 -243 -58h-5q-65 0 -88 29z" />
<glyph unicode="K" horiz-adv-x="1439" d="M78 0v63q161 10 170 54q8 39 8 125v950q0 86 -8 125q-6 26 -48 37t-122 16v64h645v-64q-80 -5 -122 -16t-48 -37q-8 -39 -8 -125v-420q53 0 133 84l356 363q42 44 42 76q0 36 -38 57q-32 18 -77 18h-5v64h420v-64q-13 -2 -26 -6.5t-27.5 -13t-25 -15t-27 -20.5 t-24.5 -20.5t-26.5 -24.5t-24.5 -24t-26 -27t-24 -25l-367 -383q14 -17 76 -97t84.5 -108.5t81 -101.5t89 -109.5t82.5 -98.5t87.5 -101t78 -84t79.5 -80v-31h-275q-19 0 -35.5 3.5t-33 15t-27 19t-28.5 28.5t-25 30t-28 38t-28 38l-378 530h-33v-460q0 -86 8 -125 q9 -44 170 -54v-63h-645z" />
<glyph unicode="L" horiz-adv-x="1288" d="M78 0v63q161 10 170 54q8 39 8 125v950q0 86 -8 125q-6 26 -48 37t-122 16v64h645v-64q-80 -5 -122 -16t-48 -37q-8 -39 -8 -125v-965q0 -41 10 -69t26.5 -44.5t49 -24.5t66 -10.5t89.5 -2.5q73 0 127.5 13t89.5 33t64 57.5t48 73t45 93.5q7 17 11 25h58l-62 -371h-1089z " />
<glyph unicode="M" horiz-adv-x="2009" d="M20 1370v64h461l527 -1063l551 1063h399v-64q-110 0 -155.5 -48.5t-45.5 -152.5v-927q0 -86 8 -125q9 -44 170 -54v-63h-645v63q161 10 170 54q8 39 8 125v780h-6l-528 -1022h-49l-514 1055h-4v-754q0 -86 10 -135q6 -50 47.5 -74t124.5 -29v-63h-467v63q84 5 125.5 28.5 t48.5 74.5q10 98 10 135v887q-36 81 -102.5 131.5t-143.5 50.5z" />
<glyph unicode="N" horiz-adv-x="1630" d="M2 1370v64h477q245 -317 840 -1053h4v752q0 18 -12 135q-5 52 -53 75t-166 27v64h516v-64q-83 -5 -125 -28.5t-49 -73.5q-11 -72 -11 -135v-1133h-159q-492 630 -897 1120h-5v-819q0 -63 11 -135q8 -52 57 -75.5t166 -27.5v-63h-518v63q85 5 126.5 29t47.5 74 q10 65 10 135v905q-99 164 -260 164z" />
<glyph unicode="O" horiz-adv-x="1669" d="M90 707q0 205 102 377.5t281 273t395 100.5q154 0 288.5 -59.5t226 -157.5t144 -225t52.5 -262q0 -172 -65 -320t-173.5 -247.5t-250 -155.5t-295.5 -56q-101 0 -201 29.5t-191 91t-160.5 146.5t-111 205.5t-41.5 259.5zM408 793q0 -176 36 -319.5t97.5 -235t140 -140.5 t166.5 -49q205 0 309.5 175t104.5 472q0 139 -25.5 255t-69 195t-102 133.5t-122 79.5t-130.5 25q-194 0 -299.5 -162t-105.5 -429z" />
<glyph unicode="P" horiz-adv-x="1288" d="M78 0v63q161 10 170 54q8 39 8 125v950q0 86 -8 125q-6 26 -48 37t-122 16v64h690q244 0 365.5 -104t121.5 -277q1 -215 -171 -334q-153 -106 -393 -106q-28 0 -58 1v52q151 4 231 100t80 266q0 145 -71 233.5t-216 88.5h-112v-1112q0 -86 8 -125q9 -44 170 -54v-63h-645 z" />
<glyph unicode="Q" horiz-adv-x="1669" d="M90 700q0 167 66 311t174.5 240.5t249 151.5t290.5 55q127 0 240.5 -40t198 -109t146 -158.5t93 -191.5t31.5 -205q0 -121 -31 -228.5t-80.5 -185t-115.5 -141t-130.5 -103t-131.5 -65.5l227 -105q183 -82 287 -106q99 -24 163 -24q13 0 25 1l16 -45l-198 -82 q-36 -15 -71 -15q-20 0 -39 5q-54 13 -179 80l-430 235h-88q-196 0 -359 92t-258.5 258.5t-95.5 374.5zM408 791q0 -176 37.5 -320t100 -234.5t141 -139t163.5 -48.5q96 0 170 41t118.5 105.5t73.5 153t39.5 173.5t10.5 178q0 136 -25.5 250t-68 193t-100 134t-121 81 t-130.5 26q-89 0 -160 -36t-117 -94t-76.5 -137t-43 -159.5t-12.5 -166.5z" />
<glyph unicode="R" horiz-adv-x="1402" d="M78 0v63q78 5 121 16.5t49 37.5q8 39 8 125v950q0 86 -8 125q-5 25 -48 36.5t-122 16.5v64h721q89 0 167 -22t139 -65t96.5 -114t35.5 -162q0 -138 -84 -246t-219 -153l209 -322q73 -112 144 -199t112 -114v-37h-295q-34 0 -72 36.5t-78.5 106.5t-77.5 141.5t-88.5 174 t-91.5 172.5h-151v-389q0 -86 8 -125q6 -26 49 -37.5t121 -16.5v-63h-645zM545 711h143q65 0 113 26.5t75.5 74.5t40.5 109t13 136q0 297 -242 297h-143v-643z" />
<glyph unicode="S" horiz-adv-x="1101" d="M78 70v311h55q27 -146 113.5 -239t212.5 -93q102 0 177 74t75 184q0 54 -13.5 96t-51.5 91t-105.5 103t-175.5 124q-64 41 -110 78.5t-87 85.5t-62.5 105t-21.5 122q0 153 132.5 249.5t344.5 96.5q220 0 336 -33q21 -9 21 -28v-281h-56q-77 268 -274 268q-36 0 -70 -11.5 t-63.5 -35t-47.5 -65.5t-18 -96q0 -30 7.5 -56.5t26 -53.5t37 -47.5t55.5 -50.5t65 -50.5t81 -59.5t89 -67q154 -116 214 -212.5t60 -216.5q0 -122 -75.5 -211.5t-197 -132.5t-270.5 -43q-218 0 -389 66q-14 7 -14 29z" />
<glyph unicode="T" horiz-adv-x="1327" d="M-4 1120l55 314h1225l55 -314h-55q-6 10 -26.5 46t-27.5 46.5t-26 38.5t-30.5 37.5t-33.5 27.5t-42 24t-48.5 12t-60.5 6h-174v-1116q0 -86 8 -125q9 -44 170 -54v-63h-645v63q161 10 170 54q8 39 8 125v1116h-172q-26 0 -49 -3.5t-41 -8.5t-36 -15.5t-30.5 -18.5 t-28 -25t-24 -27t-22.5 -32t-20.5 -33.5t-21.5 -37t-22 -37.5h-55z" />
<glyph unicode="U" horiz-adv-x="1630" d="M70 1370v64h645v-64q-79 -5 -122 -16.5t-48 -36.5q-8 -39 -8 -125v-647q0 -100 17 -176.5t55 -138.5t106.5 -95t165.5 -33q391 0 391 467v564q0 37 -10 135q-7 50 -49.5 73.5t-125.5 28.5v64h480v-64q-85 -5 -126.5 -28.5t-47.5 -73.5q-11 -72 -11 -135v-584 q0 -119 -30 -216.5t-81 -163t-120.5 -110t-145.5 -64.5t-159 -20q-170 0 -287.5 39.5t-185 118t-96.5 181.5t-29 245v633q0 86 -8 125q-5 25 -48 36.5t-122 16.5z" />
<glyph unicode="V" horiz-adv-x="1517" d="M14 1370v64h643v-64q-85 0 -121 -38q-20 -21 -20 -59q0 -31 14 -73q204 -612 308 -903q66 165 184.5 468.5t159.5 408.5q22 53 22 91q0 15 -4 27q-12 44 -48 61t-105 17v64h456v-64q-60 0 -109 -32t-75 -99q-81 -207 -244 -619.5t-244 -619.5h-180q-317 900 -389 1096 q-99 274 -248 274z" />
<glyph unicode="W" horiz-adv-x="2201" d="M2 1370v62h637v-62q-101 -3 -133 -42q-17 -20 -17 -57q0 -34 15 -83l229 -848h4l371 1075h160l379 -1077h4q69 217 245 846q11 42 11 73q0 43 -21 66q-36 40 -160 47v64h474v-64h-6q-50 0 -98 -34q-51 -36 -75 -115l-364 -1221h-211l-350 1049h-4l-359 -1049h-196 l-301 1096q-42 147 -96 208t-138 66z" />
<glyph unicode="X" horiz-adv-x="1593" d="M53 0v63q73 0 131.5 45t139.5 160l329 457l-342 516q-49 73 -87.5 101t-102.5 28v64h569v-64q-32 0 -55 -7t-38 -22.5t-9.5 -45.5t33.5 -72l206 -310l240 320q31 47 31 78q0 13 -5 23q-18 36 -81 36v64h397v-64q-54 0 -106 -23t-84 -67l-328 -446l414 -592 q77 -109 102 -134q42 -40 105 -44q13 -1 28 -1v-63h-610v63q35 0 58 5.5t41 20.5t11 49t-41 85l-288 418l-285 -393q-46 -65 -52 -108q-1 -8 -1 -15q-1 -31 19 -45q24 -17 67 -17v-63h-406z" />
<glyph unicode="Y" horiz-adv-x="1439" d="M33 1370v64h610v-64q-46 0 -74 -8t-40 -21t-11 -37t9.5 -47.5t25.5 -60.5l256 -522l283 516q28 49 28 84q0 10 -2 19q-11 40 -49.5 58.5t-101.5 18.5v62h440v-62q-49 0 -88 -24t-74 -91l-338 -610q-39 -76 -39 -170v-233q0 -81 9 -125q6 -26 49 -37.5t121 -16.5v-63h-646 v63q78 5 121 16.5t49 37.5q9 44 9 125v311l-320 643q-46 95 -100 134.5t-127 39.5z" />
<glyph unicode="Z" horiz-adv-x="1290" d="M49 88l832 1253h-428q-118 0 -168 -59t-60 -168h-55v320h1036v-76l-827 -1266h551q125 0 185 64t69 204h55v-360h-1137z" />
<glyph unicode="[" horiz-adv-x="720" d="M154 -395v1900h505v-67h-133q-96 0 -127.5 -23t-31.5 -92v-1520q0 -80 34 -105.5t136 -25.5h122v-67h-505z" />
<glyph unicode="\" horiz-adv-x="1175" d="M225 1505h154l653 -1726h-153z" />
<glyph unicode="]" horiz-adv-x="720" d="M61 -328h134q96 0 127.5 23t31.5 92v1520q0 80 -34 105.5t-136 25.5h-123v67h506v-1900h-506v67z" />
<glyph unicode="^" d="M143 686l377 748h174l375 -748h-156l-307 606l-305 -606h-158z" />
<glyph unicode="_" horiz-adv-x="1024" d="M0 -154h1024v-102h-1024v102z" />
<glyph unicode="`" horiz-adv-x="796" d="M131 1473q0 42 25 67t61 25q66 0 150 -92l297 -302h-95l-313 179q-38 21 -60.5 36t-43.5 39t-21 48z" />
<glyph unicode="a" horiz-adv-x="1140" d="M63 260q0 58 16 103.5t40.5 77.5t69.5 60.5t88.5 47t111.5 43.5l293 98q0 132 -43 209.5t-129 77.5q-40 0 -73.5 -18t-60.5 -53.5t-44.5 -67t-40.5 -80.5q-8 -24 -37 -17l-100 33q-27 15 -21 41l27 96q17 61 67 78q167 60 318 60q213 0 312 -92.5t99 -268.5v-387 q0 -114 32 -158q20 -28 60 -28q22 0 50 8l6 -68l-381 -80q-39 69 -39 175l-170 -117q-90 -58 -192 -58q-110 0 -184.5 79.5t-74.5 205.5zM336 299q0 -73 36.5 -120.5t102.5 -47.5q93 0 151 74.5t58 212.5v188q-43 -14 -66.5 -22t-59.5 -21t-56 -23t-47 -25.5t-42 -30 t-32 -34.5t-25.5 -42t-14 -49.5t-5.5 -59.5z" />
<glyph unicode="b" horiz-adv-x="1280" d="M0 1380v64q274 5 426 61l4 -4v-627q67 80 167 127.5t208 47.5q184 0 294.5 -129.5t110.5 -370.5q0 -167 -77 -299.5t-205.5 -203.5t-282.5 -71q-75 0 -177 13q-104 12 -158 18q-17 2 -38 2q-47 0 -114 -8v1245q0 135 -99 135h-59zM430 281q0 -122 33 -175 q19 -29 63.5 -46t100.5 -17q52 0 102.5 28.5t94.5 85t71 153.5t27 220q0 181 -74 288.5t-182 107.5q-65 0 -119.5 -36.5t-79.5 -94.5q-37 -81 -37 -238v-276z" />
<glyph unicode="c" horiz-adv-x="1062" d="M70 520q0 156 75 277.5t205 186.5t291 65q89 0 167.5 -17.5t125.5 -46.5l61 -147q7 -21 -8 -29l-69 -43q-28 -18 -37 -6l-103 127q-70 90 -164 90q-108 0 -187 -108t-79 -294q0 -86 19 -164t57.5 -145.5t107 -108t158.5 -40.5q53 0 105.5 16.5t78 31t69.5 43.5q3 2 4 2.5 t3 2t4 2.5l45 -72l-294 -168q-4 -1 -43 -1h-32h-20q-12 0 -50 2t-57.5 6.5t-55 11t-60 18t-56 26.5t-59 36.5t-53.5 48.5q-64 62 -106.5 172t-42.5 225z" />
<glyph unicode="d" horiz-adv-x="1320" d="M70 506q0 165 72.5 289.5t194.5 189t273 64.5q160 0 244 -35v231q0 135 -100 135h-60v64q276 5 428 61l4 -4v-1200q0 -114 32 -158q21 -28 62 -28q23 0 52 8l12 -68l-393 -80q-33 59 -37 164l-135 -96q-51 -31 -69 -41t-45.5 -18.5t-59.5 -8.5q-94 0 -174 32t-134.5 85 t-93 122.5t-56 143.5t-17.5 148zM358 555q0 -79 18 -153.5t52.5 -136t91.5 -99t129 -37.5q79 0 142 57.5t63 147.5v512q-65 127 -213 127q-137 0 -210 -115.5t-73 -302.5z" />
<glyph unicode="e" horiz-adv-x="1058" d="M70 520q0 77 17 149.5t56.5 142.5t98 122t149 83.5t201.5 31.5q192 0 294.5 -116t102.5 -310v-58h-637q0 -39 5 -80t17.5 -94.5t37.5 -100t61 -86.5t93 -63.5t128 -22.5q25 0 49 2t47 9.5t38 12t37 16.5t29.5 15.5t29 17t22.5 14.5l43 -74l-280 -156h-72q-9 0 -45 -1h-31 h-21q-16 1 -51.5 4t-60.5 12.5t-59.5 24t-69 39.5t-70.5 59q-60 55 -109.5 170t-49.5 237zM352 641h314q33 0 58.5 27t25.5 86q0 95 -51.5 159t-125.5 64q-96 0 -158.5 -81t-62.5 -255z" />
<glyph unicode="f" horiz-adv-x="796" d="M57 0v63q141 12 150 54q8 39 8 125v635h-158v104h158v141q0 59 23 111t63.5 90t83.5 65t94 48q132 65 197 69q14 1 26 1q65 0 84 -23l95 -107q4 -5 4 -10q0 -10 -13 -23l-55 -55q-12 -12 -39 2l-78 45q-10 5 -32 18t-35 20t-32.5 13.5t-35.5 6.5q-78 0 -78 -142v-270h304 v-63l-95 -41h-209v-635q0 -81 9 -125q6 -26 54 -37.5t148 -16.5v-63h-641z" />
<glyph unicode="g" horiz-adv-x="1175" d="M55 -126.5q0 3.5 0.5 12.5t2 13.5t3.5 12t5.5 12t8.5 9.5t11 8l211 94v4q-73 14 -103 59q-16 25 -16 58q0 25 10 55l207 162q-145 60 -207.5 139.5t-62.5 202.5q0 103 68.5 181.5t170 115.5t214.5 37q141 0 223 -35q220 0 366 35l23 -33l-49 -96h-219q36 -40 60 -103 t24 -135q0 -140 -125 -237t-306 -97q-50 0 -98 6q-32 -28 -38 -47q-3 -8 -3 -18q0 -14 6.5 -23.5t25 -16t35.5 -10t56 -10.5t68 -14l223 -49q121 -27 188.5 -105.5t67.5 -183.5q0 -117 -74.5 -206.5t-198 -136t-272.5 -46.5q-126 0 -240 42t-190 126t-76 192v12v13.5z M270 -195q0 -106 86.5 -168.5t225.5 -62.5q123 0 207.5 55t84.5 144q0 41 -16.5 72.5t-34.5 49.5t-59.5 34t-61.5 21t-71 16q-9 2 -13 3l-217 45q-37 -29 -61.5 -54t-47 -67.5t-22.5 -87.5zM387 737q0 -59 11 -115t34 -107t66 -81q38 -26 88 -26h10q46 2 79 27.5t49 65 t23 77.5t7 77q0 94 -22 171t-67 124q-41 43 -95 43h-9q-47 -2 -82.5 -28t-54.5 -65.5t-28 -80.5t-9 -82z" />
<glyph unicode="h" horiz-adv-x="1402" d="M57 0v63q143 12 152 54q8 39 8 125v1003q0 135 -100 135h-60v64q276 5 428 61l4 -4v-633q69 80 176 130.5t228 50.5q84 0 142 -26t90.5 -76.5t46.5 -113.5t14 -147v-444q0 -86 8 -125q9 -42 152 -54v-63h-576v63q126 13 135 54q8 39 8 125v391q0 48 -3 84.5t-13.5 76.5 t-29 65t-51.5 42t-79 17q-129 0 -188.5 -101t-59.5 -311v-264q0 -81 9 -125q9 -41 139 -54v-63h-580z" />
<glyph unicode="i" horiz-adv-x="704" d="M57 0v63q143 12 152 54q8 39 8 125v540q0 72 -36.5 94.5t-123.5 22.5v64q116 2 233 23.5t195 62.5l4 -5v-802q0 -81 9 -125q9 -42 149 -54v-63h-590zM186 1309q0 63 43.5 106t106.5 43q65 0 107 -43t42 -106q0 -61 -42 -104.5t-107 -43.5q-63 0 -106.5 42.5t-43.5 105.5z " />
<glyph unicode="j" horiz-adv-x="638" d="M41 899v64q116 2 233 23.5t193 62.5l4 -5v-1060q0 -138 -28.5 -236t-84.5 -154t-128.5 -81t-170.5 -25v51q37 6 70 41t47 92q23 102 23 248v862q0 72 -35.5 94.5t-122.5 22.5zM176 1311q0 63 43 106t105 43q66 0 108.5 -43t42.5 -106q0 -61 -42 -104.5t-107 -43.5 q-63 0 -106.5 42.5t-43.5 105.5z" />
<glyph unicode="k" horiz-adv-x="1290" d="M57 0v63q143 12 152 54q8 39 8 125v1003q0 135 -100 135h-60v64q276 5 428 61l4 -4v-893q56 3 113.5 28t112 69.5t88 77t78.5 81.5q28 29 28 50q0 20 -24 32q-45 24 -124 23h-13v55h448v-55q-93 -19 -223 -129l-234 -207q65 -74 191.5 -222t213 -246.5t130.5 -137.5v-27 h-365l-415 561h-5v-319q0 -81 9 -125q9 -42 149 -54v-63h-590z" />
<glyph unicode="l" horiz-adv-x="704" d="M57 0v63q143 12 152 54q8 39 8 125v1003q0 135 -100 135h-60v64q276 5 428 61l4 -4v-1259q0 -81 9 -125q9 -42 149 -54v-63h-590z" />
<glyph unicode="m" horiz-adv-x="2041" d="M57 0v63q143 12 152 54q8 39 8 125v540q0 72 -36.5 94.5t-123.5 22.5v64q116 2 233 23.5t195 62.5l4 -5v-167h5q59 75 161.5 123.5t221.5 48.5q55 0 95.5 -10.5t73 -35t55.5 -51.5t56 -75q65 76 164 124t217 48q81 0 138.5 -27t89 -77.5t45.5 -113.5t14 -145v-444 q0 -86 8 -125q9 -42 152 -54v-63h-576v63q126 13 135 54q8 39 8 125v391q0 45 -1.5 75t-7 66.5t-17 59.5t-29.5 44t-47 30.5t-68 9.5q-52 0 -89.5 -17t-70 -60.5t-49 -129t-16.5 -211.5v-258q0 -86 8 -125q9 -41 135 -54v-63h-559v63q127 14 136 54q8 39 8 125v391 q0 55 -2 90t-11.5 76t-27 64t-49.5 39t-78 16q-41 0 -72 -9t-61.5 -36t-50.5 -72t-32 -121t-12 -180v-258q0 -81 9 -125q9 -41 135 -54v-63h-576z" />
<glyph unicode="n" horiz-adv-x="1402" d="M57 0v63q143 12 152 54q8 39 8 125v540q0 72 -36.5 94.5t-123.5 22.5v64q116 2 233 23.5t195 62.5l4 -5v-176q69 80 176 130.5t228 50.5q84 0 142 -26t90.5 -76.5t46.5 -113.5t14 -147v-444q0 -86 8 -125q9 -42 152 -54v-63h-576v63q126 13 135 54q8 39 8 125v391 q0 48 -3 84.5t-13.5 76.5t-29 65t-51.5 42t-79 17q-129 0 -188.5 -101t-59.5 -311v-264q0 -81 9 -125q9 -41 137 -54v-63h-578z" />
<glyph unicode="o" horiz-adv-x="1251" d="M70 498q0 70 19.5 142.5t64 146.5t109.5 131.5t165 94t221 36.5q104 0 199.5 -36t170 -101t119 -165.5t44.5 -220.5q0 -154 -75 -280.5t-208 -198.5t-297 -72q-230 0 -381 148t-151 375zM358 539q0 -99 13 -178.5t36.5 -131.5t52 -89.5t62.5 -56.5t64.5 -27.5t62.5 -8.5 q36 0 69 13t65.5 45t56.5 80t38.5 123t14.5 169q0 56 -6.5 115.5t-26 130.5t-48.5 125.5t-80 91.5t-116 37q-114 0 -186 -112.5t-72 -325.5z" />
<glyph unicode="p" horiz-adv-x="1318" d="M39 -449q140 12 149 54q9 44 9 125v1052q0 72 -35.5 94.5t-122.5 22.5v64q116 2 233 23.5t193 62.5l4 -5v-170q68 80 166.5 127.5t206.5 47.5q181 0 294 -132t113 -378q0 -151 -66.5 -279t-190.5 -206.5t-279 -78.5q-138 0 -244 39v-284q0 -86 8 -125q6 -26 50.5 -37.5 t129.5 -16.5v-63h-618v63zM469 147q82 -104 203 -104q76 0 133 39.5t90.5 108t49.5 152t16 179.5q0 188 -75 296t-186 108q-64 0 -113.5 -34t-74.5 -93q-43 -94 -43 -240v-412z" />
<glyph unicode="q" horiz-adv-x="1284" d="M70 508q0 249 153.5 395t403.5 146q54 -1 168.5 -7.5t171.5 -7.5h7q56 0 152 8v-1314q0 -79 9 -123q5 -25 43.5 -37t105.5 -19v-63h-618v63q86 7 130 18.5t50 37.5q8 39 8 123v378l-131 -67q-9 -5 -32 -17.5t-29 -15.5l-22 -11t-23 -9.5t-20 -5t-24.5 -4.5t-25.5 -1 q-117 0 -211 48.5t-150.5 127t-86 170.5t-29.5 187zM358 545q0 -81 17.5 -157t51.5 -139t91 -101.5t129 -38.5q83 0 145 57.5t62 152.5v529q-62 129 -213 129q-74 0 -129.5 -35t-88.5 -96t-49 -136.5t-16 -164.5z" />
<glyph unicode="r" horiz-adv-x="872" d="M57 0v63q143 12 152 54q8 39 8 125v540q0 72 -36.5 94.5t-123.5 22.5v64q116 2 233 23.5t195 62.5l4 -5v-208h5l86 118q71 95 145 95q53 0 92 -66l66 -109q4 -8 4 -18q0 -18 -15 -41l-55 -59q-4 -7 -9 -11t-8 -6t-9 -0.5t-8.5 2.5t-10 4.5t-10.5 4.5l-98 45 q-38 20 -82 20q-93 0 -93 -287v-286q0 -81 9 -125t170 -54v-63h-611z" />
<glyph unicode="s" horiz-adv-x="870" d="M78 31v252h55q13 -99 80.5 -164.5t155.5 -65.5q80 0 123 49.5t43 114.5q0 32 -8.5 58.5t-22 47.5t-44 48.5t-60 49.5t-85.5 62q-136 95 -180.5 154.5t-44.5 148.5q0 121 102.5 192t258.5 71q147 0 282 -35v-228h-55q-22 77 -71 131t-126 54q-61 0 -97 -35.5t-36 -95.5 q0 -18 4.5 -34t18 -33.5t24.5 -30.5t38.5 -35t44 -35t57 -43t63.5 -47q117 -88 156 -156.5t39 -146.5q0 -82 -35.5 -143t-95.5 -95t-129 -50t-146 -16q-165 0 -309 56z" />
<glyph unicode="t" horiz-adv-x="804" d="M41 877v104h154v227q27 17 60.5 36.5t74 43t61.5 35.5h78v-342h311v-57l-104 -47h-207v-447v-24v-53t2.5 -53.5t8 -54.5t16 -46.5t26 -40.5t39.5 -24.5t55 -10.5q85 0 146 27l22 -76l-313 -99q-65 0 -112 14t-85 48.5t-57.5 100t-19.5 161.5v578h-156z" />
<glyph unicode="u" horiz-adv-x="1318" d="M25 899v64q114 2 231 23.5t195 62.5l4 -5v-653q0 -52 3 -88.5t13.5 -74.5t28.5 -61t50 -37.5t77 -14.5q54 0 92.5 17t69 59.5t46 121.5t15.5 197v272q0 72 -36.5 94.5t-123.5 22.5v64q116 2 233 23.5t195 62.5l4 -5v-743q0 -113 30 -157q20 -29 58 -29q21 0 47 8l13 -68 l-381 -80q-39 52 -39 152l-174 -96q-98 -56 -209 -56q-83 0 -140.5 27.5t-88 79t-43.5 113t-13 143.5v444q0 72 -36 94.5t-121 22.5z" />
<glyph unicode="v" d="M18 961v63h570v-63q-77 0 -111 -29q-21 -18 -21 -46q0 -18 9 -40l225 -549l232 522q11 27 12.5 49t-4 36.5t-18.5 25t-28.5 16.5t-38 9.5t-42 4.5t-45.5 1v63h438v-63q-28 0 -53 -11.5t-41 -25.5t-34 -41.5t-26.5 -44.5t-23.5 -50l-367 -788h-112l-355 811 q-35 77 -62 106q-43 44 -104 44z" />
<glyph unicode="w" horiz-adv-x="1779" d="M18 961v63h592v-63q-39 0 -62.5 -1.5t-49 -7t-36.5 -17.5t-18.5 -31.5t-3 -50.5t18.5 -73l145 -473h4l279 717h153l260 -729h5l155 461q21 56 21 96.5t-12 61t-39.5 32t-49.5 13.5t-55 2v63h436v-63q-70 0 -107 -33.5t-73 -134.5l-278 -793h-152l-266 731l-287 -731h-152 l-260 795q-24 85 -63 125.5t-105 40.5z" />
<glyph unicode="x" horiz-adv-x="1288" d="M49 0v63q63 0 114 32.5t111 105.5l242 299l-233 331q-42 61 -96 95.5t-111 34.5v63h545v-63q-75 -1 -83 -39l-2 -12q0 -36 42 -93l104 -162l141 172q52 62 52 95q0 39 -70 39v63h358v-63q-64 0 -115 -33t-126 -119l-189 -231l295 -398q50 -66 98 -91.5t113 -25.5v-63 h-541v63q41 0 57.5 20t5.5 56t-48 82l-142 199l-145 -182q-71 -84 -71 -128q0 -47 83 -47v-63h-389z" />
<glyph unicode="y" d="M20 961v63h572v-63q-34 0 -57 -3.5t-40 -12.5t-24 -24t-5 -39t15 -57l213 -524l226 502q16 34 16 59v8q-3 27 -14.5 45t-38 28t-54.5 14t-65 4v63h442v-63q-28 0 -51.5 -9t-37.5 -18.5t-31 -34.5t-23 -35.5t-22 -45.5t-19 -42l-543 -1179q-28 -56 -54 -82.5t-71 -26.5 h-161q-14 0 -20.5 11.5t-6.5 25.5v53q0 11 0.5 16t5.5 12.5t16 12.5l101 41q46 21 75 37.5t60.5 46.5t48.5 68l82 174l-369 827q-36 80 -68.5 114t-97.5 34z" />
<glyph unicode="z" horiz-adv-x="1040" d="M41 78l645 858h-262q-111 0 -156.5 -47t-50.5 -133h-55v268h790v-98l-608 -838h387q108 0 151 46.5t48 133.5h55v-268h-909z" />
<glyph unicode="{" horiz-adv-x="720" d="M135 543v4q92 28 124 84t32 168v395q0 80 14.5 134.5t40.5 89.5t73.5 54t102.5 26t137 7v-4q-96 -25 -133 -89t-37 -185v-396q0 -128 -32.5 -192t-132.5 -92v-4q43 -12 73.5 -32.5t48 -45t27.5 -62t13 -74.5t3 -91v-371q0 -121 38.5 -188t131.5 -85v-4 q-110 -3 -177.5 9.5t-112 51t-61.5 103t-17 170.5v361q0 120 -30 175t-126 83z" />
<glyph unicode="|" horiz-adv-x="681" d="M260 -512v2048h160v-2048h-160z" />
<glyph unicode="}" horiz-adv-x="720" d="M61 -406q93 18 131.5 85t38.5 188v371q0 54 3 91.5t13 74.5t28 61.5t48.5 45t73.5 32.5v4q-100 28 -133 92t-33 192v396q0 121 -37 185t-133 89v4q82 0 137 -7t102.5 -26t74 -53.5t41 -89.5t14.5 -135v-395q0 -112 32 -168t124 -84v-4q-96 -28 -126 -83t-30 -175v-361 q0 -106 -17 -170.5t-62 -103t-112.5 -51t-177.5 -9.5v4z" />
<glyph unicode="~" d="M111 449q66 107 129 160t157 53q72 0 228 -62q145 -63 194 -63q34 0 62 10.5t50 31.5t34.5 38t29.5 45l107 -72q-34 -51 -57.5 -81t-57.5 -61.5t-72 -46t-84 -14.5q-36 0 -74.5 10.5t-64 21.5t-67.5 32q-44 20 -70.5 30.5t-69 20.5t-82.5 10q-30 0 -57.5 -10t-44.5 -21.5 t-36.5 -35.5t-26.5 -34.5t-23 -35.5z" />
<glyph unicode="&#xa1;" horiz-adv-x="645" d="M168 895q0 63 46 108.5t108 45.5q63 0 109 -45.5t46 -108.5t-46.5 -108.5t-108.5 -45.5t-108 46.5t-46 107.5zM170 -393q42 285 113 993h77q71 -708 113 -993q7 -46 -33.5 -68t-117.5 -22t-118 22.5t-34 67.5z" />
<glyph unicode="&#xa2;" d="M143 520q0 247 160.5 393t423.5 136l31 139l106 -23l-26 -125q119 -25 168 -55l61 -147q6 -19 -8 -29l-70 -43q-28 -18 -37 -6l-92 112q-21 27 -47 48l-168 -779q59 -24 129 -24q16 0 32.5 2t30 4t29.5 7.5t26 9t26 11.5t23.5 11.5t23.5 13.5t20.5 13t21.5 13.5t19 12.5 l45 -72l-295 -168q-110 0 -164 11l-39 -176l-100 26l37 166q-116 26 -219 121q-63 62 -105.5 172t-42.5 225zM420 575q0 -111 32 -211.5t99 -162.5l162 774q-6 2 -27 2q-108 0 -187 -108t-79 -294z" />
<glyph unicode="&#xa3;" d="M25 0v66q4 3 19.5 13.5t20.5 13.5t19 14t19.5 17.5t17.5 20t17.5 24.5t15 28.5t15 36t11.5 42t10 50.5q11 64 21.5 186t24.5 205h-191v92h197l26 176q34 211 155 342t292 131q146 0 239 -33q21 -7 33 -22t21 -45l36 -119q6 -17 -12 -20l-90 -15q-18 -4 -27 8 q-12 17 -32.5 49t-33.5 50.5t-32 39t-41.5 30.5t-48.5 10q-42 0 -76 -29.5t-55 -79t-33.5 -101t-19.5 -108.5l-27 -264h287v-92h-295l-12 -129q-7 -108 -58 -231t-145 -199l4 -4q204 47 303 47q62 0 112 -15.5t76.5 -34t58 -34t60.5 -15.5q33 0 54.5 20.5t27.5 49t8.5 58.5 t-2.5 49l-10 81q-5 31 6 37l74 41q22 14 33 -6l61 -110q13 -29 -6 -84q-13 -39 -62 -94.5t-81 -80.5q-46 -31 -118 -59.5t-130 -28.5q-48 0 -134.5 19t-164 35.5t-197.5 12.5t-241 -42z" />
<glyph unicode="&#xa4;" d="M72 299l121 121q-93 121 -93 291q0 87 24 167t69 134l-121 121l112 114l123 -121q58 43 140 69t167 26q81 0 158.5 -26t130.5 -69l123 121l113 -112l-113 -115q43 -58 66.5 -139t23.5 -166q0 -86 -24.5 -163.5t-69.5 -129.5l121 -121l-111 -119l-121 121 q-56 -46 -135 -72t-164 -26q-189 0 -307 100l-121 -121zM270 713q0 -141 100.5 -239.5t241.5 -98.5q139 0 236.5 101t97.5 241q0 136 -98 235t-234 99q-143 0 -243.5 -98.5t-100.5 -239.5z" />
<glyph unicode="&#xa5;" d="M20 1370v64h584v-64q-101 0 -111 -47q-6 -29 26 -116l3 -9l2 -4l185 -500l184 496q33 100 2 140t-123 40v64h420v-64q-108 0 -154 -115l-186 -467h252v-92h-289l-47 -118v-27h336v-92h-336v-217q0 -86 8 -125q6 -26 48.5 -37.5t119.5 -16.5v-63h-643v63q80 5 124 16.5 t48 37.5q6 39 6 125v217h-336v92h336l-55 145h-281v92h246l-153 406q-67 176 -216 176z" />
<glyph unicode="&#xa6;" horiz-adv-x="681" d="M260 -358v716h160v-716h-160zM260 666v716h160v-716h-160z" />
<glyph unicode="&#xa7;" horiz-adv-x="1175" d="M88 600q0 136 113 210t268 52l35 4q-17 12 -58.5 42.5t-57.5 42.5t-49.5 38t-47 40.5t-35 39t-30 43.5t-16 43t-7.5 49q0 82 58 141.5t143.5 86t183.5 26.5q82 0 186 -15.5t125 -41.5l102 -135q7 -14 -0.5 -30t-23.5 -24l-29 -16q-29 -18 -51 0l-135 115 q-22 20 -33.5 28.5t-39.5 26.5t-60.5 26.5t-69.5 8.5q-46 0 -101 -36t-55 -85q0 -51 36 -93t111 -103q13 -10 19 -15l219 -156q299 -196 299 -372q0 -131 -116 -199.5t-273 -42.5l-14 -4q129 -93 162 -122q107 -93 116 -195q1 -11 1 -23q0 -69 -45 -127t-121 -94 q-57 -27 -120 -35t-167 -8q-60 0 -151.5 17t-157.5 38l-72 123q-6 19 1.5 34t16 21t23.5 13l12 12q46 40 80 4l105 -115q102 -90 198 -90q73 0 132 35.5t59 95.5q0 32 -14 63t-33 55t-54 54.5t-61.5 49.5t-71.5 50.5t-69 49.5q-29 22 -80.5 57.5t-84.5 58.5t-75 59t-66.5 67 t-41.5 72.5t-17 84.5zM285 670q0 -86 141 -195q2 -1 21 -16t24.5 -19t24.5 -18t29 -19t28.5 -16t33 -15.5t33 -10.5t37 -8.5t37.5 -2.5q92 0 137.5 37.5t45.5 104.5q0 25 -13 51t-41 55t-43.5 43t-46.5 41q-29 25 -52 42t-59 38.5t-76.5 33t-82.5 11.5q-66 0 -122 -40.5 t-56 -96.5z" />
<glyph unicode="&#xa8;" horiz-adv-x="948" d="M135 1278q0 43 35.5 79t79.5 36q47 0 82 -34.5t35 -80.5q0 -47 -35 -82t-82 -35q-46 0 -80.5 35.5t-34.5 81.5zM582 1278q0 43 35 79t79 36q47 0 82 -34.5t35 -80.5q0 -47 -35 -82t-82 -35q-45 0 -79.5 35.5t-34.5 81.5z" />
<glyph unicode="&#xa9;" horiz-adv-x="1556" d="M37 717q0 200 99.5 370.5t270.5 270.5t371 100q150 0 287.5 -59t237 -158t158.5 -236.5t59 -287.5t-59 -287.5t-158.5 -237t-237 -158.5t-287.5 -59t-287.5 59t-236.5 158.5t-158 237t-59 287.5zM158 717q0 -165 84.5 -308.5t227.5 -228t308 -84.5q124 0 238.5 50 t198.5 134t134 198.5t50 238.5q0 165 -84.5 308t-228 227.5t-308.5 84.5q-124 0 -238.5 -50.5t-198 -134t-133.5 -198t-50 -237.5zM340 758q0 53 17.5 106.5t56.5 105t93.5 91t135.5 63.5t176 23q22 0 42.5 -1t35.5 -2t33.5 -4.5t27.5 -5t27 -6.5t22.5 -6t24 -7t21.5 -7 q47 -14 47 -45v-150h-72q-10 71 -60.5 118.5t-136.5 47.5q-126 0 -190 -93t-66 -234q-1 -94 22 -167t63 -116t88.5 -64.5t101.5 -21.5q146 0 211 143l76 -2l-37 -143q0 -4 -0.5 -8t-3 -7t-3.5 -5.5t-5.5 -4.5t-6.5 -3.5t-8 -3.5t-8.5 -3t-10 -3t-10.5 -3q-106 -33 -237 -33 q-94 0 -177 28t-148.5 82.5t-103.5 142t-38 198.5z" />
<glyph unicode="&#xaa;" horiz-adv-x="833" d="M72 985q0 43 14 74.5t45.5 54t64.5 37t89 33.5l190 59q0 79 -28.5 125.5t-84.5 46.5q-48 0 -79.5 -35t-61.5 -96q-8 -13 -26 -10l-50 14q-18 7 -14 25l16 57q10 27 17.5 38t21.5 15q100 35 199 35q141 0 213 -55t72 -158v-233q0 -67 19 -93.5t67 -13.5l8 -45l-264 -45 q-23 38 -23 103l-112 -68q-58 -35 -125 -35q-71 0 -119.5 47t-48.5 123zM264 1014q0 -46 21.5 -72.5t62.5 -26.5q58 0 93.5 43t35.5 123v113q-49 -15 -73 -24t-56.5 -25t-47 -32t-25.5 -41t-11 -58z" />
<glyph unicode="&#xab;" horiz-adv-x="1024" d="M104 487l332 312q4 3 13 12t16 15.5t15.5 13.5t16 10.5t13.5 3.5q20 0 20 -27q0 -29 -83 -160t-125 -180q42 -54 125 -181.5t88 -155.5q0 -29 -23 -29q-5 0 -10.5 2t-11.5 6t-11 8t-13 11.5t-12.5 12l-13 13l-12.5 12.5zM487 487l332 312q4 3 13 12t16 15.5t15.5 13.5 t16 10.5t13.5 3.5q20 0 20 -27q0 -29 -83 -160t-125 -180q42 -54 125 -181.5t88 -155.5q0 -29 -23 -29q-5 0 -10.5 2t-11.5 6t-11 8t-13 11.5t-12.5 12l-13 13l-12.5 12.5z" />
<glyph unicode="&#xac;" d="M90 637v160h1032v-568h-159v408h-873z" />
<glyph unicode="&#xad;" horiz-adv-x="688" d="M86 399v176h510v-176h-510z" />
<glyph unicode="&#xae;" horiz-adv-x="1556" d="M37 717q0 200 99.5 370.5t270.5 270.5t371 100q150 0 287.5 -59t237 -158t158.5 -236.5t59 -287.5t-59 -287.5t-158.5 -237t-237 -158.5t-287.5 -59t-287.5 59t-236.5 158.5t-158 237t-59 287.5zM158 717q0 -165 84.5 -308.5t227.5 -228t308 -84.5q124 0 238.5 50 t198.5 134t134 198.5t50 238.5q0 165 -84.5 308t-228 227.5t-308.5 84.5q-124 0 -238.5 -50.5t-198 -134t-133.5 -198t-50 -237.5zM416 348v35q5 1 15 2l15 1.5t13.5 2t13 2.5t11 2.5t9.5 3.5t7 4.5t5.5 5.5t2.5 7q4 29 4 84v493q0 55 -4 84q-1 4 -2.5 7t-5.5 5.5t-7 4.5 t-9.5 3.5t-11 2.5t-13 2.5t-13.5 2l-15 1.5t-15 2v35h413q71 0 136 -19t112 -63.5t47 -106.5q0 -84 -47.5 -143t-120.5 -86l111 -168q112 -164 135 -186v-21h-170q-20 0 -36.5 12t-37.5 44t-39.5 66.5t-55 101t-72.5 126.5h-80v-200q0 -55 4 -84q1 -4 2.5 -7t5.5 -5.5 t7 -4.5t9.5 -3.5t11 -2.5t13 -2.5t13.5 -2l15 -1.5t15 -2v-35h-391zM711 756h34q91 0 139 34.5t48 133.5q0 157 -150 157h-39q-8 0 -13.5 -2t-9 -7.5t-5.5 -9.5t-3 -13.5t-1 -13v-14.5v-13v-252z" />
<glyph unicode="&#xaf;" horiz-adv-x="1062" d="M129 1253v140h805v-140h-805z" />
<glyph unicode="&#xb0;" horiz-adv-x="757" d="M84 1210q0 119 87.5 207t207.5 88t206.5 -87.5t86.5 -207.5t-86.5 -206t-206.5 -86t-207.5 86t-87.5 206zM197 1210q0 -73 55.5 -126.5t126.5 -53.5t125.5 55t54.5 125q0 71 -53.5 127t-126.5 56t-127.5 -54.5t-54.5 -128.5z" />
<glyph unicode="&#xb1;" d="M90 0v160h1032v-160h-1032zM90 674v160h436v438h160v-438h436v-160h-436v-438h-160v438h-436z" />
<glyph unicode="&#xb2;" horiz-adv-x="833" d="M82 584v94q18 20 46 44.5t67 56t61 50.5q56 49 92 83.5t81 86t68 103t23 100.5q0 41 -15.5 72t-40 47t-48.5 23.5t-47 7.5q-65 0 -118 -39t-69 -125h-55v133q50 64 130 100.5t175 36.5q139 0 222 -59t83 -158q0 -40 -19 -82.5t-43.5 -75t-67 -71.5t-70 -60.5t-72.5 -54.5 q-64 -48 -246 -178v-4h311q77 0 122 20t67 70h55l-84 -221h-608z" />
<glyph unicode="&#xb3;" horiz-adv-x="833" d="M96 737q-6 14 6 23l41 26q24 21 33 9l74 -95q60 -82 139 -82q66 0 115 56t49 145q0 32 -6.5 58.5t-16.5 45.5t-27 34t-32.5 24.5t-38 16.5t-38 10t-40 5t-36 2t-32.5 -0.5t-24 -0.5v57q244 9 244 193q0 69 -40 107t-91 38q-106 0 -160 -133l-57 20v105q105 57 254 57 q65 0 118.5 -9t99.5 -28.5t72.5 -55t28.5 -85.5q1 -90 -67 -147t-189 -76v-4q138 -11 219 -70.5t84 -159.5q1 -119 -112 -185.5t-285 -68.5q-74 1 -144 20.5t-96 37.5z" />
<glyph unicode="&#xb4;" horiz-adv-x="796" d="M131 1171l297 302q84 92 150 92q36 0 61 -25t25 -67q0 -24 -21 -48t-43.5 -39t-60.5 -36l-314 -179h-94z" />
<glyph unicode="&#xb5;" horiz-adv-x="1327" d="M25 899v64q114 2 231 23.5t195 62.5l4 -5v-628q0 -60 3 -100.5t13 -81.5t28.5 -65t50.5 -39t77 -15q54 0 92.5 17t69 59.5t46 121.5t15.5 197v272q0 72 -36.5 94.5t-123.5 22.5v64q116 2 233 23.5t195 62.5l4 -5v-743q0 -113 30.5 -157.5t104.5 -20.5l13 -68l-381 -80 q-39 52 -39 148l-150 -80q-45 -25 -106 -46.5t-88 -21.5q-34 0 -82 18t-68 44q-14 -34 -14 -100q0 -18 12 -76l109 -232q34 -84 -41 -98l-197 -43q-43 96 -43 197v1097q0 72 -36 94.5t-121 22.5z" />
<glyph unicode="&#xb6;" horiz-adv-x="1251" d="M61 1028q0 213 109.5 309.5t345.5 96.5h649v-64q-9 -1 -30.5 -4t-32 -4.5t-28 -4.5t-27 -6.5t-20 -9t-16 -12.5t-7.5 -16q-11 -56 -11 -150v-1239q0 -93 11 -149q1 -7 5 -13t10.5 -10.5t13.5 -8.5t18 -7t19.5 -5t22.5 -4t23 -3.5t25 -3.5l24 -3v-63h-348v1694h-108v-1694 h-347v63l24 3t24.5 3.5t23 3.5t23 4t19.5 5t18 7t13.5 8.5t10.5 10.5t6 13q8 51 8 149v651q-120 -1 -211 31t-147.5 93t-84.5 143.5t-28 185.5zM307 1024q0 -97 20 -168.5t53.5 -110.5t71.5 -57t80 -18v678q-57 0 -94 -11t-69 -43.5t-47 -99t-15 -170.5z" />
<glyph unicode="&#xb7;" horiz-adv-x="606" d="M147 520q0 62 47 108t109 46q61 0 107.5 -46t46.5 -108q0 -60 -46 -106.5t-106 -46.5q-63 0 -110.5 45t-47.5 108z" />
<glyph unicode="&#xb8;" horiz-adv-x="872" d="M221 -408l29 64q67 -23 121 -23q106 0 106 86q0 34 -18.5 53t-44.5 21q-34 5 -86 -6l-15 10l97 223h82l-66 -153q27 6 59 6q67 0 115.5 -36t48.5 -105q0 -79 -80 -125.5t-184 -46.5q-73 0 -164 32z" />
<glyph unicode="&#xb9;" horiz-adv-x="833" d="M117 1339l415 119v-690q0 -59 9 -96q3 -19 33 -25.5t105 -12.5q13 0 19 -1v-49h-534v49q116 9 137 18q18 8 21 21q6 33 6 96v508q0 24 -12 36t-35 12t-41.5 -3.5t-44.5 -11.5l-62 -21z" />
<glyph unicode="&#xba;" horiz-adv-x="833" d="M57 1126q0 42 12.5 86t42 88.5t72 79t107.5 56.5t143 22q148 0 245 -84.5t97 -222.5q0 -151 -108 -243.5t-262 -92.5q-151 0 -250 87.5t-99 223.5zM258 1153q0 -70 12 -124.5t30.5 -86t43 -51.5t46.5 -26.5t44 -6.5q62 0 101.5 68t39.5 196q0 47 -7 93t-23 93.5t-50 77 t-81 29.5q-69 0 -112.5 -67.5t-43.5 -194.5z" />
<glyph unicode="&#xbb;" horiz-adv-x="1024" d="M104 825q0 29 25 29q4 0 9 -2t11 -6t11.5 -8.5t13 -11.5t12 -12t13 -13.5l12.5 -12.5l324 -301l-332 -311q-4 -3 -13 -12t-16 -15.5t-15.5 -13.5t-16 -10.5t-13.5 -3.5q-20 0 -20 26q0 29 83 160t125 180q-39 51 -122.5 180t-90.5 158zM487 825q0 29 25 29q4 0 9 -2 t11 -6t11.5 -8.5t13 -11.5t12 -12t13 -13.5l12.5 -12.5l324 -301l-332 -311q-4 -3 -13 -12t-16 -15.5t-15.5 -13.5t-16 -10.5t-13.5 -3.5q-20 0 -20 26q0 29 83 160t125 180q-39 51 -122.5 180t-90.5 158z" />
<glyph unicode="&#xbc;" horiz-adv-x="1857" d="M84 1339l416 119v-690q0 -63 8 -96q4 -27 139 -37q12 -1 19 -2v-49h-535v49q116 9 137 18q18 8 21 21q6 33 6 96v508q0 24 -12 36t-35 12t-41.5 -3.5t-44.5 -11.5l-62 -21zM449 0l856 1434h141l-854 -1434h-143zM1001 305q36 64 187 254.5t244 300.5h182v-498h125v-114 h-125v-70q0 -61 6 -92q4 -24 72 -32q14 -2 44 -5h1h1h1v-49h-492v49q86 5 119.5 11.5t36.5 25.5q6 31 6 92v70h-387zM1124 362h285v367q-115 -107 -285 -367z" />
<glyph unicode="&#xbd;" horiz-adv-x="1857" d="M45 1339l416 119v-690q0 -63 8 -96q4 -27 139 -37q12 -1 19 -2v-49h-535v49q116 9 137 18q18 8 21 21q6 33 6 96v508q0 24 -12 36t-35 12t-41.5 -3.5t-44.5 -11.5l-62 -21zM410 0l856 1434h141l-854 -1434h-143zM1087 0v94q18 20 46.5 44.5t67.5 56.5t61 51 q57 50 92 83.5t80.5 85.5t68.5 103t23 100q0 41 -15.5 72t-40 47t-49 23.5t-47.5 7.5q-65 0 -117.5 -39t-68.5 -125h-55v133q50 64 130 100.5t175 36.5q139 0 222 -59t83 -158q0 -40 -19 -82.5t-43.5 -75t-68 -71.5t-70.5 -60t-72 -55q-84 -63 -245 -178v-4h311 q77 0 121.5 19.5t66.5 70.5h56l-84 -221h-609z" />
<glyph unicode="&#xbe;" horiz-adv-x="1781" d="M72 737q-6 14 6 23l41 26q24 21 33 9l73 -97q62 -80 140 -80q66 0 114.5 55.5t48.5 145.5q0 35 -7 64t-22 49t-30.5 35t-39.5 23.5t-41.5 14t-45 7.5t-40 2.5t-37 0t-27.5 -0.5v59q243 9 243 191q0 69 -40 107t-91 38q-106 0 -160 -133l-57 20v105q105 57 254 57 q65 0 119 -9t99.5 -28.5t72.5 -55.5t29 -85q1 -90 -67 -146t-189 -75v-4q137 -11 218.5 -72t84.5 -160q1 -119 -112.5 -185.5t-285.5 -68.5q-74 1 -143.5 20.5t-95.5 37.5zM455 0l856 1434h141l-854 -1434h-143zM971 305q37 64 187.5 255.5t242.5 299.5h184v-498h125v-114 h-125v-70q0 -61 6 -92q4 -24 72 -32q14 -2 44 -5h1h1h1v-49h-493v49q86 5 119 11.5t36 25.5q6 31 6 92v70h-387zM1094 362h284v367q-112 -104 -284 -367z" />
<glyph unicode="&#xbf;" horiz-adv-x="985" d="M100 -133q0 32 7.5 64t15.5 55.5t29 55.5t32 48t41.5 48t40 41.5t45.5 43.5t41 39q87 83 116 148t32 170h129q6 -112 -16.5 -196t-100.5 -212q-113 -196 -113 -332q0 -91 42.5 -170.5t109.5 -79.5q14 0 28 4.5t24.5 10t24 17t19.5 17.5l19.5 19.5l15.5 15.5l88 90 q22 15 49 -2l49 -30q9 -6 13 -17t0 -22l-70 -125q-30 -20 -115.5 -35.5t-160.5 -15.5q-191 0 -313 94t-122 256zM408 895q0 61 45.5 107.5t105.5 46.5q63 0 110.5 -45.5t47.5 -108.5q0 -62 -47 -108t-109 -46t-107.5 45.5t-45.5 108.5z" />
<glyph unicode="&#xc0;" horiz-adv-x="1478" d="M18 0v63q49 0 98 31t81 94q21 44 60.5 140.5t99 250.5t105.5 274t122.5 322t107.5 283h133q316 -870 447 -1208q70 -187 190 -187v-63h-571v63q154 0 98 154l-84 240h-499l-82 -244q-22 -67 1.5 -108.5t92.5 -41.5v-63h-400zM412 1841q0 42 25 67t61 25q65 0 149 -92 l297 -301h-94l-313 178q-38 21 -60.5 36t-43.5 39t-21 48zM442 549h428l-202 598h-4z" />
<glyph unicode="&#xc1;" horiz-adv-x="1478" d="M18 0v63q49 0 98 31t81 94q21 44 60.5 140.5t99 250.5t105.5 274t122.5 322t107.5 283h133q316 -870 447 -1208q70 -187 190 -187v-63h-571v63q154 0 98 154l-84 240h-499l-82 -244q-22 -67 1.5 -108.5t92.5 -41.5v-63h-400zM442 549h428l-202 598h-4zM494 1540l297 301 q84 92 149 92q36 0 61 -25t25 -67q0 -24 -21 -48t-43.5 -39t-60.5 -36l-313 -178h-94z" />
<glyph unicode="&#xc2;" horiz-adv-x="1478" d="M18 0v63q49 0 98 31t81 94q21 44 60.5 140.5t99 250.5t105.5 274t122.5 322t107.5 283h133q316 -870 447 -1208q70 -187 190 -187v-63h-571v63q154 0 98 154l-84 240h-499l-82 -244q-22 -67 1.5 -108.5t92.5 -41.5v-63h-400zM371 1540l295 342h147l295 -342h-94l-275 205 l-278 -205h-90zM442 549h428l-202 598h-4z" />
<glyph unicode="&#xc3;" horiz-adv-x="1478" d="M18 0v63q49 0 98 31t81 94q21 44 60.5 140.5t99 250.5t105.5 274t122.5 322t107.5 283h133q316 -870 447 -1208q70 -187 190 -187v-63h-571v63q154 0 98 154l-84 240h-499l-82 -244q-22 -67 1.5 -108.5t92.5 -41.5v-63h-400zM348 1540q25 107 88 173.5t158 66.5 q28 0 58.5 -9t46 -16.5t49.5 -25.5q5 -3 33.5 -19.5t40 -21.5t36 -12t49.5 -7q57 0 99 37t55 86h69q-9 -100 -80.5 -176t-166.5 -76q-44 0 -80.5 9t-55.5 19t-45 27q-31 20 -43 27.5t-42.5 17t-63.5 9.5q-45 0 -84.5 -33.5t-50.5 -75.5h-70zM442 549h428l-202 598h-4z" />
<glyph unicode="&#xc4;" horiz-adv-x="1478" d="M18 0v63q49 0 98 31t81 94q21 44 60.5 140.5t99 250.5t105.5 274t122.5 322t107.5 283h133q316 -870 447 -1208q70 -187 190 -187v-63h-571v63q154 0 98 154l-84 240h-499l-82 -244q-22 -67 1.5 -108.5t92.5 -41.5v-63h-400zM401 1688q0 43 35.5 78.5t79.5 35.5 q47 0 82 -34t35 -80q0 -47 -35 -82t-82 -35q-46 0 -80.5 35.5t-34.5 81.5zM442 549h428l-202 598h-4zM848 1688q0 43 35.5 78.5t79.5 35.5q47 0 81.5 -34t34.5 -80q0 -47 -34.5 -82t-81.5 -35q-46 0 -80.5 35.5t-34.5 81.5z" />
<glyph unicode="&#xc5;" horiz-adv-x="1478" d="M18 0v63q49 0 98 31t81 94q21 44 60.5 140.5t99 250.5t105.5 274t122.5 322t107.5 283h133q316 -870 447 -1208q70 -187 190 -187v-63h-571v63q154 0 98 154l-84 240h-499l-82 -244q-22 -67 1.5 -108.5t92.5 -41.5v-63h-400zM442 549h428l-202 598h-4zM535 1712 q0 82 61.5 143.5t144.5 61.5t143 -61t60 -144t-60 -143t-145 -60q-82 0 -143 60t-61 143zM629 1712q0 -43 33.5 -75.5t76.5 -32.5t77 33t34 75q0 43 -33.5 77t-77.5 34q-45 0 -77.5 -32.5t-32.5 -78.5z" />
<glyph unicode="&#xc6;" horiz-adv-x="1994" d="M20 0v63q47 0 95 31t84 94l585 1002q25 41 36 70t9 54t-25 38.5t-69 17.5v64h1053v-330h-55q-13 59 -28.5 101t-41 79t-64 55.5t-90.5 18.5h-260v-574h170q93 0 139 52.5t46 142.5h55v-475h-55q-7 205 -185 205h-170v-465q0 -46 10 -77t26.5 -49.5t50 -27.5t67 -11.5 t90.5 -2.5q90 0 149.5 15.5t102 59.5t62.5 77.5t58 115.5q9 18 13 27h55l-61 -371h-1090v63q78 5 121 16.5t49 37.5q9 44 9 125v223h-494l-141 -252q-34 -57 -5 -103.5t99 -46.5v-63h-400zM516 557h445v754h-5z" />
<glyph unicode="&#xc7;" horiz-adv-x="1517" d="M90 725q0 81 20.5 164t61 166t109 155t157 128t212 88t268.5 32q88 0 167.5 -12.5t110 -21.5t107.5 -35q79 -25 79 -80v-265h-55q-11 51 -29.5 97t-52 93t-78 80.5t-110.5 55t-146 21.5q-121 0 -217 -49.5t-158 -137.5t-94.5 -205.5t-33.5 -257.5q-1 -151 29 -276 t91.5 -220.5t163 -148.5t234.5 -53q85 0 159.5 27.5t130.5 76.5t98 107t75 129h55l-58 -266q-2 -20 -14.5 -33.5t-27 -19.5t-46.5 -17q-8 -3 -12 -4q-196 -68 -395 -68q-38 0 -92 7l-49 -115q27 6 59 6q67 0 115.5 -36t48.5 -105q0 -79 -80 -125.5t-184 -46.5q-73 0 -164 32 l28 64q67 -23 121 -23q107 0 107 86q0 33 -18.5 52.5t-45.5 21.5q-34 5 -86 -6l-14 10l84 195q-141 18 -255 71.5t-198.5 142t-131 221t-46.5 298.5z" />
<glyph unicode="&#xc8;" horiz-adv-x="1290" d="M78 0v63q78 5 121 16.5t49 37.5q8 39 8 125v950q0 86 -8 125q-5 25 -48 36.5t-122 16.5v64h1005v-330h-55q-13 60 -28.5 102t-40.5 78.5t-63.5 55t-90.5 18.5h-260v-574h170q93 0 138.5 52.5t45.5 144.5h55v-477h-55q-7 205 -184 205h-170v-465q0 -47 10 -77.5t26.5 -49 t49.5 -27.5t66.5 -11.5t90.5 -2.5q61 0 108 7.5t82 26t60 38t48 54.5t38 64.5t38 78.5q8 17 12 26h55l-62 -371h-1089zM358 1841q0 42 25 67t61 25q66 0 150 -92l297 -301h-94l-314 178q-38 21 -60.5 36t-43.5 39t-21 48z" />
<glyph unicode="&#xc9;" horiz-adv-x="1290" d="M78 0v63q78 5 121 16.5t49 37.5q8 39 8 125v950q0 86 -8 125q-5 25 -48 36.5t-122 16.5v64h1005v-330h-55q-13 60 -28.5 102t-40.5 78.5t-63.5 55t-90.5 18.5h-260v-574h170q93 0 138.5 52.5t45.5 144.5h55v-477h-55q-7 205 -184 205h-170v-465q0 -47 10 -77.5t26.5 -49 t49.5 -27.5t66.5 -11.5t90.5 -2.5q61 0 108 7.5t82 26t60 38t48 54.5t38 64.5t38 78.5q8 17 12 26h55l-62 -371h-1089zM399 1540l297 301q84 92 150 92q36 0 61 -25t25 -67q0 -24 -21 -48t-43.5 -39t-60.5 -36l-313 -178h-95z" />
<glyph unicode="&#xca;" horiz-adv-x="1290" d="M78 0v63q78 5 121 16.5t49 37.5q8 39 8 125v950q0 86 -8 125q-5 25 -48 36.5t-122 16.5v64h1005v-330h-55q-13 60 -28.5 102t-40.5 78.5t-63.5 55t-90.5 18.5h-260v-574h170q93 0 138.5 52.5t45.5 144.5h55v-477h-55q-7 205 -184 205h-170v-465q0 -47 10 -77.5t26.5 -49 t49.5 -27.5t66.5 -11.5t90.5 -2.5q61 0 108 7.5t82 26t60 38t48 54.5t38 64.5t38 78.5q8 17 12 26h55l-62 -371h-1089zM276 1540l295 342h148l295 -342h-94l-275 205l-278 -205h-91z" />
<glyph unicode="&#xcb;" horiz-adv-x="1290" d="M78 0v63q78 5 121 16.5t49 37.5q8 39 8 125v950q0 86 -8 125q-5 25 -48 36.5t-122 16.5v64h1005v-330h-55q-13 60 -28.5 102t-40.5 78.5t-63.5 55t-90.5 18.5h-260v-574h170q93 0 138.5 52.5t45.5 144.5h55v-477h-55q-7 205 -184 205h-170v-465q0 -47 10 -77.5t26.5 -49 t49.5 -27.5t66.5 -11.5t90.5 -2.5q61 0 108 7.5t82 26t60 38t48 54.5t38 64.5t38 78.5q8 17 12 26h55l-62 -371h-1089zM307 1688q0 43 35.5 78.5t79.5 35.5q47 0 82 -34t35 -80q0 -47 -35 -82t-82 -35q-46 0 -80.5 35.5t-34.5 81.5zM754 1688q0 43 35 78.5t79 35.5 q47 0 82 -34t35 -80q0 -47 -35 -82t-82 -35q-45 0 -79.5 35.5t-34.5 81.5z" />
<glyph unicode="&#xcc;" horiz-adv-x="800" d="M78 0v63q161 10 170 54q8 39 8 125v950q0 86 -8 125q-6 26 -48 37t-122 16v64h645v-64q-80 -5 -122 -16t-48 -37q-8 -39 -8 -125v-950q0 -86 8 -125q9 -44 170 -54v-63h-645zM113 1841q0 42 25 67t61 25q65 0 149 -92l297 -301h-94l-313 178q-38 21 -60.5 36t-43.5 39 t-21 48z" />
<glyph unicode="&#xcd;" horiz-adv-x="800" d="M78 0v63q161 10 170 54q8 39 8 125v950q0 86 -8 125q-6 26 -48 37t-122 16v64h645v-64q-80 -5 -122 -16t-48 -37q-8 -39 -8 -125v-950q0 -86 8 -125q9 -44 170 -54v-63h-645zM154 1540l297 301q84 92 149 92q36 0 61 -25t25 -67q0 -24 -21 -48t-43.5 -39t-60.5 -36 l-313 -178h-94z" />
<glyph unicode="&#xce;" horiz-adv-x="800" d="M31 1540l295 342h147l295 -342h-94l-275 205l-278 -205h-90zM78 0v63q161 10 170 54q8 39 8 125v950q0 86 -8 125q-6 26 -48 37t-122 16v64h645v-64q-80 -5 -122 -16t-48 -37q-8 -39 -8 -125v-950q0 -86 8 -125q9 -44 170 -54v-63h-645z" />
<glyph unicode="&#xcf;" horiz-adv-x="800" d="M61 1688q0 43 35.5 78.5t79.5 35.5q47 0 82 -34t35 -80q0 -47 -35 -82t-82 -35q-46 0 -80.5 35.5t-34.5 81.5zM78 0v63q161 10 170 54q8 39 8 125v950q0 86 -8 125q-6 26 -48 37t-122 16v64h645v-64q-80 -5 -122 -16t-48 -37q-8 -39 -8 -125v-950q0 -86 8 -125 q9 -44 170 -54v-63h-645zM508 1688q0 43 35.5 78.5t79.5 35.5q47 0 81.5 -34t34.5 -80q0 -47 -34.5 -82t-81.5 -35q-46 0 -80.5 35.5t-34.5 81.5z" />
<glyph unicode="&#xd0;" horiz-adv-x="1662" d="M20 713v108h236v371q0 86 -8 125q-6 26 -48 37t-122 16v64h747q349 0 548.5 -180t199.5 -496q0 -179 -63.5 -324t-175 -239t-261.5 -144.5t-325 -50.5h-670v63q161 10 170 54q8 39 8 125v471h-236zM545 293q0 -55 2.5 -90t11.5 -62t19.5 -40t35 -21t49.5 -10t70 -2 q90 0 167 21.5t145 72.5t115 128.5t74.5 196t27.5 269.5q0 294 -145 452t-423 158h-149v-545h364v-108h-364v-420z" />
<glyph unicode="&#xd1;" horiz-adv-x="1630" d="M2 1370v64h477q245 -317 840 -1053h4v752q0 18 -12 135q-5 52 -53 75t-166 27v64h516v-64q-83 -5 -125 -28.5t-49 -73.5q-11 -72 -11 -135v-1133h-159q-492 630 -897 1120h-5v-819q0 -63 11 -135q8 -52 57 -75.5t166 -27.5v-63h-518v63q85 5 126.5 29t47.5 74 q10 65 10 135v905q-99 164 -260 164zM424 1540q25 107 88 173.5t158 66.5q28 0 58.5 -9t45 -16t49.5 -26q8 -5 27.5 -16.5t30.5 -17t28.5 -13t35.5 -10.5t38 -3q57 0 99 37t55 86h69q-9 -100 -80.5 -176t-167.5 -76q-44 0 -80.5 9t-54.5 18.5t-45 27.5q-31 20 -43 27.5 t-42.5 17t-63.5 9.5q-45 0 -84.5 -33.5t-50.5 -75.5h-70z" />
<glyph unicode="&#xd2;" horiz-adv-x="1669" d="M90 707q0 205 102 377.5t281 273t395 100.5q154 0 288.5 -59.5t226 -157.5t144 -225t52.5 -262q0 -172 -65 -320t-173.5 -247.5t-250 -155.5t-295.5 -56q-101 0 -201 29.5t-191 91t-160.5 146.5t-111 205.5t-41.5 259.5zM408 793q0 -176 36 -319.5t97.5 -235t140 -140.5 t166.5 -49q205 0 309.5 175t104.5 472q0 139 -25.5 255t-69 195t-102 133.5t-122 79.5t-130.5 25q-194 0 -299.5 -162t-105.5 -429zM547 1841q0 42 25 67t61 25q65 0 149 -92l297 -301h-94l-313 178q-38 21 -60.5 36t-43.5 39t-21 48z" />
<glyph unicode="&#xd3;" horiz-adv-x="1669" d="M90 707q0 205 102 377.5t281 273t395 100.5q154 0 288.5 -59.5t226 -157.5t144 -225t52.5 -262q0 -172 -65 -320t-173.5 -247.5t-250 -155.5t-295.5 -56q-101 0 -201 29.5t-191 91t-160.5 146.5t-111 205.5t-41.5 259.5zM408 793q0 -176 36 -319.5t97.5 -235t140 -140.5 t166.5 -49q205 0 309.5 175t104.5 472q0 139 -25.5 255t-69 195t-102 133.5t-122 79.5t-130.5 25q-194 0 -299.5 -162t-105.5 -429zM588 1540l297 301q84 92 149 92q36 0 61 -25t25 -67q0 -24 -21 -48t-43.5 -39t-60.5 -36l-313 -178h-94z" />
<glyph unicode="&#xd4;" horiz-adv-x="1669" d="M90 707q0 205 102 377.5t281 273t395 100.5q154 0 288.5 -59.5t226 -157.5t144 -225t52.5 -262q0 -172 -65 -320t-173.5 -247.5t-250 -155.5t-295.5 -56q-101 0 -201 29.5t-191 91t-160.5 146.5t-111 205.5t-41.5 259.5zM408 793q0 -176 36 -319.5t97.5 -235t140 -140.5 t166.5 -49q205 0 309.5 175t104.5 472q0 139 -25.5 255t-69 195t-102 133.5t-122 79.5t-130.5 25q-194 0 -299.5 -162t-105.5 -429zM465 1540l295 342h147l295 -342h-94l-274 205l-279 -205h-90z" />
<glyph unicode="&#xd5;" horiz-adv-x="1669" d="M90 707q0 205 102 377.5t281 273t395 100.5q154 0 288.5 -59.5t226 -157.5t144 -225t52.5 -262q0 -172 -65 -320t-173.5 -247.5t-250 -155.5t-295.5 -56q-101 0 -201 29.5t-191 91t-160.5 146.5t-111 205.5t-41.5 259.5zM408 793q0 -176 36 -319.5t97.5 -235t140 -140.5 t166.5 -49q205 0 309.5 175t104.5 472q0 139 -25.5 255t-69 195t-102 133.5t-122 79.5t-130.5 25q-194 0 -299.5 -162t-105.5 -429zM442 1540q25 107 88 173.5t158 66.5q28 0 58.5 -9t46 -16.5t49.5 -25.5q5 -3 33.5 -19.5t40 -21.5t36 -12t49.5 -7q57 0 99 37t55 86h70 q-9 -100 -80.5 -176t-167.5 -76q-44 0 -80.5 9t-54.5 18.5t-45 27.5q-30 20 -43 27.5t-43 17t-64 9.5q-45 0 -84.5 -33.5t-50.5 -75.5h-70z" />
<glyph unicode="&#xd6;" horiz-adv-x="1669" d="M90 707q0 205 102 377.5t281 273t395 100.5q154 0 288.5 -59.5t226 -157.5t144 -225t52.5 -262q0 -172 -65 -320t-173.5 -247.5t-250 -155.5t-295.5 -56q-101 0 -201 29.5t-191 91t-160.5 146.5t-111 205.5t-41.5 259.5zM408 793q0 -176 36 -319.5t97.5 -235t140 -140.5 t166.5 -49q205 0 309.5 175t104.5 472q0 139 -25.5 255t-69 195t-102 133.5t-122 79.5t-130.5 25q-194 0 -299.5 -162t-105.5 -429zM496 1688q0 43 35 78.5t79 35.5q47 0 82 -34t35 -80q0 -47 -35 -82t-82 -35q-45 0 -79.5 35.5t-34.5 81.5zM942 1688q0 43 35.5 78.5 t79.5 35.5q47 0 82 -34t35 -80q0 -47 -35 -82t-82 -35q-46 0 -80.5 35.5t-34.5 81.5z" />
<glyph unicode="&#xd7;" d="M172 195l322 323l-322 324l111 112l323 -323l328 323l110 -112l-325 -324l325 -323l-110 -113l-328 324l-323 -324z" />
<glyph unicode="&#xd8;" horiz-adv-x="1669" d="M90 707q0 205 102 377.5t281.5 273t396.5 100.5q250 0 439 -149l155 168l86 -70l-164 -172q93 -97 143 -223t50 -258q0 -172 -65 -320t-173.5 -247.5t-250 -155.5t-295.5 -56q-116 0 -233.5 40.5t-211.5 117.5l-170 -186l-80 76l174 184q-184 200 -184 500zM408 793 q0 -220 65 -385l684 741q-61 117 -151.5 176t-190.5 59q-130 0 -223 -76t-138.5 -208t-45.5 -307zM516 297q60 -121 147.5 -184.5t186.5 -63.5q137 0 231 83.5t137.5 226.5t43.5 337q0 204 -60 342z" />
<glyph unicode="&#xd9;" horiz-adv-x="1630" d="M70 1370v64h645v-64q-79 -5 -122 -16.5t-48 -36.5q-8 -39 -8 -125v-647q0 -100 17 -176.5t55 -138.5t106.5 -95t165.5 -33q391 0 391 467v564q0 37 -10 135q-7 50 -49.5 73.5t-125.5 28.5v64h480v-64q-85 -5 -126.5 -28.5t-47.5 -73.5q-11 -72 -11 -135v-584 q0 -119 -30 -216.5t-81 -163t-120.5 -110t-145.5 -64.5t-159 -20q-170 0 -287.5 39.5t-185 118t-96.5 181.5t-29 245v633q0 86 -8 125q-5 25 -48 36.5t-122 16.5zM528 1841q0 42 25 67t61 25q66 0 150 -92l297 -301h-94l-314 178q-38 21 -60.5 36t-43.5 39t-21 48z" />
<glyph unicode="&#xda;" horiz-adv-x="1630" d="M70 1370v64h645v-64q-79 -5 -122 -16.5t-48 -36.5q-8 -39 -8 -125v-647q0 -100 17 -176.5t55 -138.5t106.5 -95t165.5 -33q391 0 391 467v564q0 37 -10 135q-7 50 -49.5 73.5t-125.5 28.5v64h480v-64q-85 -5 -126.5 -28.5t-47.5 -73.5q-11 -72 -11 -135v-584 q0 -119 -30 -216.5t-81 -163t-120.5 -110t-145.5 -64.5t-159 -20q-170 0 -287.5 39.5t-185 118t-96.5 181.5t-29 245v633q0 86 -8 125q-5 25 -48 36.5t-122 16.5zM569 1540l297 301q84 92 150 92q36 0 61 -25t25 -67q0 -24 -21 -48t-43.5 -39t-60.5 -36l-313 -178h-95z" />
<glyph unicode="&#xdb;" horiz-adv-x="1630" d="M70 1370v64h645v-64q-79 -5 -122 -16.5t-48 -36.5q-8 -39 -8 -125v-647q0 -100 17 -176.5t55 -138.5t106.5 -95t165.5 -33q391 0 391 467v564q0 37 -10 135q-7 50 -49.5 73.5t-125.5 28.5v64h480v-64q-85 -5 -126.5 -28.5t-47.5 -73.5q-11 -72 -11 -135v-584 q0 -119 -30 -216.5t-81 -163t-120.5 -110t-145.5 -64.5t-159 -20q-170 0 -287.5 39.5t-185 118t-96.5 181.5t-29 245v633q0 86 -8 125q-5 25 -48 36.5t-122 16.5zM446 1540l295 342h148l295 -342h-94l-275 205l-278 -205h-91z" />
<glyph unicode="&#xdc;" horiz-adv-x="1630" d="M70 1370v64h645v-64q-79 -5 -122 -16.5t-48 -36.5q-8 -39 -8 -125v-647q0 -100 17 -176.5t55 -138.5t106.5 -95t165.5 -33q391 0 391 467v564q0 37 -10 135q-7 50 -49.5 73.5t-125.5 28.5v64h480v-64q-85 -5 -126.5 -28.5t-47.5 -73.5q-11 -72 -11 -135v-584 q0 -119 -30 -216.5t-81 -163t-120.5 -110t-145.5 -64.5t-159 -20q-170 0 -287.5 39.5t-185 118t-96.5 181.5t-29 245v633q0 86 -8 125q-5 25 -48 36.5t-122 16.5zM477 1688q0 43 35.5 78.5t79.5 35.5q47 0 82 -34t35 -80q0 -47 -35 -82t-82 -35q-46 0 -80.5 35.5t-34.5 81.5 zM924 1688q0 43 35 78.5t79 35.5q47 0 82 -34t35 -80q0 -47 -35 -82t-82 -35q-45 0 -79.5 35.5t-34.5 81.5z" />
<glyph unicode="&#xdd;" horiz-adv-x="1439" d="M33 1370v64h610v-64q-46 0 -74 -8t-40 -21t-11 -37t9.5 -47.5t25.5 -60.5l256 -522l283 516q36 63 25.5 103t-49 58.5t-101.5 18.5v62h440v-62q-49 0 -88 -24t-74 -91l-338 -610q-39 -76 -39 -170v-233q0 -81 9 -125q6 -26 49 -37.5t121 -16.5v-63h-646v63q78 5 121 16.5 t49 37.5q9 44 9 125v311l-320 643q-46 95 -100 134.5t-127 39.5zM514 1540l297 301q84 92 150 92q36 0 61 -25t25 -67q0 -24 -21 -48t-43.5 -39t-60.5 -36l-314 -178h-94z" />
<glyph unicode="&#xde;" horiz-adv-x="1249" d="M78 0v63q161 10 170 54q8 39 8 125v950q0 86 -8 125q-6 26 -48 37t-122 16v64h645v-64q-80 -5 -122 -16t-48 -37q-8 -36 -8 -88v-103h162q135 0 234 -27.5t153 -76t79 -106t25 -125.5q0 -162 -128 -268.5t-349 -106.5h-176v-174q0 -86 8 -125q9 -44 170 -54v-63h-645z M545 487h137q44 0 82.5 15t72 47t53 91.5t19.5 141.5q0 145 -61.5 209t-192.5 64h-110v-568z" />
<glyph unicode="&#xdf;" horiz-adv-x="1435" d="M57 0v63q141 12 150 54q8 39 8 125v624h-121v66l119 51v98q0 81 35 156.5t98.5 135.5t162.5 96t218 36q406 0 406 -276q0 -47 -20.5 -92t-49.5 -80t-58.5 -68t-50 -70.5t-20.5 -74.5q0 -27 10 -51.5t23 -43t45.5 -46.5t56.5 -46t78 -57q72 -52 118 -100.5t65 -93.5 t24.5 -75.5t5.5 -72.5q0 -120 -106 -201.5t-265 -81.5q-182 0 -284 62l-48 151q-5 15 7 29l45 43q18 24 26 10l70 -116q73 -115 158 -115q66 0 107.5 48.5t41.5 113.5q0 43 -17.5 82t-55 77t-69.5 64t-87 65q-83 60 -127 109t-53 76.5t-9 62.5q0 54 25 102.5t60.5 87.5 t71 80t60.5 98t25 124q0 116 -54 164.5t-137 48.5q-17 0 -32.5 -1.5t-43 -8.5t-50 -20t-48.5 -38t-43.5 -59.5t-29 -88t-11.5 -120.5v-864q0 -81 9 -125q9 -42 151 -54v-63h-590z" />
<glyph unicode="&#xe0;" horiz-adv-x="1140" d="M63 260q0 58 16 103.5t40.5 77.5t69.5 60.5t88.5 47t111.5 43.5l293 98q0 132 -43 209.5t-129 77.5q-40 0 -73.5 -18t-60.5 -53.5t-44.5 -67t-40.5 -80.5q-8 -24 -37 -17l-100 33q-27 15 -21 41l27 96q17 61 67 78q167 60 318 60q213 0 312 -92.5t99 -268.5v-387 q0 -114 31.5 -158t110.5 -20l6 -68l-381 -80q-39 69 -39 175l-170 -117q-90 -58 -192 -58q-110 0 -184.5 79.5t-74.5 205.5zM303 1473q0 42 25 67t61 25q66 0 150 -92l297 -302h-95l-313 179q-38 21 -60.5 36t-43.5 39t-21 48zM336 299q0 -73 36.5 -120.5t102.5 -47.5 q93 0 151 74.5t58 212.5v188q-43 -14 -66.5 -22t-59.5 -21t-56 -23t-47 -25.5t-42 -30t-32 -34.5t-25.5 -42t-14 -49.5t-5.5 -59.5z" />
<glyph unicode="&#xe1;" horiz-adv-x="1140" d="M63 260q0 58 16 103.5t40.5 77.5t69.5 60.5t88.5 47t111.5 43.5l293 98q0 132 -43 209.5t-129 77.5q-40 0 -73.5 -18t-60.5 -53.5t-44.5 -67t-40.5 -80.5q-8 -24 -37 -17l-100 33q-27 15 -21 41l27 96q17 61 67 78q167 60 318 60q213 0 312 -92.5t99 -268.5v-387 q0 -114 31.5 -158t110.5 -20l6 -68l-381 -80q-39 69 -39 175l-170 -117q-90 -58 -192 -58q-110 0 -184.5 79.5t-74.5 205.5zM303 1171l297 302q84 92 150 92q36 0 61 -25t25 -67q0 -24 -21 -48t-43.5 -39t-60.5 -36l-314 -179h-94zM336 299q0 -73 36.5 -120.5t102.5 -47.5 q93 0 151 74.5t58 212.5v188q-43 -14 -66.5 -22t-59.5 -21t-56 -23t-47 -25.5t-42 -30t-32 -34.5t-25.5 -42t-14 -49.5t-5.5 -59.5z" />
<glyph unicode="&#xe2;" horiz-adv-x="1140" d="M63 260q0 58 16 103.5t40.5 77.5t69.5 60.5t88.5 47t111.5 43.5l293 98q0 132 -43 209.5t-129 77.5q-40 0 -73.5 -18t-60.5 -53.5t-44.5 -67t-40.5 -80.5q-8 -24 -37 -17l-100 33q-27 15 -21 41l27 96q17 61 67 78q167 60 318 60q213 0 312 -92.5t99 -268.5v-387 q0 -114 31.5 -158t110.5 -20l6 -68l-381 -80q-39 69 -39 175l-170 -117q-90 -58 -192 -58q-110 0 -184.5 79.5t-74.5 205.5zM201 1171l295 342h147l295 -342h-94l-275 205l-278 -205h-90zM336 299q0 -73 36.5 -120.5t102.5 -47.5q93 0 151 74.5t58 212.5v188 q-43 -14 -66.5 -22t-59.5 -21t-56 -23t-47 -25.5t-42 -30t-32 -34.5t-25.5 -42t-14 -49.5t-5.5 -59.5z" />
<glyph unicode="&#xe3;" horiz-adv-x="1140" d="M63 260q0 58 16 103.5t40.5 77.5t69.5 60.5t88.5 47t111.5 43.5l293 98q0 132 -43 209.5t-129 77.5q-40 0 -73.5 -18t-60.5 -53.5t-44.5 -67t-40.5 -80.5q-8 -24 -37 -17l-100 33q-27 15 -21 41l27 96q17 61 67 78q167 60 318 60q213 0 312 -92.5t99 -268.5v-387 q0 -114 31.5 -158t110.5 -20l6 -68l-381 -80q-39 69 -39 175l-170 -117q-90 -58 -192 -58q-110 0 -184.5 79.5t-74.5 205.5zM178 1171q25 107 88 173.5t158 66.5q28 0 58.5 -9t46 -16.5t49.5 -25.5q5 -3 33.5 -19.5t40 -21.5t36 -12t49.5 -7q57 0 99 37t55 86h70 q-9 -100 -80.5 -176t-167.5 -76q-44 0 -80.5 9.5t-55 19t-45.5 27.5q-29 19 -42.5 27t-43 17t-63.5 9q-45 0 -84.5 -33.5t-50.5 -75.5h-70zM336 299q0 -73 36.5 -120.5t102.5 -47.5q93 0 151 74.5t58 212.5v188q-43 -14 -66.5 -22t-59.5 -21t-56 -23t-47 -25.5t-42 -30 t-32 -34.5t-25.5 -42t-14 -49.5t-5.5 -59.5z" />
<glyph unicode="&#xe4;" horiz-adv-x="1140" d="M63 260q0 58 16 103.5t40.5 77.5t69.5 60.5t88.5 47t111.5 43.5l293 98q0 132 -43 209.5t-129 77.5q-40 0 -73.5 -18t-60.5 -53.5t-44.5 -67t-40.5 -80.5q-8 -24 -37 -17l-100 33q-27 15 -21 41l27 96q17 61 67 78q167 60 318 60q213 0 312 -92.5t99 -268.5v-387 q0 -114 31.5 -158t110.5 -20l6 -68l-381 -80q-39 69 -39 175l-170 -117q-90 -58 -192 -58q-110 0 -184.5 79.5t-74.5 205.5zM231 1278q0 43 35.5 79t79.5 36q47 0 82 -34.5t35 -80.5q0 -47 -35 -82t-82 -35q-46 0 -80.5 35.5t-34.5 81.5zM336 299q0 -73 36.5 -120.5 t102.5 -47.5q93 0 151 74.5t58 212.5v188q-43 -14 -66.5 -22t-59.5 -21t-56 -23t-47 -25.5t-42 -30t-32 -34.5t-25.5 -42t-14 -49.5t-5.5 -59.5zM678 1278q0 43 35.5 79t79.5 36q47 0 81.5 -34.5t34.5 -80.5q0 -47 -34.5 -82t-81.5 -35q-46 0 -80.5 35.5t-34.5 81.5z" />
<glyph unicode="&#xe5;" horiz-adv-x="1140" d="M63 260q0 58 16 103.5t40.5 77.5t69.5 60.5t88.5 47t111.5 43.5l293 98q0 132 -43 209.5t-129 77.5q-40 0 -73.5 -18t-60.5 -53.5t-44.5 -67t-40.5 -80.5q-8 -24 -37 -17l-100 33q-27 15 -21 41l27 96q17 61 67 78q167 60 318 60q213 0 312 -92.5t99 -268.5v-387 q0 -114 31.5 -158t110.5 -20l6 -68l-381 -80q-39 69 -39 175l-170 -117q-90 -58 -192 -58q-110 0 -184.5 79.5t-74.5 205.5zM336 299q0 -73 36.5 -120.5t102.5 -47.5q93 0 151 74.5t58 212.5v188q-43 -14 -66.5 -22t-59.5 -21t-56 -23t-47 -25.5t-42 -30t-32 -34.5 t-25.5 -42t-14 -49.5t-5.5 -59.5zM365 1343q0 82 61.5 143.5t144.5 61.5t143 -61t60 -144t-60 -142.5t-145 -59.5q-82 0 -143 59.5t-61 142.5zM459 1343q0 -43 33.5 -75.5t76.5 -32.5t77 33t34 75q0 43 -33.5 77t-77.5 34q-45 0 -77.5 -33t-32.5 -78z" />
<glyph unicode="&#xe6;" horiz-adv-x="1677" d="M63 260q0 58 16 103.5t40.5 77.5t69.5 60.5t88.5 47t111.5 43.5l293 98q0 132 -43 209.5t-129 77.5q-40 0 -73.5 -18t-60.5 -53.5t-44.5 -67t-40.5 -80.5q-8 -24 -37 -17l-78 23q-9 5 -13 8.5t-7.5 12.5t0.5 20l26 98q12 43 23.5 61t32.5 25q160 60 307 60 q217 0 299 -131q131 131 364 131q193 0 296.5 -116t103.5 -310v-58h-639q0 -34 2.5 -67t10.5 -80t21.5 -86.5t38.5 -81t58 -70t83.5 -47t112.5 -18.5q18 0 35.5 2t32 4t31 7.5t27.5 8.5t26.5 10.5t23 11t22.5 12t18.5 11t18 11.5t15.5 10l45 -72l-280 -156h-105 q-50 -1 -103 8.5t-114.5 32t-121 70.5t-103.5 115l-250 -168q-90 -58 -192 -58q-110 0 -184.5 79.5t-74.5 205.5zM336 299q0 -73 36.5 -120.5t102.5 -47.5q93 0 151 74.5t58 212.5v188q-43 -14 -66.5 -22t-59.5 -21t-56 -23t-47 -25.5t-42 -30t-32 -34.5t-25.5 -42 t-14 -49.5t-5.5 -59.5zM969 641h313q35 0 60.5 27t25.5 86q0 95 -51.5 159t-126.5 64q-95 0 -158 -81.5t-63 -254.5z" />
<glyph unicode="&#xe7;" horiz-adv-x="1062" d="M70 520q0 156 75 277.5t205 186.5t291 65q89 0 167.5 -17.5t125.5 -46.5l61 -147q7 -21 -8 -29l-69 -43q-28 -18 -37 -6l-103 127q-70 90 -164 90q-108 0 -187 -108t-79 -294q0 -86 19 -164t57.5 -145.5t107 -108t158.5 -40.5q53 0 105.5 16.5t78 31t69.5 43.5q3 2 4 2.5 t3 2t4 2.5l45 -72l-294 -168q-111 0 -136 2l-47 -110q27 6 60 6q66 0 114.5 -36t48.5 -105q0 -79 -80 -125.5t-184 -46.5q-73 0 -164 32l29 64q67 -23 121 -23q106 0 106 86q0 34 -18.5 53t-44.5 21q-34 5 -86 -6l-14 10l82 189q-160 21 -273 137q-64 62 -106.5 172 t-42.5 225z" />
<glyph unicode="&#xe8;" horiz-adv-x="1058" d="M70 520q0 77 17 149.5t56.5 142.5t98 122t149 83.5t201.5 31.5q192 0 294.5 -116t102.5 -310v-58h-637q0 -39 5 -80t17.5 -94.5t37.5 -100t61 -86.5t93 -63.5t128 -23.5q25 0 49 2.5t47 10t38 12t37 16.5t29.5 15.5t29 17t22.5 14.5l43 -74l-280 -156h-72q-9 0 -45 -1 t-52.5 0t-51.5 4t-60 12.5t-59.5 24t-69 39.5t-70.5 59q-60 55 -109.5 170t-49.5 237zM262 1473q0 42 25 67t61 25q66 0 150 -92l297 -302h-95l-313 179q-38 21 -60.5 36t-43.5 39t-21 48zM352 641h314q33 0 58.5 27t25.5 86q0 95 -51.5 159t-125.5 64q-96 0 -158.5 -81 t-62.5 -255z" />
<glyph unicode="&#xe9;" horiz-adv-x="1058" d="M70 520q0 77 17 149.5t56.5 142.5t98 122t149 83.5t201.5 31.5q192 0 294.5 -116t102.5 -310v-58h-637q0 -39 5 -80t17.5 -94.5t37.5 -100t61 -86.5t93 -63.5t128 -23.5q25 0 49 2.5t47 10t38 12t37 16.5t29.5 15.5t29 17t22.5 14.5l43 -74l-280 -156h-72q-9 0 -45 -1 t-52.5 0t-51.5 4t-60 12.5t-59.5 24t-69 39.5t-70.5 59q-60 55 -109.5 170t-49.5 237zM262 1171l297 302q84 92 150 92q36 0 61 -25t25 -67q0 -24 -21 -48t-43.5 -39t-60.5 -36l-314 -179h-94zM352 641h314q33 0 58.5 27t25.5 86q0 95 -51.5 159t-125.5 64q-96 0 -158.5 -81 t-62.5 -255z" />
<glyph unicode="&#xea;" horiz-adv-x="1058" d="M70 520q0 77 17 149.5t56.5 142.5t98 122t149 83.5t201.5 31.5q192 0 294.5 -116t102.5 -310v-58h-637q0 -39 5 -80t17.5 -94.5t37.5 -100t61 -86.5t93 -63.5t128 -23.5q25 0 49 2.5t47 10t38 12t37 16.5t29.5 15.5t29 17t22.5 14.5l43 -74l-280 -156h-72q-9 0 -45 -1 t-52.5 0t-51.5 4t-60 12.5t-59.5 24t-69 39.5t-70.5 59q-60 55 -109.5 170t-49.5 237zM160 1171l295 342h147l295 -342h-94l-275 205l-278 -205h-90zM352 641h314q33 0 58.5 27t25.5 86q0 95 -51.5 159t-125.5 64q-96 0 -158.5 -81t-62.5 -255z" />
<glyph unicode="&#xeb;" horiz-adv-x="1058" d="M70 520q0 77 17 149.5t56.5 142.5t98 122t149 83.5t201.5 31.5q192 0 294.5 -116t102.5 -310v-58h-637q0 -39 5 -80t17.5 -94.5t37.5 -100t61 -86.5t93 -63.5t128 -23.5q25 0 49 2.5t47 10t38 12t37 16.5t29.5 15.5t29 17t22.5 14.5l43 -74l-280 -156h-72q-9 0 -45 -1 t-52.5 0t-51.5 4t-60 12.5t-59.5 24t-69 39.5t-70.5 59q-60 55 -109.5 170t-49.5 237zM190 1278q0 43 35.5 79t79.5 36q47 0 82 -34.5t35 -80.5q0 -47 -35 -82t-82 -35q-46 0 -80.5 35.5t-34.5 81.5zM352 641h314q33 0 58.5 27t25.5 86q0 95 -51.5 159t-125.5 64 q-96 0 -158.5 -81t-62.5 -255zM637 1278q0 43 35.5 79t79.5 36q47 0 81.5 -34.5t34.5 -80.5q0 -47 -34.5 -82t-81.5 -35q-46 0 -80.5 35.5t-34.5 81.5z" />
<glyph unicode="&#xec;" horiz-adv-x="704" d="M57 0v63q143 12 152 54q8 39 8 125v540q0 72 -36.5 94.5t-123.5 22.5v64q116 2 233 23.5t195 62.5l4 -5v-802q0 -81 9 -125q9 -42 149 -54v-63h-590zM86 1473q0 42 25 67t61 25q66 0 150 -92l296 -302h-94l-313 179q-38 21 -60.5 36t-43.5 39t-21 48z" />
<glyph unicode="&#xed;" horiz-adv-x="704" d="M57 0v63q143 12 152 54q8 39 8 125v540q0 72 -36.5 94.5t-123.5 22.5v64q116 2 233 23.5t195 62.5l4 -5v-802q0 -81 9 -125q9 -42 149 -54v-63h-590zM86 1171l297 302q84 92 149 92q36 0 61 -25t25 -67q0 -24 -20.5 -48t-43 -39t-60.5 -36l-314 -179h-94z" />
<glyph unicode="&#xee;" horiz-adv-x="704" d="M-16 1171l295 342h147l295 -342h-94l-275 205l-278 -205h-90zM57 0v63q143 12 152 54q8 39 8 125v540q0 72 -36.5 94.5t-123.5 22.5v64q116 2 233 23.5t195 62.5l4 -5v-802q0 -81 9 -125q9 -42 149 -54v-63h-590z" />
<glyph unicode="&#xef;" horiz-adv-x="704" d="M14 1278q0 43 35.5 79t79.5 36q47 0 82 -34.5t35 -80.5q0 -47 -35 -82t-82 -35q-46 0 -80.5 35.5t-34.5 81.5zM57 0v63q143 12 152 54q8 39 8 125v540q0 72 -36.5 94.5t-123.5 22.5v64q116 2 233 23.5t195 62.5l4 -5v-802q0 -81 9 -125q9 -42 149 -54v-63h-590zM461 1278 q0 43 35 79t79 36q47 0 82 -34.5t35 -80.5q0 -47 -35 -82t-82 -35q-45 0 -79.5 35.5t-34.5 81.5z" />
<glyph unicode="&#xf0;" horiz-adv-x="1249" d="M70 498q0 100 38.5 197.5t107 176.5t173.5 128t227 49q86 0 172 -37q-55 128 -161 221l-252 -92l-123 78l262 98q-82 57 -207 110l209 76q122 -43 217 -102l250 94l131 -84l-262 -96q163 -135 245.5 -315t82.5 -382q0 -152 -44.5 -275t-122.5 -203t-183 -122.5 t-228 -42.5q-230 0 -381 148t-151 375zM358 547q0 -227 72 -363.5t203 -136.5q76 0 128 37t79.5 107.5t39 153t11.5 192.5q0 112 -28.5 206.5t-91 157t-148.5 62.5q-77 0 -131.5 -38t-82 -102.5t-39.5 -131.5t-12 -144z" />
<glyph unicode="&#xf1;" horiz-adv-x="1402" d="M57 0v63q143 12 152 54q8 39 8 125v540q0 72 -36.5 94.5t-123.5 22.5v64q116 2 233 23.5t195 62.5l4 -5v-176q69 80 176 130.5t228 50.5q84 0 142 -26t90.5 -76.5t46.5 -113.5t14 -147v-444q0 -86 8 -125q9 -42 152 -54v-63h-576v63q126 13 135 54q8 39 8 125v391 q0 48 -3 84.5t-13.5 76.5t-29 65t-51.5 42t-79 17q-129 0 -188.5 -101t-59.5 -311v-264q0 -81 9 -125q9 -41 137 -54v-63h-578zM309 1171q25 107 88 173.5t158 66.5q28 0 58.5 -9t46 -16.5t49.5 -25.5q5 -3 33.5 -19.5t40 -21.5t36 -12t49.5 -7q57 0 99 37t55 86h70 q-9 -100 -80.5 -176t-167.5 -76q-44 0 -80.5 9.5t-54.5 19t-45 27.5q-29 19 -43 27t-43.5 17t-63.5 9q-45 0 -84.5 -33.5t-50.5 -75.5h-70z" />
<glyph unicode="&#xf2;" horiz-adv-x="1251" d="M70 498q0 70 19.5 142.5t64 146.5t109.5 131.5t165 94t221 36.5q104 0 199.5 -36t170 -101t119 -165.5t44.5 -220.5q0 -154 -75 -280.5t-208 -198.5t-297 -72q-230 0 -381 148t-151 375zM358 539q0 -99 13 -178.5t36.5 -131.5t52 -89.5t62.5 -56.5t64.5 -27.5t62.5 -8.5 q36 0 69 13t65.5 45t56.5 80t38.5 123t14.5 169q0 56 -6.5 115.5t-26 130.5t-48.5 125.5t-80 91.5t-116 37q-114 0 -186 -112.5t-72 -325.5zM358 1473q0 42 25 67t61 25q66 0 150 -92l297 -302h-94l-314 179q-38 21 -60.5 36t-43.5 39t-21 48z" />
<glyph unicode="&#xf3;" horiz-adv-x="1251" d="M70 498q0 70 19.5 142.5t64 146.5t109.5 131.5t165 94t221 36.5q104 0 199.5 -36t170 -101t119 -165.5t44.5 -220.5q0 -154 -75 -280.5t-208 -198.5t-297 -72q-230 0 -381 148t-151 375zM358 539q0 -99 13 -178.5t36.5 -131.5t52 -89.5t62.5 -56.5t64.5 -27.5t62.5 -8.5 q36 0 69 13t65.5 45t56.5 80t38.5 123t14.5 169q0 56 -6.5 115.5t-26 130.5t-48.5 125.5t-80 91.5t-116 37q-114 0 -186 -112.5t-72 -325.5zM358 1171l297 302q84 92 150 92q36 0 61 -25t25 -67q0 -24 -21 -48t-43.5 -39t-60.5 -36l-313 -179h-95z" />
<glyph unicode="&#xf4;" horiz-adv-x="1251" d="M70 498q0 70 19.5 142.5t64 146.5t109.5 131.5t165 94t221 36.5q104 0 199.5 -36t170 -101t119 -165.5t44.5 -220.5q0 -154 -75 -280.5t-208 -198.5t-297 -72q-230 0 -381 148t-151 375zM256 1171l295 342h147l295 -342h-94l-274 205l-279 -205h-90zM358 539 q0 -99 13 -178.5t36.5 -131.5t52 -89.5t62.5 -56.5t64.5 -27.5t62.5 -8.5q36 0 69 13t65.5 45t56.5 80t38.5 123t14.5 169q0 56 -6.5 115.5t-26 130.5t-48.5 125.5t-80 91.5t-116 37q-114 0 -186 -112.5t-72 -325.5z" />
<glyph unicode="&#xf5;" horiz-adv-x="1251" d="M70 498q0 70 19.5 142.5t64 146.5t109.5 131.5t165 94t221 36.5q104 0 199.5 -36t170 -101t119 -165.5t44.5 -220.5q0 -154 -75 -280.5t-208 -198.5t-297 -72q-230 0 -381 148t-151 375zM233 1171q25 107 88 173.5t158 66.5q28 0 58.5 -9t46 -16.5t49.5 -25.5 q8 -5 27.5 -16.5t30.5 -17t28.5 -13t35.5 -10.5t38 -3q57 0 98.5 36.5t54.5 86.5h70q-9 -100 -80.5 -176t-167.5 -76q-44 0 -80.5 9.5t-54.5 19t-45 27.5q-29 19 -43 27t-43.5 17t-63.5 9q-45 0 -84.5 -33.5t-50.5 -75.5h-70zM358 539q0 -99 13 -178.5t36.5 -131.5t52 -89.5 t62.5 -56.5t64.5 -27.5t62.5 -8.5q36 0 69 13t65.5 45t56.5 80t38.5 123t14.5 169q0 56 -6.5 115.5t-26 130.5t-48.5 125.5t-80 91.5t-116 37q-114 0 -186 -112.5t-72 -325.5z" />
<glyph unicode="&#xf6;" horiz-adv-x="1251" d="M70 498q0 70 19.5 142.5t64 146.5t109.5 131.5t165 94t221 36.5q104 0 199.5 -36t170 -101t119 -165.5t44.5 -220.5q0 -154 -75 -280.5t-208 -198.5t-297 -72q-230 0 -381 148t-151 375zM287 1278q0 43 35 79t79 36q47 0 82 -34.5t35 -80.5q0 -47 -35 -82t-82 -35 q-45 0 -79.5 35.5t-34.5 81.5zM358 539q0 -99 13 -178.5t36.5 -131.5t52 -89.5t62.5 -56.5t64.5 -27.5t62.5 -8.5q36 0 69 13t65.5 45t56.5 80t38.5 123t14.5 169q0 56 -6.5 115.5t-26 130.5t-48.5 125.5t-80 91.5t-116 37q-114 0 -186 -112.5t-72 -325.5zM733 1278 q0 43 35.5 79t79.5 36q47 0 82 -34.5t35 -80.5q0 -47 -35 -82t-82 -35q-46 0 -80.5 35.5t-34.5 81.5z" />
<glyph unicode="&#xf7;" d="M90 438v160h1032v-160h-1032zM446 907q0 63 46.5 108.5t109.5 45.5q60 0 106 -47t46 -107t-45.5 -106.5t-104.5 -46.5q-65 0 -111.5 45t-46.5 108zM449 129q0 63 46 108.5t109 45.5q60 0 106 -46.5t46 -107.5q0 -60 -46 -107t-104 -47q-64 0 -110.5 45.5t-46.5 108.5z " />
<glyph unicode="&#xf8;" horiz-adv-x="1251" d="M70 25l125 127q-125 141 -125 346q0 70 19.5 142.5t64 146.5t109.5 131.5t165 94t221 36.5q201 0 334 -109l125 125l74 -76l-121 -121q55 -65 88 -156t33 -190q0 -106 -41 -204.5t-114.5 -175t-184 -122t-240.5 -45.5q-189 0 -332 105l-129 -131zM354 539q0 -80 27 -215 l455 475q-72 178 -220 178q-115 0 -188.5 -113t-73.5 -325zM410 217q75 -170 239 -170q116 0 180 118.5t64 321.5q0 68 -27 195z" />
<glyph unicode="&#xf9;" horiz-adv-x="1318" d="M25 899v64q114 2 231 23.5t195 62.5l4 -5v-653q0 -52 3 -88.5t13.5 -74.5t28.5 -61t50 -37.5t77 -14.5q54 0 92.5 17t69 59.5t46 121.5t15.5 197v272q0 72 -36.5 94.5t-123.5 22.5v64q116 2 233 23.5t195 62.5l4 -5v-743q0 -113 30.5 -157.5t104.5 -20.5l13 -68l-381 -80 q-39 52 -39 152l-174 -96q-98 -56 -209 -56q-83 0 -140.5 27.5t-88 79t-43.5 113t-13 143.5v444q0 72 -36 94.5t-121 22.5zM393 1473q0 42 25 67t61 25q66 0 150 -92l297 -302h-95l-313 179q-38 21 -60.5 36t-43.5 39t-21 48z" />
<glyph unicode="&#xfa;" horiz-adv-x="1318" d="M25 899v64q114 2 231 23.5t195 62.5l4 -5v-653q0 -52 3 -88.5t13.5 -74.5t28.5 -61t50 -37.5t77 -14.5q54 0 92.5 17t69 59.5t46 121.5t15.5 197v272q0 72 -36.5 94.5t-123.5 22.5v64q116 2 233 23.5t195 62.5l4 -5v-743q0 -113 30.5 -157.5t104.5 -20.5l13 -68l-381 -80 q-39 52 -39 152l-174 -96q-98 -56 -209 -56q-83 0 -140.5 27.5t-88 79t-43.5 113t-13 143.5v444q0 72 -36 94.5t-121 22.5zM393 1171l297 302q84 92 150 92q36 0 61 -25t25 -67q0 -24 -21 -48t-43.5 -39t-60.5 -36l-314 -179h-94z" />
<glyph unicode="&#xfb;" horiz-adv-x="1318" d="M25 899v64q114 2 231 23.5t195 62.5l4 -5v-653q0 -52 3 -88.5t13.5 -74.5t28.5 -61t50 -37.5t77 -14.5q54 0 92.5 17t69 59.5t46 121.5t15.5 197v272q0 72 -36.5 94.5t-123.5 22.5v64q116 2 233 23.5t195 62.5l4 -5v-743q0 -113 30.5 -157.5t104.5 -20.5l13 -68l-381 -80 q-39 52 -39 152l-174 -96q-98 -56 -209 -56q-83 0 -140.5 27.5t-88 79t-43.5 113t-13 143.5v444q0 72 -36 94.5t-121 22.5zM291 1171l295 342h147l295 -342h-94l-275 205l-278 -205h-90z" />
<glyph unicode="&#xfc;" horiz-adv-x="1318" d="M25 899v64q114 2 231 23.5t195 62.5l4 -5v-653q0 -52 3 -88.5t13.5 -74.5t28.5 -61t50 -37.5t77 -14.5q54 0 92.5 17t69 59.5t46 121.5t15.5 197v272q0 72 -36.5 94.5t-123.5 22.5v64q116 2 233 23.5t195 62.5l4 -5v-743q0 -113 30.5 -157.5t104.5 -20.5l13 -68l-381 -80 q-39 52 -39 152l-174 -96q-98 -56 -209 -56q-83 0 -140.5 27.5t-88 79t-43.5 113t-13 143.5v444q0 72 -36 94.5t-121 22.5zM322 1278q0 43 35 79t79 36q47 0 82 -34.5t35 -80.5q0 -47 -35 -82t-82 -35q-45 0 -79.5 35.5t-34.5 81.5zM768 1278q0 43 35.5 79t79.5 36 q47 0 81.5 -34.5t34.5 -80.5q0 -47 -34.5 -82t-81.5 -35q-46 0 -80.5 35.5t-34.5 81.5z" />
<glyph unicode="&#xfd;" d="M20 961v63h572v-63q-34 0 -57 -3.5t-40 -12.5t-24 -24t-5 -39t15 -57l213 -524l226 502q19 39 16 66.5t-14.5 45.5t-38 28t-54.5 14t-65 4v63h442v-63q-28 0 -51.5 -9t-37.5 -18.5t-31 -34.5t-23 -35.5t-22 -45.5t-19 -42l-543 -1179q-28 -56 -54 -82.5t-71 -26.5h-161 q-14 0 -20.5 11.5t-6.5 25.5v53q0 11 0.5 16t5.5 12.5t16 12.5l101 41q46 21 75 37.5t60.5 46.5t48.5 68l82 174l-369 827q-36 80 -68.5 114t-97.5 34zM340 1171l297 302q84 92 149 92q36 0 61 -25t25 -67q0 -24 -20.5 -48t-43 -39t-60.5 -36l-314 -179h-94z" />
<glyph unicode="&#xfe;" horiz-adv-x="1290" d="M10 -449q141 12 150 54q8 39 8 125v1509q0 72 -35.5 94.5t-122.5 22.5v63q116 2 233 23.5t193 62.5l4 -4v-571l168 76q95 43 207 43q182 0 294 -131.5t112 -378.5q0 -144 -66.5 -272.5t-191.5 -210t-279 -81.5q-138 0 -244 39v-284q0 -81 9 -125q6 -26 50.5 -37.5 t129.5 -16.5v-63h-619v63zM440 147q82 -104 203 -104q75 0 131 39.5t87.5 109t46 152t14.5 180.5q0 193 -73 303.5t-194 110.5q-61 0 -112.5 -40t-73.5 -112q-29 -95 -29 -292v-347z" />
<glyph unicode="&#xff;" d="M20 961v63h572v-63q-34 0 -57 -3.5t-40 -12.5t-24 -24t-5 -39t15 -57l213 -524l226 502q19 39 16 66.5t-14.5 45.5t-38 28t-54.5 14t-65 4v63h442v-63q-28 0 -51.5 -9t-37.5 -18.5t-31 -34.5t-23 -35.5t-22 -45.5t-19 -42l-543 -1179q-28 -56 -54 -82.5t-71 -26.5h-161 q-14 0 -20.5 11.5t-6.5 25.5v53q0 11 0.5 16t5.5 12.5t16 12.5l101 41q46 21 75 37.5t60.5 46.5t48.5 68l82 174l-369 827q-36 80 -68.5 114t-97.5 34zM268 1278q0 43 35.5 79t79.5 36q47 0 82 -34.5t35 -80.5q0 -47 -35 -82t-82 -35q-46 0 -80.5 35.5t-34.5 81.5zM715 1278 q0 43 35 79t79 36q47 0 82 -34.5t35 -80.5q0 -47 -35 -82t-82 -35q-45 0 -79.5 35.5t-34.5 81.5z" />
<glyph unicode="&#x152;" horiz-adv-x="2236" d="M90 696q0 217 104 390.5t292.5 272.5t428.5 99q138 -12 335.5 -17.5t330.5 -6t449 -0.5v-330h-56q-26 123 -76 188.5t-149 65.5h-260v-574h170q93 0 139.5 52.5t46.5 144.5h56v-477h-56q0 92 -44.5 148.5t-141.5 56.5h-170v-465q0 -46 10 -77t26.5 -49.5t50 -27.5 t67 -11.5t90.5 -2.5q61 0 108 8t82.5 26t60.5 38t47.5 54.5t39 65.5t38.5 79q2 5 3.5 8t3.5 7.5t4 8.5h55l-61 -371q-515 0 -750.5 -4t-480.5 -21q-184 0 -335.5 57.5t-250.5 156t-153 229t-54 278.5zM403 784q0 -343 140.5 -538t355.5 -195q151 0 218.5 34t74.5 81 q8 51 8 149v807q0 99 -8 150q-3 18 -20.5 35.5t-51.5 35t-98 28.5t-148 11q-121 0 -212.5 -43t-147.5 -123t-83.5 -188t-27.5 -244z" />
<glyph unicode="&#x153;" horiz-adv-x="1878" d="M70 498q0 70 19 142.5t63.5 146.5t108 131.5t162.5 94t218 36.5q101 0 203 -47.5t168 -124.5q135 172 397 172q193 0 296 -115.5t103 -310.5v-58h-641q0 -50 5 -99t25.5 -116t54 -116t97 -84t148.5 -35q18 0 35.5 2t32 4t31 7.5t27.5 8.5t26.5 10.5t23 11t22.5 12 t18.5 11t18 11.5t15.5 10l45 -72l-281 -156h-104q-49 -1 -102 7.5t-110.5 27.5t-110 55.5t-87.5 86.5q-72 -74 -185 -125.5t-216 -51.5q-229 0 -377.5 148t-148.5 375zM358 539q0 -110 16.5 -197t44 -141.5t65.5 -90t77.5 -49.5t83.5 -14q103 0 169.5 114t66.5 328 q0 59 -7 120.5t-26.5 129t-48.5 119t-77.5 85.5t-109.5 34q-113 0 -183.5 -112.5t-70.5 -325.5zM1167 641h314q33 0 58.5 27t25.5 86q0 95 -51 159t-125 64q-96 0 -159 -81t-63 -255z" />
<glyph unicode="&#x178;" horiz-adv-x="1439" d="M33 1370v64h610v-64q-46 0 -74 -8t-40 -21t-11 -37t9.5 -47.5t25.5 -60.5l256 -522l283 516q36 63 25.5 103t-49 58.5t-101.5 18.5v62h440v-62q-49 0 -88 -24t-74 -91l-338 -610q-39 -76 -39 -170v-233q0 -81 9 -125q6 -26 49 -37.5t121 -16.5v-63h-646v63q78 5 121 16.5 t49 37.5q9 44 9 125v311l-320 643q-46 95 -100 134.5t-127 39.5zM422 1688q0 43 35.5 78.5t79.5 35.5q47 0 81.5 -34t34.5 -80q0 -47 -34.5 -82t-81.5 -35q-46 0 -80.5 35.5t-34.5 81.5zM868 1688q0 43 35.5 78.5t79.5 35.5q47 0 82 -34t35 -80q0 -47 -35 -82t-82 -35 q-46 0 -80.5 35.5t-34.5 81.5z" />
<glyph unicode="&#x2c6;" horiz-adv-x="985" d="M123 1171l295 342h147l295 -342h-94l-274 205l-279 -205h-90z" />
<glyph unicode="&#x2dc;" horiz-adv-x="1062" d="M139 1171q25 107 88 173.5t158 66.5q28 0 58.5 -9t46 -16.5t49.5 -25.5q5 -3 33.5 -19.5t40 -21.5t36 -12t49.5 -7q57 0 99 37t55 86h70q-9 -100 -80.5 -176t-167.5 -76q-44 0 -80.5 9.5t-54.5 19t-45 27.5q-29 19 -43 27t-43.5 17t-63.5 9q-45 0 -84.5 -33.5 t-50.5 -75.5h-70z" />
<glyph unicode="&#x2000;" horiz-adv-x="966" />
<glyph unicode="&#x2001;" horiz-adv-x="1933" />
<glyph unicode="&#x2002;" horiz-adv-x="966" />
<glyph unicode="&#x2003;" horiz-adv-x="1933" />
<glyph unicode="&#x2004;" horiz-adv-x="644" />
<glyph unicode="&#x2005;" horiz-adv-x="483" />
<glyph unicode="&#x2006;" horiz-adv-x="322" />
<glyph unicode="&#x2007;" horiz-adv-x="322" />
<glyph unicode="&#x2008;" horiz-adv-x="241" />
<glyph unicode="&#x2009;" horiz-adv-x="386" />
<glyph unicode="&#x200a;" horiz-adv-x="107" />
<glyph unicode="&#x2010;" horiz-adv-x="688" d="M86 399v176h510v-176h-510z" />
<glyph unicode="&#x2011;" horiz-adv-x="688" d="M86 399v176h510v-176h-510z" />
<glyph unicode="&#x2012;" horiz-adv-x="688" d="M86 399v176h510v-176h-510z" />
<glyph unicode="&#x2013;" horiz-adv-x="1024" d="M0 410v155h1024v-155h-1024z" />
<glyph unicode="&#x2014;" horiz-adv-x="2048" d="M0 410v155h2048v-155h-2048z" />
<glyph unicode="&#x2018;" horiz-adv-x="606" d="M111 1014q0 74 305 499l80 -69q-48 -53 -79.5 -106.5t-45.5 -92t-18.5 -86t-2.5 -70.5t8 -65.5t7 -52.5q3 -21 -67 -76t-85 -55q-28 0 -65 64t-37 110z" />
<glyph unicode="&#x2019;" horiz-adv-x="606" d="M111 901q48 53 79.5 106.5t45.5 92t18.5 86t2.5 70.5t-8 65.5t-7 52.5q-3 21 66.5 76t84.5 55q28 0 65.5 -64t37.5 -110q0 -74 -306 -500z" />
<glyph unicode="&#x201a;" horiz-adv-x="606" d="M66 -326q48 53 79.5 106.5t45.5 92t18.5 86t2.5 70.5t-8 65.5t-7 52.5q-3 21 66.5 76.5t84.5 55.5q28 0 65.5 -64.5t37.5 -110.5q0 -73 -306 -499z" />
<glyph unicode="&#x201c;" horiz-adv-x="1099" d="M141 1014q0 74 305 499l80 -69q-48 -53 -79.5 -106.5t-45.5 -92t-18.5 -86t-2.5 -70.5t8 -65.5t7 -52.5q3 -21 -66.5 -76t-84.5 -55q-28 0 -65.5 64t-37.5 110zM573 1014q0 73 306 499l79 -69q-48 -53 -79.5 -106.5t-45.5 -92t-18.5 -86t-2.5 -70.5t8 -65.5t7 -52.5 q3 -21 -66.5 -76t-84.5 -55q-28 0 -65.5 64t-37.5 110z" />
<glyph unicode="&#x201d;" horiz-adv-x="1099" d="M141 901q48 53 79.5 106.5t45.5 92t18.5 86t2.5 70.5t-8 65.5t-7 52.5q-3 21 67 76t85 55q28 0 65 -64t37 -110q0 -75 -305 -500zM573 901q48 53 79.5 107t46 92t18.5 86t2.5 70.5t-7.5 65.5t-7 52q-3 21 66.5 76t84.5 55q28 0 65 -64t37 -110q0 -75 -305 -500z" />
<glyph unicode="&#x201e;" horiz-adv-x="1062" d="M78 -326q48 53 79.5 106.5t45.5 92t18.5 86t2.5 70.5t-8 65.5t-7 52.5q-3 21 66.5 76.5t84.5 55.5q28 0 65.5 -64.5t37.5 -110.5q0 -74 -305 -499zM510 -326q48 53 79.5 106.5t45.5 92t18.5 86t2.5 70.5t-8 65.5t-7 52.5q-3 21 67 76.5t85 55.5q28 0 65 -64.5t37 -110.5 q0 -74 -305 -499z" />
<glyph unicode="&#x2022;" horiz-adv-x="1024" d="M154 717q-2 149 102.5 253.5t255.5 104.5q149 0 253.5 -104.5t104.5 -253.5t-104.5 -254t-253.5 -105q-150 0 -254 104t-104 255z" />
<glyph unicode="&#x2026;" horiz-adv-x="2048" d="M186 129q0 62 47 108t109 46t108 -46.5t46 -107.5q0 -60 -46 -107t-106 -47q-63 0 -110.5 45.5t-47.5 108.5zM868 129q0 62 47 108t109 46t108 -46.5t46 -107.5q0 -60 -46 -107t-106 -47q-63 0 -110.5 45.5t-47.5 108.5zM1550 129q0 62 47 108t109 46t108 -46.5 t46 -107.5q0 -60 -46 -107t-106 -47q-63 0 -110.5 45.5t-47.5 108.5z" />
<glyph unicode="&#x202f;" horiz-adv-x="386" />
<glyph unicode="&#x2039;" horiz-adv-x="569" d="M68 487l333 312l8.5 8.5l10.5 10.5t10.5 10t11.5 10t11 8t11.5 6t10.5 2q19 0 19 -27q0 -29 -82 -158t-125 -182q39 -51 122.5 -179.5t90.5 -157.5q0 -29 -25 -29q-21 0 -82 65z" />
<glyph unicode="&#x203a;" horiz-adv-x="569" d="M68 825q0 29 24 29q21 0 82 -66l326 -301l-334 -311l-8.5 -8.5l-10.5 -10.5t-10.5 -10t-11.5 -10t-11 -8t-11.5 -6t-10.5 -2q-18 0 -18 26q0 29 82 158t125 182q-39 51 -122.5 180t-90.5 158z" />
<glyph unicode="&#x205f;" horiz-adv-x="483" />
<glyph unicode="&#x20ac;" d="M31 561v92h151q-2 23 -2 72t2 74h-151v92h164q13 83 42.5 162t80 153t115.5 129.5t155 89t194 33.5q94 0 153 -15t128 -46q59 -26 59 -80v-262h-53q-9 51 -20.5 91.5t-34.5 87t-52.5 77.5t-77 52t-106.5 21q-269 0 -301 -493h432v-92h-436v-58v-88h436v-92h-432 q7 -93 20.5 -166.5t37.5 -140t57.5 -110.5t83 -69.5t112.5 -25.5q243 0 326 324h55l-47 -271q-1 -16 -5.5 -27.5t-16.5 -21t-20.5 -14t-30.5 -14.5q-42 -21 -119 -35.5t-166 -14.5q-112 0 -207 35t-171.5 105t-127.5 183.5t-68 262.5h-159z" />
<glyph unicode="&#x2122;" horiz-adv-x="2123" d="M74 1231l24 203h731l25 -203h-49q-22 85 -58 115t-120 30h-70v-614q0 -41 1.5 -57t13.5 -31t34.5 -18t67.5 -3v-47h-420v47q80 0 98.5 19t18.5 90v614h-70q-84 0 -120 -30t-58 -115h-49zM936 1389v45h291l274 -574l285 574h264v-45q-60 0 -85.5 -24.5t-25.5 -84.5v-537 q0 -40 5.5 -56.5t28 -25t73.5 -8.5v-47h-399v47q52 0 73.5 8t27 24t5.5 56v463h-4l-289 -598h-33l-288 596h-2v-424q0 -81 16 -103t84 -22v-47h-272v47q69 0 85.5 21.5t16.5 103.5v494q-24 45 -61.5 81t-69.5 36z" />
<glyph unicode="&#x25fc;" horiz-adv-x="1024" d="M0 0v1024h1024v-1024h-1024z" />
</font>
</defs>
</svg>
