<?xml version="1.0" standalone="no"?>
<!DOCTYPE svg PUBLIC "-//W3C//DTD SVG 1.1//EN" "http://www.w3.org/Graphics/SVG/1.1/DTD/svg11.dtd" >
<svg xmlns="http://www.w3.org/2000/svg">
<metadata></metadata>
<defs>
<font id="itc_stone_serif_stdBdIt" horiz-adv-x="1290" >
<font-face units-per-em="2048" ascent="1505" descent="-543" />
<missing-glyph horiz-adv-x="645" />
<glyph unicode="&#xfb01;" horiz-adv-x="1556" d="M-33 -510l285 1419h-197l29 115h192q23 90 61.5 163.5t84 122.5t104 86t113 57.5t120 32.5t116 15.5t108.5 3.5q119 0 231.5 -25.5t184.5 -70.5l-33 -182l-162 -35q-30 90 -88 149.5t-133 59.5q-229 0 -287 -279l-22 -98h383q88 0 216 13.5t144 11.5q28 -3 46 -40.5 t10 -70.5l-121 -547q-7 -29 -11.5 -51.5t-7.5 -41t-4 -32t-1 -23.5t2 -16.5t5 -10.5t7 -5.5t10 -1.5q28 0 69 20l88 45l33 -69l-475 -230q-87 11 -129 68q-20 26 -24 79.5t8 100.5l120 547q5 24 7 37.5t1.5 35.5t-8 34.5t-26 22t-47.5 9.5h-328q-81 -392 -168.5 -669.5 t-169 -439.5t-190.5 -310h-146z" />
<glyph unicode="&#xfb02;" horiz-adv-x="1564" d="M-33 -510l285 1419h-197l29 115h192q23 90 61.5 163.5t83 122.5t100.5 86t107 57t109 32.5t100.5 16t86.5 3.5q104 0 280 -30l391 30l-247 -1114q-7 -29 -11.5 -51.5t-7.5 -41t-4 -32t-1 -23.5t2 -16.5t5 -10.5t7 -5.5t10 -1.5q28 0 69 20l88 45l33 -69l-475 -230 q-87 11 -129 68q-20 26 -24 79.5t8 100.5l227 1043q-39 63 -95.5 99t-119.5 36q-77 0 -141.5 -72t-92.5 -207l-22 -98h340l-17 -82l-61 -33h-295q-81 -392 -168.5 -669.5t-169 -439.5t-190.5 -310h-146z" />
<glyph horiz-adv-x="2048" />
<glyph horiz-adv-x="2048" />
<glyph unicode="&#xd;" horiz-adv-x="2048" />
<glyph unicode=" "  horiz-adv-x="645" />
<glyph unicode="&#x09;" horiz-adv-x="645" />
<glyph unicode="&#xa0;" horiz-adv-x="645" />
<glyph unicode="!" horiz-adv-x="796" d="M143 133q0 98 61 157.5t161 59.5q78 0 119.5 -47.5t41.5 -107.5q0 -100 -60.5 -160t-160.5 -60q-78 0 -120 48.5t-42 109.5zM295 455q82 641 90 970q3 31 20 47t64.5 24.5t138.5 8.5q75 0 118.5 -4.5t65 -14.5t23.5 -26t-6 -39q-68 -146 -197 -516.5t-159 -449.5h-158z " />
<glyph unicode="&#x22;" horiz-adv-x="1099" d="M298 883q-1 8 1 23t2 16l29 417q1 24 8 48t25 53t57.5 47t95.5 18q57 0 87.5 -18t32.5 -47t-4 -52.5t-18 -48.5l-196 -417l-5 -12q-5 -12 -9 -18t-12.5 -15.5t-21.5 -14t-30 -4.5q-21 0 -31 8.5t-11 16.5zM765 883q-1 8 1 23t2 16l29 417q1 24 8 48t25 53t57.5 47 t95.5 18q57 0 87.5 -18t32.5 -47t-4 -52.5t-18 -48.5l-196 -417l-5 -12q-5 -12 -9 -18t-12.5 -15.5t-21.5 -14t-30 -4.5q-21 0 -31 8.5t-11 16.5z" />
<glyph unicode="#" d="M143 399l45 226h213l76 211h-188l45 225h221l129 373h176l-131 -373h234l133 373h176l-133 -373h161l-45 -225h-192l-72 -211h168l-45 -226h-201l-135 -399h-174l135 399h-235l-146 -399h-174l142 399h-183zM580 625h235l74 211h-234z" />
<glyph unicode="$" d="M33 63l69 330h70q17 -149 40 -209q44 -118 138 -112l123 583q-248 193 -248 353q0 196 174 311t467 115l17 71h157l-16 -80q108 0 209 -28q16 -10 12 -27l-61 -299h-64q-9 22 -32 95t-42 114.5t-40 58.5l-105 -501q43 -35 81.5 -73.5t80.5 -91.5t67 -114.5t25 -120.5 q0 -113 -56 -203t-151 -145.5t-213 -85t-248 -29.5l-34 -176h-158l35 176q-155 3 -289 60q-11 7 -8 28zM512 88q81 19 139 89t58 179q0 17 -6 41t-31 66.5t-66 77.5zM676 1114q0 -32 23 -75t71 -76l78 372q-22 -6 -48 -21.5t-55.5 -41.5t-49 -67.5t-19.5 -90.5z" />
<glyph unicode="%" horiz-adv-x="2199" d="M129 930q0 113 47 213t123.5 168t173.5 107.5t197 39.5q84 0 148.5 -29.5t98 -70t55 -92.5t27 -88t5.5 -66q0 -23 -6 -58.5t-22 -88t-41 -105t-67.5 -106t-96.5 -94t-132.5 -66t-171.5 -25.5q-70 0 -128.5 22.5t-96.5 58.5t-64 84t-37.5 97t-11.5 99zM424 807 q0 -38 0.5 -55.5t2.5 -43.5t6 -36.5t12 -23.5t20.5 -17t30.5 -4q47 0 90 85.5t68.5 196.5t40 199.5t14.5 112.5q0 54 -1 80t-6 53t-16.5 37t-30.5 10q-60 0 -108.5 -85t-73 -198t-37 -198t-12.5 -113zM559 0l936 1434h162l-936 -1434h-162zM1229 346q0 150 80 273t203 189 t257 66q84 0 148.5 -29.5t98 -70t55 -92.5t27 -88t5.5 -66q0 -23 -5.5 -58.5t-22 -88t-41 -105t-67.5 -105.5t-96.5 -93.5t-132 -66t-171.5 -25.5q-70 0 -128.5 22t-96.5 58.5t-64 84t-37.5 96.5t-11.5 99zM1524 223q0 -113 11 -142q14 -38 60 -38q47 0 90 85.5t68.5 196.5 t40 199.5t14.5 112.5q0 56 -1 80.5t-5.5 52.5t-16 37.5t-30.5 9.5q-60 0 -108.5 -85t-73 -198t-37 -198t-12.5 -113z" />
<glyph unicode="&#x26;" horiz-adv-x="1669" d="M86 328q0 48 9.5 91.5t23 77.5t38 66t44 54t53 45t53 35t55 28t48.5 21t44.5 16.5t32.5 11.5q-80 85 -119.5 151.5t-39.5 143.5q0 101 48.5 178.5t128.5 122t172 66.5t191 22q154 0 285 -82l-39 -188h-88q-27 198 -162 198q-66 0 -115 -58t-49 -144q0 -51 26.5 -108.5 t59 -102t115.5 -150.5l291 -372q81 114 95 233t-52 211h-205l8 41l152 88h582l-9 -41l-155 -88h-150q-10 -125 -72 -264t-149 -240q105 -138 293 -332l-12 -59h-402l-102 143q-11 -7 -47.5 -34t-68.5 -45.5t-83 -41.5t-118.5 -35t-147.5 -12q-109 0 -195.5 29.5t-134.5 72 t-80 94t-42.5 90.5t-10.5 67zM430 389q0 -137 78.5 -214t187.5 -77q156 0 275 103l-398 491q-71 -82 -107 -150t-36 -153z" />
<glyph unicode="'" horiz-adv-x="569" d="M290 883q-1 8 1 23t2 16l29 417q1 24 8 48t25 53t57.5 47t95.5 18q57 0 87.5 -18t32.5 -47t-4 -52.5t-18 -48.5l-196 -417l-5 -12q-5 -12 -9 -18t-12.5 -15.5t-21.5 -14t-30 -4.5q-21 0 -31 8.5t-11 16.5z" />
<glyph unicode="(" horiz-adv-x="909" d="M152 328q0 171 47.5 332t127 289t186.5 238t223.5 188t240.5 130l27 -73q-106 -54 -194 -148.5t-143.5 -199.5t-98 -230.5t-64 -230t-34.5 -210t-16 -160t-3 -89.5q0 -54 7 -114t24.5 -137t57.5 -144.5t97 -104.5l-68 -86q-108 65 -186.5 142.5t-122 149t-69 156.5 t-32.5 152.5t-7 149.5z" />
<glyph unicode=")" horiz-adv-x="909" d="M-111 -336q106 54 194 148.5t143.5 199.5t98 230.5t64 230t34.5 210t16 160t3 89.5q0 54 -7 114t-24.5 138t-57 147.5t-95.5 110.5l66 63q108 -62 186.5 -136.5t122 -145t69 -155t32.5 -151.5t7 -149q0 -171 -47.5 -332t-127 -289t-186.5 -238t-223.5 -188.5 t-240.5 -130.5z" />
<glyph unicode="*" horiz-adv-x="1138" d="M274 1049l119 290l197 -135l-53 230l335 -29l-106 -201l4 -4l213 111l78 -254l-270 -29l200 -143l-282 -168l-70 205l-115 -197l-237 172l217 137v4z" />
<glyph unicode="+" d="M150 420v196h417v420h197v-420h418v-196h-418v-420h-197v420h-417z" />
<glyph unicode="," horiz-adv-x="645" d="M-70 -291q42 46 75 89.5t53.5 85t34 73t21.5 71t11 60t6 58.5t4 49q1 26 90.5 89.5t108.5 63.5q23 0 54.5 -35.5t51.5 -84.5t11 -83t-99 -144t-194.5 -229t-126.5 -151z" />
<glyph unicode="-" horiz-adv-x="681" d="M86 393l37 189h510l-37 -189h-510z" />
<glyph unicode="." horiz-adv-x="645" d="M121 133q0 98 60.5 157.5t160.5 59.5q78 0 120 -47.5t42 -107.5q0 -100 -60.5 -160t-160.5 -60q-78 0 -120 48.5t-42 109.5z" />
<glyph unicode="/" horiz-adv-x="681" d="M-119 -221l836 1726h192l-837 -1726h-191z" />
<glyph unicode="0" d="M45 561q0 181 65.5 348.5t173 287t249.5 190.5t290 71q87 0 159 -24.5t119.5 -63t84 -91.5t56.5 -103.5t32.5 -105.5t16 -92.5t3.5 -68.5q0 -57 -11.5 -129.5t-38.5 -163t-67.5 -178.5t-104 -172.5t-140.5 -148.5t-185 -103t-231 -39q-102 0 -184 35t-134.5 92.5 t-87.5 135t-50 158t-15 165.5zM410 365q0 -43 0.5 -65t3 -60t7.5 -58.5t15.5 -47t25.5 -40t38 -23.5t53 -10q65 0 122.5 67.5t97 174t71 230.5t50 245t27.5 208t9 128q0 32 -0.5 49.5t-2.5 49.5t-6.5 50t-13.5 41.5t-22.5 36.5t-33.5 22t-46 9q-84 0 -154.5 -89 t-113.5 -215.5t-73 -272t-42 -251t-12 -159.5v-20z" />
<glyph unicode="1" d="M129 0l16 78q166 11 207 23q39 12 49 38q21 58 43 162l177 850q6 30 -11.5 46.5t-50.5 17.5t-69 -4.5t-72 -16.5l-105 -31l-2 94l779 201l-240 -1157q-23 -110 -25 -162q-1 -28 40 -40q36 -11 192 -21l-17 -78h-911z" />
<glyph unicode="2" d="M-2 0l41 195q19 20 65 52t113 76.5t113 79.5q190 143 253 198q235 203 282 388q14 52 14 105q0 45 -16.5 78t-38 49t-51 25.5t-46.5 11.5t-33 2q-35 0 -72 -11.5t-78.5 -38.5t-81.5 -78.5t-71 -123.5h-125l45 215q93 105 237.5 170t307.5 65q117 0 205 -26t137 -70.5 t72.5 -95t23.5 -107.5q0 -74 -36.5 -151.5t-89.5 -139.5t-132 -129.5t-143 -112.5t-145 -96q-289 -180 -447 -264v-4h414h46h45t40 0.5t40 2.5t34.5 5.5t34 9t29.5 14t29.5 19t24 24.5t23.5 32h94l-203 -369h-954z" />
<glyph unicode="3" d="M25 297q-3 25 20 41l84 51q48 31 59 12l84 -172q9 -19 26.5 -42.5t43 -49t60.5 -42.5t69 -17q125 0 204 118.5t79 303.5q0 45 -13 80t-31.5 57t-50 37.5t-57.5 23t-66 11.5t-62.5 4t-61 -1t-47.5 -1l22 110q97 3 175.5 25t141.5 65.5t97.5 118t34.5 174.5 q0 69 -45.5 116.5t-108.5 47.5q-142 0 -276 -233l-101 39l41 192q192 92 442 92q134 0 239.5 -31.5t170 -97.5t64.5 -158q0 -158 -138 -254.5t-366 -125.5v-5q113 -10 198 -45.5t132 -85.5t69.5 -104.5t22.5 -112.5q0 -217 -197 -340t-537 -123q-148 0 -249 36.5t-146 74.5z " />
<glyph unicode="4" d="M86 530q117 163 396.5 489.5t365.5 414.5h399l-168 -803h176l-45 -221h-176l-24 -119q-23 -107 -25 -154q-1 -15 9 -25t34 -16t46.5 -9t61.5 -7q14 -1 21 -2l-16 -78h-860l16 78q174 10 214 23q38 12 48 36q20 56 41 154l25 119h-523zM287 631h383l125 598l-4 4 q-199 -185 -504 -602z" />
<glyph unicode="5" d="M57 274q-8 27 19 45l80 58q27 23 39 6l133 -190q21 -28 37 -45.5t45.5 -39t71.5 -32t96 -10.5q38 0 76 13t72 39.5t55.5 72t21.5 104.5q0 55 -29.5 109t-93 107.5t-178 99t-269.5 73.5l410 750h715l-160 -271h-582l-84 -155q116 -11 213 -37t163.5 -60t118.5 -77 t82 -84.5t49.5 -85.5t26.5 -77.5t7 -62.5q0 -121 -45 -218.5t-114.5 -157.5t-159.5 -100.5t-174 -56.5t-164 -16q-125 0 -237 25.5t-177 73.5z" />
<glyph unicode="6" d="M88 475q0 111 49 227t133.5 220.5t203.5 199.5t254 166t289.5 116t305.5 54l-20 -102q-126 -1 -248 -48.5t-219.5 -127.5t-174 -183t-120.5 -217q3 2 35 17.5t39 19t36 16.5t40.5 17t37 12.5t42.5 11.5t39.5 6t43.5 3q74 0 135 -20.5t101.5 -54.5t68 -80.5t39.5 -97.5 t12 -106q0 -112 -36 -204.5t-96 -155.5t-141 -106.5t-170 -63t-183 -19.5q-125 0 -222 40.5t-155.5 110.5t-88.5 158.5t-30 190.5zM436 328q0 -35 6.5 -70.5t22 -74.5t49 -63t80.5 -24q59 0 110.5 39.5t84 100t51 128.5t18.5 128q0 36 -4 68.5t-17 78t-45 73t-81 27.5 q-36 0 -71.5 -12t-73 -42.5t-66 -75.5t-46.5 -118t-18 -163z" />
<glyph unicode="7" d="M37 0q50 58 231.5 269t262 304.5t215 254.5t241.5 294h-342q-89 0 -153 -17.5t-109 -72.5h-78l84 402h979l-25 -113q-80 -119 -254 -361t-392.5 -543t-301.5 -417h-358z" />
<glyph unicode="8" d="M109 319q0 59 15.5 112t39 91.5t60 73.5t68 57t74 43t68 31.5t60.5 22.5q-94 61 -149.5 155.5t-55.5 179.5q0 68 24.5 124.5t67 96.5t98 70t120.5 47.5t130.5 26t132.5 8.5q183 0 295.5 -77t112.5 -193q0 -55 -15 -104t-38.5 -84t-56 -65t-62.5 -49t-62.5 -34.5t-52 -22 t-35.5 -10.5q271 -171 271 -385q0 -91 -35 -167t-94.5 -129t-140 -90.5t-171.5 -55t-188 -17.5q-125 0 -221 29.5t-151 79.5t-82 109t-27 126zM426 301q0 -56 21 -106.5t71 -87.5t119 -37q98 0 167.5 72.5t69.5 191.5q0 50 -19.5 93.5t-63.5 86t-81.5 71t-105.5 74.5 q-178 -136 -178 -358zM633 1139q0 -66 54 -128t151 -110q73 40 128.5 126.5t55.5 174.5q0 71 -39 122.5t-129 51.5q-86 0 -153.5 -65t-67.5 -172z" />
<glyph unicode="9" d="M49 -25l21 103q269 46 466.5 199.5t280.5 381.5l-4 5q-46 -32 -81 -51t-97.5 -35.5t-134.5 -16.5q-157 0 -255 100t-98 244q0 108 35 199t96 155.5t143.5 110t178 67t199.5 21.5q119 0 215.5 -36t157.5 -97t93.5 -137.5t32.5 -159.5q-1 -138 -52 -272t-139.5 -246 t-209 -208.5t-258 -165.5t-289.5 -111t-301 -50zM512 934q0 -240 152 -240q34 0 69 12t71.5 42.5t65 76t46.5 118.5t18 163q0 34 -6.5 70.5t-21 74.5t-44 62t-69.5 24q-113 0 -197 -120.5t-84 -282.5z" />
<glyph unicode=":" horiz-adv-x="645" d="M123 131q0 100 60.5 159.5t160.5 59.5q78 0 120 -48t42 -109q0 -98 -60.5 -158t-160.5 -60q-78 0 -120 48t-42 108zM281 782q0 100 60.5 159.5t160.5 59.5q78 0 120 -48t42 -109q0 -98 -61 -157.5t-161 -59.5q-78 0 -119.5 47.5t-41.5 107.5z" />
<glyph unicode=";" horiz-adv-x="645" d="M-41 -289q42 46 75 89.5t53.5 85t34 73t21.5 71t11 60t6 58.5t4 49q1 26 90 89.5t108 63.5q23 0 54.5 -35.5t51.5 -84.5t11 -83t-99 -144t-194.5 -229t-126.5 -151zM287 782q0 98 60.5 157.5t160.5 59.5q78 0 120 -47.5t42 -107.5q0 -100 -60.5 -159.5t-160.5 -59.5 q-78 0 -120 48t-42 109z" />
<glyph unicode="&#x3c;" d="M143 463v110l1043 480v-191l-750 -344l750 -344v-190z" />
<glyph unicode="=" d="M150 221v197h1032v-197h-1032zM150 618v197h1032v-197h-1032z" />
<glyph unicode="&#x3e;" d="M143 -16v190l748 344l-748 344v191l1043 -480v-110z" />
<glyph unicode="?" horiz-adv-x="948" d="M139 133q0 98 60.5 157.5t160.5 59.5q78 0 120 -47.5t42 -107.5q0 -100 -60.5 -160t-160.5 -60q-78 0 -120 48.5t-42 109.5zM236 1294q-12 9 2 27l73 143q32 17 132.5 29t211.5 12q210 0 318 -81t108 -199q0 -45 -12 -88.5t-30.5 -78.5t-49 -72t-57.5 -63t-67.5 -58 t-67.5 -50.5t-68.5 -47t-60.5 -42.5q-55 -40 -108.5 -110.5t-92.5 -147.5h-193q46 196 189 352q74 81 131 191.5t57 218.5q0 30 -1 52.5t-6 54t-13.5 52t-25.5 35.5t-40 15q-53 0 -114 -80l-89 -119q-15 -15 -28 -6z" />
<glyph unicode="@" horiz-adv-x="1705" d="M97.5 550.5q1.5 55.5 11.5 104.5q35 170 131 320t228.5 255.5t298.5 166.5t337 61q148 0 273 -46.5t208 -127t118.5 -197t8.5 -249.5q-11 -54 -38 -120t-75.5 -141t-108 -136t-144.5 -101.5t-177 -40.5q-40 0 -71.5 14.5t-49.5 35.5t-28.5 44t-13.5 40.5t0 25.5 q-4 -2 -36.5 -26t-66 -46t-83 -42.5t-91.5 -22.5q-21 -1 -43.5 2.5t-51.5 14.5t-50 33.5t-39 59t-18 90t12 127.5q18 87 52 158t72 116t85 79t86.5 51t81.5 27t64 12t40 2q124 0 162 -113l41 86h200l-260 -559q-7 -14 -11.5 -31.5t-6 -42.5t17 -41t56.5 -16q43 0 88.5 27 t91 81.5t85.5 148t66 214.5q11 55 12.5 109t-9 108.5t-32.5 102.5t-60.5 89.5t-89.5 71.5t-123 47t-158 17q-93 0 -184.5 -23.5t-181 -75t-163 -125t-130 -181.5t-83.5 -238q-34 -171 -12.5 -300.5t87 -216.5t156 -131.5t195.5 -44.5q135 0 268.5 28.5t223.5 70.5l28 -62 q-122 -47 -285.5 -83t-283.5 -36q-125 0 -226.5 27t-168.5 71t-115 103.5t-72.5 122t-35.5 129.5t-9.5 122.5zM774 508q-2 -28 2 -44.5t13.5 -26t21 -12.5t27.5 -3q21 0 51 27.5t65 80t72.5 142t67.5 200.5q13 64 -0.5 95.5t-44.5 31.5q-61 0 -143 -113t-122 -311 q-8 -39 -10 -67z" />
<glyph unicode="A" horiz-adv-x="1593" d="M-121 0l17 78q57 0 127 38t133 126q56 80 300.5 480t442.5 736h166l242 -1182q16 -77 71 -137.5t119 -60.5l-16 -78h-723l16 78q68 0 98 38q22 28 22 73q0 16 -3 34l-37 205h-463l-104 -195q-34 -60 -34 -97q0 -58 85 -58l-16 -78h-443zM459 543h372l-75 493h-4z" />
<glyph unicode="B" horiz-adv-x="1513" d="M-59 0l16 78q47 2 78 5.5t54.5 11.5t35.5 16t21.5 26.5t13.5 34t10 47.5l207 995q13 40 13 67q0 8 -1 15q-5 30 -41 43t-125 17l17 78h884q176 0 279.5 -71.5t103.5 -182.5q0 -86 -34.5 -156.5t-95.5 -117.5t-137 -76.5t-165 -41.5v-4q100 -6 176.5 -36.5t120 -76.5 t65 -97.5t21.5 -106.5q0 -210 -179.5 -338.5t-463.5 -128.5h-874zM606 202q-1 -20 -1 -36q-1 -18 1 -31q4 -24 21 -36t34.5 -14.5t51.5 -2.5q63 0 116 36.5t84 88.5t53 112.5t30 104.5t8 68q0 108 -55 169.5t-148 61.5h-94l-84 -412q-14 -66 -17 -109zM725 805h115 q107 0 181.5 113.5t74.5 293.5q0 63 -32.5 101.5t-123.5 38.5h-102z" />
<glyph unicode="C" horiz-adv-x="1523" d="M123 582q0 47 9.5 108t38.5 147.5t74 168.5t124.5 166t180.5 146t252 101t331 39q102 0 205.5 -25.5t163.5 -60.5q55 -32 55 -58q0 -3 -1 -5l-53 -265h-63q-15 53 -30 93t-41.5 88t-58 78.5t-80 51.5t-106.5 21q-115 0 -220.5 -76t-181 -203.5t-120.5 -300t-45 -358.5 q0 -21 1.5 -44.5t9 -62.5t19 -73.5t34.5 -72.5t54 -65.5t78.5 -45t106.5 -17.5q128 0 259 96t251 263l55 -23l-110 -280q-6 -17 -89.5 -49.5t-210 -60.5t-227.5 -28q-117 0 -214 20.5t-164.5 54.5t-119.5 83t-83 101.5t-50.5 114.5t-26.5 117.5t-7 115.5z" />
<glyph unicode="D" horiz-adv-x="1712" d="M-59 0l16 78q47 2 78 5.5t54.5 11.5t35.5 16t21.5 26.5t13.5 34t10 47.5l207 995q13 40 13 67q0 8 -1 15q-5 30 -41 43t-125 17l17 78h854q122 0 224.5 -30.5t175 -84t123 -126t75 -155.5t24.5 -174q0 -20 -2.5 -50.5t-14.5 -89.5t-31.5 -119t-58 -133t-89.5 -137.5 t-130.5 -127.5t-176.5 -107.5t-232.5 -72t-292.5 -27.5h-747zM626 86q15 -4 42 -4q99 0 185.5 34t148.5 90.5t113 132t83.5 154.5t55 161.5t31.5 151t9 124.5q0 74 -17 144.5t-51.5 134.5t-98 103.5t-146.5 39.5h-143l-220 -1057q-27 -130 -27 -160q0 -41 35 -49z" />
<glyph unicode="E" horiz-adv-x="1366" d="M-59 0l16 78q70 3 107.5 9t60 24.5t29.5 39.5t16 68l207 995q13 40 13 67q0 8 -1 15q-5 30 -41 43t-125 17l17 78h1155l-70 -330h-63q-11 109 -57.5 168t-143.5 59h-227l-111 -534h164q52 0 93 29.5t85 105.5l45 82h64l-113 -539h-64l-14 94q-9 69 -37 97t-82 28h-164 l-92 -448q-6 -29 -6 -51t4 -37.5t16.5 -26t25.5 -16t37 -8.5t45 -4t56 -1q113 0 218.5 60t169.5 133l67 78h64l-140 -373h-1224z" />
<glyph unicode="F" horiz-adv-x="1327" d="M-59 0l16 78q70 3 107.5 9t60 24.5t29.5 39.5t16 68l207 995q13 40 13 67q0 8 -1 15q-5 30 -41 43t-125 17l17 78h1155l-70 -330h-63q-11 109 -57 168t-144 59h-227l-119 -575h192q52 0 93 29.5t85 105.5l45 82h64l-113 -539h-63l-14 94q-9 69 -37 97t-82 28h-193 l-90 -434q-10 -48 -12 -77.5t35 -44.5t133 -19l-17 -78h-800z" />
<glyph unicode="G" horiz-adv-x="1675" d="M123 582q0 47 9.5 108t38.5 147.5t74 168.5t124.5 166t180.5 146t252 101t331 39q84 0 159 -12.5t102 -21.5t99 -35q65 -21 65 -65q0 -7 -2 -15l-53 -265h-63q-15 53 -30 93t-41.5 88t-58 78.5t-80 51.5t-106.5 21q-115 0 -220.5 -76t-181 -203.5t-120.5 -300t-45 -358.5 q0 -176 63 -278.5t158 -102.5q22 0 36 1t39 6t43 15t41.5 29.5t40.5 47t34 70.5t28 98q10 44 21.5 88.5t16.5 66t5 41.5q0 28 -12 47.5t-26.5 29t-40 15t-39.5 6t-37 0.5h-76l16 78h815l-16 -78h-43q-38 0 -82.5 -11t-60.5 -38q-16 -28 -27 -90l-86 -409q-325 -95 -580 -95 q-117 0 -214 20.5t-164.5 54.5t-119.5 83t-83 101.5t-50.5 114.5t-26.5 117.5t-7 115.5z" />
<glyph unicode="H" horiz-adv-x="1781" d="M-59 0l16 78q70 3 107.5 9t60 24.5t29.5 39.5t16 68l207 995q13 40 13 67q0 8 -1 15q-5 30 -41 43t-125 17l17 78h800l-16 -78q-34 -1 -60.5 -3.5t-46.5 -7t-34 -8t-25 -13t-16.5 -14t-11 -19t-7.5 -21.5t-6.5 -26.5t-7.5 -29.5l-78 -372h457l78 372q13 40 13 67 q0 8 -1 15q-5 30 -41 43t-125 17l16 78h801l-16 -78q-34 -1 -60.5 -3.5t-46.5 -7t-34 -8t-25 -13t-16.5 -14t-11 -19t-7.5 -21.5t-6.5 -26.5t-7.5 -29.5l-207 -995q-10 -48 -12 -77.5t35 -44.5t133 -19l-17 -78h-801l17 78q47 2 78 5.5t54.5 11.5t35.5 16t21.5 26.5t13.5 34 t10 47.5l104 496h-456l-105 -496q-10 -48 -12 -77.5t35 -44.5t133 -19l-17 -78h-800z" />
<glyph unicode="I" horiz-adv-x="892" d="M-59 0l16 78q70 3 107.5 9t60 24.5t29.5 39.5t16 68l207 995q13 40 13 67q0 8 -1 15q-5 30 -41 43t-125 17l17 78h800l-16 -78q-34 -1 -60.5 -3.5t-46.5 -7t-34 -8t-25 -13t-16.5 -14t-11 -19t-7.5 -21.5t-6.5 -26.5t-7.5 -29.5l-207 -995q-10 -48 -12 -77.5t35 -44.5 t133 -19l-17 -78h-800z" />
<glyph unicode="J" horiz-adv-x="892" d="M-133 -311q98 73 181.5 206.5t121.5 315.5l207 1003q13 40 13 67q0 8 -1 15q-5 30 -41 43t-125 17l17 78h800l-16 -78q-34 -1 -60.5 -3.5t-46.5 -7t-34 -8t-25 -13t-16.5 -14t-11 -19t-7.5 -21.5t-6.5 -26.5t-7.5 -29.5l-211 -1013q-10 -45 -23.5 -88.5t-42 -102 t-64.5 -108.5t-93.5 -101.5t-127 -88.5t-168 -62.5t-212.5 -30.5v70z" />
<glyph unicode="K" horiz-adv-x="1630" d="M-59 0l16 78q70 3 107.5 9t60 24.5t29.5 39.5t16 68l207 995q13 40 13 67q0 8 -1 15q-5 30 -41 43t-125 17l17 78h800l-16 -78q-34 -1 -60.5 -3.5t-46.5 -7t-34 -8t-25 -13t-16.5 -14t-11 -19t-7.5 -21.5t-6.5 -26.5t-7.5 -29.5l-92 -442h39q104 109 309.5 328.5 t308.5 329.5h238l-21 -148l-57 -33q-108 -61 -256 -198l-205 -191l129 -233q267 -482 311 -566l-12 -61h-381q-21 0 -40 8t-36.5 27.5t-31 39t-31.5 55.5t-30.5 64t-34.5 77.5t-37 82.5l-146 316h-37l-94 -451q-10 -48 -12 -77.5t35 -44.5t133 -19l-17 -78h-800z" />
<glyph unicode="L" horiz-adv-x="1327" d="M-59 0l16 78q69 3 106 9t59.5 24.5t29.5 39.5t16 68l207 995q13 40 13 67q0 8 -1 15q-5 30 -41 43t-125 17l17 78h800l-16 -78q-34 -1 -60.5 -3.5t-46.5 -7t-34 -8t-25 -13t-16.5 -14t-11 -19t-7.5 -21.5t-6.5 -26.5t-7.5 -29.5l-199 -960q-7 -31 -7 -54t3.5 -39.5 t16 -27.5t25.5 -17t37.5 -9t45 -4t55.5 -1q113 0 218 60t169 133l68 78h64l-140 -373h-1222z" />
<glyph unicode="M" horiz-adv-x="2009" d="M-49 0l16 78q128 4 159.5 38.5t67.5 194.5q5 19 7 29l170 823q-23 93 -73 143t-103 50h-37l16 78h557q42 -154 127 -464.5t127 -465.5l688 930h525l-17 -78h-53q-143 0 -180 -187l-199 -950q-10 -48 -12 -77.5t35 -44.5t133 -19l-17 -78h-801l17 78q47 2 78 5.5 t54.5 11.5t35.5 16t21.5 26.5t13.5 34t10 47.5l158 756h-5l-692 -973h-45q-46 162 -138 486.5t-138 486.5h-4l-131 -635q-11 -49 -17 -79.5t-9 -60.5t-2.5 -46t8 -31.5t17 -22t30 -12t41.5 -7.5t56 -3l-16 -78h-479z" />
<glyph unicode="N" horiz-adv-x="1669" d="M-16 0l16 78q29 1 47 1.5t38.5 5t31 6.5t24.5 12t20 16t16 25.5t14.5 32t13 43.5t13.5 53t15 67l181 815q-50 98 -111.5 149.5t-152.5 51.5l16 78h637q152 -347 520 -971l121 631q3 18 10 51q16 69 16 113v9q-2 46 -49.5 66t-167.5 23l17 78h545l-17 -78q-48 -2 -72.5 -4 t-51.5 -12.5t-38.5 -24t-26 -46t-23 -70.5t-21.5 -105l-228 -1094h-303q-60 153 -224.5 467t-322.5 577l-139 -702q-26 -133 -26 -174v-5q2 -50 46 -67q39 -15 175 -18l-17 -78h-542z" />
<glyph unicode="O" horiz-adv-x="1671" d="M123 561q0 191 76.5 359t205 285t302 185t362.5 68q161 0 299 -74t222.5 -211.5t84.5 -308.5q0 -129 -33.5 -245t-91 -204t-134 -162t-161.5 -124.5t-175 -86t-173 -51.5t-157 -16q-88 0 -174 21t-168.5 67.5t-145.5 113t-101 166t-38 218.5zM557 477q0 -94 10.5 -166 t34.5 -129.5t67 -88t103 -30.5q68 0 128 33t104 89t81 127.5t62 152t44 158.5t29.5 151t15.5 125.5t5 85.5q0 68 -15 134t-44 123t-77.5 92.5t-109.5 35.5q-80 0 -152 -57.5t-123 -151t-88.5 -211t-56 -239.5t-18.5 -234z" />
<glyph unicode="P" horiz-adv-x="1517" d="M-59 0l16 78q70 3 107.5 9t60 24.5t29.5 39.5t16 68l207 995q13 40 13 67q0 8 -1 15q-5 30 -41 43t-125 17l17 78h938q97 0 170 -23t112 -55.5t62.5 -77t30 -78.5t6.5 -70q0 -84 -29 -160t-91.5 -143t-153.5 -115.5t-223 -74.5q-118 -23 -257 -23h-33l14 66q48 8 97.5 41 t94 88t73 142.5t28.5 191.5q0 101 -44.5 145.5t-106.5 44.5h-94l-232 -1114q-10 -48 -12 -77.5t35 -44.5t133 -19l-17 -78h-800z" />
<glyph unicode="Q" horiz-adv-x="1695" d="M123 561q0 191 76.5 359t205 285t302 185t362.5 68q161 0 299 -74t222.5 -211.5t84.5 -308.5q0 -88 -15.5 -169t-39.5 -144.5t-63.5 -123t-75.5 -102t-87 -84t-87.5 -67t-88.5 -53.5t-78 -40t-67 -30l168 -82q174 -84 273 -108q71 -17 131 -17q22 0 43 2l12 -57l-221 -98 q-64 -27 -103 -29h-7q-35 0 -65 13q-32 14 -116 65q-18 10 -27 16l-354 219q-172 0 -305.5 46.5t-215 128t-122.5 185.5t-41 226zM557 477q0 -94 10.5 -166t34.5 -129.5t67 -88t103 -30.5q68 0 128 33t104 89t81 127.5t62 152t44 158.5t29.5 151t15.5 125.5t5 85.5 q0 68 -15 134t-44 123t-77.5 92.5t-109.5 35.5q-80 0 -152 -57.5t-123 -151t-88.5 -211t-56 -239.5t-18.5 -234z" />
<glyph unicode="R" horiz-adv-x="1630" d="M-59 0l16 78q70 3 107.5 9t60 24.5t29.5 39.5t16 68l207 995q13 40 13 67q0 8 -1 15q-5 30 -41 43t-125 17l17 78h823q262 0 383 -87t121 -229q0 -159 -120 -278t-298 -162l180 -320q26 -47 58 -98.5t71.5 -111.5t59.5 -93v-53h-445q-46 0 -82.5 58.5t-77.5 170.5 l-141 394h-86l-84 -406q-10 -48 -12 -77.5t35 -44.5t133 -19l-17 -78h-800zM707 723h98q16 0 35.5 3.5t50 14.5t59 29t58 51t51 76.5t35.5 109t14 144.5q0 34 -6.5 62.5t-23 56.5t-49 44.5t-79.5 16.5h-119z" />
<glyph unicode="S" horiz-adv-x="1251" d="M8 100l70 336h63q11 -52 25 -98t40.5 -98.5t60 -89.5t84.5 -62t112 -25q97 0 159 68t62 184q0 182 -219 381q-124 112 -178 214t-54 180q0 173 157 270.5t480 97.5q194 0 369 -82q15 -7 15 -21q0 -3 -1 -7l-63 -304h-64q-14 53 -28.5 96t-37.5 87.5t-50 74.5t-64.5 49 t-81.5 19q-81 0 -128.5 -43t-47.5 -127q0 -92 55 -173t209 -236q191 -196 191 -385q0 -60 -24 -119t-76.5 -116t-128 -100t-187.5 -69.5t-246 -26.5q-117 0 -212 16t-143 33.5t-110 47.5q-9 6 -9 18q0 5 1 10z" />
<glyph unicode="T" horiz-adv-x="1441" d="M168 1120l65 314h1366l-65 -314h-64q-1 4 -2 11q-19 97 -42 132q-45 68 -164 68h-152l-231 -1112q-10 -48 -12 -77.5t34.5 -44.5t132.5 -19l-16 -78h-801l16 78q70 3 107.5 9t60 24.5t29.5 39.5t16 68l232 1112h-152q-50 0 -92 -12.5t-69 -29t-54.5 -49t-42 -55.5 t-37.5 -65h-63z" />
<glyph unicode="U" horiz-adv-x="1593" d="M186 352q1 88 21 193l139 669q13 40 13 66q0 28 -13 42q-26 28 -153 34l16 78h801l-17 -78q-34 -1 -60.5 -3.5t-46.5 -7t-34 -8t-25 -13t-16.5 -14t-11 -19t-7.5 -21.5t-6.5 -26.5t-7.5 -29.5l-149 -722q-14 -68 -14 -122q0 -218 225 -218q82 0 142 16t114.5 57.5 t93 119.5t63.5 196l115 553q4 18 10 50q7 34 10 49.5t6.5 40t3.5 34t-1.5 25.5t-6 21.5t-13 15t-20 12t-28.5 7t-37 5.5t-47 2l17 78h473l-17 -78q-47 -2 -76 -5t-54 -16.5t-37.5 -26.5t-25.5 -48t-20.5 -68t-19.5 -98l-123 -592q-28 -131 -91.5 -234t-149.5 -166t-185 -95 t-205 -32q-147 0 -252.5 26t-167.5 74.5t-94 118.5q-31 68 -31 153v5z" />
<glyph unicode="V" horiz-adv-x="1669" d="M242 1356l16 78h778l-16 -78q-85 0 -124 -35q-33 -30 -33 -86q0 -10 1 -21q42 -366 113 -837h4q155 276 440 776q37 63 46 105q3 14 3 25q0 23 -12 38q-18 21 -50.5 28t-88.5 7l16 78h477l-16 -78q-56 0 -118 -43t-99 -107q-531 -925 -688 -1206h-301q-27 208 -83 591.5 t-79 504.5q-9 49 -32 105t-65.5 105.5t-88.5 49.5z" />
<glyph unicode="W" horiz-adv-x="2426" d="M221 1354l17 78h792l-16 -78q-55 -4 -84 -10.5t-52.5 -24t-29.5 -48.5q-4 -19 -4 -45q0 -17 2 -38l41 -801h4l522 1028h287l119 -1050h4q173 338 377 811q22 52 26 82.5t-16.5 50t-52.5 28.5t-99 19l17 78h503l-16 -78h-7l-105 -28q-56 -30 -95 -107l-590 -1221h-389 l-65 950h-4l-480 -950h-360l-66 1096q-7 97 -30.5 152.5t-57.5 76t-92 29.5z" />
<glyph unicode="X" horiz-adv-x="1554" d="M-82 0l16 78q76 0 160.5 58.5t239.5 221.5l313 320l-268 563q-32 69 -65.5 92t-100.5 23l16 78h711l-16 -78q-26 0 -46 -2.5t-38.5 -11t-27 -22.5t-6 -38.5t18.5 -58.5l140 -262l256 258q34 36 47.5 66.5t-0.5 50.5t-58 20l17 78h409l-16 -78q-138 0 -207 -74l-395 -416 l297 -612q52 -105 69 -127q31 -40 89 -47q15 -2 34 -2l-16 -78h-752l17 78q20 0 30 0.5t27.5 2t26 5.5t20 10.5t14.5 17t4.5 25.5t-4.5 36t-18 48l-166 363l-321 -330q-99 -103 -99 -146q0 -15 12 -22q16 -10 58 -10l-16 -78h-406z" />
<glyph unicode="Y" horiz-adv-x="1517" d="M145 1356l17 78h753l-16 -78q-76 0 -109 -18q-32 -17 -32 -51.5t16 -90.5l152 -537l393 523q35 47 43 81.5t-9.5 54t-50 29t-79.5 9.5l16 78h467l-16 -78q-52 0 -92.5 -18.5t-86.5 -82.5l-450 -596q-88 -119 -103 -200l-51 -240q-10 -48 -12 -77.5t35 -44.5t133 -19 l-16 -78h-801l16 78q70 3 107.5 9t60 24.5t29.5 39.5t16 68l64 305l-187 672q-22 90 -75 125t-132 35z" />
<glyph unicode="Z" horiz-adv-x="1402" d="M-8 115l989 1222h-340q-66 0 -116 -18t-84 -54t-54 -69t-41 -82h-63l67 320h1135l-27 -119l-964 -1219h479q129 0 197.5 60t117.5 204h64l-76 -360h-1239z" />
<glyph unicode="[" horiz-adv-x="720" d="M-37 -395l395 1900h605l-19 -88h-98q-132 0 -179.5 -22.5t-62.5 -91.5l-307 -1479q-17 -80 24.5 -105.5t180.5 -25.5h84l-19 -88h-604z" />
<glyph unicode="\" d="M203 1505h192l836 -1726h-191z" />
<glyph unicode="]" horiz-adv-x="720" d="M-256 -395l18 88h84q139 0 190 25t68 106l308 1479q15 69 -23.5 91.5t-169.5 22.5h-98l18 88h604l-395 -1900h-604z" />
<glyph unicode="^" d="M186 686l375 748h246l379 -748h-195l-307 606l-305 -606h-193z" />
<glyph unicode="_" horiz-adv-x="1024" d="M0 -154h1024v-102h-1024v102z" />
<glyph unicode="`" horiz-adv-x="872" d="M248 1509q10 50 52.5 81.5t88.5 31.5q22 0 41 -6t38 -23.5t27.5 -26.5t30 -37.5t25.5 -33.5l252 -324h-113l-303 168q-38 22 -59.5 36.5t-45.5 36t-32 45.5t-2 52z" />
<glyph unicode="a" horiz-adv-x="1437" d="M78 319q0 94 32.5 190t104.5 189t175.5 165t259.5 116.5t341 44.5h383l-160 -717q-9 -36 -9 -59q1 -26 11 -34q7 -6 19 -5q24 0 68 22l88 43l32 -69l-475 -230q-87 11 -129 68q-20 25 -24 79q-1 13 -1 27q0 39 9 74l41 189l-13 6q-111 -199 -261 -321t-255 -122 q-107 0 -172 94t-65 250zM475 377q3 -141 98 -141q50 0 127.5 115.5t147.5 275.5t113 307h-162q-71 0 -129.5 -45t-93.5 -111.5t-59 -145.5q-23 -79 -33 -144q-9 -59 -9 -102v-9z" />
<glyph unicode="b" horiz-adv-x="1339" d="M25 0l278 1266q12 50 12 73q0 57 -57 57q-6 0 -12 -1l-131 -6l16 69l623 47l-179 -755l13 -9q26 30 49.5 55.5t81 76.5t111.5 85.5t130 62.5t148 28q61 0 107 -49t65.5 -113.5t19.5 -128.5q0 -221 -114 -395t-309 -268.5t-433 -94.5h-419zM424 92q58 -22 119 -22 q36 0 82.5 28.5t94.5 83t88 125t65.5 165t25.5 192.5q0 172 -78 172q-23 0 -55.5 -19.5t-71 -57.5t-78.5 -101t-76 -142t-67 -189.5t-49 -234.5z" />
<glyph unicode="c" horiz-adv-x="1017" d="M78 360v8q0 10 1 24q2 22 11 66.5t25.5 93.5t50 108.5t78 113.5t115 108t157.5 93q81 36 175.5 55t164.5 19q127 0 213 -45l-29 -154l-82 -27q-28 60 -72.5 93.5t-99.5 33.5q-90 0 -163.5 -91t-110.5 -218t-37 -252q0 -108 38 -175t122 -67q24 0 45.5 5t52 21.5t48 27 t67 44.5t74.5 50l57 -74l-209 -131q-89 -56 -192.5 -85.5t-165.5 -29.5q-64 0 -116.5 18t-86 44t-59 66t-38 72t-21 75t-10.5 63.5t-3 46.5z" />
<glyph unicode="d" horiz-adv-x="1452" d="M78 319q0 94 32.5 190t104 189t174 165t255.5 116.5t335 44.5l53 242q12 50 12 73q0 57 -57 57q-6 0 -12 -1l-131 -6l16 69l623 47l-269 -1198q-9 -36 -9 -59q1 -26 11 -34q7 -6 19 -5q24 0 68 22l88 43l32 -69l-475 -230q-87 11 -129 68q-20 25 -24 79q-1 13 -1 27 q0 39 9 74l41 189l-13 6q-111 -199 -261 -321t-255 -122q-107 0 -172 94t-65 250zM483 377q2 -73 23.5 -107t66.5 -34q50 0 127.5 115.5t147.5 275.5t113 307h-162q-71 0 -128.5 -45t-91.5 -111t-57 -146q-24 -80 -32 -144q-8 -57 -7 -101v-10z" />
<glyph unicode="e" horiz-adv-x="1050" d="M78 360q0 93 33.5 189.5t101 186t159 159.5t217.5 112t267 42q83 0 148 -51t65 -138q0 -75 -45.5 -145t-123.5 -118q-78 -47 -183 -69q-52 -11 -107 -11q-57 0 -118 11q-17 -73 -17 -142q1 -64 15 -117q14 -55 51.5 -88.5t93.5 -33.5q24 0 45.5 5t52 21.5t48 27t67 44.5 t74.5 50l57 -74l-209 -131q-89 -56 -192.5 -85.5t-165.5 -29.5q-64 0 -116.5 17.5t-86.5 44.5t-59.5 65t-38.5 73t-21 75t-10 64t-2 46zM504 586q19 -3 38 -2q39 0 74 11q52 17 87 50.5t60 76t36.5 84.5t11.5 77q0 67 -61 67q-67 0 -147 -119t-99 -245z" />
<glyph unicode="f" horiz-adv-x="796" d="M-33 -512l285 1421h-197l29 115h192q23 90 61.5 163.5t83 122.5t100.5 86t107 57t109 32.5t100.5 16t86.5 3.5q196 0 284 -59l-37 -217l-69 -21q-52 193 -172 193q-77 0 -141.5 -72t-92.5 -207l-22 -98h340l-17 -82l-61 -33h-295q-81 -392 -168.5 -669.5t-169 -440 t-190.5 -311.5h-146z" />
<glyph unicode="g" horiz-adv-x="1077" d="M-143 -213q0 105 112 187.5t305 119.5q-47 55 -47 111q0 15 7 28.5t21.5 27.5t30.5 25.5t42.5 26t47.5 25.5t54.5 28t56.5 29v4q-53 4 -84 9q-101 20 -182.5 90t-81.5 170q0 156 140.5 268.5t351.5 112.5q154 0 233 -31q35 -1 69 -1q164 0 292 32l24 -45l-51 -78h-211 q41 -85 41 -123q0 -58 -21.5 -112.5t-50 -91t-66.5 -68.5t-61 -47t-43 -25q-6 -3 -41.5 -19.5t-54.5 -26.5t-46.5 -26t-40.5 -29.5t-13 -25.5q0 -31 33.5 -72t81 -84.5t94.5 -89.5t80.5 -100t33.5 -103q0 -68 -41.5 -127t-106 -98.5t-144 -68t-153.5 -41.5t-136 -13 q-221 0 -348 77t-127 175zM131 -209q0 -74 61.5 -121t147.5 -47q70 0 131 47t61 117q0 34 -16.5 67.5t-52 68.5t-59.5 55.5t-68 53.5q-12 9 -17 13q-188 -107 -188 -254zM455 664q0 -78 26 -135.5t76 -57.5q47 0 85 53.5t56.5 125t18.5 138.5q0 37 -4 70t-14 65t-29.5 51 t-46.5 19q-42 0 -76 -31.5t-53 -82t-29 -106t-10 -109.5z" />
<glyph unicode="h" horiz-adv-x="1441" d="M45 0l277 1266q12 50 12 73q0 57 -58 57q-6 0 -12 -1l-131 -6l17 69l622 47l-188 -837l12 -4q115 170 298 277.5t337 107.5q119 0 119 -131q0 -50 -17 -117l-114 -494q-8 -35 -8 -58q0 -40 26 -40q29 0 70 20l88 45l32 -69l-475 -230q-87 11 -129 68q-20 25 -24 79 q-1 13 -1 27q0 39 9 74l117 453q18 63 18 104v16q-4 44 -43 44q-23 0 -62 -27.5t-89.5 -84t-100 -131.5t-95.5 -182.5t-73 -224.5l-45 -190h-389z" />
<glyph unicode="i" horiz-adv-x="784" d="M53 901l572 141q17 7 30 7q20 0 36 -16t16 -48q0 -19 -7 -47l-120 -547q-7 -29 -11.5 -51.5t-7.5 -41t-4 -32t-1 -23.5t2 -16.5t5 -10.5t7 -5.5t10 -1.5q28 0 69 20l88 45l33 -69l-475 -230q-71 9 -108 43.5t-46 104.5q-1 11 -1 21q0 41 10 79l120 547q1 7 4 18.5t4 17.5 t3 15.5t2 14.5t-0.5 12t-3 10.5t-6 7t-9.5 5t-14 1.5q-16 0 -90 -16l-86 -18zM295 1298q8 83 71 145t164 62q96 0 144 -62q40 -51 41 -117q0 -14 -2 -28q-8 -85 -70.5 -146.5t-165.5 -61.5q-96 0 -144 62q-40 51 -40 118q0 14 2 28z" />
<glyph unicode="j" horiz-adv-x="796" d="M-100 -512l22 88q166 309 223 553l154 641q13 64 12 74q0 28 -32 28q-17 0 -91 -16l-86 -18l-20 63l571 141l13 4q12 3 20 3q46 0 49 -64q0 -23 -6 -47l-176 -799q-26 -115 -89.5 -221t-141 -180t-161 -131.5t-151.5 -86.5t-110 -32zM324 1298q8 83 71 145t164 62 q96 0 144 -62q40 -51 40 -117q0 -14 -2 -28q-8 -85 -70.5 -146.5t-164.5 -61.5q-96 0 -144 62q-40 51 -40 118q0 14 2 28z" />
<glyph unicode="k" d="M63 0l277 1266q12 50 12 73q0 57 -57 57q-6 0 -12 -1l-131 -6l16 69l623 47l-187 -854h64q86 90 193.5 216.5t142.5 181.5h339l-24 -86l-53 -21q-2 -1 -47.5 -17t-84.5 -36t-71 -47l-209 -183l221 -348q136 -213 172 -262l-8 -61h-393q-45 0 -77 45.5t-62 136.5l-134 375 h-4l-116 -545h-390z" />
<glyph unicode="l" horiz-adv-x="765" d="M111 147q0 43 8 76l227 1043q12 50 12 73q0 57 -57 57q-6 0 -12 -1l-131 -6l16 69l623 47l-248 -1114q-25 -119 -25 -147q3 -35 25 -35q28 0 69 20l89 45l32 -69l-475 -230q-72 8 -112.5 47t-40.5 125z" />
<glyph unicode="m" horiz-adv-x="2123" d="M45 901l571 141q28 6 50 2q32 -11 32 -59q0 -23 -6 -47l-61 -266l18 -4q74 92 159 173t193.5 144.5t196.5 63.5q134 0 137 -129q1 -26 -4 -61.5t-9.5 -57t-16 -70t-13.5 -59.5l21 -4q71 116 184.5 206t221.5 132.5t194 42.5q119 0 119 -131q0 -53 -17 -117l-114 -494 q-5 -18 -9 -45q-1 -7 -1 -13q0 -40 28 -40q29 0 70 20l88 45l32 -69l-475 -230q-71 9 -107.5 43.5t-45.5 104.5q-1 12 -1 23q0 42 9 77l108 432q1 5 12.5 48t12.5 63v7q0 50 -41 50q-16 0 -47.5 -22.5t-76.5 -76t-90.5 -128t-93 -192t-81.5 -254.5l-37 -150h-389l158 655 q3 12 9 35.5t10 42t5 33.5v7q0 50 -41 50q-16 0 -47.5 -22.5t-76.5 -76t-90.5 -128t-93 -192t-81.5 -254.5l-37 -150h-389l170 770q13 64 12 74q0 28 -32 28q-16 0 -90 -16l-86 -18z" />
<glyph unicode="n" horiz-adv-x="1488" d="M45 901l571 141q25 5 29 5q53 0 53 -62q0 -23 -6 -47l-61 -270l12 -4q115 170 298 277.5t337 107.5q119 0 119 -131q0 -50 -17 -117l-114 -494q-8 -35 -9 -58q0 -40 27 -40q29 0 70 20l88 45l33 -69l-476 -230q-71 9 -107.5 43.5t-45.5 104.5q-1 12 -1 23q0 42 9 77 l117 453q18 64 18 96q0 35 -9 51.5t-34 16.5q-23 0 -62 -27.5t-89.5 -84t-100 -131.5t-95.5 -182.5t-73 -224.5l-45 -190h-389l170 770q14 60 12 74q0 28 -32 28q-16 0 -90 -16l-86 -18z" />
<glyph unicode="o" horiz-adv-x="1255" d="M78 410q0 152 55.5 275.5t149 201.5t211.5 120t247 42q223 0 349.5 -121t126.5 -314q0 -122 -36.5 -226.5t-99.5 -179.5t-147 -128t-180.5 -79t-198.5 -26q-223 0 -350 121t-127 314zM475 270q0 -24 2.5 -50t12 -72t35 -74.5t63.5 -28.5q55 0 102.5 102t74.5 238 q27 137 41 257q13 106 13 159v14q0 54 -10 90t-28 50.5t-32.5 19t-33.5 4.5q-59 0 -119 -124q-61 -123 -95 -291q-28 -136 -28 -244q0 -26 2 -50z" />
<glyph unicode="p" horiz-adv-x="1343" d="M-186 -512l14 78q150 7 168 51q5 10 9 24t8.5 35.5t6.5 30.5l211 952l-178 -98l-20 82l221 119l74 332l409 82l-53 -238l109 49q134 62 264 62q248 0 248 -324q0 -125 -40 -240.5t-115.5 -207t-176.5 -157.5t-229 -97q-98 -23 -201 -23q-34 0 -68 2l-65 -295 q-10 -43 -10 -72q0 -10 1 -18q6 -46 211 -51l-14 -78h-784zM492 82q32 -16 71 -16q60 0 120 43t110.5 120t82 198.5t31.5 264.5q0 108 -31 160.5t-71 52.5q-34 0 -76 -18.5t-70 -50.5z" />
<glyph unicode="q" horiz-adv-x="1333" d="M78 319q0 94 32.5 190t104.5 189t175.5 165t259.5 116.5t341 44.5h383l-291 -1317q-9 -49 -9 -75q0 -9 1 -15q3 -44 150 -51l-15 -78h-784l14 78q211 6 230 51q12 22 24 90l150 705l-13 6q-111 -199 -261 -321t-255 -122q-107 0 -172 94t-65 250zM483 377 q2 -73 23.5 -107t66.5 -34q50 0 127.5 115.5t147.5 275.5t113 307h-162q-71 0 -128.5 -45t-91.5 -111t-57 -146t-32 -144q-7 -57 -7 -101v-10z" />
<glyph unicode="r" horiz-adv-x="1062" d="M45 901l571 141q25 5 27 5q23 2 39 -13.5t16 -48.5q0 -23 -6 -47l-61 -270h16q28 36 68 89.5t59.5 79.5t51 64t51.5 55.5t50.5 39.5t58.5 31t64.5 15.5t79.5 6.5l-65 -283l-102 -74q-40 19 -86 19q-58 0 -117 -35q-67 -42 -139.5 -201.5t-100.5 -290.5l-39 -184h-389 l170 770q13 64 12 74q0 28 -32 28q-16 0 -90 -16l-86 -18z" />
<glyph unicode="s" horiz-adv-x="1024" d="M23 70l32 241h86q11 -117 73 -190q61 -72 146 -72h2q86 1 133.5 55t47.5 111q0 81 -33 133t-127 135q-42 38 -60 55t-44 47t-36 53t-18 57t-8 75q0 143 117.5 211t320.5 68q93 0 187.5 -17.5t146.5 -44.5l-33 -213h-77q-27 94 -72.5 145.5t-95.5 51.5q-21 0 -43 -6 t-45.5 -20t-38.5 -42.5t-15 -68.5q0 -30 10 -57t36 -59t46.5 -52.5t66.5 -63.5q5 -5 9 -8.5t8 -7.5q50 -48 81 -83t60 -96t29 -124q0 -125 -146 -216.5t-398 -91.5q-215 0 -348 95z" />
<glyph unicode="t" horiz-adv-x="909" d="M106 907l31 117h207l35 188q79 3 166 40t137 91h131l-78 -319h297l-12 -53l-66 -62h-237l-115 -503q-18 -82 -18 -136q0 -69 29.5 -100t74.5 -31q72 0 164 41l31 -82l-455 -123q-134 0 -193 52t-59 153q0 76 17 160l122 567h-209z" />
<glyph unicode="u" horiz-adv-x="1484" d="M41 901l571 141l12 4q13 3 21 3q18 0 33.5 -16t15.5 -48q0 -23 -6 -47l-147 -590q-13 -48 -17.5 -70.5t-6.5 -48.5t7.5 -35.5t30.5 -9.5q13 0 46 18.5t85.5 67.5t105 119t106 187.5t87.5 257.5l45 190h389l-157 -717q-11 -45 -11 -63q0 -17 8.5 -26t20.5 -9q29 0 70 20 l88 45l32 -69l-475 -230q-71 9 -107.5 43.5t-45.5 104.5q-2 14 -2 29q0 34 10 71l31 133l-13 -4q-110 -154 -298 -265.5t-337 -111.5q-118 0 -118 134q4 59 16 114l127 547q13 64 12 74q0 28 -32 28q-17 0 -91 -16l-86 -18z" />
<glyph unicode="v" horiz-adv-x="1099" d="M18 938l482 111q17 0 27.5 -4t22.5 -18t19 -46.5t11 -83.5l24 -610h4l238 346q104 147 104 233v140q-2 20 19 24l82 19q20 0 28 -19l54 -96q6 -9 6 -23q1 -5 1 -10q0 -26 -20 -66q-24 -49 -110 -165l-492 -695h-256q-6 119 -18.5 355.5t-18.5 355.5q-6 117 -15 145 q-15 47 -67 52q-15 1 -34 0q-13 -1 -72 -15z" />
<glyph unicode="w" horiz-adv-x="1744" d="M-12 942l317 64q22 4 98 23.5t109 19.5q16 0 26.5 -9t15 -28.5t6 -37t2.5 -47t3 -46.5l60 -627h4l202 342q27 42 37 102q9 50 9 87v14q-7 114 -29 176l395 74l76 -795h4l195 369q75 126 75 241l-6 135q0 25 27 29l92 21q3 1 6 1q18 0 33 -30l43 -84q4 -4 4 -21 q-5 -41 -45 -110l-471 -830h-293l-55 582h-4l-361 -582h-276l-70 697q-1 6 -3 28t-3 32t-4 31.5t-6.5 33t-9 28.5t-13 26.5t-17 19.5t-22.5 13.5t-28 2.5q-39 -3 -103 -19z" />
<glyph unicode="x" horiz-adv-x="1175" d="M-35 27l12 79q1 5 6.5 9t12.5 6t18.5 5.5t18.5 6.5l41 14q53 21 76 31t71 39t78 62l160 180q-14 45 -36 124q-55 187 -87 247q-30 55 -88 55h-10q-32 -2 -82 -17l-21 70l354 78q15 3 48.5 11.5t60.5 15t39 6.5q21 0 36 -18t21 -36.5t15 -56.5l75 -262l54 57q77 86 88 141 l22 123q1 18 9.5 25t27.5 10l82 17q7 0 12 -1t8.5 -4t4.5 -5t4 -7.5t4 -7.5l37 -61q6 -10 7.5 -21t-4 -23.5t-10.5 -22t-19.5 -25.5t-23 -25t-27.5 -28l-9 -9l-232 -231l115 -342q33 -97 110 -97h9q32 2 82 17l20 -70l-354 -78q-15 -3 -48.5 -11.5t-60.5 -15t-39 -6.5 q-16 0 -27.5 8t-20 27.5t-12.5 32.5t-11 43l-84 283l-258 -299q-60 -70 -117 -70h-139q-9 0 -15 9q-5 7 -5 13q0 2 1 5z" />
<glyph unicode="y" horiz-adv-x="1062" d="M18 938l482 111q16 0 28 -4.5t20 -15.5t13.5 -20t8.5 -27.5t4.5 -27t3.5 -30.5t2 -27l24 -565l238 305q108 139 108 229v140q-2 20 19 24l82 19q20 0 28 -19l54 -96q7 -12 7 -28q0 -11 -4 -24q-4 -16 -8.5 -29.5t-17 -35t-20.5 -34.5t-25.5 -38t-26 -37t-28.5 -38 l-584 -772q-138 -178 -166 -308l-16 -65q-8 -49 -54 -49h-92q-17 0 -25 13t-16 40q-1 5 -2 8l-12 43q-3 20 1.5 37t11 27t23 30.5t25.5 34.5q16 24 56 74t71 96.5t52 95.5l-58 711q-6 117 -15 145q-15 47 -67 52q-15 1 -34 0q-13 -1 -72 -15z" />
<glyph unicode="z" horiz-adv-x="1138" d="M8 41l686 881h-149q-104 0 -168.5 -47t-100.5 -142h-63l61 291h861l4 -35l-695 -887h293q107 0 171 53t104 173h63l-67 -328h-985z" />
<glyph unicode="{" horiz-adv-x="681" d="M72 543v4q98 28 142 84t67 168l81 395q17 81 43.5 135t63 89.5t95.5 54t127.5 25.5t172.5 7v-4q-102 -25 -152.5 -89t-74.5 -185l-84 -396q-27 -129 -73 -192.5t-152 -91.5v-4q34 -10 58 -25t38 -36.5t20.5 -44.5t5.5 -56.5t-5.5 -65.5t-14.5 -77l-78 -371 q-27 -115 -1.5 -185t114.5 -88v-4q-90 -2 -153 2.5t-110 19.5t-73 38.5t-38.5 62.5t-10 89.5t17.5 121.5l76 361q28 111 8.5 170.5t-110.5 87.5z" />
<glyph unicode="|" horiz-adv-x="681" d="M287 -512v2048h196v-2048h-196z" />
<glyph unicode="}" horiz-adv-x="681" d="M-123 -406q102 25 152.5 89.5t74.5 185.5l84 395q13 64 28.5 106.5t40.5 80t63.5 61t93.5 37.5v4q-51 15 -79.5 40.5t-37 67t-5 85.5t18.5 112l78 371q27 115 1.5 184.5t-114.5 87.5v4q90 2 153 -2.5t110 -19.5t73 -38.5t38.5 -62.5t10 -89.5t-17.5 -121.5l-76 -360 q-28 -111 -8 -170.5t111 -87.5v-4q-98 -28 -142 -84t-67 -168l-82 -395q-21 -100 -55 -161t-96.5 -95t-141.5 -45t-209 -11v4z" />
<glyph unicode="~" d="M117 438q75 122 139.5 178t159.5 56q75 0 223 -62q141 -63 182 -63q32 0 59.5 9.5t42.5 18.5t33 32t21.5 30t17.5 31l135 -74q-38 -58 -63.5 -92t-60 -68t-72.5 -48.5t-84 -14.5q-81 0 -207 63q-47 22 -68.5 31.5t-62 20t-76.5 10.5q-29 0 -55 -8.5t-43.5 -19.5 t-34.5 -28.5t-25 -29t-18 -27.5t-12 -18z" />
<glyph unicode="&#xa1;" horiz-adv-x="796" d="M0 -436q-2 16 6 39q68 146 197 516.5t159 449.5h158q-82 -641 -90 -970q-3 -31 -20 -47t-64.5 -24.5t-138.5 -8.5q-75 0 -118.5 4.5t-65 14.5t-23.5 26zM289 829q0 100 60.5 160t160.5 60q78 0 120 -48.5t42 -109.5q0 -98 -60.5 -157.5t-160.5 -59.5q-78 0 -120 47.5 t-42 107.5z" />
<glyph unicode="&#xa2;" d="M164 360q0 11 1.5 31.5t11.5 67t26 93.5t49 108t77.5 114.5t115 107.5t157.5 93q122 54 270 69l58 181l127 -25l-51 -158q91 -7 149 -38l-29 -154l-82 -27q-27 62 -77 97l-246 -773q54 0 121 39q19 11 43.5 27t60 40t62.5 42l57 -74l-209 -131q-83 -52 -184 -82l-94 -291 l-115 33l72 225q-80 1 -144 21t-116.5 62.5t-81.5 119t-29 182.5zM557 389q7 -122 49 -182l236 741q-62 -12 -115.5 -69t-89 -138t-56.5 -173t-24 -179z" />
<glyph unicode="&#xa3;" d="M-74 0l15 66q93 73 164 203.5t192 447.5h-211l18 94h218l45 119q51 133 134.5 238t178.5 166t191.5 92.5t185.5 31.5q81 0 142.5 -8t92 -17t74.5 -26q19 -6 27.5 -21.5t13.5 -46.5l8 -116q1 -9 -5 -16t-15 -9l-109 -10q-24 -3 -26 10q-13 18 -35 58.5t-37.5 66t-46.5 47 t-70 21.5q-42 0 -82 -29.5t-71.5 -79t-54.5 -101t-42 -108.5l-82 -262h308l-19 -94h-315q-41 -100 -94 -180t-117.5 -140.5t-120.5 -101t-135 -86.5l8 -8q184 45 364 45q79 0 150 -15.5t120 -31t75 -15.5t45 9t29 20t17 31.5t8.5 32.5t4.5 34v82q0 9 7 21.5t13 15.5l113 59 q27 13 33 -6l47 -135q5 -14 -26 -56.5t-84.5 -95.5t-115.5 -103t-128.5 -84t-114.5 -34q-61 0 -159 14t-184.5 26.5t-232.5 11t-309 -26.5z" />
<glyph unicode="&#xa4;" d="M82 305l135 135q-34 41 -56 115t-22 156q0 84 20.5 163t53.5 125l-125 125l145 150l129 -131q47 32 127.5 55t163.5 23q79 0 155 -23t118 -55l129 131l149 -146l-121 -120q31 -52 51.5 -132t20.5 -161q0 -85 -22.5 -160.5t-59.5 -110.5l135 -135l-145 -153l-129 129 q-45 -34 -123 -57t-160 -23q-88 0 -166 23.5t-123 62.5l-129 -131zM352 713q0 -122 88.5 -208.5t210.5 -86.5t206.5 89t84.5 210q0 119 -85 205t-204 86q-125 0 -213 -86t-88 -209z" />
<glyph unicode="&#xa5;" d="M47 436l25 117h334l20 98h-330l25 117h289l-82 418q-19 95 -73 132.5t-136 37.5l18 78h742l-19 -78q-43 0 -70 -13t-38 -38t-14 -49.5t-1 -59.5l35 -545h4l346 531q35 46 43.5 81t-6 54.5t-39.5 29t-59 9.5l16 74h434l-16 -74q-51 0 -91.5 -20t-86.5 -81l-330 -487h250 l-25 -117h-307l-63 -98h350l-25 -117h-350l-45 -217q-13 -72 -10 -90q0 -44 164 -51l-17 -78h-798l16 78q163 7 188 51q15 34 25 90l41 217h-334z" />
<glyph unicode="&#xa6;" horiz-adv-x="681" d="M287 -358v716h196v-716h-196zM287 666v716h196v-716h-196z" />
<glyph unicode="&#xa7;" d="M23 -127q-6 38 38 66l48 28q42 38 75 -12l97 -135q2 -3 14 -20t17.5 -24t20 -21.5t27 -21t31.5 -12.5t41 -6q70 0 127 36.5t57 101.5q0 42 -28.5 87.5t-74.5 87.5t-101.5 86.5t-111 91t-101.5 94t-74.5 102.5t-28.5 110q0 62 24 116.5t64 92t92 67.5t107.5 42.5t111 16.5 t103.5 -9l4 4q-119 107 -171 180t-52 141q0 62 30.5 113.5t80 84.5t113.5 55.5t128 32t127 9.5q87 0 198.5 -19.5t145.5 -41.5l62 -156q3 -37 -43 -61l-35 -19q-25 -14 -38 -15t-28 15l-94 133q-2 3 -13 16.5t-16.5 19.5t-18 18.5t-23.5 19.5t-27 14.5t-34.5 11t-39.5 3.5 q-44 0 -73.5 -12t-42.5 -34.5t-18 -45t-5 -52.5q0 -37 35 -81t139 -148l76 -72q262 -249 262 -374q0 -61 -24.5 -112t-66.5 -84.5t-97 -56.5t-116 -32t-122.5 -7t-118.5 15l-4 -4q158 -95 220.5 -165.5t62.5 -147.5q0 -180 -220 -279q-111 -51 -344 -51q-68 0 -176 21 t-141 42zM420 618q0 -75 80 -147q3 -3 28 -25.5t36 -30.5t34.5 -23t47 -21t50.5 -6q81 0 141 47t60 133q0 35 -68 121q-89 114 -206 114q-80 0 -141.5 -45.5t-61.5 -116.5z" />
<glyph unicode="&#xa8;" horiz-adv-x="1024" d="M287 1296q11 53 59.5 94.5t99.5 41.5q54 0 86.5 -40.5t22.5 -95.5q-12 -54 -61 -93.5t-103 -39.5q-52 0 -83.5 40t-20.5 93zM782 1296q10 52 59.5 94t100.5 42q54 0 86.5 -40.5t22.5 -95.5q-12 -54 -61 -93.5t-103 -39.5q-52 0 -84 40t-21 93z" />
<glyph unicode="&#xa9;" horiz-adv-x="1705" d="M145 717q0 149 59.5 286.5t159 237t237 158.5t286.5 59q200 0 370.5 -100t270.5 -270.5t100 -370.5q0 -149 -59 -286.5t-158.5 -237t-237 -159t-286.5 -59.5t-286.5 59.5t-237 159t-159 237t-59.5 286.5zM289 717q0 -118 48.5 -228.5t129.5 -191.5t191.5 -129.5 t228.5 -48.5t228.5 48.5t191.5 129.5t129.5 191.5t48.5 228.5t-48.5 228.5t-129.5 191.5t-191.5 129.5t-228.5 48.5t-228.5 -48.5t-191.5 -129.5t-129.5 -191.5t-48.5 -228.5zM440 651q0 27 5.5 61.5t22 83t42 95.5t70.5 94t103 82.5t143.5 57.5t187.5 22q58 0 116 -14 t92 -34t31 -36l-30 -150h-99q-5 19 -9.5 49t-8.5 47.5t-14 36t-30.5 27t-53.5 8.5q-87 0 -161 -67.5t-117.5 -185.5t-43.5 -259q0 -17 2 -35.5t12 -49t27 -53t51 -39.5t80 -17q64 0 129.5 48.5t97.5 133.5l93 -12l-62 -160q-3 -10 -50 -28t-119 -34t-130 -16 q-91 0 -160.5 22.5t-109.5 56.5t-65 82t-33.5 91.5t-8.5 91.5z" />
<glyph unicode="&#xaa;" horiz-adv-x="909" d="M170 1012q0 57 21 114t68 113t114 99t168.5 69.5t222.5 26.5h248l-105 -430q-12 -47 1.5 -57t56.5 11l57 27l22 -43l-309 -127q-49 5 -84 31q-13 14 -15.5 46.5t5.5 61.5l27 113l-9 4q-72 -119 -168.5 -187.5t-166.5 -68.5t-112 52.5t-42 144.5zM432 1047q0 -86 60 -86 q49 0 127.5 139t123.5 284h-106q-46 0 -83.5 -27.5t-59 -67.5t-36.5 -88.5t-20.5 -87t-5.5 -66.5z" />
<glyph unicode="&#xab;" horiz-adv-x="1138" d="M141 489l398 314q7 5 23.5 17.5t25.5 18.5t23 11.5t26 5.5q29 0 20 -39q-5 -20 -96.5 -154t-128.5 -174q17 -41 49.5 -162t38.5 -167q-1 -10 -3.5 -17t-12.5 -14.5t-27 -7.5q-8 0 -15 3t-16 11.5t-14 14t-18 21t-19 22.5zM555 489l397 314q6 4 23.5 17t26 18.5t23 11.5 t26.5 6q29 0 20 -39q-5 -20 -96.5 -154t-128.5 -174q17 -41 49.5 -162t38.5 -167q-1 -10 -3.5 -17t-12.5 -14.5t-27 -7.5q-8 0 -15 3t-16 11.5t-14 14t-18 21t-19 22.5z" />
<glyph unicode="&#xac;" d="M150 618v197h1032v-594h-197v397h-835z" />
<glyph unicode="&#xad;" horiz-adv-x="681" d="M86 393l37 189h510l-37 -189h-510z" />
<glyph unicode="&#xae;" horiz-adv-x="1705" d="M145 717q0 149 59.5 286.5t159 237t237 158.5t286.5 59q200 0 370.5 -100t270.5 -270.5t100 -370.5q0 -149 -59 -286.5t-158.5 -237t-237 -159t-286.5 -59.5t-286.5 59.5t-237 159t-159 237t-59.5 286.5zM289 717q0 -118 48.5 -228.5t129.5 -191.5t191.5 -129.5 t228.5 -48.5t228.5 48.5t191.5 129.5t129.5 191.5t48.5 228.5t-48.5 228.5t-129.5 191.5t-191.5 129.5t-228.5 48.5t-228.5 -48.5t-191.5 -129.5t-129.5 -191.5t-48.5 -228.5zM453 330l10 57q31 3 41.5 17.5t19.5 62.5l117 534q9 30 6 47t-23 24t-71 9l10 60h467 q148 0 216.5 -49t68.5 -129q0 -90 -68.5 -158t-169.5 -92l103 -181q20 -34 56.5 -85t49.5 -72l-10 -45h-242q-25 0 -45.5 33t-44.5 98l-80 221h-49l-47 -215q-5 -26 -7 -43t17 -26t68 -11l-8 -57h-385zM854 750h55q14 0 31.5 3.5t43.5 18.5t46 39t34.5 71t14.5 109 q0 20 -5.5 37.5t-26.5 34t-56 16.5h-65z" />
<glyph unicode="&#xaf;" d="M348 1253l37 177h1026l-37 -177h-1026z" />
<glyph unicode="&#xb0;" horiz-adv-x="796" d="M252 1210q0 119 87.5 207t207.5 88t206.5 -87.5t86.5 -207.5t-86.5 -206t-206.5 -86t-207.5 86t-87.5 206zM401 1210q0 -58 45 -100.5t101 -42.5q57 0 100 43.5t43 99.5q0 58 -42.5 102t-100.5 44q-59 0 -102.5 -43t-43.5 -103z" />
<glyph unicode="&#xb1;" d="M150 0v197h1032v-197h-1032zM150 698v197h417v420h197v-420h418v-197h-418v-419h-197v419h-417z" />
<glyph unicode="&#xb2;" horiz-adv-x="985" d="M141 584l33 147q2 3 29 16t70.5 35t76.5 43q166 106 223 152q141 116 142 225q0 52 -28.5 84.5t-82.5 32.5q-53 0 -95 -26t-89 -105h-96l24 121q62 64 164.5 106.5t222.5 42.5q88 0 152.5 -19t97.5 -50t47.5 -62t14.5 -63q0 -44 -23 -86.5t-54.5 -74.5t-86.5 -68.5 t-95.5 -59t-105.5 -55.5q-226 -119 -307 -138v-4h235q187 0 281 47h70l-123 -241h-697z" />
<glyph unicode="&#xb3;" horiz-adv-x="985" d="M131 655l2 154q3 13 25 25l61 24q43 22 49 12l43 -116q2 -24 38.5 -66.5t80.5 -42.5q61 0 104 39t61.5 96.5t18.5 126.5q0 27 -10 47.5t-28.5 31.5t-38.5 17.5t-48.5 8t-48.5 1.5t-47.5 -1.5t-38.5 -1.5l17 73q4 0 11 1q121 9 171 31q101 48 102 192q0 41 -28 65.5 t-64 24.5q-14 0 -33.5 -8t-57 -43.5t-73.5 -94.5l-82 25l29 129q73 29 139.5 41t178.5 12q99 0 174.5 -17t124.5 -57.5t49 -101.5q0 -92 -90.5 -147t-253.5 -70v-4q82 -8 142 -31t91 -53.5t45.5 -61.5t14.5 -63q0 -129 -132.5 -206t-402.5 -77q-188 0 -295 86z" />
<glyph unicode="&#xb4;" horiz-adv-x="872" d="M252 1171v5l387 319q9 7 40.5 33.5t45 37t39 27t46.5 23t42 6.5q50 0 78.5 -31t17.5 -84q-11 -51 -64 -88.5t-147 -79.5l-370 -168h-115z" />
<glyph unicode="&#xb5;" horiz-adv-x="1478" d="M-59 -410q22 60 84.5 286.5t95.5 369.5l123 524q13 64 12 74q0 28 -33 28q-16 0 -90 -16l-86 -18l-20 63l571 141q4 1 13 4t14 3q22 0 39.5 -39.5t9.5 -71.5l-148 -590q-22 -76 -17.5 -120t42.5 -44q28 0 68 24.5t89 78t96 127.5t92 184t75 236l45 190h389l-158 -717 q-23 -98 19 -98q28 0 69 20l88 45l33 -69l-475 -230q-87 11 -129 68q-20 26 -24 79.5t8 100.5l30 133l-12 -4q-69 -94 -232 -235.5t-235 -141.5q-84 0 -156 21q-79 -104 7 -381q5 -18 0.5 -30.5t-18.5 -22.5t-35 -17t-47.5 -13.5t-56.5 -13.5q-16 -3 -24 -5 q-74 -16 -106 1.5t-10 75.5z" />
<glyph unicode="&#xb6;" d="M67 877q-4 70 11 151q44 214 194 310t441 96h782l-16 -78q-10 -2 -36 -5.5t-42.5 -7t-37.5 -9t-34 -15t-18 -21.5q-23 -58 -41 -149l-252 -1210q-21 -105 -21 -150q0 -12 9.5 -21t27.5 -15t33.5 -9t39.5 -6.5t34 -5.5l-17 -78h-424l353 1694h-113l-352 -1694h-424l16 78 q10 2 35.5 5.5t42.5 6.5t37.5 9t33.5 15t19 21q22 57 41 150l131 636q-110 -1 -194.5 19.5t-138 60t-85 96t-35.5 126.5zM418 856q2 -67 24 -107t47.5 -56.5t53.5 -16.5l139 672q-22 0 -44 -5.5t-52.5 -25.5t-56.5 -53t-52 -95t-43 -145q-18 -101 -16 -168z" />
<glyph unicode="&#xb7;" horiz-adv-x="645" d="M141 489q0 98 60.5 158t160.5 60q78 0 120 -48t42 -108q0 -100 -60.5 -159.5t-160.5 -59.5q-78 0 -120 48t-42 109z" />
<glyph unicode="&#xb8;" horiz-adv-x="681" d="M-127 -408l41 64q63 -23 113 -23q45 0 74.5 33t29.5 78q0 16 -10 31t-21 18q-29 4 -82 -6l-12 10l144 223h90l-97 -153q30 6 62 6q54 0 90.5 -30.5t36.5 -78.5q0 -51 -29 -91.5t-74.5 -64.5t-97 -36t-102.5 -12q-72 0 -156 32z" />
<glyph unicode="&#xb9;" horiz-adv-x="985" d="M213 584l12 61q121 5 146 16q15 7 20 19q10 24 29 98l112 498q4 15 -21 21q-46 12 -115 -4q-3 0 -5 -1l-69 -16l2 63l559 119l-154 -680q-14 -66 -16 -98q0 -20 31 -26t120 -9l-12 -61h-639z" />
<glyph unicode="&#xba;" horiz-adv-x="909" d="M221 1075q0 121 66.5 210t169 131t223.5 42q154 0 241 -72t87 -188q0 -120 -66.5 -209t-168.5 -131.5t-222 -42.5q-155 0 -242.5 72.5t-87.5 187.5zM483 1032q0 -168 82 -168q42 0 84.5 61t69 153t26.5 179q0 44 -5 74t-11.5 45t-18 23t-18.5 9t-20 1q-55 0 -100 -64 t-67 -149t-22 -164z" />
<glyph unicode="&#xbb;" horiz-adv-x="1138" d="M72 160q4 20 96 153.5t129 173.5q-17 41 -49.5 162.5t-38.5 167.5q1 10 3.5 17t12.5 14.5t27 7.5q8 0 15 -3t16 -11.5t14 -14t18 -21t19 -22.5l254 -297l-398 -313q-7 -5 -23.5 -17.5t-25.5 -18.5t-23 -11.5t-26 -5.5q-29 0 -20 39zM485 160q4 20 96.5 153.5t129.5 173.5 q-17 41 -49.5 162.5t-38.5 167.5q1 10 3.5 17t12.5 14.5t27 7.5q8 0 15 -3t16 -11.5t14 -14t18 -21t19 -22.5l253 -297l-397 -313q-7 -5 -23.5 -17.5t-25.5 -18.5t-23 -11.5t-26 -5.5q-30 0 -21 39z" />
<glyph unicode="&#xbc;" horiz-adv-x="2086" d="M131 584l12 61q121 5 146 16q15 7 20 19q10 24 29 98l113 498q4 14 -21 21q-46 12 -115 -4q-3 0 -6 -1l-69 -16l2 63l559 119l-154 -680q-14 -66 -16 -98q0 -20 31 -26t120 -9l-12 -61h-639zM553 0l936 1434h162l-936 -1434h-162zM1116 336q5 18 117 129.5t246.5 240.5 t158.5 154h326l-104 -459h100l-35 -157h-100l-15 -58q-14 -64 -16 -92q-1 -15 22 -23q17 -5 91 -12l-13 -59h-608l12 59q56 3 77.5 4.5t49 5t38 9.5t14.5 16q13 34 26 92l15 58h-388zM1298 401h254l72 326q-104 -72 -326 -326z" />
<glyph unicode="&#xbd;" horiz-adv-x="2086" d="M96 584l13 61q88 4 122.5 9.5t42.5 25.5q10 24 29 98l113 498q4 14 -21 21q-46 12 -115 -4q-3 0 -6 -1l-69 -16l2 63l559 119l-154 -680q-14 -66 -16 -98q0 -20 31.5 -26t120.5 -9l-13 -61h-639zM518 0l936 1434h162l-936 -1434h-162zM1108 0l33 147q2 3 28.5 16 t70.5 35.5t77 43.5q166 106 222 151q141 116 142 225q0 52 -28.5 84.5t-81.5 32.5t-95.5 -26t-89.5 -105h-96l25 121q62 64 164.5 106.5t222.5 42.5q88 0 152.5 -19t97 -50t47 -62t14.5 -63q0 -44 -23 -86.5t-54 -74.5t-86 -68.5t-95.5 -59t-105.5 -55.5 q-222 -117 -308 -137v-4h236q187 0 281 47h69l-123 -242h-696z" />
<glyph unicode="&#xbe;" horiz-adv-x="2086" d="M121 655l2 154q3 14 24 25l62 24q43 22 49 12l43 -116q2 -24 38.5 -66.5t80.5 -42.5q61 0 104 39t61.5 96.5t18.5 126.5q0 27 -10 47.5t-28.5 31.5t-38.5 17.5t-48.5 8t-48.5 1.5t-47.5 -1.5t-38.5 -1.5l16 73q119 9 165 26q116 41 120 187v11q0 41 -28 65.5t-64 24.5 q-14 0 -33.5 -8t-57 -43.5t-73.5 -94.5l-82 25l29 129q73 29 139 41t178 12q99 0 174.5 -17t124.5 -57.5t49 -101.5q0 -92 -90.5 -147t-253.5 -70v-4q82 -8 142 -31t91 -53.5t45.5 -61.5t14.5 -63q0 -129 -132 -206t-402 -77q-188 0 -295 86zM625 0l936 1434h161l-936 -1434 h-161zM1194 336q5 18 117 129.5t246.5 240.5t158.5 154h326l-105 -459h101l-35 -157h-100l-15 -58q-14 -64 -16 -92q-1 -15 22 -23q17 -5 91 -12l-13 -59h-608l12 59q101 5 135.5 10.5t42.5 24.5q15 40 27 92l14 58h-387zM1376 401h254l72 326q-104 -72 -326 -326z" />
<glyph unicode="&#xbf;" horiz-adv-x="948" d="M-74 -188q0 51 14.5 98.5t42.5 88t58.5 74t75 67.5t77.5 57.5t80 54t70 47.5q55 40 108.5 110.5t92.5 147.5h192q-47 -197 -188 -352q-74 -82 -131.5 -192t-57.5 -218q0 -30 1 -52.5t6 -54t13.5 -52t25.5 -35.5t40 -15q26 0 57 22.5t58 57.5l88 119q16 16 29 6l98 -61 q12 -9 -2 -27l-74 -143q-32 -17 -132.5 -29t-211.5 -12q-107 0 -191.5 25t-135.5 67.5t-77 93.5t-26 107zM489 829q0 100 61 160t161 60q78 0 119.5 -48.5t41.5 -109.5q0 -98 -60.5 -157.5t-160.5 -59.5q-78 0 -120 47.5t-42 107.5z" />
<glyph unicode="&#xc0;" horiz-adv-x="1593" d="M-121 0l17 78q57 0 127 38t133 126q56 80 300.5 480t442.5 736h166l242 -1182q16 -77 71 -137.5t119 -60.5l-16 -78h-723l16 78q67 0 97.5 38.5t19.5 106.5l-37 205h-463l-104 -195q-87 -155 51 -155l-16 -78h-443zM459 543h372l-75 493h-4zM588 1853q10 50 52.5 81.5 t88.5 31.5q22 0 41 -6t38 -23.5t27.5 -26.5t30 -37.5t25.5 -33.5l252 -323h-113l-303 167q-38 22 -59.5 36.5t-45.5 36t-32 45.5t-2 52z" />
<glyph unicode="&#xc1;" horiz-adv-x="1593" d="M-121 0l17 78q57 0 127 38t133 126q56 80 300.5 480t442.5 736h166l242 -1182q16 -77 71 -137.5t119 -60.5l-16 -78h-723l16 78q67 0 97.5 38.5t19.5 106.5l-37 205h-463l-104 -195q-87 -155 51 -155l-16 -78h-443zM459 543h372l-75 493h-4zM633 1516v4l387 319 q9 7 40.5 33.5t45 37t39 27t46.5 23t42 6.5q50 0 78.5 -31t17.5 -84q-11 -51 -64 -88.5t-147 -79.5l-370 -167h-115z" />
<glyph unicode="&#xc2;" horiz-adv-x="1593" d="M-121 0l17 78q57 0 127 38t133 126q56 80 300.5 480t442.5 736h166l242 -1182q16 -77 71 -137.5t119 -60.5l-16 -78h-723l16 78q67 0 97.5 38.5t19.5 106.5l-37 205h-463l-104 -195q-87 -155 51 -155l-16 -78h-443zM459 543h372l-75 493h-4zM547 1516v4l420 338h172 l278 -342h-123l-278 163l-350 -163h-119z" />
<glyph unicode="&#xc3;" horiz-adv-x="1593" d="M-121 0l17 78q57 0 127 38t133 126q56 80 300.5 480t442.5 736h166l242 -1182q16 -77 71 -137.5t119 -60.5l-16 -78h-723l16 78q67 0 97.5 38.5t19.5 106.5l-37 205h-463l-104 -195q-87 -155 51 -155l-16 -78h-443zM459 543h372l-75 493h-4zM539 1516q55 125 142 202.5 t189 77.5q76 0 117 -11t68 -40l25 -12.5t29.5 -14t29.5 -10.5t39.5 -9t44.5 -3q70 0 131 31.5t90 82.5h80q-35 -117 -137.5 -205.5t-217.5 -88.5q-77 0 -120.5 16.5t-81.5 46.5q-31 25 -64.5 35t-85.5 10q-60 0 -112 -32.5t-82 -75.5h-84z" />
<glyph unicode="&#xc4;" horiz-adv-x="1593" d="M-121 0l17 78q57 0 127 38t133 126q56 80 300.5 480t442.5 736h166l242 -1182q16 -77 71 -137.5t119 -60.5l-16 -78h-723l16 78q67 0 97.5 38.5t19.5 106.5l-37 205h-463l-104 -195q-87 -155 51 -155l-16 -78h-443zM459 543h372l-75 493h-4zM571 1640q10 52 59.5 94 t100.5 42q54 0 86.5 -40.5t22.5 -95.5q-12 -54 -61 -93.5t-103 -39.5q-52 0 -84 40t-21 93zM1067 1640q10 52 59.5 94t100.5 42q54 0 86 -40.5t22 -95.5q-12 -54 -61 -93.5t-103 -39.5q-52 0 -83.5 40t-20.5 93z" />
<glyph unicode="&#xc5;" horiz-adv-x="1593" d="M-121 0l17 78q57 0 127 38t133 126q56 80 300.5 480t442.5 736h166l242 -1182q16 -77 71 -137.5t119 -60.5l-16 -78h-723l16 78q67 0 97.5 38.5t19.5 106.5l-37 205h-463l-104 -195q-87 -155 51 -155l-16 -78h-443zM459 543h372l-75 493h-4zM797 1698q0 83 63 145t146 62 t142.5 -61t59.5 -146q0 -84 -60.5 -143.5t-146.5 -59.5q-80 0 -142 60.5t-62 142.5zM915 1700q0 -34 26.5 -63t59.5 -29q35 0 62 29t27 63q0 36 -26.5 64t-62.5 28q-35 0 -60.5 -27t-25.5 -65z" />
<glyph unicode="&#xc6;" horiz-adv-x="2125" d="M-96 0l16 78q55 0 123.5 39t136.5 125l731 921q18 22 27.5 35t24 36t18 37.5t1 32t-17.5 28t-45.5 17.5t-76.5 7l16 78h1296l-69 -330h-64q-11 110 -57 168.5t-143 58.5h-228l-110 -534h164q52 0 93 29.5t85 105.5l45 82h63l-112 -539h-64l-14 94q-9 69 -37 97t-82 28 h-164l-92 -448q-6 -29 -6 -51t4 -37.5t16.5 -26t25.5 -16t37 -8.5t45 -4t56 -1q80 0 178.5 46t178.5 126l98 99h63l-139 -373h-1225l17 78q70 3 107.5 9t60 24.5t29.5 39.5t16 68l49 232h-483q-28 -36 -86.5 -109t-87.5 -109q-52 -63 -37.5 -109t88.5 -46l-17 -78h-452z M575 565h426l148 721l-4 4z" />
<glyph unicode="&#xc7;" horiz-adv-x="1523" d="M123 582q0 47 9.5 108t38.5 147.5t74 168.5t124.5 166t180.5 146t252 101t331 39q102 0 205.5 -25.5t163.5 -60.5t54 -63l-53 -265h-63q-15 53 -30 93t-41.5 88t-58 78.5t-80 51.5t-106.5 21q-115 0 -220.5 -76t-181 -203.5t-120.5 -300t-45 -358.5q0 -21 1.5 -44.5 t9 -62.5t19 -73.5t34.5 -72.5t54 -65.5t78.5 -45t106.5 -17.5q128 0 259 96t251 263l55 -23l-110 -280q-6 -17 -89.5 -49.5t-210 -60.5t-227.5 -28q-42 0 -71 5l-70 -113q30 6 62 6q54 0 90.5 -30.5t36.5 -78.5q0 -67 -50.5 -115.5t-117 -68.5t-136.5 -20q-71 0 -155 32 l41 64q63 -23 112 -23q45 0 75 33t30 78q0 16 -10 31t-21 18q-29 4 -82 -6l-12 10l123 191q-103 14 -185.5 47.5t-136.5 81t-92.5 102.5t-58.5 119.5t-28.5 122.5t-8.5 121z" />
<glyph unicode="&#xc8;" horiz-adv-x="1366" d="M-59 0l16 78q70 3 107.5 9t60 24.5t29.5 39.5t16 68l207 995q17 52 12 82t-41 43t-125 17l17 78h1155l-70 -330h-63q-11 109 -57.5 168t-143.5 59h-227l-111 -534h164q52 0 93 29.5t85 105.5l45 82h64l-113 -539h-64l-14 94q-9 69 -37 97t-82 28h-164l-92 -448 q-6 -29 -6 -51t4 -37.5t16.5 -26t25.5 -16t37 -8.5t45 -4t56 -1q113 0 218.5 60t169.5 133l67 78h64l-140 -373h-1224zM475 1853q10 50 52.5 81.5t88.5 31.5q22 0 41 -6t38 -23.5t27.5 -26.5t30 -37.5t25.5 -33.5l252 -323h-112l-304 167q-38 22 -59.5 36.5t-45.5 36 t-32 45.5t-2 52z" />
<glyph unicode="&#xc9;" horiz-adv-x="1366" d="M-59 0l16 78q70 3 107.5 9t60 24.5t29.5 39.5t16 68l207 995q17 52 12 82t-41 43t-125 17l17 78h1155l-70 -330h-63q-11 109 -57.5 168t-143.5 59h-227l-111 -534h164q52 0 93 29.5t85 105.5l45 82h64l-113 -539h-64l-14 94q-9 69 -37 97t-82 28h-164l-92 -448 q-6 -29 -6 -51t4 -37.5t16.5 -26t25.5 -16t37 -8.5t45 -4t56 -1q113 0 218.5 60t169.5 133l67 78h64l-140 -373h-1224zM520 1516v4l387 319q9 7 40.5 33.5t45 37t39 27t46.5 23t42 6.5q50 0 79 -31t18 -84q-11 -51 -64 -88.5t-147 -79.5l-371 -167h-115z" />
<glyph unicode="&#xca;" horiz-adv-x="1366" d="M-59 0l16 78q70 3 107.5 9t60 24.5t29.5 39.5t16 68l207 995q17 52 12 82t-41 43t-125 17l17 78h1155l-70 -330h-63q-11 109 -57.5 168t-143.5 59h-227l-111 -534h164q52 0 93 29.5t85 105.5l45 82h64l-113 -539h-64l-14 94q-9 69 -37 97t-82 28h-164l-92 -448 q-6 -29 -6 -51t4 -37.5t16.5 -26t25.5 -16t37 -8.5t45 -4t56 -1q113 0 218.5 60t169.5 133l67 78h64l-140 -373h-1224zM434 1516v4l420 338h172l279 -342h-123l-279 163l-350 -163h-119z" />
<glyph unicode="&#xcb;" horiz-adv-x="1366" d="M-59 0l16 78q70 3 107.5 9t60 24.5t29.5 39.5t16 68l207 995q17 52 12 82t-41 43t-125 17l17 78h1155l-70 -330h-63q-11 109 -57.5 168t-143.5 59h-227l-111 -534h164q52 0 93 29.5t85 105.5l45 82h64l-113 -539h-64l-14 94q-9 69 -37 97t-82 28h-164l-92 -448 q-6 -29 -6 -51t4 -37.5t16.5 -26t25.5 -16t37 -8.5t45 -4t56 -1q113 0 218.5 60t169.5 133l67 78h64l-140 -373h-1224zM479 1640q10 52 59.5 94t100.5 42q54 0 86.5 -40.5t22.5 -95.5q-12 -54 -61 -93.5t-103 -39.5q-52 0 -84 40t-21 93zM975 1640q10 52 59.5 94t100.5 42 q54 0 86 -40.5t22 -95.5q-12 -54 -61 -93.5t-103 -39.5q-52 0 -83.5 40t-20.5 93z" />
<glyph unicode="&#xcc;" horiz-adv-x="892" d="M-59 0l16 78q70 3 107.5 9t60 24.5t29.5 39.5t16 68l207 995q17 52 12 82t-41 43t-125 17l17 78h800l-16 -78q-34 -1 -60.5 -3.5t-46.5 -7t-34 -8t-25 -13t-16.5 -14t-11 -19t-7.5 -21.5t-6.5 -26.5t-7.5 -29.5l-207 -995q-10 -48 -12 -77.5t35 -44.5t133 -19l-17 -78 h-800zM258 1853q10 50 52.5 81.5t88.5 31.5q22 0 41 -6t38 -23.5t27.5 -26.5t30 -37.5t25.5 -33.5l252 -323h-113l-303 167q-38 22 -59.5 36.5t-45.5 36t-32 45.5t-2 52z" />
<glyph unicode="&#xcd;" horiz-adv-x="892" d="M-59 0l16 78q70 3 107.5 9t60 24.5t29.5 39.5t16 68l207 995q17 52 12 82t-41 43t-125 17l17 78h800l-16 -78q-34 -1 -60.5 -3.5t-46.5 -7t-34 -8t-25 -13t-16.5 -14t-11 -19t-7.5 -21.5t-6.5 -26.5t-7.5 -29.5l-207 -995q-10 -48 -12 -77.5t35 -44.5t133 -19l-17 -78 h-800zM283 1516v4l387 319q9 7 40.5 33.5t45 37t39 27t46.5 23t42 6.5q50 0 78.5 -31t17.5 -84q-11 -51 -64 -88.5t-147 -79.5l-371 -167h-114z" />
<glyph unicode="&#xce;" horiz-adv-x="892" d="M-59 0l16 78q70 3 107.5 9t60 24.5t29.5 39.5t16 68l207 995q17 52 12 82t-41 43t-125 17l17 78h800l-16 -78q-34 -1 -60.5 -3.5t-46.5 -7t-34 -8t-25 -13t-16.5 -14t-11 -19t-7.5 -21.5t-6.5 -26.5t-7.5 -29.5l-207 -995q-10 -48 -12 -77.5t35 -44.5t133 -19l-17 -78 h-800zM197 1516v4l419 338h172l279 -342h-123l-278 163l-351 -163h-118z" />
<glyph unicode="&#xcf;" horiz-adv-x="892" d="M-59 0l16 78q70 3 107.5 9t60 24.5t29.5 39.5t16 68l207 995q17 52 12 82t-41 43t-125 17l17 78h800l-16 -78q-34 -1 -60.5 -3.5t-46.5 -7t-34 -8t-25 -13t-16.5 -14t-11 -19t-7.5 -21.5t-6.5 -26.5t-7.5 -29.5l-207 -995q-10 -48 -12 -77.5t35 -44.5t133 -19l-17 -78 h-800zM283 1640q11 53 59.5 94.5t99.5 41.5q54 0 86.5 -40.5t22.5 -95.5q-12 -54 -61 -93.5t-103 -39.5q-52 0 -83.5 40t-20.5 93zM778 1640q10 52 59.5 94t100.5 42q54 0 86.5 -40.5t22.5 -95.5q-12 -54 -61 -93.5t-103 -39.5q-52 0 -84 40t-21 93z" />
<glyph unicode="&#xd0;" horiz-adv-x="1712" d="M-59 0l16 78q47 2 78 5.5t54.5 11.5t35.5 16t21.5 26.5t13.5 34t10 47.5l98 477h-245l28 135h246l80 383q17 52 12 82t-41 43t-125 17l17 78h854q122 0 224.5 -30.5t175 -84t123 -126t75 -155.5t24.5 -174q0 -20 -2.5 -50.5t-14.5 -89.5t-31.5 -119t-58 -133 t-89.5 -137.5t-130.5 -127.5t-176.5 -107.5t-232.5 -72t-292.5 -27.5h-747zM591 133q1 -39 35 -47q15 -4 42 -4q99 0 185.5 34t148.5 90.5t113 132t83.5 154.5t55 161.5t31.5 151t9 124.5q0 60 -10.5 115t-39.5 112.5t-74.5 99.5t-121.5 68.5t-174 26.5h-36l-107 -521h287 l-29 -135h-287l-84 -401q-28 -135 -27 -162z" />
<glyph unicode="&#xd1;" horiz-adv-x="1669" d="M-16 0l16 78q29 1 47 1.5t38.5 5t31 6.5t24.5 12t20 16t16 25.5t14.5 32t13 43.5t13.5 53t15 67l181 815q-50 98 -111.5 149.5t-152.5 51.5l16 78h637q152 -347 520 -971l121 631q3 18 10 51q18 76 16 122t-49.5 66t-167.5 23l17 78h545l-17 -78q-48 -2 -72.5 -4 t-51.5 -12.5t-38.5 -24t-26 -46t-23 -70.5t-21.5 -105l-228 -1094h-303q-60 153 -224.5 467t-322.5 577l-139 -702q-28 -143 -26 -179q2 -50 46 -67q39 -15 175 -18l-17 -78h-542zM578 1516q55 125 142 202.5t189 77.5q76 0 117 -11t68 -40l25 -12.5t29.5 -14t29.5 -10.5 t39.5 -9t44.5 -3q70 0 131 31.5t90 82.5h80q-35 -117 -137.5 -205.5t-217.5 -88.5q-77 0 -120.5 16.5t-81.5 46.5q-31 25 -64.5 35t-85.5 10q-60 0 -112 -32.5t-82 -75.5h-84z" />
<glyph unicode="&#xd2;" horiz-adv-x="1671" d="M123 561q0 191 76.5 359t205 285t302 185t362.5 68q161 0 299 -74t222.5 -211.5t84.5 -308.5q0 -129 -33.5 -245t-91 -204t-134 -162t-161.5 -124.5t-175 -86t-173 -51.5t-157 -16q-88 0 -174 21t-168.5 67.5t-145.5 113t-101 166t-38 218.5zM557 477q0 -94 10.5 -166 t34.5 -129.5t67 -88t103 -30.5q68 0 128 33t104 89t81 127.5t62 152t44 158.5t29.5 151t15.5 125.5t5 85.5q0 68 -15 134t-44 123t-77.5 92.5t-109.5 35.5q-80 0 -152 -57.5t-123 -151t-88.5 -211t-56 -239.5t-18.5 -234zM627 1853q10 50 52.5 81.5t88.5 31.5q22 0 41 -6 t38 -23.5t27.5 -26.5t30 -37.5t25.5 -33.5l252 -323h-113l-303 167q-38 22 -59.5 36.5t-45.5 36t-32 45.5t-2 52z" />
<glyph unicode="&#xd3;" horiz-adv-x="1671" d="M123 561q0 191 76.5 359t205 285t302 185t362.5 68q161 0 299 -74t222.5 -211.5t84.5 -308.5q0 -129 -33.5 -245t-91 -204t-134 -162t-161.5 -124.5t-175 -86t-173 -51.5t-157 -16q-88 0 -174 21t-168.5 67.5t-145.5 113t-101 166t-38 218.5zM557 477q0 -94 10.5 -166 t34.5 -129.5t67 -88t103 -30.5q68 0 128 33t104 89t81 127.5t62 152t44 158.5t29.5 151t15.5 125.5t5 85.5q0 68 -15 134t-44 123t-77.5 92.5t-109.5 35.5q-80 0 -152 -57.5t-123 -151t-88.5 -211t-56 -239.5t-18.5 -234zM672 1516v4l387 319q9 7 40.5 33.5t45 37t39 27 t46.5 23t42 6.5q50 0 78.5 -31t17.5 -84q-11 -51 -64 -88.5t-147 -79.5l-371 -167h-114z" />
<glyph unicode="&#xd4;" horiz-adv-x="1671" d="M123 561q0 191 76.5 359t205 285t302 185t362.5 68q161 0 299 -74t222.5 -211.5t84.5 -308.5q0 -129 -33.5 -245t-91 -204t-134 -162t-161.5 -124.5t-175 -86t-173 -51.5t-157 -16q-88 0 -174 21t-168.5 67.5t-145.5 113t-101 166t-38 218.5zM557 477q0 -94 10.5 -166 t34.5 -129.5t67 -88t103 -30.5q68 0 128 33t104 89t81 127.5t62 152t44 158.5t29.5 151t15.5 125.5t5 85.5q0 68 -15 134t-44 123t-77.5 92.5t-109.5 35.5q-80 0 -152 -57.5t-123 -151t-88.5 -211t-56 -239.5t-18.5 -234zM586 1516v4l420 338h172l278 -342h-123l-278 163 l-350 -163h-119z" />
<glyph unicode="&#xd5;" horiz-adv-x="1671" d="M123 561q0 191 76.5 359t205 285t302 185t362.5 68q161 0 299 -74t222.5 -211.5t84.5 -308.5q0 -129 -33.5 -245t-91 -204t-134 -162t-161.5 -124.5t-175 -86t-173 -51.5t-157 -16q-88 0 -174 21t-168.5 67.5t-145.5 113t-101 166t-38 218.5zM557 477q0 -94 10.5 -166 t34.5 -129.5t67 -88t103 -30.5q68 0 128 33t104 89t81 127.5t62 152t44 158.5t29.5 151t15.5 125.5t5 85.5q0 68 -15 134t-44 123t-77.5 92.5t-109.5 35.5q-80 0 -152 -57.5t-123 -151t-88.5 -211t-56 -239.5t-18.5 -234zM578 1516q55 125 142 202.5t189 77.5q76 0 117 -11 t68 -40l25 -12.5t29.5 -14t29.5 -10.5t39.5 -9t44.5 -3q70 0 131 31.5t90 82.5h80q-35 -117 -137.5 -205.5t-217.5 -88.5q-77 0 -120.5 16.5t-81.5 46.5q-31 25 -64.5 35t-85.5 10q-60 0 -112 -32.5t-82 -75.5h-84z" />
<glyph unicode="&#xd6;" horiz-adv-x="1671" d="M123 561q0 191 76.5 359t205 285t302 185t362.5 68q161 0 299 -74t222.5 -211.5t84.5 -308.5q0 -129 -33.5 -245t-91 -204t-134 -162t-161.5 -124.5t-175 -86t-173 -51.5t-157 -16q-88 0 -174 21t-168.5 67.5t-145.5 113t-101 166t-38 218.5zM557 477q0 -94 10.5 -166 t34.5 -129.5t67 -88t103 -30.5q68 0 128 33t104 89t81 127.5t62 152t44 158.5t29.5 151t15.5 125.5t5 85.5q0 68 -15 134t-44 123t-77.5 92.5t-109.5 35.5q-80 0 -152 -57.5t-123 -151t-88.5 -211t-56 -239.5t-18.5 -234zM651 1640q10 52 59.5 94t100.5 42q54 0 86.5 -40.5 t22.5 -95.5q-12 -54 -61 -93.5t-103 -39.5q-52 0 -84 40t-21 93zM1147 1640q10 52 59.5 94t100.5 42q54 0 86 -40.5t22 -95.5q-12 -54 -61 -93.5t-103 -39.5q-52 0 -83.5 40t-20.5 93z" />
<glyph unicode="&#xd7;" d="M139 135l387 385l-379 377l140 137l377 -375l376 375l140 -137l-379 -377l379 -377l-140 -137l-376 375l-388 -383z" />
<glyph unicode="&#xd8;" horiz-adv-x="1671" d="M12 84l201 162q-50 70 -70 159t-20 156q0 191 76.5 359t205 285t302 185t362.5 68q265 0 442 -184l215 176l84 -98l-221 -172q48 -79 67 -171t19 -145q0 -129 -33.5 -245t-91 -204t-134 -162t-161.5 -124.5t-175 -86t-173 -51.5t-157 -16q-125 0 -248 46.5t-207 130.5 l-197 -164zM557 354q22 -140 80 -215.5t145 -75.5q64 0 121 30.5t96.5 70.5t77 110.5t57 116.5t41.5 125t26.5 100t15.5 75q3 14 4 18q20 102 20 182zM557 528l684 535q-54 307 -235 307q-62 0 -118.5 -34.5t-97 -84.5t-77.5 -122t-59 -132t-41.5 -130.5t-26 -100 t-11.5 -57.5q-18 -95 -18 -181z" />
<glyph unicode="&#xd9;" horiz-adv-x="1593" d="M186 352q1 88 21 193l139 669q26 79 0 107.5t-153 34.5l16 78h801l-17 -78q-34 -1 -60.5 -3.5t-46.5 -7t-34 -8t-25 -13t-16.5 -14t-11 -19t-7.5 -21.5t-6.5 -26.5t-7.5 -29.5l-149 -722q-70 -340 211 -340q82 0 142 16t114.5 57.5t93 119.5t63.5 196l115 553q4 18 10 50 q7 34 10 49.5t6.5 40t3.5 34t-1.5 25.5t-6 21.5t-13 15t-20 12t-28.5 7t-37 5.5t-47 2l17 78h473l-17 -78q-47 -2 -76 -5t-54 -16.5t-37.5 -26.5t-25.5 -48t-20.5 -68t-19.5 -98l-123 -592q-28 -131 -91.5 -234t-149.5 -166t-185 -95t-205 -32q-147 0 -252.5 26t-167.5 74.5 t-94 118.5t-31 158zM649 1853q10 50 53 81.5t89 31.5q22 0 41 -6.5t37.5 -23.5t27.5 -26.5t29.5 -37t25.5 -33.5l252 -323h-112l-304 167q-38 22 -59.5 36.5t-45.5 36t-32 45.5t-2 52z" />
<glyph unicode="&#xda;" horiz-adv-x="1593" d="M186 352q1 88 21 193l139 669q26 79 0 107.5t-153 34.5l16 78h801l-17 -78q-34 -1 -60.5 -3.5t-46.5 -7t-34 -8t-25 -13t-16.5 -14t-11 -19t-7.5 -21.5t-6.5 -26.5t-7.5 -29.5l-149 -722q-70 -340 211 -340q82 0 142 16t114.5 57.5t93 119.5t63.5 196l115 553q4 18 10 50 q7 34 10 49.5t6.5 40t3.5 34t-1.5 25.5t-6 21.5t-13 15t-20 12t-28.5 7t-37 5.5t-47 2l17 78h473l-17 -78q-47 -2 -76 -5t-54 -16.5t-37.5 -26.5t-25.5 -48t-20.5 -68t-19.5 -98l-123 -592q-28 -131 -91.5 -234t-149.5 -166t-185 -95t-205 -32q-147 0 -252.5 26t-167.5 74.5 t-94 118.5t-31 158zM653 1516v4l387 319q9 7 40.5 33.5t45 37t39 27t46.5 23t42 6.5q50 0 79 -31t18 -84q-11 -51 -64 -88.5t-147 -79.5l-371 -167h-115z" />
<glyph unicode="&#xdb;" horiz-adv-x="1593" d="M186 352q1 88 21 193l139 669q26 79 0 107.5t-153 34.5l16 78h801l-17 -78q-34 -1 -60.5 -3.5t-46.5 -7t-34 -8t-25 -13t-16.5 -14t-11 -19t-7.5 -21.5t-6.5 -26.5t-7.5 -29.5l-149 -722q-70 -340 211 -340q82 0 142 16t114.5 57.5t93 119.5t63.5 196l115 553q4 18 10 50 q7 34 10 49.5t6.5 40t3.5 34t-1.5 25.5t-6 21.5t-13 15t-20 12t-28.5 7t-37 5.5t-47 2l17 78h473l-17 -78q-47 -2 -76 -5t-54 -16.5t-37.5 -26.5t-25.5 -48t-20.5 -68t-19.5 -98l-123 -592q-28 -131 -91.5 -234t-149.5 -166t-185 -95t-205 -32q-147 0 -252.5 26t-167.5 74.5 t-94 118.5t-31 158zM588 1516v4l420 338h172l278 -342h-123l-278 163l-350 -163h-119z" />
<glyph unicode="&#xdc;" horiz-adv-x="1593" d="M186 352q1 88 21 193l139 669q26 79 0 107.5t-153 34.5l16 78h801l-17 -78q-34 -1 -60.5 -3.5t-46.5 -7t-34 -8t-25 -13t-16.5 -14t-11 -19t-7.5 -21.5t-6.5 -26.5t-7.5 -29.5l-149 -722q-70 -340 211 -340q82 0 142 16t114.5 57.5t93 119.5t63.5 196l115 553q4 18 10 50 q7 34 10 49.5t6.5 40t3.5 34t-1.5 25.5t-6 21.5t-13 15t-20 12t-28.5 7t-37 5.5t-47 2l17 78h473l-17 -78q-47 -2 -76 -5t-54 -16.5t-37.5 -26.5t-25.5 -48t-20.5 -68t-19.5 -98l-123 -592q-28 -131 -91.5 -234t-149.5 -166t-185 -95t-205 -32q-147 0 -252.5 26t-167.5 74.5 t-94 118.5t-31 158zM612 1640q10 52 59.5 94t100.5 42q54 0 86.5 -40.5t22.5 -95.5q-12 -54 -61 -93.5t-103 -39.5q-52 0 -84 40t-21 93zM1108 1640q10 52 59.5 94t100.5 42q54 0 86 -40.5t22 -95.5q-12 -54 -61 -93.5t-103 -39.5q-52 0 -83.5 40t-20.5 93z" />
<glyph unicode="&#xdd;" horiz-adv-x="1517" d="M145 1356l17 78h753l-16 -78q-76 0 -108.5 -17.5t-32 -53t15.5 -89.5l152 -537l393 523q35 47 43 81.5t-9.5 54t-50 29t-79.5 9.5l16 78h467l-16 -78q-52 0 -92.5 -18.5t-86.5 -82.5l-450 -596q-88 -119 -103 -200l-51 -240q-10 -48 -12 -77.5t35 -44.5t133 -19l-16 -78 h-801l16 78q70 3 107.5 9t60 24.5t29.5 39.5t16 68l64 305l-187 672q-22 90 -75 125t-132 35zM596 1516v4l387 319q9 7 40.5 33.5t45 37t39 27t46.5 23t42 6.5q50 0 78.5 -31t17.5 -84q-11 -51 -64 -88.5t-147 -79.5l-370 -167h-115z" />
<glyph unicode="&#xde;" horiz-adv-x="1402" d="M-59 0l16 78q70 3 107.5 9t60 24.5t29.5 39.5t16 68l207 995q17 52 12 82t-41 43t-125 17l17 78h800l-16 -78q-31 -1 -55.5 -3.5t-43.5 -5t-33.5 -8t-24.5 -9t-18 -12.5t-12 -14.5t-8.5 -18.5t-6 -20t-5.5 -24t-6 -27l-14 -51h168q132 0 228 -30t140.5 -67t69 -91.5 t27 -79.5t2.5 -55v-4q0 -133 -75 -238t-199.5 -161t-274.5 -56h-250l-31 -162q-10 -48 -12 -77.5t35 -44.5t133 -19l-17 -78h-800zM659 483h74q30 0 60 8t67 34t64.5 67.5t46 115t18.5 169.5q0 87 -39.5 135.5t-134.5 48.5h-39z" />
<glyph unicode="&#xdf;" horiz-adv-x="1538" d="M-33 -510l289 1436h-139l28 94l136 29q115 456 692 456q52 0 103 -7.5t103 -26.5t91 -47.5t63.5 -74.5t24.5 -104q0 -48 -24 -108.5t-53 -108.5t-53 -102.5t-24 -91.5q0 -40 19.5 -75.5t70 -95t72.5 -90.5q3 -4 20 -28t21.5 -30.5t19 -28.5t19.5 -32t16 -31t15 -36 t10 -35.5t8 -40.5t2 -41q0 -43 -16.5 -84t-54 -79.5t-92 -67.5t-136 -46.5t-180.5 -17.5q-228 0 -361 95l33 241h86q13 -129 52 -198t120 -68q89 1 130.5 51t41.5 129q0 41 -29 119.5t-73 138.5q-17 23 -39 50t-37.5 44.5t-34 42t-28 42t-20.5 44t-10 48.5t3 55 q6 39 34 80.5t63.5 79.5t69.5 80t57.5 96t23.5 112q0 82 -42 126t-102 44q-92 0 -155.5 -82.5t-110.5 -291.5q-39 -174 -65 -287.5t-60.5 -251.5t-62 -229.5t-63 -196.5t-70.5 -180t-77.5 -153t-91 -141.5t-104.5 -121.5z" />
<glyph unicode="&#xe0;" horiz-adv-x="1437" d="M78 319q0 94 32.5 190t104.5 189t175.5 165t259.5 116.5t341 44.5h383l-160 -717q-19 -75 1.5 -92.5t87.5 16.5l88 43l32 -69l-475 -230q-87 11 -129 68q-20 26 -24 79.5t8 100.5l41 189l-13 6q-111 -199 -261 -321t-255 -122q-107 0 -172 94t-65 250zM475 377 q3 -141 98 -141q50 0 127.5 115.5t147.5 275.5t113 307h-162q-71 0 -129.5 -45t-93.5 -111.5t-59 -145.5t-33.5 -144t-8.5 -111zM530 1509q10 50 53 81.5t89 31.5q22 0 41 -6t38 -23.5t27.5 -26.5t30 -37.5t25.5 -33.5l251 -324h-112l-303 168q-52 30 -79 49t-48 51.5 t-13 69.5z" />
<glyph unicode="&#xe1;" horiz-adv-x="1437" d="M78 319q0 94 32.5 190t104.5 189t175.5 165t259.5 116.5t341 44.5h383l-160 -717q-19 -75 1.5 -92.5t87.5 16.5l88 43l32 -69l-475 -230q-87 11 -129 68q-20 26 -24 79.5t8 100.5l41 189l-13 6q-111 -199 -261 -321t-255 -122q-107 0 -172 94t-65 250zM475 377 q3 -141 98 -141q50 0 127.5 115.5t147.5 275.5t113 307h-162q-71 0 -129.5 -45t-93.5 -111.5t-59 -145.5t-33.5 -144t-8.5 -111zM535 1171v5l387 319q9 7 40.5 33.5t45 37t39 27t46.5 23t42 6.5q50 0 78.5 -31t17.5 -84q-11 -51 -64 -88.5t-147 -79.5l-371 -168h-114z" />
<glyph unicode="&#xe2;" horiz-adv-x="1437" d="M78 319q0 94 32.5 190t104.5 189t175.5 165t259.5 116.5t341 44.5h383l-160 -717q-19 -75 1.5 -92.5t87.5 16.5l88 43l32 -69l-475 -230q-87 11 -129 68q-20 26 -24 79.5t8 100.5l41 189l-13 6q-111 -199 -261 -321t-255 -122q-107 0 -172 94t-65 250zM469 1171v5 l420 337h172l278 -342h-122l-279 164l-350 -164h-119zM475 377q3 -141 98 -141q50 0 127.5 115.5t147.5 275.5t113 307h-162q-71 0 -129.5 -45t-93.5 -111.5t-59 -145.5t-33.5 -144t-8.5 -111z" />
<glyph unicode="&#xe3;" horiz-adv-x="1437" d="M78 319q0 94 32.5 190t104.5 189t175.5 165t259.5 116.5t341 44.5h383l-160 -717q-19 -75 1.5 -92.5t87.5 16.5l88 43l32 -69l-475 -230q-87 11 -129 68q-20 26 -24 79.5t8 100.5l41 189l-13 6q-111 -199 -261 -321t-255 -122q-107 0 -172 94t-65 250zM461 1171 q55 125 142.5 203t189.5 78q76 0 116.5 -11t67.5 -40l25 -12.5t29.5 -14t29.5 -10.5t39.5 -9t44.5 -3q70 0 131 31.5t90 82.5h80q-35 -117 -137 -206t-217 -89q-76 0 -120.5 16.5t-82.5 47.5q-31 25 -64.5 35t-85.5 10q-60 0 -112 -32.5t-82 -76.5h-84zM475 377 q3 -141 98 -141q50 0 127.5 115.5t147.5 275.5t113 307h-162q-71 0 -129.5 -45t-93.5 -111.5t-59 -145.5t-33.5 -144t-8.5 -111z" />
<glyph unicode="&#xe4;" horiz-adv-x="1437" d="M78 319q0 94 32.5 190t104.5 189t175.5 165t259.5 116.5t341 44.5h383l-160 -717q-19 -75 1.5 -92.5t87.5 16.5l88 43l32 -69l-475 -230q-87 11 -129 68q-20 26 -24 79.5t8 100.5l41 189l-13 6q-111 -199 -261 -321t-255 -122q-107 0 -172 94t-65 250zM475 377 q3 -141 98 -141q50 0 127.5 115.5t147.5 275.5t113 307h-162q-71 0 -129.5 -45t-93.5 -111.5t-59 -145.5t-33.5 -144t-8.5 -111zM494 1296q11 53 59.5 94.5t99.5 41.5q54 0 86.5 -40.5t22.5 -95.5q-12 -54 -61 -93.5t-103 -39.5q-52 0 -83.5 40t-20.5 93zM989 1296 q10 52 59.5 94t100.5 42q54 0 86 -40.5t22 -95.5q-12 -54 -60.5 -93.5t-102.5 -39.5q-52 0 -84 40t-21 93z" />
<glyph unicode="&#xe5;" horiz-adv-x="1437" d="M78 319q0 94 32.5 190t104.5 189t175.5 165t259.5 116.5t341 44.5h383l-160 -717q-19 -75 1.5 -92.5t87.5 16.5l88 43l32 -69l-475 -230q-87 11 -129 68q-20 26 -24 79.5t8 100.5l41 189l-13 6q-111 -199 -261 -321t-255 -122q-107 0 -172 94t-65 250zM475 377 q3 -141 98 -141q50 0 127.5 115.5t147.5 275.5t113 307h-162q-71 0 -129.5 -45t-93.5 -111.5t-59 -145.5t-33.5 -144t-8.5 -111zM719 1354q0 83 63 145t146 62t142.5 -61t59.5 -146q0 -84 -60 -143.5t-146 -59.5q-81 0 -143 60.5t-62 142.5zM838 1356q0 -34 26.5 -63 t59.5 -29q35 0 61.5 29t26.5 63q0 36 -26 64t-62 28q-35 0 -60.5 -27t-25.5 -65z" />
<glyph unicode="&#xe6;" horiz-adv-x="1798" d="M78 319q0 94 32.5 190t104.5 189t175.5 165t259.5 116.5t341 44.5h273v-49q81 36 175.5 55t164.5 19q83 0 148 -51t65 -138q0 -75 -45.5 -145t-124 -118t-183.5 -69.5t-225 0.5q-16 -72 -16 -137q0 -74 15.5 -125.5t41 -75.5t50 -33.5t52.5 -9.5q24 0 45.5 5t52 21.5 t48 27t67 44.5t74.5 50l57 -74l-208 -131q-89 -56 -193 -85.5t-166 -29.5q-64 0 -116.5 18t-86 44.5t-59 65t-38 72t-20.5 74t-9.5 62.5t-2.5 45h-4q-108 -160 -258 -270.5t-250 -110.5q-107 0 -172 94t-65 250zM475 381q3 -141 96 -141q50 0 127.5 115.5t147 274 t112.5 304.5h-161q-71 0 -129.5 -44.5t-93 -110.5t-58.5 -144.5t-33 -143t-8 -110.5zM1253 586h19q60 -8 112 9t87 50.5t60 76t36.5 84.5t11.5 77q0 67 -61 67q-44 0 -99.5 -55.5t-101.5 -141t-64 -167.5z" />
<glyph unicode="&#xe7;" horiz-adv-x="1017" d="M78 360q-1 9 1 31.5t11 67t25.5 93.5t50 108.5t78 113.5t115 108t157.5 93q81 36 175.5 55t164.5 19q127 0 213 -45l-29 -154l-82 -27q-28 60 -72.5 93.5t-99.5 33.5q-90 0 -163.5 -91t-110.5 -218t-37 -252q0 -108 38 -175t122 -67q24 0 45.5 5t52 21.5t48 27t67 44.5 t74.5 50l57 -74l-209 -131q-80 -50 -171.5 -78.5t-156.5 -31.5l-69 -113q30 6 61 6q54 0 90.5 -30.5t36.5 -78.5q0 -51 -29 -91.5t-74.5 -64.5t-97 -36t-102.5 -12q-72 0 -156 32l41 64q63 -23 113 -23q45 0 74.5 33t29.5 78q0 17 -9.5 31.5t-20.5 17.5q-29 4 -82 -6l-12 10 l116 183q-255 37 -274 380z" />
<glyph unicode="&#xe8;" horiz-adv-x="1050" d="M78 360q0 93 33.5 189.5t101 186t159 159.5t217.5 112t267 42q83 0 148 -51t65 -138q0 -75 -45.5 -145t-123.5 -118t-183 -69.5t-225 0.5q-16 -71 -16.5 -137.5t14 -121.5t52 -88.5t93.5 -33.5q24 0 45.5 5t52 21.5t48 27t67 44.5t74.5 50l57 -74l-209 -131 q-89 -56 -192.5 -85.5t-165.5 -29.5q-64 0 -116.5 17.5t-86.5 44.5t-59.5 65t-38.5 73t-21 75t-10 64t-2 46zM338 1509q10 50 52.5 81.5t88.5 31.5q22 0 41 -6t38 -23.5t27.5 -26.5t30 -37.5t25.5 -33.5l252 -324h-113l-303 168q-38 22 -59.5 36.5t-45.5 36t-32 45.5t-2 52z M504 586q60 -8 112 9t87 50.5t60 76t36.5 84.5t11.5 77q0 67 -61 67q-67 0 -147 -119t-99 -245z" />
<glyph unicode="&#xe9;" horiz-adv-x="1050" d="M78 360q0 93 33.5 189.5t101 186t159 159.5t217.5 112t267 42q83 0 148 -51t65 -138q0 -75 -45.5 -145t-123.5 -118t-183 -69.5t-225 0.5q-16 -71 -16.5 -137.5t14 -121.5t52 -88.5t93.5 -33.5q24 0 45.5 5t52 21.5t48 27t67 44.5t74.5 50l57 -74l-209 -131 q-89 -56 -192.5 -85.5t-165.5 -29.5q-64 0 -116.5 17.5t-86.5 44.5t-59.5 65t-38.5 73t-21 75t-10 64t-2 46zM342 1171v5l387 319q9 7 40.5 33.5t45 37t39 27t46.5 23t42 6.5q50 0 78.5 -31t17.5 -84q-11 -51 -64 -88.5t-147 -79.5l-370 -168h-115zM504 586q60 -8 112 9 t87 50.5t60 76t36.5 84.5t11.5 77q0 67 -61 67q-67 0 -147 -119t-99 -245z" />
<glyph unicode="&#xea;" horiz-adv-x="1050" d="M78 360q0 93 33.5 189.5t101 186t159 159.5t217.5 112t267 42q83 0 148 -51t65 -138q0 -75 -45.5 -145t-123.5 -118t-183 -69.5t-225 0.5q-16 -71 -16.5 -137.5t14 -121.5t52 -88.5t93.5 -33.5q24 0 45.5 5t52 21.5t48 27t67 44.5t74.5 50l57 -74l-209 -131 q-89 -56 -192.5 -85.5t-165.5 -29.5q-64 0 -116.5 17.5t-86.5 44.5t-59.5 65t-38.5 73t-21 75t-10 64t-2 46zM276 1171v5l420 337h172l279 -342h-123l-279 164l-350 -164h-119zM504 586q60 -8 112 9t87 50.5t60 76t36.5 84.5t11.5 77q0 67 -61 67q-67 0 -147 -119t-99 -245z " />
<glyph unicode="&#xeb;" horiz-adv-x="1050" d="M78 360q0 93 33.5 189.5t101 186t159 159.5t217.5 112t267 42q83 0 148 -51t65 -138q0 -75 -45.5 -145t-123.5 -118t-183 -69.5t-225 0.5q-16 -71 -16.5 -137.5t14 -121.5t52 -88.5t93.5 -33.5q24 0 45.5 5t52 21.5t48 27t67 44.5t74.5 50l57 -74l-209 -131 q-89 -56 -192.5 -85.5t-165.5 -29.5q-64 0 -116.5 17.5t-86.5 44.5t-59.5 65t-38.5 73t-21 75t-10 64t-2 46zM301 1296q10 52 59.5 94t100.5 42q54 0 86 -40.5t22 -95.5q-12 -54 -60.5 -93.5t-102.5 -39.5q-52 0 -84 40t-21 93zM504 586q60 -8 112 9t87 50.5t60 76 t36.5 84.5t11.5 77q0 67 -61 67q-67 0 -147 -119t-99 -245zM797 1296q11 53 59.5 94.5t99.5 41.5q54 0 86.5 -40.5t22.5 -95.5q-12 -54 -61 -93.5t-103 -39.5q-52 0 -83.5 40t-20.5 93z" />
<glyph unicode="&#xec;" horiz-adv-x="784" d="M53 901l572 141q17 7 30 7q20 0 36 -16t16 -48q0 -19 -7 -47l-120 -547q-7 -29 -11.5 -51.5t-7.5 -41t-4 -32t-1 -23.5t2 -16.5t5 -10.5t7 -5.5t10 -1.5q28 0 69 20l88 45l33 -69l-475 -230q-71 9 -108 43.5t-46 104.5q-3 53 9 100l120 547q1 7 4 18.5t4 17.5t3 15.5 t2 14.5t-0.5 12t-3 10.5t-6 7t-9.5 5t-14 1.5q-16 0 -90 -16l-86 -18zM205 1509q10 50 52.5 81.5t88.5 31.5q22 0 41 -6t38 -23.5t27.5 -26.5t30 -37.5t25.5 -33.5l252 -324h-113l-303 168q-38 22 -59.5 36.5t-45.5 36t-32 45.5t-2 52z" />
<glyph unicode="&#xed;" horiz-adv-x="784" d="M53 901l572 141q17 7 30 7q20 0 36 -16t16 -48q0 -19 -7 -47l-120 -547q-7 -29 -11.5 -51.5t-7.5 -41t-4 -32t-1 -23.5t2 -16.5t5 -10.5t7 -5.5t10 -1.5q28 0 69 20l88 45l33 -69l-475 -230q-71 9 -108 43.5t-46 104.5q-3 53 9 100l120 547q1 7 4 18.5t4 17.5t3 15.5 t2 14.5t-0.5 12t-3 10.5t-6 7t-9.5 5t-14 1.5q-16 0 -90 -16l-86 -18zM209 1171v5l387 319q9 7 40.5 33.5t45 37t39 27t46.5 23t42 6.5q50 0 78.5 -31t17.5 -84q-11 -51 -64 -88.5t-147 -79.5l-370 -168h-115z" />
<glyph unicode="&#xee;" horiz-adv-x="784" d="M53 901l572 141q17 7 30 7q20 0 36 -16t16 -48q0 -19 -7 -47l-120 -547q-7 -29 -11.5 -51.5t-7.5 -41t-4 -32t-1 -23.5t2 -16.5t5 -10.5t7 -5.5t10 -1.5q28 0 69 20l88 45l33 -69l-475 -230q-71 9 -108 43.5t-46 104.5q-3 53 9 100l120 547q1 7 4 18.5t4 17.5t3 15.5 t2 14.5t-0.5 12t-3 10.5t-6 7t-9.5 5t-14 1.5q-16 0 -90 -16l-86 -18zM143 1171v5l420 337h172l279 -342h-123l-279 164l-350 -164h-119z" />
<glyph unicode="&#xef;" horiz-adv-x="784" d="M53 901l572 141q17 7 30 7q20 0 36 -16t16 -48q0 -19 -7 -47l-120 -547q-7 -29 -11.5 -51.5t-7.5 -41t-4 -32t-1 -23.5t2 -16.5t5 -10.5t7 -5.5t10 -1.5q28 0 69 20l88 45l33 -69l-475 -230q-71 9 -108 43.5t-46 104.5q-3 53 9 100l120 547q1 7 4 18.5t4 17.5t3 15.5 t2 14.5t-0.5 12t-3 10.5t-6 7t-9.5 5t-14 1.5q-16 0 -90 -16l-86 -18zM168 1296q10 52 59.5 94t100.5 42q54 0 86 -40.5t22 -95.5q-12 -54 -61 -93.5t-103 -39.5q-52 0 -83.5 40t-20.5 93zM664 1296q11 53 59.5 94.5t99.5 41.5q54 0 86.5 -40.5t22.5 -95.5 q-12 -54 -61 -93.5t-103 -39.5q-52 0 -83.5 40t-20.5 93z" />
<glyph unicode="&#xf0;" horiz-adv-x="1273" d="M78 414q0 133 48 253t126 202t178 130t203 48q85 0 158 -23q-23 108 -72 186l-264 -92l-109 99l281 102q-57 54 -164 100l246 86q88 -35 170 -96l249 90l117 -106l-248 -86q123 -126 182.5 -261.5t59.5 -336.5q0 -334 -187.5 -534t-498.5 -200q-112 0 -203 35t-150 95.5 t-90.5 139.5t-31.5 169zM475 319q2 -117 31 -193.5t88 -76.5t117 109t90.5 244t32.5 229q0 65 -4 114t-15 97t-34.5 74t-57.5 26q-62 0 -113.5 -74t-79.5 -179t-42.5 -204.5t-12.5 -165.5z" />
<glyph unicode="&#xf1;" horiz-adv-x="1488" d="M45 901l571 141q25 5 29 5q53 0 53 -62q0 -23 -6 -47l-61 -270l12 -4q115 170 298 277.5t337 107.5q119 0 119 -131q0 -50 -17 -117l-114 -494q-23 -98 18 -98q29 0 70 20l88 45l33 -69l-476 -230q-71 9 -107.5 43.5t-45.5 104.5q-3 56 8 100l117 453q18 64 18 96 q0 35 -9 51.5t-34 16.5q-23 0 -62 -27.5t-89.5 -84t-100 -131.5t-95.5 -182.5t-73 -224.5l-45 -190h-389l170 770q14 60 12 74q0 28 -32 28q-16 0 -90 -16l-86 -18zM487 1171q55 125 142.5 203t189.5 78q76 0 117 -11t68 -40q1 -1 30 -15t40 -18t39 -10t58 -6 q70 0 131.5 31.5t90.5 82.5h80q-35 -117 -137.5 -206t-217.5 -89q-76 0 -120.5 16.5t-82.5 47.5q-31 25 -64 35t-85 10q-60 0 -112.5 -32.5t-82.5 -76.5h-84z" />
<glyph unicode="&#xf2;" horiz-adv-x="1255" d="M78 410q0 152 55.5 275.5t149 201.5t211.5 120t247 42q223 0 349.5 -121t126.5 -314q0 -122 -36.5 -226.5t-99.5 -179.5t-147 -128t-180.5 -79t-198.5 -26q-223 0 -350 121t-127 314zM440 1509q10 50 53 81.5t89 31.5q22 0 41 -6.5t37.5 -23.5t27.5 -26.5t29.5 -37 t25.5 -33.5l252 -324h-112l-303 168q-52 30 -79 49t-48 51.5t-13 69.5zM475 270q0 -24 2.5 -50t12 -72t35 -74.5t63.5 -28.5q55 0 102.5 102t74.5 238t41.5 256.5t12.5 173.5q0 54 -10 90t-28 50.5t-32.5 19t-33.5 4.5q-59 0 -119.5 -124t-94.5 -291.5t-26 -293.5z" />
<glyph unicode="&#xf3;" horiz-adv-x="1255" d="M78 410q0 152 55.5 275.5t149 201.5t211.5 120t247 42q223 0 349.5 -121t126.5 -314q0 -122 -36.5 -226.5t-99.5 -179.5t-147 -128t-180.5 -79t-198.5 -26q-223 0 -350 121t-127 314zM444 1171v5l387 319q9 7 40.5 33.5t45 37t39 27t46.5 23t42 6.5q50 0 79 -31t18 -84 q-11 -51 -64 -88.5t-147 -79.5l-371 -168h-115zM475 270q0 -24 2.5 -50t12 -72t35 -74.5t63.5 -28.5q55 0 102.5 102t74.5 238t41.5 256.5t12.5 173.5q0 54 -10 90t-28 50.5t-32.5 19t-33.5 4.5q-59 0 -119.5 -124t-94.5 -291.5t-26 -293.5z" />
<glyph unicode="&#xf4;" horiz-adv-x="1255" d="M78 410q0 152 55.5 275.5t149 201.5t211.5 120t247 42q223 0 349.5 -121t126.5 -314q0 -122 -36.5 -226.5t-99.5 -179.5t-147 -128t-180.5 -79t-198.5 -26q-223 0 -350 121t-127 314zM379 1171v5l420 337h172l278 -342h-123l-278 164l-350 -164h-119zM475 270 q0 -24 2.5 -50t12 -72t35 -74.5t63.5 -28.5q55 0 102.5 102t74.5 238t41.5 256.5t12.5 173.5q0 54 -10 90t-28 50.5t-32.5 19t-33.5 4.5q-59 0 -119.5 -124t-94.5 -291.5t-26 -293.5z" />
<glyph unicode="&#xf5;" horiz-adv-x="1255" d="M78 410q0 152 55.5 275.5t149 201.5t211.5 120t247 42q223 0 349.5 -121t126.5 -314q0 -122 -36.5 -226.5t-99.5 -179.5t-147 -128t-180.5 -79t-198.5 -26q-223 0 -350 121t-127 314zM371 1171q55 125 142.5 203t188.5 78q76 0 117 -11t68 -40l25 -12.5t29.5 -14 t29.5 -10.5t39.5 -9t44.5 -3q70 0 131 31.5t90 82.5h80q-35 -117 -137.5 -206t-217.5 -89q-76 0 -120 16.5t-82 47.5q-31 25 -64.5 35t-85.5 10q-60 0 -112 -32.5t-82 -76.5h-84zM475 270q0 -24 2.5 -50t12 -72t35 -74.5t63.5 -28.5q55 0 102.5 102t74.5 238t41.5 256.5 t12.5 173.5q0 54 -10 90t-28 50.5t-32.5 19t-33.5 4.5q-59 0 -119.5 -124t-94.5 -291.5t-26 -293.5z" />
<glyph unicode="&#xf6;" horiz-adv-x="1255" d="M78 410q0 152 55.5 275.5t149 201.5t211.5 120t247 42q223 0 349.5 -121t126.5 -314q0 -122 -36.5 -226.5t-99.5 -179.5t-147 -128t-180.5 -79t-198.5 -26q-223 0 -350 121t-127 314zM403 1296q10 52 59.5 94t100.5 42q54 0 86.5 -40.5t22.5 -95.5q-12 -54 -61 -93.5 t-103 -39.5q-52 0 -84 40t-21 93zM475 270q0 -24 2.5 -50t12 -72t35 -74.5t63.5 -28.5q55 0 102.5 102t74.5 238t41.5 256.5t12.5 173.5q0 54 -10 90t-28 50.5t-32.5 19t-33.5 4.5q-59 0 -119.5 -124t-94.5 -291.5t-26 -293.5zM899 1296q10 52 59.5 94t100.5 42 q54 0 86 -40.5t22 -95.5q-12 -54 -60.5 -93.5t-102.5 -39.5q-52 0 -84 40t-21 93z" />
<glyph unicode="&#xf7;" d="M150 420v196h1032v-196h-1032zM469 117q0 77 58.5 132.5t136.5 55.5q75 0 131.5 -57t56.5 -131q0 -75 -56.5 -134t-129.5 -59q-78 0 -137.5 57.5t-59.5 135.5zM469 924q0 77 58.5 132.5t136.5 55.5q75 0 131.5 -57t56.5 -131q0 -75 -56.5 -134t-129.5 -59 q-78 0 -137.5 57.5t-59.5 135.5z" />
<glyph unicode="&#xf8;" horiz-adv-x="1255" d="M78 -160l166 226q-166 120 -166 344q0 152 55.5 275.5t149 201.5t211.5 120t247 42q121 0 205 -35l164 219l107 -66l-160 -213q78 -58 119 -146t41 -194q0 -122 -36.5 -226.5t-99.5 -179.5t-147 -128t-180.5 -79t-198.5 -26q-117 0 -207 35l-176 -235zM475 385h4l340 440 q1 43 -6 73.5t-17.5 45.5t-26.5 23.5t-26 10t-24 1.5q-48 0 -89.5 -39.5t-67.5 -94.5t-45 -117t-27 -102.5t-9 -56.5q-6 -71 -6 -184zM477 182q9 -30 12.5 -41t14.5 -34.5t21 -33.5t27.5 -19t39.5 -9q42 0 78.5 32t62 85t43 111t27.5 120q16 96 16 238l-2 4z" />
<glyph unicode="&#xf9;" horiz-adv-x="1484" d="M41 901l571 141l12 4q13 3 21 3q18 0 33.5 -16t15.5 -48q0 -23 -6 -47l-147 -590q-13 -48 -17.5 -70.5t-6.5 -48.5t7.5 -35.5t30.5 -9.5q13 0 46 18.5t85.5 67.5t105 119t106 187.5t87.5 257.5l45 190h389l-157 -717q-11 -45 -11 -63q0 -17 8.5 -26t20.5 -9q29 0 70 20 l88 45l32 -69l-475 -230q-71 9 -107.5 43.5t-45.5 104.5q-6 47 8 100l31 133l-13 -4q-110 -154 -298 -265.5t-337 -111.5q-118 0 -118 134q4 59 16 114l127 547q13 64 12 74q0 28 -32 28q-17 0 -91 -16l-86 -18zM555 1509q10 50 52.5 81.5t88.5 31.5q22 0 41 -6t38 -23.5 t27.5 -26.5t30 -37.5t25.5 -33.5l252 -324h-113l-303 168q-38 22 -59.5 36.5t-45.5 36t-32 45.5t-2 52z" />
<glyph unicode="&#xfa;" horiz-adv-x="1484" d="M41 901l571 141l12 4q13 3 21 3q18 0 33.5 -16t15.5 -48q0 -23 -6 -47l-147 -590q-13 -48 -17.5 -70.5t-6.5 -48.5t7.5 -35.5t30.5 -9.5q13 0 46 18.5t85.5 67.5t105 119t106 187.5t87.5 257.5l45 190h389l-157 -717q-11 -45 -11 -63q0 -17 8.5 -26t20.5 -9q29 0 70 20 l88 45l32 -69l-475 -230q-71 9 -107.5 43.5t-45.5 104.5q-6 47 8 100l31 133l-13 -4q-110 -154 -298 -265.5t-337 -111.5q-118 0 -118 134q4 59 16 114l127 547q13 64 12 74q0 28 -32 28q-17 0 -91 -16l-86 -18zM559 1171v5l387 319q9 7 40.5 33.5t45 37t39 27t46.5 23 t42 6.5q50 0 78.5 -31t17.5 -84q-11 -51 -64 -88.5t-147 -79.5l-370 -168h-115z" />
<glyph unicode="&#xfb;" horiz-adv-x="1484" d="M41 901l571 141l12 4q13 3 21 3q18 0 33.5 -16t15.5 -48q0 -23 -6 -47l-147 -590q-13 -48 -17.5 -70.5t-6.5 -48.5t7.5 -35.5t30.5 -9.5q13 0 46 18.5t85.5 67.5t105 119t106 187.5t87.5 257.5l45 190h389l-157 -717q-11 -45 -11 -63q0 -17 8.5 -26t20.5 -9q29 0 70 20 l88 45l32 -69l-475 -230q-71 9 -107.5 43.5t-45.5 104.5q-6 47 8 100l31 133l-13 -4q-110 -154 -298 -265.5t-337 -111.5q-118 0 -118 134q4 59 16 114l127 547q13 64 12 74q0 28 -32 28q-17 0 -91 -16l-86 -18zM494 1171v5l419 337h172l279 -342h-123l-278 164l-351 -164 h-118z" />
<glyph unicode="&#xfc;" horiz-adv-x="1484" d="M41 901l571 141l12 4q13 3 21 3q18 0 33.5 -16t15.5 -48q0 -23 -6 -47l-147 -590q-13 -48 -17.5 -70.5t-6.5 -48.5t7.5 -35.5t30.5 -9.5q13 0 46 18.5t85.5 67.5t105 119t106 187.5t87.5 257.5l45 190h389l-157 -717q-11 -45 -11 -63q0 -17 8.5 -26t20.5 -9q29 0 70 20 l88 45l32 -69l-475 -230q-71 9 -107.5 43.5t-45.5 104.5q-6 47 8 100l31 133l-13 -4q-110 -154 -298 -265.5t-337 -111.5q-118 0 -118 134q4 59 16 114l127 547q13 64 12 74q0 28 -32 28q-17 0 -91 -16l-86 -18zM518 1296q10 52 59.5 94t100.5 42q54 0 86 -40.5t22 -95.5 q-12 -54 -60.5 -93.5t-102.5 -39.5q-52 0 -84 40t-21 93zM1014 1296q10 52 59.5 94t100.5 42q54 0 86 -40.5t22 -95.5q-12 -54 -61 -93.5t-103 -39.5q-52 0 -83.5 40t-20.5 93z" />
<glyph unicode="&#xfd;" horiz-adv-x="1062" d="M18 938l482 111q16 0 28 -4.5t20 -15.5t13.5 -20t8.5 -27.5t4.5 -27t3.5 -30.5t2 -27l24 -565l238 305q108 139 108 229v140q-2 20 19 24l82 19q20 0 28 -19l54 -96q6 -10 7 -23t-3.5 -29t-9 -29.5t-17 -35t-20.5 -34.5t-25.5 -38t-26 -37t-28.5 -38l-584 -772 q-138 -178 -166 -308l-16 -65q-8 -49 -54 -49h-92q-17 0 -25 13t-16 40q-1 5 -2 8l-12 43q-3 20 1.5 37t11 27t23 30.5t25.5 34.5q16 24 56 74t71 96.5t52 95.5l-58 711q-6 117 -15 145q-15 47 -67 52q-15 1 -34 0q-13 -1 -72 -15zM348 1171v5l387 319q9 7 40.5 33.5t45 37 t39 27t46.5 23t42 6.5q50 0 78.5 -31t17.5 -84q-8 -36 -41 -68t-70.5 -52.5t-98.5 -47.5l-371 -168h-115z" />
<glyph unicode="&#xfe;" horiz-adv-x="1316" d="M-207 -512l14 78q150 7 168 51q13 25 25 90l340 1559q12 50 12 73q0 62 -69 56l-131 -6l16 69l623 47l-134 -569l109 49q138 64 264 64q248 0 248 -326q0 -156 -63.5 -295.5t-172.5 -238t-264 -150.5t-329 -39l-60 -293q-12 -66 -8 -90q3 -46 211 -51l-14 -78h-785z M473 86q32 -16 72 -16q60 0 120 43t110.5 120t82 198.5t31.5 264.5q0 108 -31.5 160.5t-71.5 52.5q-33 0 -75 -18.5t-70 -50.5z" />
<glyph unicode="&#xff;" horiz-adv-x="1062" d="M18 938l482 111q16 0 28 -4.5t20 -15.5t13.5 -20t8.5 -27.5t4.5 -27t3.5 -30.5t2 -27l24 -565l238 305q108 139 108 229v140q-2 20 19 24l82 19q20 0 28 -19l54 -96q6 -10 7 -23t-3.5 -29t-9 -29.5t-17 -35t-20.5 -34.5t-25.5 -38t-26 -37t-28.5 -38l-584 -772 q-138 -178 -166 -308l-16 -65q-8 -49 -54 -49h-92q-17 0 -25 13t-16 40q-1 5 -2 8l-12 43q-3 20 1.5 37t11 27t23 30.5t25.5 34.5q16 24 56 74t71 96.5t52 95.5l-58 711q-6 117 -15 145q-15 47 -67 52q-15 1 -34 0q-13 -1 -72 -15zM307 1296q10 52 59.5 94t100.5 42 q54 0 86 -40.5t22 -95.5q-12 -54 -60.5 -93.5t-102.5 -39.5q-52 0 -84 40t-21 93zM803 1296q10 52 59.5 94t100.5 42q54 0 86 -40.5t22 -95.5q-12 -54 -61 -93.5t-103 -39.5q-52 0 -83.5 40t-20.5 93z" />
<glyph unicode="&#x152;" horiz-adv-x="2369" d="M123 561q0 109 30.5 218.5t86.5 209t140 185.5t186 149t230 99t267 36q238 -11 418 -16q282 -8 389 -8h528l-69 -330h-64q-20 227 -201 227h-227l-111 -534h164q52 0 93 29.5t85 105.5l46 82h63l-113 -539h-63l-14 94q-9 69 -37 97t-82 28h-164l-92 -448q-6 -29 -6 -51 t4 -37.5t16.5 -26t25.5 -16t36.5 -8.5t44.5 -4t55 -1q113 0 218 60t169 133l68 78h63l-139 -373h-588q-262 0 -758 -25q-183 0 -320.5 46.5t-218.5 129t-120 185.5t-39 225zM565 475q0 -123 8 -175q39 -247 269 -247q91 0 146 9.5t98 38.5t67 79.5t41 134.5l168 807 q15 63 14.5 110t-28 78t-101.5 46.5t-205 15.5q-87 0 -159.5 -42t-120.5 -107.5t-85.5 -153.5t-57.5 -173t-33 -173.5t-17 -146.5t-4 -101z" />
<glyph unicode="&#x153;" horiz-adv-x="1789" d="M78 410q0 121 37.5 226.5t101 179.5t146 127.5t172.5 79.5t180 26q115 0 216.5 -47t164.5 -117q64 50 141.5 85.5t147.5 51t120 21.5t90 6q83 0 148 -51t65 -138q0 -75 -45.5 -145t-123.5 -118t-183 -69.5t-225 0.5q-17 -77 -17 -137q0 -71 14 -121.5t38.5 -76t50.5 -36 t57 -10.5q24 0 45.5 5t52 21.5t48 27t67 44.5t74.5 50l57 -74l-209 -131q-89 -56 -192.5 -85.5t-165.5 -29.5q-176 0 -252 111q-62 -41 -162.5 -76t-218.5 -35q-194 0 -317 123t-123 312zM475 270q0 -23 3 -50.5t13 -73t36.5 -74.5t66.5 -29q45 0 85.5 68.5t67 168 t46.5 210.5t28.5 198t7.5 127q0 166 -108 166q-34 0 -76.5 -54t-80.5 -144.5t-63.5 -228t-25.5 -284.5zM1245 586q60 -8 112 9.5t87 51.5t60 77t36.5 85.5t11.5 77.5q0 38 -17 50.5t-44 12.5q-44 0 -97 -54.5t-95 -140t-54 -169.5z" />
<glyph unicode="&#x178;" horiz-adv-x="1517" d="M145 1356l17 78h753l-16 -78q-76 0 -108.5 -17.5t-32 -53t15.5 -89.5l152 -537l393 523q35 47 43 81.5t-9.5 54t-50 29t-79.5 9.5l16 78h467l-16 -78q-52 0 -92.5 -18.5t-86.5 -82.5l-450 -596q-88 -119 -103 -200l-51 -240q-10 -48 -12 -77.5t35 -44.5t133 -19l-16 -78 h-801l16 78q70 3 107.5 9t60 24.5t29.5 39.5t16 68l64 305l-187 672q-22 90 -75 125t-132 35zM637 1640q10 52 59.5 94t100.5 42q54 0 86 -40.5t22 -95.5q-12 -54 -61 -93.5t-103 -39.5q-52 0 -83.5 40t-20.5 93zM1133 1640q11 53 59.5 94.5t99.5 41.5q54 0 86.5 -40.5 t22.5 -95.5q-12 -54 -61 -93.5t-103 -39.5q-52 0 -83.5 40t-20.5 93z" />
<glyph unicode="&#x2c6;" horiz-adv-x="1138" d="M319 1171v5l420 337h172l279 -342h-123l-279 164l-350 -164h-119z" />
<glyph unicode="&#x2dc;" horiz-adv-x="1175" d="M330 1171q55 125 142.5 203t189.5 78q76 0 116.5 -11t67.5 -40l25 -12.5t29.5 -14t29.5 -10.5t39.5 -9t44.5 -3q70 0 131 31.5t90 82.5h80q-35 -117 -137 -206t-217 -89q-76 0 -120.5 16.5t-82.5 47.5q-31 25 -64.5 35t-85.5 10q-60 0 -112 -32.5t-82 -76.5h-84z" />
<glyph unicode="&#x2000;" horiz-adv-x="983" />
<glyph unicode="&#x2001;" horiz-adv-x="1966" />
<glyph unicode="&#x2002;" horiz-adv-x="983" />
<glyph unicode="&#x2003;" horiz-adv-x="1966" />
<glyph unicode="&#x2004;" horiz-adv-x="655" />
<glyph unicode="&#x2005;" horiz-adv-x="491" />
<glyph unicode="&#x2006;" horiz-adv-x="327" />
<glyph unicode="&#x2007;" horiz-adv-x="327" />
<glyph unicode="&#x2008;" horiz-adv-x="245" />
<glyph unicode="&#x2009;" horiz-adv-x="393" />
<glyph unicode="&#x200a;" horiz-adv-x="109" />
<glyph unicode="&#x2010;" horiz-adv-x="681" d="M86 393l37 189h510l-37 -189h-510z" />
<glyph unicode="&#x2011;" horiz-adv-x="681" d="M86 393l37 189h510l-37 -189h-510z" />
<glyph unicode="&#x2012;" horiz-adv-x="681" d="M86 393l37 189h510l-37 -189h-510z" />
<glyph unicode="&#x2013;" horiz-adv-x="1024" d="M-39 389l39 197h1063l-39 -197h-1063z" />
<glyph unicode="&#x2014;" horiz-adv-x="2048" d="M-39 389l39 197h2087l-39 -197h-2087z" />
<glyph unicode="&#x2018;" horiz-adv-x="569" d="M158 981q9 34 99 144t194.5 229t126.5 151l100 -88q-42 -46 -75 -89.5t-53.5 -85t-34 -73t-21.5 -71t-11 -59.5t-6 -58t-4 -49q-1 -26 -90.5 -90t-108.5 -64q-23 0 -54.5 35.5t-51 84.5t-10.5 83z" />
<glyph unicode="&#x2019;" horiz-adv-x="569" d="M123 866q42 46 75 89.5t53.5 85t34 73t21.5 71t11 60t6 58.5t4 49q1 26 90 89.5t108 63.5q23 0 54.5 -35t51 -84t11.5 -83q-9 -34 -99 -144.5t-194.5 -229.5t-126.5 -151z" />
<glyph unicode="&#x201a;" horiz-adv-x="569" d="M-131 -291q42 46 75 89.5t53.5 85t34 73t21.5 71t11 60t6 58.5t4 49q1 26 90 89.5t108 63.5q23 0 54.5 -35.5t51.5 -84.5t11 -83t-99 -144t-194.5 -229t-126.5 -151z" />
<glyph unicode="&#x201c;" horiz-adv-x="1062" d="M150 981q9 34 99 144t194 229t126 151l101 -88q-42 -46 -75 -89.5t-53.5 -85t-34 -73t-21.5 -71t-11 -59.5t-6 -58t-4 -49q-1 -26 -90.5 -90t-108.5 -64q-23 0 -54.5 35.5t-51 84.5t-10.5 83zM686 981q9 34 99 144t194.5 229t126.5 151l100 -88q-42 -46 -75 -89.5 t-53.5 -85t-34 -73t-21.5 -71t-11 -59.5t-6 -58t-4 -49q-1 -26 -90 -90t-108 -64q-23 0 -54.5 35.5t-51.5 84.5t-11 83z" />
<glyph unicode="&#x201d;" horiz-adv-x="1062" d="M106 866q42 46 75 89.5t53.5 85t34 73t21.5 71t11 60t6 58.5t4 49q1 26 90.5 89.5t108.5 63.5q23 0 54.5 -35t51 -84t11.5 -83q-9 -34 -99 -144.5t-194.5 -229.5t-126.5 -151zM643 866q42 46 75 89.5t53.5 85t34 73t21.5 71t11 60t6 58.5t4 49q1 26 90.5 89.5t108.5 63.5 q23 0 54.5 -35t51 -84t10.5 -83t-99 -144.5t-194.5 -229.5t-126.5 -151z" />
<glyph unicode="&#x201e;" horiz-adv-x="1062" d="M-166 -291q42 46 75 89.5t53.5 85t34 73t21.5 71t11 60t6 58.5t4 49q1 26 90.5 89.5t108.5 63.5q23 0 54.5 -35.5t51 -84.5t10.5 -83t-99 -144t-194.5 -229t-126.5 -151zM371 -291q42 46 75 89.5t53.5 85t34 73.5t21 71t10.5 59.5t6 58t4 49.5q1 26 90.5 89.5t108.5 63.5 q23 0 54.5 -35.5t51.5 -84.5t11 -83t-99 -144t-194.5 -229t-126.5 -151z" />
<glyph unicode="&#x2022;" horiz-adv-x="1024" d="M184 717q-1 149 103.5 253.5t255.5 104.5q149 0 253.5 -104.5t104.5 -253.5t-104.5 -254t-253.5 -105q-150 0 -254.5 104.5t-104.5 254.5z" />
<glyph unicode="&#x2026;" horiz-adv-x="2048" d="M78 133q0 98 60.5 157.5t160.5 59.5q78 0 120 -47.5t42 -107.5q0 -100 -60.5 -160t-160.5 -60q-78 0 -120 48.5t-42 109.5zM760 133q0 98 60.5 157.5t160.5 59.5q78 0 120 -47.5t42 -107.5q0 -100 -60.5 -160t-160.5 -60q-78 0 -120 48.5t-42 109.5zM1442 133 q0 98 60.5 157.5t160.5 59.5q78 0 120 -47.5t42 -107.5q0 -100 -60.5 -160t-160.5 -60q-78 0 -120 48.5t-42 109.5z" />
<glyph unicode="&#x202f;" horiz-adv-x="393" />
<glyph unicode="&#x2039;" horiz-adv-x="569" d="M88 489l397 314q6 4 23.5 17t26 18.5t23 11.5t26.5 6q29 0 20 -39q-5 -20 -96.5 -154t-128.5 -174q17 -41 49.5 -162t38.5 -167q-1 -10 -3.5 -17t-12.5 -14.5t-27 -7.5q-8 0 -15 3t-16 11.5t-14 14t-18 21t-19 22.5z" />
<glyph unicode="&#x203a;" horiz-adv-x="569" d="M51 160q4 20 96 153.5t129 173.5q-17 41 -49.5 162.5t-38.5 167.5q1 10 3.5 17t12.5 14.5t27 7.5q8 0 15 -3t16 -11.5t14 -14t18 -21t19 -22.5l254 -297l-397 -313q-7 -5 -23.5 -17.5t-25.5 -18.5t-23 -11.5t-26 -5.5q-30 0 -21 39z" />
<glyph unicode="&#x205f;" horiz-adv-x="491" />
<glyph unicode="&#x20ac;" d="M18 575l25 113h178q5 45 19 107h-177l25 112h182q85 255 279.5 403t482.5 148q77 0 152.5 -24.5t118 -58.5t36.5 -62l-53 -256h-59q-3 36 -6 59.5t-10 59.5t-16 60.5t-24.5 52.5t-35.5 44.5t-49.5 27.5t-65.5 11q-233 0 -369 -465h404l-25 -112h-407q-22 -104 -23 -107 h410l-25 -113h-401q-13 -99 -13 -151q0 -63 3.5 -110t15 -97.5t31.5 -82.5t55 -52.5t84 -20.5q121 0 209 83.5t174 261.5l59 -25l-115 -309q-14 -39 -123.5 -68t-254.5 -29q-93 0 -170.5 23t-130.5 64t-93 93t-62.5 113.5t-33 121t-10.5 120.5q0 42 2 65h-193z" />
<glyph unicode="&#x2122;" horiz-adv-x="2086" d="M193 1253l36 181h789l-37 -181h-41q-5 28 -7.5 39.5t-10.5 31.5t-19 28t-31 15t-49 7h-88l-133 -641q-5 -27 -6.5 -44.5t20 -26.5t76.5 -11l-10 -45h-463l10 45q52 2 76 10t32 22.5t15 49.5l133 641h-86q-36 0 -62.5 -9t-47 -30t-30.5 -36t-28 -46h-38zM993 606l11 45 q72 3 90 21.5t39 106.5q2 7 3.5 12.5t2.5 11.5l96 475q-13 54 -41.5 82.5t-58.5 28.5h-23l10 45h322q25 -89 74 -268.5t73 -268.5l396 537h303l-9 -45h-30q-83 0 -105 -107l-114 -549q-5 -27 -6.5 -44.5t20 -26.5t76.5 -11l-11 -45h-462l10 45q32 1 52.5 4.5t33 8t19.5 16 t10.5 21.5t7.5 32l90 432l-10 4l-392 -561h-24q-26 93 -79.5 280.5t-80.5 280.5h-4l-74 -366q-10 -45 -13.5 -68.5t-3 -42.5t12.5 -26t28 -10.5t48 -4.5l-10 -45h-277z" />
<glyph unicode="&#x25fc;" horiz-adv-x="1044" d="M0 0v1044h1044v-1044h-1044z" />
</font>
</defs>
</svg>
