<?xml version="1.0" standalone="no"?>
<!DOCTYPE svg PUBLIC "-//W3C//DTD SVG 1.1//EN" "http://www.w3.org/Graphics/SVG/1.1/DTD/svg11.dtd" >
<svg xmlns="http://www.w3.org/2000/svg">
<metadata></metadata>
<defs>
<font id="itc_stone_serif_stdmedium" horiz-adv-x="1175" >
<font-face units-per-em="2048" ascent="1505" descent="-543" />
<missing-glyph horiz-adv-x="587" />
<glyph unicode="&#xfb01;" horiz-adv-x="1275" d="M61 0v53q105 15 127 26q30 15 35 60q2 19 2 117v625h-141v94h141v162q0 47 18 89.5t51 78t64.5 61t73.5 53.5q124 86 299 86q56 0 84.5 -4t42.5 -20l88 -113q14 -14 -8 -37l-49 -53q-12 -12 -41 4l-72 47q-113 72 -186 72q-180 0 -180 -227v-199h292q197 0 345 74l4 -5 v-788q0 -115 5 -136q8 -34 44 -46q22 -8 114 -21v-53h-512v53q105 15 127 26q30 15 35 60q2 19 2 117v557q0 22 -10 37t-30 21t-38 8t-45 2h-333v-625q0 -96 8 -145q5 -28 45.5 -38t137.5 -19h3.5t3.5 -0.5t4 -0.5v-53h-551z" />
<glyph unicode="&#xfb02;" horiz-adv-x="1275" d="M61 0v53q105 15 127 26q30 15 35 60q2 19 2 117v625h-141v94h141v166q0 47 18 89.5t51 78t64.5 61t73.5 53.5q128 82 297 82q35 0 51 -0.5t33.5 -5t28.5 -14.5l24 -21q91 12 181 41l4 -4v-1245q0 -115 5 -136q8 -34 44 -46q22 -8 114 -21v-53h-512v53q105 15 127 26 q30 15 35 60q2 19 2 117v1034q-54 54 -132 84.5t-154 30.5q-170 0 -170 -221v-209h284v-53l-84 -41h-200v-625q0 -96 8 -145q5 -28 45.5 -38t137.5 -19h3.5t3.5 -0.5t4 -0.5v-53h-551z" />
<glyph horiz-adv-x="2048" />
<glyph horiz-adv-x="2048" />
<glyph unicode="&#xd;" horiz-adv-x="2048" />
<glyph unicode=" "  horiz-adv-x="587" />
<glyph unicode="&#x09;" horiz-adv-x="587" />
<glyph unicode="&#xa0;" horiz-adv-x="587" />
<glyph unicode="!" horiz-adv-x="606" d="M172 106q0 53 39.5 92.5t91.5 39.5t91.5 -39.5t39.5 -92.5q0 -52 -39 -91.5t-92 -39.5t-92 39.5t-39 91.5zM193 1446q-5 29 22 44t88 15t88.5 -15t22.5 -44q-50 -449 -78 -1045h-66q-28 611 -77 1045z" />
<glyph unicode="&#x22;" horiz-adv-x="757" d="M142 1386.5q2 28.5 6.5 54.5t25 45t53.5 19t53.5 -19t25 -45t6.5 -54.5t-3 -47.5l-47 -417q0 -1 -1 -12.5t-2.5 -17.5t-4.5 -15.5t-10 -14t-17 -4.5q-9 0 -15.5 4.5t-9.5 13.5t-4.5 16t-2 17.5t-0.5 12.5l-50 417q-5 19 -3 47.5zM445 1387.5q0 23.5 5 52.5t25 47t53 18 t53.5 -19t25 -45t6.5 -54.5t-3 -47.5l-47 -417q0 -1 -1 -12.5t-2.5 -17.5t-4.5 -15.5t-10 -14t-17 -4.5q-9 0 -15.5 4.5t-9.5 13.5t-4.5 16t-2 17.5t-0.5 12.5l-47 417q-4 25 -4 48.5z" />
<glyph unicode="#" d="M84 463v119h238l40 299h-223v118h242l61 435h121l-61 -435h270l62 435h120l-61 -435h197v-118h-213l-41 -299h202v-119h-221l-63 -463h-121l63 463h-274l-66 -463h-120l65 463h-217zM442 582h273l41 299h-273z" />
<glyph unicode="$" d="M172 88v287h53q13 -154 101.5 -233t208.5 -81v615q-30 22 -83.5 58t-82.5 56.5t-67.5 56.5t-58 69.5t-34 84.5t-14.5 111q0 122 105.5 212t248.5 101v80h88v-78q135 0 252 -30q20 -9 20 -29v-256h-53q-13 106 -68 176t-151 76v-494q25 -21 65.5 -52t66.5 -51.5t60 -50.5 t56.5 -55t46.5 -59.5t37.5 -68.5t22.5 -78t9 -93q0 -144 -108 -236.5t-270 -117.5v-209h-88v199q-184 0 -349 63q-14 7 -14 27zM389 1155q0 -62 39.5 -112.5t120.5 -110.5v428q-71 -16 -115.5 -67.5t-44.5 -137.5zM623 74q75 24 124.5 90.5t49.5 152.5q0 75 -38 143 t-136 150v-536z" />
<glyph unicode="%" horiz-adv-x="1859" d="M66 1040q1 57 13.5 114t41 112.5t68.5 97.5t100.5 68t132.5 26q89 0 160 -39t112.5 -101.5t62.5 -134t21 -143.5q0 -216 -98.5 -343.5t-257.5 -127.5q-158 0 -256.5 127.5t-99.5 343.5zM221 1028q0 -87 9.5 -156t22.5 -111.5t34.5 -73.5t38 -45.5t39.5 -22.5t32.5 -8.5 t24.5 -0.5q11 0 17.5 0.5t23.5 4t29 10t29.5 21t30.5 34.5t27.5 52.5t23 72.5t14.5 97.5t6 125.5q0 81 -9.5 145t-23 104t-35 69t-37.5 42t-39.5 20.5t-33 8t-23.5 0.5q-15 0 -24.5 -0.5t-32.5 -8t-39.5 -20.5t-38 -42t-34.5 -69t-22.5 -104t-9.5 -145zM399 0l926 1434h123 l-924 -1434h-125zM1081 457q0 72 21.5 143t62.5 133.5t112.5 101.5t160.5 39q72 0 132.5 -26t101 -68t69 -97t41 -112t12.5 -114q0 -216 -98.5 -343.5t-257.5 -127.5t-258 127.5t-99 343.5zM1237 444q0 -87 9.5 -156t22.5 -111.5t34.5 -73.5t37.5 -45t39.5 -22t33 -8.5 t24.5 -0.5t24 0.5t32 8.5t39.5 22t37.5 45t34.5 73.5t23 111.5t9.5 156q0 81 -9.5 145.5t-23 104t-34.5 68.5t-37.5 42.5t-39.5 21t-32.5 8t-23.5 0.5q-15 0 -24.5 -0.5t-32.5 -8t-39.5 -21t-37.5 -42.5t-34.5 -68.5t-23 -104t-9.5 -145.5z" />
<glyph unicode="&#x26;" horiz-adv-x="1669" d="M111 397q0 148 98 252.5t285 126.5q-12 11 -49.5 46.5t-50 48.5t-40.5 43.5t-39 50t-26.5 49t-21 59t-5.5 62.5q0 141 97.5 232t277.5 91q88 0 159 -23t107 -59v-188h-53q-31 109 -86.5 161t-147.5 52q-69 0 -125.5 -52t-56.5 -143q0 -73 46 -151.5t175 -200.5l486 -459 q54 111 56 259t-54 227h-242v41l105 53h604v-41l-99 -53h-233q23 -348 -78 -529q79 -76 197 -176.5t174 -136.5v-39h-240q-179 166 -217 205q-80 -104 -202.5 -167t-284.5 -63q-129 0 -231 36.5t-162.5 97.5t-91.5 134.5t-31 153.5zM330 416q0 -147 92.5 -252t249.5 -105 q226 0 385 195l-527 483q-49 -18 -86.5 -49t-58.5 -64.5t-34 -74t-17 -71.5t-4 -62z" />
<glyph unicode="'" horiz-adv-x="417" d="M124 1386.5q2 28.5 6.5 54.5t25 45t53.5 19t53.5 -19t25 -45t6.5 -54.5t-3 -47.5l-47 -417q0 -1 -1 -12.5t-2.5 -17.5t-4.5 -15.5t-10 -14t-17 -4.5q-9 0 -15.5 4.5t-10 14t-4.5 15.5t-2 17.5t-1 12.5l-49 417q-5 19 -3 47.5z" />
<glyph unicode="(" horiz-adv-x="720" d="M154 567q0 292 131.5 532.5t378.5 405.5l18 -37q-100 -76 -169.5 -175t-107 -215t-53.5 -234t-16 -258q0 -125 6 -219t27 -204t57.5 -197.5t101 -179t154.5 -169.5l-25 -39q-503 368 -503 989z" />
<glyph unicode=")" horiz-adv-x="720" d="M39 -383q90 78 154.5 169.5t101 179t57.5 197.5t27 204t6 219q0 140 -16 258t-53.5 234t-107 215t-169.5 175l18 37q247 -165 378.5 -405.5t131.5 -532.5q0 -620 -504 -989z" />
<glyph unicode="*" horiz-adv-x="872" d="M70 1108l53 158l248 -99l-17 267h166l-18 -267l250 99l51 -158l-260 -66l172 -206l-135 -99l-144 228l-143 -228l-135 99l172 206z" />
<glyph unicode="+" d="M72 451v135h448v450h135v-450h449v-135h-449v-451h-135v451h-448z" />
<glyph unicode="," horiz-adv-x="587" d="M72 -307q42 51 69.5 102.5t40 87t16 82.5t2.5 66.5t-7 62.5t-7 49q-3 21 58 74t75 53q25 0 58 -61.5t33 -106.5q0 -43 -91 -194t-180 -281z" />
<glyph unicode="-" horiz-adv-x="681" d="M86 403v168h510v-168h-510z" />
<glyph unicode="." horiz-adv-x="587" d="M162 106q0 53 39.5 92.5t91.5 39.5t91.5 -39.5t39.5 -92.5q0 -52 -39 -91.5t-92 -39.5t-92 39.5t-39 91.5z" />
<glyph unicode="/" horiz-adv-x="796" d="M66 -221l536 1726h129l-534 -1726h-131z" />
<glyph unicode="0" d="M61 762q0 78 14 158t41 158.5t71 146.5t100.5 120.5t134 82.5t166.5 30q106 0 195 -43t149 -113.5t102 -162t61 -187t19 -190.5q0 -359 -146.5 -573t-379.5 -214t-380 214t-147 573zM279 741q0 -144 14.5 -259.5t35.5 -187t53 -123.5t58 -76t60 -37.5t49.5 -15t35.5 -1.5 h3h3q21 0 36.5 1.5t49.5 15t60 37.5t57.5 76t52.5 123.5t35.5 187t14.5 259.5q0 108 -9.5 198.5t-23 153.5t-36.5 113.5t-42.5 81.5t-48.5 53t-46 31.5t-44 15t-34.5 5.5h-24.5h-3q-20 0 -35.5 -1.5t-49.5 -14t-60 -35t-58 -71t-53 -115t-35.5 -174t-14.5 -241.5z" />
<glyph unicode="1" d="M211 1257l506 201v-1177q0 -107 10 -162q6 -34 75 -47q36 -7 169 -19v-53h-703v53q8 1 22 2q66 6 95 9.5t63.5 10.5t47.5 17.5t16 26.5q8 55 8 162v870q0 106 -75 105q-34 0 -117 -31l-92 -37z" />
<glyph unicode="2" d="M88 0v102q118 135 289 310q61 62 103 107t104.5 121t101 139t67.5 139.5t29 142.5q0 107 -68 181.5t-182 74.5q-121 0 -204.5 -76t-104.5 -233h-53v237q85 106 195 159.5t233 53.5q85 0 159 -21.5t131.5 -63.5t90.5 -109t33 -152q0 -43 -13 -89.5t-31.5 -86.5t-51 -86.5 t-59 -80t-68.5 -78t-66 -68.5t-66 -64t-55 -53q-290 -285 -356 -354h573q49 0 86 16t64 49.5t44 66.5t38 85h71l-127 -369h-907z" />
<glyph unicode="3" d="M98 207q-8 18 11 35l47 37q30 30 43 10l98 -146q41 -62 99.5 -85t140.5 -23q119 0 193.5 99.5t74.5 250.5q0 54 -10.5 99t-26.5 77.5t-41.5 58t-50 41.5t-58.5 27t-59.5 16.5t-60.5 8t-54.5 2t-48 -1t-35.5 -0.5v88q183 6 279 92t96 240q0 120 -61 192t-148 72 q-97 0 -162.5 -51.5t-107.5 -169.5l-63 30v158q64 42 166 68t178 26q94 0 166.5 -14.5t130.5 -48t90.5 -93t36.5 -143.5q1 -144 -94.5 -241.5t-243.5 -137.5v-4q168 -16 286 -119t121 -264q1 -100 -45 -183t-121.5 -134t-166 -78t-183.5 -25q-93 3 -202.5 29.5t-141.5 48.5z " />
<glyph unicode="4" d="M74 479q72 125 286 428t388 527h118v-875h213v-141h-213v-148q0 -102 8 -155q3 -15 13.5 -25t39 -17t44.5 -9l64 -8q5 -1 8 -1t7.5 -1t8.5 -1v-53h-617v53q153 13 188.5 25.5t39.5 36.5q8 53 8 155v148h-582zM221 559h457v653q-86 -87 -229.5 -296.5t-227.5 -356.5z" />
<glyph unicode="5" d="M111 229q-14 28 0 39l43 39q27 22 41 6l127 -153q95 -115 229 -115q119 0 199.5 89t80.5 214q0 189 -158 320t-464 155l180 611h555l-51 -154h-449l-92 -301q314 -30 486 -189t172 -384q0 -101 -43 -184.5t-113 -136t-155.5 -81.5t-174.5 -29q-109 0 -199.5 29t-127.5 62 z" />
<glyph unicode="6" d="M123 541q2 131 44.5 261t121.5 243t184 202t239.5 145t280.5 66v-102q-111 2 -206.5 -29t-166 -86.5t-125.5 -134t-89 -167t-52 -189.5l4 -5q68 66 143 102t181 36q83 0 156 -27.5t130.5 -80t91 -139.5t32.5 -198q-2 -191 -135.5 -327t-333.5 -136q-222 0 -362.5 152.5 t-137.5 413.5zM328 498q-10 -203 73 -326t226 -123q64 0 115.5 32t82 84t46.5 111.5t16 120.5q0 109 -31 195.5t-96.5 140t-157.5 53.5q-117 0 -195.5 -79t-78.5 -209z" />
<glyph unicode="7" d="M207 1171v263h856v-91q-231 -410 -641 -1343h-195q177 295 371 659t295 621h-436q-1 0 -19.5 0.5t-25.5 0t-26.5 -1.5t-29.5 -4.5t-27 -8.5t-26.5 -13t-20 -19t-16 -27t-6.5 -36h-53z" />
<glyph unicode="8" d="M100 373q0 67 20.5 124t50.5 94.5t75 70.5t80.5 51.5t81.5 36.5q-131 64 -204 154.5t-73 195.5q0 102 65.5 185.5t168 128t215.5 44.5q116 0 207 -33.5t147.5 -106t56.5 -175.5q0 -59 -19.5 -111.5t-48.5 -89t-68 -66.5t-72.5 -47t-67.5 -28q60 -28 103 -51.5t95 -61.5 t84.5 -78.5t55 -98t22.5 -122.5q0 -124 -65.5 -219t-176.5 -145t-249 -50q-213 0 -348.5 112.5t-135.5 285.5zM283 385q0 -138 84 -243t211 -105q136 0 214 84t78 217q0 38 -11 72.5t-26.5 61t-44 53.5t-52.5 45t-63.5 40.5t-65 35t-69.5 33.5t-65 32q-96 -54 -143 -129.5 t-47 -196.5zM336 1155q0 -54 24 -101t71 -86t101 -69t127 -61q72 35 120 111t48 179q0 118 -65 193.5t-180 75.5q-114 0 -180 -70t-66 -172z" />
<glyph unicode="9" d="M84 995q2 193 140.5 328t355.5 135q99 0 184.5 -34.5t151.5 -101t102.5 -175t34.5 -246.5q-2 -167 -68 -328.5t-178.5 -290t-276 -212.5t-348.5 -95v103q111 -1 206.5 30.5t166 87t125 133.5t88 166.5t51.5 188.5l-4 4q-63 -65 -138.5 -101t-182.5 -36q-174 0 -292.5 114 t-117.5 330zM289 1036q0 -168 73 -278.5t211 -110.5q116 0 195.5 79.5t79.5 209.5q9 200 -75 324t-208 124q-57 0 -104 -21t-78.5 -56t-53 -80.5t-31 -93.5t-9.5 -97z" />
<glyph unicode=":" horiz-adv-x="587" d="M162 106q0 53 39.5 92.5t91.5 39.5t91.5 -39.5t39.5 -92.5q0 -52 -39 -91.5t-92 -39.5t-92 39.5t-39 91.5zM162 852q0 52 39 91.5t92 39.5t92 -39.5t39 -91.5t-39 -91.5t-92 -39.5t-92 39.5t-39 91.5z" />
<glyph unicode=";" horiz-adv-x="587" d="M66 -287q42 50 69.5 101.5t40.5 86.5t16.5 83t3 66t-7 63t-6.5 49q-3 21 58 74t75 53q23 0 57 -62t34 -106q0 -72 -271 -475zM174 852q0 52 39 91.5t92 39.5t92 -39.5t39 -91.5t-39 -91.5t-92 -39.5t-92 39.5t-39 91.5z" />
<glyph unicode="&#x3c;" d="M53 463v110l1043 480v-131l-869 -404l869 -403v-131z" />
<glyph unicode="=" d="M72 252v135h1032v-135h-1032zM72 649v135h1032v-135h-1032z" />
<glyph unicode="&#x3e;" d="M80 -16v131l868 403l-868 404v131l1042 -480v-110z" />
<glyph unicode="?" horiz-adv-x="948" d="M106 1323l70 131q29 17 112.5 34t137.5 17q188 0 305 -97t117 -261q0 -50 -16 -97.5t-36 -82t-59 -76.5t-64 -65t-73 -64q-68 -57 -100.5 -106.5t-41.5 -100.5t-9 -145h-93q-5 139 22 228t126 226q65 92 93 158.5t28 134.5q0 119 -51 200t-136 81q-64 0 -129 -70 l-102 -108q-16 -16 -33 -7l-61 43q-18 9 -7 27zM268 106q0 53 39.5 92.5t91.5 39.5t91.5 -39.5t39.5 -92.5q0 -52 -39 -91.5t-92 -39.5t-92 39.5t-39 91.5z" />
<glyph unicode="@" horiz-adv-x="1554" d="M25 678q0 170 63 316.5t170.5 247.5t252.5 158.5t306 57.5q196 0 359.5 -81.5t258.5 -226.5t95 -323q0 -67 -17.5 -138.5t-52.5 -139.5t-82.5 -122t-113.5 -87t-140 -33q-85 0 -140.5 55.5t-55.5 96.5l-16 -15q-17 -15 -27 -23t-31 -24.5t-38.5 -26.5t-40.5 -21.5 t-47 -18t-48 -8.5q-18 -1 -35.5 1.5t-44.5 9.5t-49 25.5t-42.5 46t-32 75t-11.5 108.5q0 60 18.5 128.5t55.5 135t85.5 121t115 88t137.5 33.5q30 0 54.5 -7.5t39 -16t30 -27.5t21 -29t18.5 -33l23 86h156l-144 -559q-4 -14 -5.5 -32t2.5 -42t25.5 -40.5t59.5 -16.5 q74 0 133 43.5t93 112t51.5 145t17.5 151.5q0 76 -25.5 157t-79 158t-127.5 138t-179 98t-224 37q-276 0 -445 -196t-169 -541q0 -127 45 -243.5t124 -205t197.5 -141.5t255.5 -53q128 0 225.5 26t213.5 76l28 -45q-280 -119 -473 -119q-165 0 -302.5 46.5t-226.5 120 t-150.5 168t-88 187.5t-26.5 181zM635 575q0 -172 129 -172q30 0 66.5 30.5t71.5 86.5t62.5 148.5t36.5 203.5q0 144 -88 144q-31 0 -67.5 -17.5t-73.5 -54.5t-67.5 -87.5t-50 -124.5t-19.5 -157z" />
<glyph unicode="A" horiz-adv-x="1400" d="M29 0v53q43 0 83 27t64 76q40 81 115 276t213 568t170 458h114q31 -93 111 -330t127.5 -378t101.5 -297t78 -220q38 -98 71.5 -139t94.5 -41v-53h-477v53q124 0 124 87q0 30 -15 71l-89 264h-522l-94 -274q-9 -26 -9 -49q0 -32 16 -56q28 -44 95 -43v-53h-372zM424 553 h465l-217 666h-4z" />
<glyph unicode="B" horiz-adv-x="1263" d="M82 0v53q112 14 133 23q33 13 39 53q4 23 4 127v922q0 116 -7 139q-9 33 -45 44q-21 6 -124 19v54h506q245 0 365 -71.5t120 -240.5q0 -124 -83.5 -216.5t-211.5 -129.5v-4q167 -5 279 -104.5t112 -257.5q0 -105 -38.5 -184.5t-109 -128.5t-164 -73t-208.5 -24h-567z M457 297q0 -137 40.5 -184t166.5 -47q272 0 272 315q0 175 -95.5 255.5t-252.5 80.5h-131v-420zM457 782h155q48 0 90 15t81 47.5t62 95t23 147.5q0 149 -72 215t-223 66h-116v-586z" />
<glyph unicode="C" horiz-adv-x="1517" d="M98 725q0 97 31.5 197.5t99 196.5t162 171.5t231.5 121.5t296 46q92 0 173.5 -12.5t111.5 -21.5t108 -35q80 -25 80 -80v-265h-54q-2 52 -16 99t-46.5 92t-80.5 78t-123.5 53t-169.5 20q-140 0 -249.5 -48.5t-178.5 -136t-104.5 -204t-36.5 -256.5v-8q0 -151 35 -273 q36 -126 108 -219t189 -143.5t270 -50.5q335 0 465 318h53l-61 -256q0 -20 -12 -33.5t-27 -19.5t-46 -16q-7 -2 -10 -3q-179 -62 -399 -62q-130 0 -244.5 25t-217.5 81.5t-177 141.5t-117 213.5t-43 288.5z" />
<glyph unicode="D" horiz-adv-x="1609" d="M82 0v53q112 14 133 23q33 13 39 53q4 23 4 127v922q0 116 -7 139q-9 33 -45 44q-21 6 -124 19v54h680q367 0 558 -177.5t191 -498.5q0 -154 -56 -291.5t-157.5 -241.5t-255.5 -164.5t-340 -60.5h-620zM457 291q0 -34 1 -60.5t6 -48.5t8.5 -38t14.5 -28.5t18.5 -20.5 t26 -14t31 -8.5t39.5 -4.5t45.5 -2h54.5q101 0 185 21.5t157.5 72.5t124.5 128.5t80 196t29 269.5q0 294 -154.5 454t-447.5 160h-219v-1077z" />
<glyph unicode="E" horiz-adv-x="1177" d="M82 0v53q112 14 133 23q33 13 39 53q4 23 4 127v922q0 116 -7 139q-9 33 -45 44q-21 6 -124 19v54h915v-330h-53q-17 129 -62 196.5t-147 67.5h-278v-586h172q97 0 141 42t47 137h53v-437h-53q-3 96 -46 144.5t-142 48.5h-172v-463q0 -52 10.5 -86.5t28.5 -55t53.5 -30.5 t72.5 -13t99 -3q45 0 80.5 3t63.5 7t50.5 14t39 19t31 26.5t24.5 31.5t21.5 40t19.5 46l22 55t25 61h53l-61 -369h-1008z" />
<glyph unicode="F" horiz-adv-x="1064" d="M82 0v53q112 14 133 23q33 13 39 53q4 23 4 127v922q0 116 -7 139q-9 33 -45 44q-21 6 -124 19v54h915v-330h-53q-12 65 -24 106.5t-35 81t-60 58t-90 18.5h-278v-627h194q97 0 141.5 42t47.5 137h53v-439h-53q-5 96 -48 145.5t-141 49.5h-194v-420q0 -116 6 -139 q10 -33 46 -45q21 -6 124 -19v-53h-551z" />
<glyph unicode="G" horiz-adv-x="1630" d="M98 725q0 97 31.5 197.5t98.5 197t161.5 171.5t231.5 121t297 46q92 0 173.5 -12.5t111.5 -21.5t108 -35q80 -25 80 -80v-265h-54q-2 52 -16 99t-46.5 92t-80.5 78t-123.5 53t-169.5 20q-125 0 -223 -34t-162 -92t-106 -141t-59.5 -176t-18.5 -202v-10q0 -95 18 -187 q20 -96 65 -187t110.5 -159t164.5 -109.5t219 -41.5q63 0 109.5 7t77 23.5t49 36t28 51t12.5 61.5t3 75v125q0 112 -7 136q-11 34 -53 46q-28 8 -157 21v53h592v-53l-24 -3q-36 -4 -51 -6t-37 -8t-28.5 -8t-17 -15t-12 -19.5t-5 -30.5t-3 -39t0.5 -54v-20v-356 q-244 -95 -489 -95q-130 0 -244.5 25t-217.5 81.5t-177 141.5t-117 213.5t-43 288.5z" />
<glyph unicode="H" horiz-adv-x="1632" d="M82 0v53q112 14 133 23q33 13 39 53q4 23 4 127v922q0 116 -7 139q-9 33 -45 44q-21 6 -124 19v54h551v-54q-111 -14 -133 -22q-32 -13 -39 -53q-4 -24 -4 -127v-355h719v355v20q0 120 -19 142.5t-131 36.5q-6 0 -9 0.5t-8.5 1t-9.5 1.5v54h551v-54q-111 -14 -133 -22 q-32 -13 -39 -53q-4 -24 -4 -127v-922q0 -116 6 -139q10 -33 46 -45q21 -6 124 -19v-53h-551v53l24 3q36 4 51 6t37 8t28.5 8t17 15t12 19.5t5 30.5t3 39t-0.5 54v20v483h-719v-483q0 -116 6 -139q10 -33 46 -45q21 -6 124 -19v-53h-551z" />
<glyph unicode="I" horiz-adv-x="714" d="M82 0v53q112 14 133 23q33 13 39 53q4 23 4 127v922q0 116 -7 139q-9 33 -45 44q-21 6 -124 19v54h551v-54q-111 -14 -133 -22q-32 -13 -39 -53q-4 -24 -4 -127v-922q0 -116 6 -139q10 -33 46 -45q21 -6 124 -19v-53h-551z" />
<glyph unicode="J" horiz-adv-x="714" d="M-164 -246q-5 5 -5 12q0 10 13 23l39 43q10 10 37 -4l70 -37q32 -20 46 -28t38.5 -16.5t46.5 -8.5q69 0 103 119.5t34 384.5v936q0 116 -7 139q-9 33 -45 44q-21 6 -124 19v54h551v-54q-111 -14 -133 -22q-32 -13 -39 -53q-4 -24 -4 -127v-908q0 -121 -22 -220.5 t-49.5 -156t-67.5 -100.5t-61.5 -59t-45.5 -27q-141 -72 -209 -72h-4q-60 0 -80 25z" />
<glyph unicode="K" horiz-adv-x="1368" d="M82 0v53q112 14 133 23q33 13 39 53q4 23 4 127v922q0 116 -7 139q-9 33 -45 44q-21 6 -124 19v54h551v-54q-111 -14 -133 -22q-32 -13 -39 -53q-4 -24 -4 -127v-406q45 4 79 23t74 59l418 420q22 22 28.5 40t-0.5 29t-21 19t-35.5 12t-41.5 5.5t-40 0.5v54h378v-54 q-28 -12 -68.5 -45t-67.5 -59t-85 -84l-422 -422q59 -63 220.5 -250t283 -312t209.5 -177v-31h-215q-17 0 -32 3.5t-30.5 14t-26 18.5t-28.5 28t-27 31t-31.5 39.5t-33.5 41.5l-440 545h-45v-465q0 -116 6 -139q10 -33 46 -45q21 -6 124 -19v-53h-551z" />
<glyph unicode="L" d="M82 0v53q112 14 133 23q33 13 39 53q4 23 4 127v922q0 116 -7 139q-9 33 -45 44q-21 6 -124 19v54h551v-54q-111 -14 -133 -22q-32 -13 -39 -53q-4 -24 -4 -127v-955q0 -43 10.5 -71.5t28.5 -45.5t53 -26t72 -11.5t98 -2.5q50 0 88 2.5t69 11t52.5 16t40.5 25.5t30 31 t25 41.5t22 48.5t24 59.5t28 67.5h51l-62 -369h-1005z" />
<glyph unicode="M" horiz-adv-x="1972" d="M35 1380v54h387l571 -1145l590 1145h332v-54q-205 0 -205 -211v-913q0 -116 6 -139q10 -33 46 -45q21 -6 124 -19v-53h-551v53q112 14 133 23q33 13 39 53q4 23 4 127v860h-4l-557 -1128h-32l-553 1118h-5v-830q0 -19 11 -110q13 -96 176 -113v-53h-461v53 q163 17 176 113q1 9 4.5 31t5.5 41t2 38v928q-31 74 -99 125t-140 51z" />
<glyph unicode="N" horiz-adv-x="1630" d="M23 1380v54h372q153 -186 464 -559.5t464 -559.5h4v842q0 19 -2 38t-5.5 41.5t-4.5 31.5q-7 54 -58.5 79t-156.5 33v54h502v-54q-164 -17 -177 -112q-1 -9 -4.5 -31.5t-5.5 -41.5t-2 -38v-1157h-70q-139 164 -477 565.5t-520 616.5v-906q0 -19 2 -38t5.5 -41t4.5 -31 q7 -54 58.5 -79.5t156.5 -33.5v-53h-501v53q79 8 124 34t52 79q1 9 4.5 31t5.5 41t2 38v965q-52 67 -104.5 103t-132.5 36z" />
<glyph unicode="O" horiz-adv-x="1669" d="M98 690q0 163 60.5 306t164 244t245.5 159.5t300 58.5q129 0 243 -42t196.5 -113t143 -161t90.5 -188.5t30 -193.5q0 -215 -98.5 -394t-277 -285t-400.5 -106q-192 0 -352.5 95.5t-252.5 259.5t-92 360zM332 797q0 -180 43.5 -325.5t117 -236.5t165 -139.5t192.5 -48.5 q110 0 196.5 42t140 108t88.5 154t48.5 173.5t13.5 173.5q0 142 -29.5 259t-79 195t-116.5 132t-139.5 78t-149.5 24q-101 0 -184.5 -34.5t-139 -92t-94.5 -134.5t-56 -159.5t-17 -168.5z" />
<glyph unicode="P" horiz-adv-x="1177" d="M82 0v53q112 14 133 23q33 13 39 53q4 23 4 127v922q0 116 -7 139q-9 33 -45 44q-21 6 -124 19v54h536q253 0 380.5 -97.5t127.5 -283.5q0 -143 -80 -247t-210 -152q-110 -40 -239 -39q-24 0 -50 1v41h11q178 1 270 99q94 102 94 276q0 171 -84 253.5t-256 82.5h-125 v-1112q0 -116 6 -139q10 -33 46 -45q21 -6 124 -19v-53h-551z" />
<glyph unicode="Q" horiz-adv-x="1669" d="M98 690q0 165 61.5 309t166 244t245.5 157.5t297 57.5q129 0 243.5 -42.5t197 -113t143 -161.5t90 -188.5t29.5 -192.5q0 -121 -30.5 -229.5t-81 -189t-118.5 -146.5t-139.5 -108.5t-148.5 -68.5l256 -120q159 -76 297 -109q107 -25 169 -25h9l14 -34l-199 -74 q-16 -6 -38 -6q-77 0 -224 80l-448 245h-94q-194 0 -355 97t-251.5 260.5t-90.5 357.5zM332 797q0 -180 44 -326t117.5 -237t165 -139t191.5 -48q111 0 198.5 43.5t140.5 110.5t87.5 156t47.5 172.5t13 168.5q0 141 -29.5 258t-79 195.5t-116.5 132.5t-139.5 78t-149.5 24 q-86 0 -159 -25t-126 -68.5t-93 -100.5t-64.5 -123.5t-36.5 -134.5t-12 -137z" />
<glyph unicode="R" horiz-adv-x="1292" d="M82 0v53q112 14 133 23q33 13 39 53q4 23 4 127v922q0 116 -7 139q-9 33 -45 44q-21 6 -124 19v54h596q63 0 122.5 -13t112.5 -41t93 -68t63 -98.5t23 -128.5q0 -151 -80.5 -259.5t-206.5 -157.5l201 -306q187 -274 288 -335v-27h-211q-35 0 -66 24t-69 83.5t-72.5 123.5 t-99.5 182t-127 222h-192v-379q0 -116 6 -139q10 -33 46 -45q21 -6 124 -19v-53h-551zM457 700h170q131 0 195.5 95t64.5 272q0 157 -75 229t-198 72h-157v-668z" />
<glyph unicode="S" horiz-adv-x="1024" d="M82 70v295h53q16 -160 108.5 -239t221.5 -79q110 0 187 74.5t77 185.5q0 70 -30 130.5t-114 137.5t-235 177q-97 65 -132 97q-116 108 -116 279q0 90 60.5 166.5t162 120t218.5 43.5q176 0 286 -39q15 -5 15 -22v-269h-53q-13 115 -77.5 186.5t-181.5 71.5 q-97 0 -161 -52.5t-64 -159.5q0 -26 7.5 -51.5t17 -46t32.5 -46.5t39 -42.5t52.5 -46t57.5 -45t69 -51.5t73 -54q163 -122 225 -216t62 -221q0 -88 -42.5 -161.5t-113.5 -120t-158.5 -72t-181.5 -25.5q-179 0 -350 66q-14 7 -14 29z" />
<glyph unicode="T" horiz-adv-x="1251" d="M4 1120l55 314h1133l55 -314h-51q-56 111 -73 137q-59 88 -152 106q-29 5 -62 5h-184v-1112q0 -116 6 -139q10 -33 46 -45q21 -6 124 -19v-53h-551v53q112 14 133 23q33 13 39 53q4 23 4 127v1112h-184q-59 0 -102 -15.5t-74 -49.5t-50 -66t-46 -86q-10 -21 -15 -31h-51z " />
<glyph unicode="U" horiz-adv-x="1595" d="M57 1380v54h551v-54q-111 -14 -133 -22q-32 -13 -39 -53q-4 -24 -4 -127v-600q0 -91 10.5 -163.5t37 -138t69 -109.5t110 -69.5t156.5 -25.5q209 0 318.5 134t109.5 382v569q0 19 -2 38t-5.5 41.5t-4.5 31.5q-13 95 -176 112v54h483v-54q-79 -8 -124 -33.5t-52 -78.5 q-1 -9 -4.5 -31.5t-5.5 -41.5t-2 -38v-577q0 -128 -31.5 -231.5t-84 -172t-123.5 -115t-147.5 -66.5t-158.5 -20q-161 0 -273 39.5t-177 118.5t-93.5 184.5t-28.5 249.5v611q0 116 -7 139q-9 33 -45 44q-21 6 -124 19z" />
<glyph unicode="V" horiz-adv-x="1476" d="M29 1380v54h557v-54q-47 0 -77.5 -8.5t-52.5 -31.5q-22 -22 -23 -68q0 -48 26 -121q111 -337 305 -905q26 61 383 942q19 49 19 86q0 34 -18 58q-36 48 -142 48v54h442v-54q-118 0 -170 -123q-86 -210 -259 -628.5t-259 -628.5h-105q-313 886 -389 1098 q-56 160 -108.5 221t-128.5 61z" />
<glyph unicode="W" horiz-adv-x="2162" d="M29 1380v54h536v-54q-99 0 -132 -45q-17 -24 -17 -63q0 -36 14 -84l244 -881h4l412 1108h77l406 -1093h4q41 127 86 272.5t98 320t84 275.5q14 45 14 79q1 41 -19 65q-36 46 -157 46v54h451v-54q-52 0 -103 -40t-75 -119l-381 -1221h-94l-412 1112l-410 -1112h-88 l-309 1096q-43 151 -97 217.5t-136 66.5z" />
<glyph unicode="X" horiz-adv-x="1554" d="M61 0v53q49 0 87.5 19t67.5 50t69 87l385 545l-316 487q-49 76 -88 107.5t-102 31.5v54h479v-54q-31 0 -54.5 -8t-38 -25.5t-9.5 -49t32 -74.5l215 -338l265 356q31 42 31 70v9q-6 30 -32.5 45t-64.5 15v54h387v-54q-51 0 -102.5 -28t-85.5 -74l-338 -463l403 -579 q40 -57 57 -79.5t41.5 -50t42.5 -35t42 -13t59 -5.5v-53h-520v53q33 0 57.5 7t42 24.5t10.5 53t-41 85.5l-319 455l-305 -436q-32 -45 -41 -82t2.5 -59.5t34 -35t53.5 -12.5v-53h-406z" />
<glyph unicode="Y" horiz-adv-x="1325" d="M29 1380v54h522v-54q-46 0 -74 -9.5t-40 -24.5t-11 -40t9.5 -50t25.5 -60l248 -514l282 514q29 51 29 88q0 8 -2 15q-7 41 -44.5 61t-99.5 20v54h422v-54q-98 0 -168 -125l-342 -620q-24 -49 -24 -150v-229q0 -116 6 -139q10 -33 46 -45q21 -6 124 -19v-53h-551v53 q112 14 133 23q33 13 39 53q4 23 4 127v315l-315 625q-52 101 -100.5 142.5t-118.5 41.5z" />
<glyph unicode="Z" horiz-adv-x="1214" d="M39 72l856 1274h-461q-116 0 -163.5 -58.5t-49.5 -173.5h-53v320h962v-54l-847 -1292h577q123 0 184 66.5t62 205.5h53v-360h-1075z" />
<glyph unicode="[" horiz-adv-x="681" d="M240 -395v1900h442v-53h-156q-74 0 -98.5 -23t-24.5 -92v-1548q0 -80 27 -105.5t105 -25.5h147v-53h-442z" />
<glyph unicode="\" d="M276 1505h130l536 -1726h-131z" />
<glyph unicode="]" horiz-adv-x="681" d="M0 -342h147q79 0 105.5 25t26.5 106v1548q0 69 -24 92t-99 23h-156v53h442v-1900h-442v53z" />
<glyph unicode="^" d="M150 686l376 748h129l373 -748h-133l-307 606l-305 -606h-133z" />
<glyph unicode="_" horiz-adv-x="1024" d="M0 -154h1024v-102h-1024v102z" />
<glyph unicode="`" horiz-adv-x="720" d="M123 1450q0 35 18 56.5t49 21.5q28 0 64.5 -21t58.5 -49l285 -287h-84l-297 185q-64 40 -81 61q-13 17 -13 33z" />
<glyph unicode="a" horiz-adv-x="1042" d="M82 244q0 58 15 102.5t39.5 77t72.5 63t97 53t130 54.5l221 86q0 297 -174 297q-30 0 -56.5 -9.5t-44 -22t-36.5 -34.5t-29.5 -38t-26.5 -43t-24 -39q-7 -12 -26 -9l-70 17q-19 6 -16 26l30 109q15 49 60 63q132 52 254 52q179 0 261.5 -80.5t82.5 -249.5v-455 q0 -38 1.5 -60.5t9.5 -48t22.5 -35.5t42 -10t67.5 15l12 -57l-292 -93q-48 57 -48 162l-159 -106q-85 -56 -168 -56q-102 0 -175 78.5t-73 190.5zM266 276q0 -73 44.5 -123.5t113.5 -50.5q43 0 81.5 16t74 52t56.5 106t21 166v160q-20 -8 -67.5 -25t-70.5 -25.5t-64 -27 t-62 -33t-49.5 -38t-42.5 -48t-24.5 -58t-10.5 -71.5z" />
<glyph unicode="b" horiz-adv-x="1202" d="M4 1391v53q193 6 342 61l4 -4v-620q66 79 158 123.5t190 44.5q93 0 167.5 -26t134 -82t92 -154.5t32.5 -233.5q0 -117 -43.5 -224.5t-116 -184.5t-171 -123t-203.5 -46q-59 0 -125 8.5t-107 16.5t-97 10h-16q-46 0 -79 -10v1300q0 91 -78 91h-84zM350 291q0 -149 39 -195 q38 -49 191 -49q66 0 124 26.5t108.5 82.5t80 156.5t29.5 234.5q0 86 -17 155t-46 115t-68.5 77t-82.5 44.5t-90 13.5q-78 0 -145 -49.5t-88 -107.5q-35 -94 -35 -299v-205z" />
<glyph unicode="c" horiz-adv-x="993" d="M78 516q0 119 43.5 219.5t118 169t175.5 106.5t214 38q64 0 134.5 -13.5t117.5 -40.5l71 -137q5 -6 5 -11t-5 -9l-71 -45q-19 -11 -31 -2l-105 120q-58 66 -161 66q-39 0 -78.5 -12t-80.5 -41.5t-72.5 -72.5t-51.5 -112.5t-20 -154.5q0 -69 12 -135t41.5 -131.5 t73.5 -115t112.5 -80t153.5 -30.5q32 0 61 4.5t55 15t41.5 17.5t40.5 21.5t31 17.5l35 -64l-272 -129q-1 0 -27 -0.5t-43 -0.5t-52 3t-62.5 8.5t-65.5 17.5t-70 28.5t-67 42.5t-64 59q-54 59 -95.5 167.5t-41.5 215.5z" />
<glyph unicode="d" horiz-adv-x="1236" d="M78 500q0 131 45.5 237.5t122.5 173.5t173.5 102.5t201.5 35.5q147 0 231 -35v286q0 91 -80 91h-84v53q195 6 344 61l4 -4v-1237q0 -31 1 -50.5t5.5 -43t14 -35.5t25 -20.5t40.5 -5.5t58 16l12 -57l-295 -93q-42 50 -45 144l-137 -82q-52 -29 -68 -37.5t-40 -16.5t-48 -8 q-98 0 -179.5 32.5t-136 85.5t-93 122t-55.5 141t-17 144zM272 582q0 -67 11.5 -133t38 -131t65 -115t98 -80.5t131.5 -30.5q84 0 160 59t76 132v571q-39 65 -103 94t-161 29q-65 0 -119 -26t-89.5 -67t-60.5 -94t-36 -105.5t-11 -102.5z" />
<glyph unicode="e" horiz-adv-x="1013" d="M78 516q0 75 16 148t52.5 143.5t90 123.5t135.5 85.5t183 32.5q173 0 277 -116t104 -310v-58h-664q0 -91 22.5 -172.5t68 -150.5t126 -109.5t185.5 -40.5q32 0 61 4.5t55.5 14.5t42 17.5t40 21t30.5 16.5l33 -64l-268 -127h-64l-28 -1h-24.5h-18.5q-16 1 -50 5 t-62.5 14.5t-64 27t-71.5 45t-70 65.5q-52 59 -94.5 168.5t-42.5 216.5zM272 637h383q40 0 71.5 29t31.5 90q0 96 -63.5 158.5t-151.5 62.5q-54 0 -100.5 -17.5t-86 -55t-62 -106t-22.5 -161.5z" />
<glyph unicode="f" horiz-adv-x="710" d="M61 0v53q105 15 127 26q30 15 35 60q2 19 2 117v625h-141v94h141v166q0 89 40.5 149.5t107.5 108.5q42 31 103 66t99 40q20 3 36 3q33 0 51 -13l96 -82q6 -7 6 -14q0 -9 -10 -19l-33 -49q-11 -11 -39 -2l-74 31q-8 3 -26.5 10.5t-27.5 10.5t-23 7.5t-24.5 6.5t-19.5 2 q-22 0 -37 -8.5t-23 -20t-12 -35.5t-4.5 -41.5t-0.5 -50.5v-266h284v-53l-84 -41h-200v-625q0 -96 8 -145q5 -28 45.5 -38t140.5 -19q7 -1 10 -1v-53h-553z" />
<glyph unicode="g" horiz-adv-x="1099" d="M61 -127q0 4 0.5 13t1.5 13.5t3 12t5 12t7 9.5t10 8l215 114v4q-72 9 -108 49q-26 29 -26 73q0 16 3 34l195 160q-120 60 -176 140t-56 200q0 78 35.5 143t93.5 106t128.5 63t144.5 22q121 0 188 -33q26 -1 52 -1q166 0 296 34l21 -27l-56 -90h-211q37 -33 62.5 -103.5 t25.5 -146.5q0 -59 -28 -118t-77 -107.5t-126 -78.5t-166 -30q-52 0 -84 4q-57 -42 -57 -84q0 -30 40 -44.5t132 -31.5q23 -4 35 -6l188 -36q113 -23 182.5 -96.5t69.5 -182.5q0 -158 -138.5 -270.5t-340.5 -112.5q-133 0 -242 42.5t-175.5 125.5t-66.5 192v12v13zM229 -174 q0 -118 87 -192t241 -74q135 0 220 70.5t85 160.5q0 48 -15.5 84t-38.5 56.5t-59.5 35.5t-68 22t-73.5 15q-4 0 -7 0.5t-6 1.5l-199 35q-78 -46 -122 -95t-44 -120zM330 741q0 -44 6 -88t22.5 -90t40.5 -80t64 -55q37 -20 82 -20h8q49 2 84 27t52 64.5t24.5 77.5t7.5 78 q0 147 -55 243q-54 93 -146 93h-6q-50 -2 -87.5 -27t-57.5 -63.5t-29.5 -78.5t-9.5 -81z" />
<glyph unicode="h" horiz-adv-x="1347" d="M61 0v53q105 15 127 26q30 15 35 60q2 19 2 117v1044q0 43 -19.5 67t-58.5 24h-86v53q196 6 345 61l4 -4v-633q70 81 177.5 131t235.5 50q91 0 151.5 -25.5t92 -77t43.5 -112.5t12 -148v-430v-28q0 -114 18.5 -135.5t133.5 -37.5q8 -1 12 -2v-53h-512v53q105 15 127 26 q30 15 35 60q2 19 2 117v377q0 41 -2 68.5t-8 68t-21 67.5t-39 53t-63.5 39t-91.5 13q-76 0 -132 -26t-88 -66t-51.5 -100t-25.5 -116.5t-6 -127.5v-250q0 -115 5 -136q8 -34 44 -46q22 -8 114 -21v-53h-512z" />
<glyph unicode="i" horiz-adv-x="634" d="M61 0v53q105 15 127 26q30 15 35 60q2 19 2 117v567q0 26 -7.5 42.5t-16 25.5t-32 13t-37.5 4.5t-49 0.5h-22v54q216 8 345 86l4 -5v-788q0 -115 5 -136q8 -34 44 -46q22 -8 114 -21v-53h-512zM176 1303q0 49 35.5 83.5t83.5 34.5q49 0 85 -35.5t36 -82.5t-36 -84 t-83 -37q-50 0 -85.5 35t-35.5 86z" />
<glyph unicode="j" horiz-adv-x="645" d="M86 909v54q213 8 342 86l4 -5v-1110q0 -125 -27 -215.5t-74.5 -139t-102 -70t-119.5 -21.5v43q38 7 70 36t46 79q23 82 23 237v940q0 18 -3.5 32t-9.5 23t-15 15.5t-21 9.5t-26 4.5t-30.5 1.5h-35.5h-21zM217 1305q0 49 35.5 83.5t83.5 34.5q49 0 85 -35.5t36 -82.5 t-36 -84t-83 -37q-50 0 -85.5 35t-35.5 86z" />
<glyph unicode="k" horiz-adv-x="1128" d="M61 0v53q105 15 127 26q30 15 35 60q2 19 2 117v1044q0 43 -19.5 67t-58.5 24h-86v53q196 6 345 61l4 -4v-893q33 0 70.5 14.5t66 31t69.5 51t60 52.5t59.5 59t48.5 48q22 22 29 39.5t-0.5 28.5t-21.5 19t-35.5 12t-41 6t-40.5 2v53h358v-53q-5 -3 -26 -16t-35 -22.5 t-35 -23.5t-40.5 -30t-37.5 -33l-264 -236q44 -49 178.5 -203t221 -247.5t136.5 -132.5v-27h-256l-460 561h-4v-305q0 -115 5 -136q8 -34 44 -46q22 -8 114 -21v-53h-512z" />
<glyph unicode="l" horiz-adv-x="634" d="M61 0v53q105 15 127 26q30 15 35 60q2 19 2 117v1044q0 43 -19.5 67t-58.5 24h-86v53q196 6 345 61l4 -4v-1245q0 -115 5 -136q8 -34 44 -46q22 -8 114 -21v-53h-512z" />
<glyph unicode="m" horiz-adv-x="1937" d="M61 0v53q105 15 127 26q30 15 35 60q2 19 2 117v567q0 26 -7.5 42.5t-16 25.5t-32 13t-37.5 4.5t-49 0.5h-22v54q216 8 345 86l4 -5v-176h4q52 80 149.5 130.5t216.5 50.5q52 0 93 -10.5t66.5 -24.5t48 -41t34 -47.5t29.5 -57.5q149 181 372 181q83 0 141 -26.5t89.5 -77 t45 -113.5t13.5 -148v-428v-28q0 -114 18.5 -135.5t133.5 -37.5q8 -1 12 -2v-53h-512v53q105 15 127 26q30 15 35 60q2 19 2 117v375q0 46 -2 77t-8 71t-19.5 66t-35 50t-56.5 35.5t-82 11.5q-91 0 -147.5 -39.5t-86.5 -139.5t-30 -269v-238v-28q0 -114 18.5 -135.5 t133.5 -37.5q8 -1 12 -2v-53h-512v53q105 15 127 26q30 15 35 60q2 19 2 117v375q0 46 -2 77t-8 71t-19.5 66t-35 50t-56.5 35.5t-82 11.5q-53 0 -92.5 -12t-73 -42t-54.5 -80.5t-32.5 -128.5t-11.5 -185v-238q0 -115 5 -136q8 -34 44 -46q22 -8 114 -21v-53h-512z" />
<glyph unicode="n" horiz-adv-x="1347" d="M61 0v53q105 15 127 26q30 15 35 60q2 19 2 117v567q0 26 -7.5 42.5t-16 25.5t-32 13t-37.5 4.5t-49 0.5h-22v54q216 8 345 86l4 -5v-176q70 81 177.5 131t235.5 50q91 0 151.5 -25.5t92 -77t43.5 -112.5t12 -148v-430v-28q0 -114 18.5 -135.5t133.5 -37.5q8 -1 12 -2 v-53h-512v53q105 15 127 26q30 15 35 60q2 19 2 117v377q0 41 -2 68.5t-8 68t-21 67.5t-39 53t-63.5 39t-91.5 13q-76 0 -132 -26t-88 -66t-51.5 -100t-25.5 -116.5t-6 -127.5v-250q0 -115 5 -136q8 -34 44 -46q22 -8 114 -21v-53h-512z" />
<glyph unicode="o" horiz-adv-x="1212" d="M78 504q0 144 64.5 267t191.5 200.5t291 77.5q98 0 188 -33.5t162.5 -97.5t116 -167t43.5 -231q0 -148 -67.5 -272t-193.5 -198.5t-286 -74.5q-100 0 -190.5 34t-162.5 98.5t-114.5 167t-42.5 229.5zM281 512q0 -204 89 -334.5t251 -130.5q136 0 223.5 118t87.5 345 q0 89 -19.5 169.5t-58 148.5t-105.5 108.5t-153 40.5q-139 0 -227 -119t-88 -346z" />
<glyph unicode="p" horiz-adv-x="1243" d="M45 -459q105 15 127 26q30 15 35 60q2 19 2 117v1079q0 26 -7.5 42.5t-16 25.5t-32 13t-37.5 4.5t-49 0.5h-22v54q215 8 344 86l4 -5v-163h4q62 78 152.5 123t187.5 45q89 0 162.5 -26.5t135 -84.5t96 -161.5t34.5 -244.5q0 -73 -20 -149.5t-63.5 -149.5t-104 -130.5 t-148.5 -92.5t-190 -35q-132 0 -246 45v-276q0 -96 8 -145q6 -33 81 -45q34 -6 130 -13v-53h-567v53zM393 141q101 -94 236 -94q71 0 127.5 22.5t91.5 62.5t59 86.5t35.5 105t16 106t4.5 100.5q0 114 -26 198.5t-71 131.5t-98 69.5t-115 22.5q-79 0 -139.5 -41t-85.5 -112 q-35 -94 -35 -299v-359z" />
<glyph unicode="q" horiz-adv-x="1245" d="M78 502q0 105 30 194.5t81.5 153.5t121 109.5t148.5 67.5t164 22q40 -1 140 -9.5t149 -9.5q7 -1 16 -1q44 0 108 7v-1292v-28q0 -114 18.5 -135.5t133.5 -37.5q8 -1 12 -2v-53h-569v53q146 11 180 25q29 11 33 33q8 49 8 145v369l-137 -76q-52 -29 -68 -37.5t-40 -16.5 t-48 -8q-98 0 -179.5 32.5t-136 85t-93 122t-55.5 142t-17 145.5zM272 584q0 -67 11.5 -133.5t38 -131.5t65 -115t98 -81t131.5 -31q84 0 160 59.5t76 133.5v573q-39 64 -102.5 91.5t-161.5 27.5q-65 0 -119.5 -26t-90 -67t-60.5 -93.5t-35.5 -104.5t-10.5 -102z" />
<glyph unicode="r" horiz-adv-x="788" d="M61 0v53q105 15 127 26q30 15 35 60q2 19 2 117v567q0 18 -3.5 32t-9.5 23t-15 15.5t-21 9.5t-26 4.5t-30.5 1.5h-35.5h-21v54q214 8 343 86l4 -5v-184l106 111q41 43 65 60.5t48 17.5q41 0 76 -62l59 -104q2 -3 2 -7q0 -11 -18 -22l-60 -39q-13 -9 -31 2l-73 37 q-16 8 -76 8q-30 0 -50.5 -23t-30.5 -66.5t-13.5 -89.5t-3.5 -108v-319q0 -96 8 -145q5 -28 45 -38.5t135 -18.5q8 -1 12 -1v-53h-549z" />
<glyph unicode="s" horiz-adv-x="833" d="M106 31v229h54q-1 -102 63.5 -157.5t159.5 -55.5q85 0 136.5 53.5t51.5 122.5q0 32 -9.5 60.5t-21 48t-39 44t-44.5 36.5t-56.5 39.5t-58.5 40.5q-18 13 -51.5 37t-45.5 33t-36.5 28t-32.5 28t-23.5 25.5t-20.5 29t-12 30.5t-9 36t-2 41q0 123 96.5 196t230.5 73 q136 0 242 -35v-205h-53q-5 61 -55 114.5t-130 53.5q-66 0 -111.5 -36t-45.5 -95q0 -21 5.5 -39t19.5 -37t27 -33t40 -34.5t45 -33.5t56.5 -39t60.5 -42q93 -65 142 -119.5t62 -93.5t13 -92q0 -77 -32.5 -137.5t-86.5 -97t-118.5 -55t-133.5 -18.5q-162 0 -277 56z" />
<glyph unicode="t" horiz-adv-x="757" d="M57 881v94h164v215q57 60 129 115h56v-330h311v-53l-84 -41h-227v-539q0 -27 1 -46.5t5 -51.5t13 -54.5t23.5 -45t39.5 -34.5t57 -12q96 0 157 25l15 -53l-238 -95q-47 0 -82 6.5t-70 27t-57 55t-35.5 94t-13.5 141.5v582h-164z" />
<glyph unicode="u" horiz-adv-x="1251" d="M25 909v54q212 8 344 86l4 -5v-651q0 -52 4 -91t16.5 -79.5t34.5 -67t60 -43t90 -16.5q146 0 213 92t67 314v321q0 26 -7.5 42.5t-16 25.5t-32 13t-37.5 4.5t-49 0.5h-22v54q215 8 344 86l4 -5v-780q0 -31 1 -50.5t5.5 -43t14 -35.5t25 -20.5t40.5 -5.5t58 16l12 -57 l-293 -93q-47 53 -47 158l-180 -104q-59 -34 -99.5 -44t-91.5 -10q-86 0 -146 29.5t-92.5 85.5t-46.5 125t-14 160v448q0 26 -7.5 42.5t-16 25.5t-31.5 13t-37 4.5t-49 0.5h-22z" />
<glyph unicode="v" horiz-adv-x="1140" d="M2 971v53h533v-53q-22 0 -40 -1t-39.5 -4t-37.5 -8.5t-29.5 -14.5t-20.5 -22t-6.5 -31.5t9.5 -41.5l245 -610l258 571q14 36 16.5 63t-8 44.5t-26 28.5t-40.5 16.5t-48 7.5t-53 2v53h424v-53q-33 0 -60.5 -15t-47 -41t-35 -54t-30.5 -61q-1 -4 -2.5 -6.5t-2.5 -5.5 l-371 -788h-68l-350 811q-14 31 -18.5 41t-23 39.5t-33 42t-40.5 25t-55 12.5z" />
<glyph unicode="w" horiz-adv-x="1628" d="M10 971v53h520v-53q-40 0 -63 -1.5t-48.5 -7.5t-37.5 -18t-20 -33t-5 -53t15 -76l135 -518h4l301 760h92l283 -766h4l158 500q12 41 14.5 74t-2 55t-17.5 38t-27.5 25t-35.5 13.5t-37.5 6t-38.5 1.5v53h414v-53q-64 0 -99 -41t-69 -142l-266 -788h-84l-295 772l-309 -772 h-84l-234 795q-25 87 -64.5 131.5t-103.5 44.5z" />
<glyph unicode="x" horiz-adv-x="1173" d="M27 0v53q63 0 110 34.5t111 117.5l241 315l-217 328q-79 123 -194 123v53h477v-53q-75 0 -85 -35q-2 -6 -2 -13q0 -34 38 -94l104 -184l162 203q45 59 45 88q-1 4 -1 6q-6 28 -73 29v53h338v-53q-65 0 -109 -28.5t-118 -119.5l-197 -245l297 -431q34 -51 78.5 -72.5 t114.5 -21.5v-53h-477v53q68 0 68 46q0 40 -50 114l-153 231l-158 -202q-70 -92 -70 -137q0 -4 1 -8q7 -44 91 -44v-53h-372z" />
<glyph unicode="y" horiz-adv-x="1138" d="M0 971v53h535v-53q-10 0 -32 0.5t-32 0.5t-29 -1t-27.5 -3.5t-22 -6.5t-18.5 -10.5t-11 -16t-6 -22.5t3 -30t11 -38l245 -606l256 569q15 36 17.5 63.5t-7.5 44.5t-25.5 29t-40.5 17.5t-48 7.5t-53 2v53h424v-53q-27 0 -50.5 -11t-38.5 -23.5t-33 -41.5t-24.5 -42.5 t-23.5 -49.5q-5 -11 -8 -17l-545 -1167q-34 -71 -63.5 -101t-84.5 -30h-151q-11 0 -17 12t-6 27v35q0 33 25 41l121 43q123 48 170 145l106 223l-344 797q-43 98 -75 129t-97 31z" />
<glyph unicode="z" horiz-adv-x="962" d="M45 80l647 862h-301q-176 0 -180 -186h-53v268h714v-100l-620 -842h403q58 0 97.5 14t60.5 41t29.5 58t9.5 73h53v-268h-825z" />
<glyph unicode="{" horiz-adv-x="681" d="M141 543v4q92 28 124 84t32 168v395q0 98 20 160.5t64 95t99 44t141 11.5v-4q-96 -25 -133 -89t-37 -185v-396q0 -128 -33 -192t-133 -92v-4q43 -12 73.5 -32.5t48.5 -45t28 -61.5t13 -74.5t3 -91.5v-371q0 -121 38.5 -188t131.5 -85v-4q-93 -3 -151.5 10t-99 51 t-57 103.5t-16.5 169.5v361q0 120 -30 175t-126 83z" />
<glyph unicode="|" horiz-adv-x="530" d="M197 -512v2048h135v-2048h-135z" />
<glyph unicode="}" horiz-adv-x="681" d="M61 -406q96 25 133 89.5t37 185.5v395q0 128 33 192.5t133 92.5v4q-43 12 -73.5 32.5t-48.5 45t-28 61.5t-13 74.5t-3 91.5v371q0 121 -38.5 187.5t-131.5 84.5v4q93 3 151.5 -10t99 -51t57 -103.5t16.5 -169.5v-360q0 -120 30 -175t126 -83v-4q-92 -28 -124 -84 t-32 -168v-395q0 -98 -20 -160.5t-64 -95.5t-99 -44.5t-141 -11.5v4z" />
<glyph unicode="~" d="M100 457q63 96 125.5 146t155.5 50q74 0 227 -61q147 -64 203 -64q41 0 76.5 20.5t55.5 44t46 64.5l86 -71q-25 -36 -41 -57.5t-42 -49t-50 -43t-57 -26.5t-70 -11q-36 0 -75 10.5t-64.5 21.5t-69.5 32q-46 20 -72.5 30.5t-70.5 20.5t-86 10q-34 0 -63 -11t-53 -34.5 t-39.5 -43.5t-37.5 -54z" />
<glyph unicode="&#xa1;" horiz-adv-x="606" d="M172 918q0 52 39 91.5t92 39.5t92 -39.5t39 -91.5q0 -53 -39.5 -92.5t-91.5 -39.5t-91.5 39.5t-39.5 92.5zM193 -432q49 441 77 1053h66q27 -596 78 -1053q5 -28 -22.5 -44t-88.5 -16t-88 16t-22 44z" />
<glyph unicode="&#xa2;" d="M150 516q0 155 70.5 276.5t191 187t268.5 67.5l33 141l86 -17l-27 -129q124 -18 176 -47l72 -137q8 -15 -2 -20l-70 -45q-21 -11 -30 -2l-105 118q-24 29 -59 49l-185 -827q76 -39 172 -39q32 0 61 4.5t55.5 15t41.5 17.5t41 21.5t31 17.5l35 -64l-273 -129 q-107 0 -194 17l-37 -166l-84 24l37 164q-38 13 -72.5 34t-52.5 37.5t-49 47.5q-51 59 -91 167.5t-40 215.5zM342 584q0 -112 37.5 -221t112.5 -177l176 801q-4 2 -19 2q-38 0 -78 -13t-81.5 -44.5t-74 -76.5t-53 -115.5t-20.5 -155.5z" />
<glyph unicode="&#xa3;" d="M25 0v66q63 10 124.5 74t81.5 186q11 64 21 185t24 204h-210v92h217l30 215q13 84 44 159.5t79.5 138.5t119.5 100.5t155 37.5q85 0 217 -47q21 -7 32.5 -22.5t20.5 -45.5l41 -122q3 -11 -12 -15l-80 -18q-14 -4 -23 8q-18 19 -48 59.5t-51 66.5t-56 47.5t-74 21.5 q-42 0 -76 -29.5t-55 -79t-33.5 -101t-19.5 -108.5l-27 -266h307v-90h-315l-10 -127q3 -103 -44 -237.5t-131 -205.5l5 -4q138 31 268 31q62 0 119.5 -18t93 -39.5t75 -39.5t68.5 -18q33 0 52 23t22.5 59.5t2.5 64.5t-5 54l-10 82q-5 31 6 37l57 27q21 14 35 -5l59 -112 q13 -30 -6 -84q-13 -39 -61.5 -94t-81.5 -80q-83 -56 -215 -56q-41 0 -107 15.5t-132.5 32t-144 27t-169 -0.5t-180.5 -49z" />
<glyph unicode="&#xa4;" d="M68 1139l90 92l121 -115q130 105 315 105q174 0 301 -105l115 115l92 -92l-109 -113q103 -124 103 -311q0 -183 -103 -307l113 -113l-88 -94l-117 114q-125 -110 -309 -110q-191 0 -318 110l-116 -114l-88 92l112 115q-102 129 -102 303q0 194 104 309zM221 711 q0 -153 109 -259t262 -106q151 0 256.5 108.5t105.5 260.5q0 148 -105.5 256t-254.5 108q-156 0 -264.5 -106.5t-108.5 -261.5z" />
<glyph unicode="&#xa5;" d="M12 1380v54h473v-54q-41 0 -65.5 -9.5t-34.5 -25.5t-8 -40t11 -49t26 -58l233 -477l240 475q32 62 24.5 103t-42 61t-91.5 20v54h385v-54q-89 0 -151 -125l-285 -565h320v-82h-349v-164h349v-82h-349v-106q0 -90 9 -145q5 -27 40 -37.5t109 -18.5q12 -1 18 -2v-53h-548 v53q106 13 132 23q30 13 34 35q8 49 8 145v106h-328v82h328v164h-328v82h287l-248 506q-45 98 -90.5 141t-108.5 43z" />
<glyph unicode="&#xa6;" horiz-adv-x="530" d="M197 -358v716h135v-716h-135zM197 666v716h135v-716h-135z" />
<glyph unicode="&#xa7;" horiz-adv-x="1062" d="M74 616q0 131 94 200.5t246 57.5l4 5q-132 90 -192 159t-60 162q0 83 52.5 142.5t134 87.5t179.5 28q61 0 161.5 -17t135.5 -34l80 -125q7 -13 2.5 -28.5t-18.5 -22.5l-27 -14q-1 -1 -6.5 -3.5t-7.5 -3.5t-7 -3t-7.5 -2.5t-7.5 -1t-8.5 0.5t-8 2t-9 4t-9.5 7l-113 106 q-89 78 -205 78q-30 0 -65.5 -13.5t-66 -47t-30.5 -78.5q0 -49 30 -94.5t79 -77.5l307 -201q256 -178 256 -346q0 -127 -96.5 -199.5t-247.5 -60.5l-4 -4q48 -34 74.5 -54.5t62.5 -54t55 -62.5t32.5 -69t13.5 -84q0 -68 -46 -126t-122 -95q-59 -22 -107 -29.5t-127 -7.5 q-62 0 -161.5 17t-135.5 34l-82 125q-4 13 3.5 27t21.5 22l22 15q16 9 24 12.5t21 1.5t27 -14l111 -105q83 -78 206 -78q75 0 136 37.5t67 106.5q0 54 -36.5 104t-94.5 91t-128.5 82t-141.5 86.5t-129 95.5t-94.5 116.5t-36.5 142.5zM193 680q0 -98 167 -213 q101 -75 153 -100q76 -37 144 -37q93 0 145 41.5t52 113.5q0 12 -3.5 25t-12 26.5t-15 24.5t-21.5 26t-22.5 23t-26.5 24t-24 20.5t-25.5 20.5t-21.5 17q-173 137 -301 137q-75 0 -131.5 -43t-56.5 -106z" />
<glyph unicode="&#xa8;" horiz-adv-x="872" d="M127 1286q0 38 32 71.5t70 33.5q42 0 73.5 -31.5t31.5 -73.5t-31 -72t-74 -30q-40 0 -71 30.5t-31 71.5zM539 1286q0 38 32 71.5t70 33.5q42 0 73 -31.5t31 -73.5q0 -43 -30.5 -72.5t-73.5 -29.5q-40 0 -71 30.5t-31 71.5z" />
<glyph unicode="&#xa9;" horiz-adv-x="1593" d="M55 717q0 151 58 287.5t156.5 236t236.5 158.5t291 59q142 0 277.5 -59t237.5 -158t164 -237t62 -287t-62 -287.5t-164 -237.5t-237.5 -158t-277.5 -59q-204 0 -375 100t-269 270.5t-98 371.5zM162 717q0 -168 85.5 -314.5t232 -233.5t317.5 -87q157 0 303.5 86.5 t239 234.5t92.5 314t-92 314t-238.5 234.5t-304.5 86.5q-171 0 -318 -87.5t-232 -233.5t-85 -314zM360 758q0 53 18.5 107t58 105t95 90.5t136.5 63.5t176 23q24 0 45.5 -1t42.5 -4t32.5 -4.5t33 -7t25.5 -6.5t28 -8l24 -8q47 -14 47 -45v-150h-53q-12 69 -69.5 116.5 t-163.5 47.5q-132 0 -204.5 -92t-74.5 -235q-1 -93 24 -165t68 -113.5t93.5 -62t105.5 -20.5q105 -1 161 34.5t87 104.5l63 -4l-37 -143q0 -4 -1 -7.5t-1.5 -6t-3 -5t-4 -4.5t-5.5 -4l-6 -3t-7.5 -3t-8 -2.5t-9 -2.5t-9.5 -3q-106 -33 -236 -33q-93 0 -176.5 28t-150 82.5 t-105.5 142t-39 198.5z" />
<glyph unicode="&#xaa;" horiz-adv-x="681" d="M37 977q0 81 49.5 121.5t179.5 87.5l146 51q0 168 -113 168q-17 0 -31.5 -2.5t-27 -10t-21 -13t-19 -18t-14.5 -18t-15 -21.5t-13 -19q-6 -8 -19 -5l-37 9q-10 7 -8 16l19 66q12 34 28 41q85 28 166 28q121 0 188.5 -47.5t67.5 -144.5v-273q0 -22 1 -35.5t6 -29 t14.5 -21.5t27 -6.5t43.5 8.5l4 -43l-219 -51q-28 28 -28 96l-105 -63q-57 -33 -108 -33q-67 0 -114.5 47t-47.5 115zM188 1006q0 -101 88 -101q136 0 136 195v90q-6 -2 -38.5 -14t-41.5 -15.5t-35.5 -15.5t-36 -19.5t-28 -21.5t-25 -27.5t-13 -31.5t-6.5 -39z" />
<glyph unicode="&#xab;" horiz-adv-x="1024" d="M121 487l334 310q4 4 20 19.5t28 25.5t17 10q12 0 12 -18q0 -34 -87.5 -153t-151.5 -194q47 -54 147.5 -188t100.5 -156q0 -20 -15 -20q-5 0 -12 4t-17 12.5t-15.5 13.5t-16.5 16.5t-12 12.5zM483 487l334 310q4 3 20.5 19t28.5 26t17 10q12 0 12 -18q0 -34 -87 -152 t-153 -195q47 -54 147.5 -188t100.5 -156q0 -20 -14 -20q-15 0 -74 59z" />
<glyph unicode="&#xac;" d="M72 649v135h1032v-555h-135v420h-897z" />
<glyph unicode="&#xad;" horiz-adv-x="681" d="M86 403v168h510v-168h-510z" />
<glyph unicode="&#xae;" horiz-adv-x="1593" d="M55 717q0 151 58 287.5t156.5 236t236.5 158.5t291 59q142 0 277.5 -59t237.5 -158t164 -237t62 -287t-62 -287.5t-164 -237.5t-237.5 -158t-277.5 -59q-204 0 -375 100t-269 270.5t-98 371.5zM162 717q0 -168 85.5 -314.5t232 -233.5t317.5 -87q157 0 303.5 86.5 t239 234.5t92.5 314t-92 314t-238.5 234.5t-304.5 86.5q-171 0 -318 -87.5t-232 -233.5t-85 -314zM438 348v29q5 1 15 2l15 1.5t13.5 2t13 2.5t11 2.5t9.5 3.5t7 4.5t5.5 5.5t2.5 7q5 36 5 84v505q0 48 -5 84q-1 4 -2.5 7t-5.5 5.5t-7 4.5t-9.5 3.5t-11 2.5t-13 2.5t-13.5 2 l-15 1.5t-15 2v29h373q46 0 93 -11t88.5 -32t68 -58t26.5 -84q0 -84 -45 -144t-114 -89l110 -168q106 -153 158 -186v-21h-156q-20 0 -36.5 12t-37.5 44t-39.5 66.5t-55 101t-72.5 126.5h-107v-206q0 -55 4 -84q1 -4 2.5 -7t5.5 -5.5t7 -4.5t9.5 -3.5t11 -2.5t13 -2.5 t13.5 -2l15 -1.5t15 -2v-29h-350zM692 752h39q98 0 150.5 36.5t52.5 135.5q0 159 -164 159h-43q-8 0 -14.5 -2.5t-10.5 -8t-6 -9.5t-3 -13.5t-1 -13.5v-15v-13v-256z" />
<glyph unicode="&#xaf;" horiz-adv-x="909" d="M123 1253v115h663v-115h-663z" />
<glyph unicode="&#xb0;" horiz-adv-x="757" d="M84 1210q0 119 87.5 207t207.5 88t206.5 -87.5t86.5 -207.5t-86.5 -206t-206.5 -86t-207.5 86t-87.5 206zM186 1210q0 -76 59.5 -133t133.5 -57q73 0 131.5 58t58.5 132q0 75 -56.5 134t-133.5 59q-78 0 -135.5 -57.5t-57.5 -135.5z" />
<glyph unicode="&#xb1;" d="M72 0v135h1032v-135h-1032zM72 662v135h448v446h135v-446h449v-135h-449v-447h-135v447h-448z" />
<glyph unicode="&#xb2;" horiz-adv-x="757" d="M47 584v69q62 64 184 178q51 46 87 82.5t82 90.5t71 108t25 102q0 67 -45.5 110.5t-114.5 43.5q-75 0 -128.5 -44.5t-64.5 -135.5h-45v139q113 131 285 131q121 0 198.5 -55t77.5 -156q0 -26 -8.5 -53.5t-19 -50t-33 -51t-37 -46t-45 -46.5t-43 -40t-45 -39t-37.5 -32 q-79 -67 -233 -205h358q62 0 98 30.5t62 90.5h47l-82 -221h-594z" />
<glyph unicode="&#xb3;" horiz-adv-x="757" d="M51 711q-5 11 6 20l33 23q22 19 29 6l67 -88q50 -70 152 -70q75 0 123.5 59.5t48.5 149.5q0 41 -10.5 73t-25 52.5t-40 35.5t-44.5 22t-50.5 11t-46 4t-42.5 -0.5t-30 -0.5v57q119 3 181.5 54t62.5 143q0 72 -39.5 113.5t-95.5 41.5q-60 0 -102 -31t-70 -102l-45 21v96 q43 26 108.5 41.5t120.5 15.5q277 0 287 -180q1 -88 -63 -145.5t-167 -79.5v-4q115 -9 194.5 -72.5t80.5 -161.5q1 -79 -51.5 -138.5t-131 -87t-167.5 -26.5q-62 1 -133 18t-93 31z" />
<glyph unicode="&#xb4;" horiz-adv-x="720" d="M154 1171l284 287q22 28 58.5 49t64.5 21q31 0 49.5 -21.5t18.5 -56.5q0 -17 -16 -35t-29.5 -28t-40.5 -26q-2 -2 -4 -3l-4 -2l-297 -185h-84z" />
<glyph unicode="&#xb5;" horiz-adv-x="1290" d="M53 909v54q212 8 344 86l4 -5v-651q0 -52 4 -91t16.5 -79.5t34.5 -67t60 -43t90 -16.5q146 0 213.5 92t67.5 314v321q0 26 -7.5 42.5t-16 25.5t-32 13t-37.5 4.5t-49 0.5h-22v54q215 8 344 86l4 -5v-780q0 -38 1.5 -60.5t9.5 -48t22.5 -35.5t42 -10t67.5 15l13 -57 l-293 -93q-47 53 -47 158l-180 -104q-59 -34 -99.5 -44t-91.5 -10q-102 0 -172 103q-1 -11 -5 -42t-4.5 -44t-1 -38.5t3.5 -50t11 -55.5l58 -200q16 -58 -25 -72l-154 -47q-10 110 -10 170v1124q0 26 -7.5 42.5t-16 25.5t-32 13t-37.5 4.5t-49 0.5h-22z" />
<glyph unicode="&#xb6;" horiz-adv-x="1099" d="M41 1028q0 214 103 310t333 96h541v-54q-8 -1 -26.5 -3t-27 -3t-24 -3.5t-23 -4.5t-19.5 -5t-18 -6.5t-13 -8t-10.5 -10.5t-4.5 -13q-8 -51 -8 -149v-1260q0 -99 8 -150q1 -7 4.5 -13t10.5 -10.5t13 -8t18 -6.5t19.5 -5t23 -4.5t24 -3.5t27 -3t26.5 -3v-53h-293v1694 h-127v-1694h-291v53q103 13 127 21q33 13 37 36q8 51 8 150v661q-220 -3 -329 119t-109 334zM205 1024q0 -358 274 -358v682q-83 0 -131 -11t-82.5 -46.5t-47.5 -98t-13 -168.5z" />
<glyph unicode="&#xb7;" horiz-adv-x="587" d="M162 520q0 52 39 91.5t92 39.5t92 -39.5t39 -91.5t-39 -91.5t-92 -39.5t-92 39.5t-39 91.5z" />
<glyph unicode="&#xb8;" horiz-adv-x="681" d="M127 -408l29 64q73 -25 125 -25q118 0 118 86q0 35 -20 55.5t-53 22.5q-33 4 -93 -8l-14 10l94 223h74l-61 -153q27 6 59 6q71 0 120.5 -36t49.5 -105q0 -79 -80 -125.5t-184 -46.5q-73 0 -164 32z" />
<glyph unicode="&#xb9;" horiz-adv-x="757" d="M127 1339l350 119v-698q0 -63 6 -96q4 -19 34 -25.5t106 -12.5q12 -1 18 -1v-41h-475v41q117 9 139 18q18 7 21 21q4 33 4 96v516q0 24 -8.5 38t-19.5 18.5t-31 2t-32 -6t-34 -11.5l-62 -21z" />
<glyph unicode="&#xba;" horiz-adv-x="757" d="M39 1130q0 135 97 231.5t257 96.5q146 0 235 -81t89 -224q0 -155 -101.5 -246.5t-244.5 -91.5q-138 0 -235 83t-97 232zM190 1137q0 -121 53 -195t148 -74q85 0 129.5 78t44.5 203q0 119 -48.5 187.5t-141.5 68.5q-81 0 -133 -67t-52 -201z" />
<glyph unicode="&#xbb;" horiz-adv-x="1024" d="M121 831q0 21 16 21q20 0 72 -59l332 -306l-334 -309q-55 -55 -66 -55q-12 0 -12 18q0 34 90.5 156t151.5 190q-42 46 -145.5 184t-104.5 160zM483 831q0 21 17 21q19 0 71 -59l332 -306l-334 -309q-55 -55 -65 -55q-12 0 -12 18q0 35 90.5 157t150.5 189 q-42 46 -145.5 184t-104.5 160z" />
<glyph unicode="&#xbc;" horiz-adv-x="1744" d="M102 1339l351 119v-698q0 -63 6 -96q4 -19 34 -25.5t105 -12.5q12 -1 18 -1v-41h-475v41q117 9 139 18q18 7 21 21q4 33 4 96v516q0 24 -8.5 38t-19.5 18.5t-31 2t-32 -6t-34 -11.5l-61 -21zM395 0l926 1434h123l-924 -1434h-125zM967 293q45 70 187 254.5t249 312.5h106 v-518h131v-92h-131v-80q0 -61 4 -92q4 -18 30 -24.5t87 -12.5v-41h-422v41q81 5 113.5 11.5t36.5 25.5q4 31 4 92v80h-379zM1069 342h293v387q-57 -55 -149 -178t-144 -209z" />
<glyph unicode="&#xbd;" horiz-adv-x="1744" d="M63 1339l351 119v-698q0 -63 6 -96q4 -19 34 -25.5t106 -12.5q12 -1 18 -1v-41h-476v41q117 9 139 18q18 7 21 21q4 33 4 96v516q0 24 -8.5 38t-19.5 18.5t-31 2t-32 -6t-34 -11.5l-61 -21zM313 0l926 1434h123l-924 -1434h-125zM1006 0v70q62 64 184 178q51 46 87 82.5 t82 90.5t70.5 108t24.5 102q0 67 -45.5 110t-114.5 43q-75 0 -128 -44.5t-64 -135.5h-45v139q113 131 284 131q121 0 199 -55t78 -155q0 -26 -8.5 -53.5t-19 -49.5t-33.5 -51.5t-36.5 -46t-45.5 -47t-42.5 -40t-45 -39t-37.5 -32.5q-96 -82 -234 -205h359q62 0 97.5 30.5 t61.5 90.5h47l-82 -221h-593z" />
<glyph unicode="&#xbe;" horiz-adv-x="1744" d="M82 717q-5 11 6 20l33 23q22 19 29 6l67 -88q50 -70 152 -70q75 0 123.5 59.5t48.5 147.5q0 40 -10.5 72t-25 52.5t-40.5 35.5t-44 22t-50.5 11t-46 4.5t-42.5 -0.5h-30v55q119 3 181.5 54t62.5 141q0 72 -40 113.5t-96 41.5q-60 0 -102 -31t-70 -102l-45 21v96 q43 26 109 41.5t121 15.5q276 0 286 -180q1 -87 -62.5 -144t-166.5 -79v-6q115 -8 194.5 -70t80.5 -160q1 -116 -105.5 -184t-245.5 -66q-62 1 -132.5 18t-92.5 31zM418 0l925 1434h123l-923 -1434h-125zM991 293q45 70 187 254.5t249 312.5h107v-518h131v-92h-131v-80 q0 -61 4 -92q4 -18 30 -24.5t87 -12.5v-41h-422v41q81 5 113 11.5t36 25.5q4 31 4 92v80h-378zM1094 342h292v387q-57 -54 -148 -177t-144 -210z" />
<glyph unicode="&#xbf;" horiz-adv-x="948" d="M100 -129q0 42 9 80.5t30 75t39 63t53.5 61t55.5 52.5t61 53q99 84 125.5 151.5t26.5 204.5h92q5 -140 -22 -229.5t-126 -228.5q-64 -89 -92 -157.5t-28 -137.5q0 -120 50.5 -200.5t135.5 -80.5q66 0 129 68l102 110q14 14 33 4l64 -41q15 -9 4 -28l-70 -131 q-29 -17 -112.5 -34.5t-137.5 -17.5q-188 0 -305 98.5t-117 264.5zM416 918q0 52 39 91.5t92 39.5t92 -39.5t39 -91.5q0 -53 -39.5 -92.5t-91.5 -39.5t-91.5 39.5t-39.5 92.5z" />
<glyph unicode="&#xc0;" horiz-adv-x="1400" d="M29 0v53q43 0 83 27t64 76q40 81 115 276t213 568t170 458h114q31 -93 111 -330t127.5 -378t101.5 -297t78 -220q38 -98 71.5 -139t94.5 -41v-53h-477v53q167 0 109 158l-89 264h-522l-94 -274q-21 -61 7.5 -104.5t94.5 -43.5v-53h-372zM424 553h465l-217 666h-4z M463 1819q0 35 18 56t49 21q28 0 64.5 -20.5t58.5 -48.5l285 -287h-84l-297 184q-67 42 -84 66q-10 15 -10 29z" />
<glyph unicode="&#xc1;" horiz-adv-x="1400" d="M29 0v53q43 0 83 27t64 76q40 81 115 276t213 568t170 458h114q31 -93 111 -330t127.5 -378t101.5 -297t78 -220q38 -98 71.5 -139t94.5 -41v-53h-477v53q167 0 109 158l-89 264h-522l-94 -274q-21 -61 7.5 -104.5t94.5 -43.5v-53h-372zM424 553h465l-217 666h-4z M535 1540l284 287q22 28 58.5 48.5t64.5 20.5q31 0 49.5 -21t18.5 -56q0 -17 -16 -35.5t-30.5 -28.5t-40.5 -26q-6 -3 -8 -5l-297 -184h-83z" />
<glyph unicode="&#xc2;" horiz-adv-x="1400" d="M29 0v53q43 0 83 27t64 76q40 81 115 276t213 568t170 458h114q31 -93 111 -330t127.5 -378t101.5 -297t78 -220q38 -98 71.5 -139t94.5 -41v-53h-477v53q167 0 109 158l-89 264h-522l-94 -274q-21 -61 7.5 -104.5t94.5 -43.5v-53h-372zM393 1540l262 342h129l263 -342 h-76l-252 209l-254 -209h-72zM424 553h465l-217 666h-4z" />
<glyph unicode="&#xc3;" horiz-adv-x="1400" d="M29 0v53q43 0 83 27t64 76q40 81 115 276t213 568t170 458h114q31 -93 111 -330t127.5 -378t101.5 -297t78 -220q38 -98 71.5 -139t94.5 -41v-53h-477v53q167 0 109 158l-89 264h-522l-94 -274q-21 -61 7.5 -104.5t94.5 -43.5v-53h-372zM375 1540q22 95 79 153t148 58 q37 0 129 -45q11 -5 43.5 -23t55 -26t47.5 -8q50 0 85 36t46 76h59q-8 -88 -71 -154.5t-148 -66.5q-84 0 -156 47q-25 17 -38.5 25t-40.5 16t-58 8q-41 0 -76.5 -30.5t-40.5 -65.5h-63zM424 553h465l-217 666h-4z" />
<glyph unicode="&#xc4;" horiz-adv-x="1400" d="M29 0v53q43 0 83 27t64 76q40 81 115 276t213 568t170 458h114q31 -93 111 -330t127.5 -378t101.5 -297t78 -220q38 -98 71.5 -139t94.5 -41v-53h-477v53q167 0 109 158l-89 264h-522l-94 -274q-21 -61 7.5 -104.5t94.5 -43.5v-53h-372zM412 1655q0 38 32 71t70 33 q42 0 73 -31t31 -73q0 -43 -30.5 -73t-73.5 -30q-40 0 -71 31t-31 72zM424 553h465l-217 666h-4zM823 1655q0 38 32.5 71t70.5 33q42 0 73 -31t31 -73q0 -43 -30.5 -73t-73.5 -30q-40 0 -71.5 31t-31.5 72z" />
<glyph unicode="&#xc5;" horiz-adv-x="1400" d="M29 0v53q43 0 83 27t64 76q40 81 115 276t213 568t170 458h114q31 -93 111 -330t127.5 -378t101.5 -297t78 -220q38 -98 71.5 -139t94.5 -41v-53h-477v53q167 0 109 158l-89 264h-522l-94 -274q-21 -61 7.5 -104.5t94.5 -43.5v-53h-372zM424 553h465l-217 666h-4z M518 1722q0 82 61 143.5t144 61.5t143 -61t60 -144t-60 -142.5t-143 -59.5q-84 0 -144.5 59.5t-60.5 142.5zM598 1722q0 -49 38.5 -86t86.5 -37q49 0 86 37.5t37 85.5t-36.5 86.5t-86.5 38.5q-49 0 -87 -37.5t-38 -87.5z" />
<glyph unicode="&#xc6;" horiz-adv-x="1859" d="M27 0v53q42 0 81 27t66 76l602 1028q110 182 -61 196v54h962v-332h-51q-8 50 -16.5 86.5t-24.5 72.5t-37.5 58t-54.5 35.5t-76 13.5h-278v-590h172q97 0 141 42.5t49 137.5h51v-438h-51q-5 96 -48.5 144.5t-141.5 48.5h-172v-459q0 -52 10.5 -86.5t28.5 -55t53.5 -30.5 t72.5 -13t99 -3q45 0 80.5 3t63.5 7t50.5 14t39 19t31 26.5t24.5 31.5t21.5 40t19.5 46l22 55t25 61h53l-61 -369h-1006v53q106 13 132 23q30 13 34 35q8 49 8 145v217h-491l-152 -272q-31 -54 1.5 -101t100.5 -47v-53h-372zM494 551h446v760h-4z" />
<glyph unicode="&#xc7;" horiz-adv-x="1517" d="M98 725q0 97 31.5 197.5t99 196.5t162 171.5t231.5 121.5t296 46q92 0 173.5 -12.5t111.5 -21.5t108 -35q80 -25 80 -80v-265h-54q-2 52 -16 99t-46.5 92t-80.5 78t-123.5 53t-169.5 20q-140 0 -249.5 -48.5t-178.5 -136t-104.5 -204t-36.5 -256.5q-1 -155 35 -280.5 t108 -219t189 -144t270 -50.5q335 0 465 318h53l-61 -256q0 -20 -12 -33.5t-27 -19.5t-46 -16q-7 -2 -10 -3q-179 -62 -399 -62q-45 0 -106 7l-48 -115q27 6 60 6q71 0 120.5 -36t49.5 -105q0 -79 -80 -125.5t-184 -46.5q-73 0 -164 32l28 64q73 -25 125 -25q56 0 87.5 21.5 t31.5 64.5q0 35 -20.5 55.5t-53.5 22.5q-33 4 -92 -8l-14 10l82 195q-134 19 -243 70t-195.5 138t-134.5 220.5t-48 304.5z" />
<glyph unicode="&#xc8;" horiz-adv-x="1177" d="M82 0v53q112 14 133 23q33 13 39 53q4 23 4 127v922q0 116 -7 139q-9 33 -45 44q-21 6 -124 19v54h915v-330h-53q-17 129 -62 196.5t-147 67.5h-278v-586h172q97 0 141 42t47 137h53v-437h-53q-3 96 -46 144.5t-142 48.5h-172v-463q0 -52 10.5 -86.5t28.5 -55t53.5 -30.5 t72.5 -13t99 -3q45 0 80.5 3t63.5 7t50.5 14t39 19t31 26.5t24.5 31.5t21.5 40t19.5 46l22 55t25 61h53l-61 -369h-1008zM332 1819q0 35 18 56t49 21q28 0 64.5 -20.5t58.5 -48.5l285 -287h-84l-297 184q-67 42 -84 66q-10 15 -10 29z" />
<glyph unicode="&#xc9;" horiz-adv-x="1177" d="M82 0v53q112 14 133 23q33 13 39 53q4 23 4 127v922q0 116 -7 139q-9 33 -45 44q-21 6 -124 19v54h915v-330h-53q-17 129 -62 196.5t-147 67.5h-278v-586h172q97 0 141 42t47 137h53v-437h-53q-3 96 -46 144.5t-142 48.5h-172v-463q0 -52 10.5 -86.5t28.5 -55t53.5 -30.5 t72.5 -13t99 -3q45 0 80.5 3t63.5 7t50.5 14t39 19t31 26.5t24.5 31.5t21.5 40t19.5 46l22 55t25 61h53l-61 -369h-1008zM403 1540l285 287q22 28 58.5 48.5t64.5 20.5q31 0 49.5 -21t18.5 -56q0 -17 -16 -35.5t-30.5 -28.5t-40.5 -26q-6 -3 -8 -5l-297 -184h-84z" />
<glyph unicode="&#xca;" horiz-adv-x="1177" d="M82 0v53q112 14 133 23q33 13 39 53q4 23 4 127v922q0 116 -7 139q-9 33 -45 44q-21 6 -124 19v54h915v-330h-53q-17 129 -62 196.5t-147 67.5h-278v-586h172q97 0 141 42t47 137h53v-437h-53q-3 96 -46 144.5t-142 48.5h-172v-463q0 -52 10.5 -86.5t28.5 -55t53.5 -30.5 t72.5 -13t99 -3q45 0 80.5 3t63.5 7t50.5 14t39 19t31 26.5t24.5 31.5t21.5 40t19.5 46l22 55t25 61h53l-61 -369h-1008zM262 1540l262 342h129l262 -342h-75l-252 209l-254 -209h-72z" />
<glyph unicode="&#xcb;" horiz-adv-x="1177" d="M82 0v53q112 14 133 23q33 13 39 53q4 23 4 127v922q0 116 -7 139q-9 33 -45 44q-21 6 -124 19v54h915v-330h-53q-17 129 -62 196.5t-147 67.5h-278v-586h172q97 0 141 42t47 137h53v-437h-53q-3 96 -46 144.5t-142 48.5h-172v-463q0 -52 10.5 -86.5t28.5 -55t53.5 -30.5 t72.5 -13t99 -3q45 0 80.5 3t63.5 7t50.5 14t39 19t31 26.5t24.5 31.5t21.5 40t19.5 46l22 55t25 61h53l-61 -369h-1008zM281 1655q0 38 32 71t70 33q42 0 73 -31t31 -73q0 -43 -30.5 -73t-73.5 -30q-40 0 -71 31t-31 72zM692 1655q0 38 32.5 71t70.5 33q42 0 73 -31t31 -73 q0 -43 -30.5 -73t-73.5 -30q-40 0 -71.5 31t-31.5 72z" />
<glyph unicode="&#xcc;" horiz-adv-x="714" d="M82 0v53q112 14 133 23q33 13 39 53q4 23 4 127v922q0 116 -7 139q-9 33 -45 44q-21 6 -124 19v54h551v-54q-111 -14 -133 -22q-32 -13 -39 -53q-4 -24 -4 -127v-922q0 -116 6 -139q10 -33 46 -45q21 -6 124 -19v-53h-551zM98 1819q0 35 18.5 56t49.5 21q28 0 64.5 -20.5 t58.5 -48.5l284 -287h-84l-296 184q-66 41 -83 63q-12 17 -12 32z" />
<glyph unicode="&#xcd;" horiz-adv-x="714" d="M82 0v53q112 14 133 23q33 13 39 53q4 23 4 127v922q0 116 -7 139q-9 33 -45 44q-21 6 -124 19v54h551v-54q-111 -14 -133 -22q-32 -13 -39 -53q-4 -24 -4 -127v-922q0 -116 6 -139q10 -33 46 -45q21 -6 124 -19v-53h-551zM172 1540l285 287q22 28 58.5 48.5t64.5 20.5 q31 0 49 -21t18 -56q0 -14 -8 -27t-27 -27.5t-27 -20t-32 -20.5l-297 -184h-84z" />
<glyph unicode="&#xce;" horiz-adv-x="714" d="M31 1540l262 342h129l262 -342h-76l-252 209l-254 -209h-71zM82 0v53q112 14 133 23q33 13 39 53q4 23 4 127v922q0 116 -7 139q-9 33 -45 44q-21 6 -124 19v54h551v-54q-111 -14 -133 -22q-32 -13 -39 -53q-4 -24 -4 -127v-922q0 -116 6 -139q10 -33 46 -45 q21 -6 124 -19v-53h-551z" />
<glyph unicode="&#xcf;" horiz-adv-x="714" d="M49 1655q0 38 32.5 71t70.5 33q42 0 73 -31t31 -73q0 -43 -30.5 -73t-73.5 -30q-40 0 -71.5 31t-31.5 72zM82 0v53q112 14 133 23q33 13 39 53q4 23 4 127v922q0 116 -7 139q-9 33 -45 44q-21 6 -124 19v54h551v-54q-111 -14 -133 -22q-32 -13 -39 -53q-4 -24 -4 -127 v-922q0 -116 6 -139q10 -33 46 -45q21 -6 124 -19v-53h-551zM461 1655q0 38 32 71t70 33q43 0 74 -31.5t31 -72.5q0 -43 -31 -73t-74 -30q-40 0 -71 31t-31 72z" />
<glyph unicode="&#xd0;" horiz-adv-x="1593" d="M0 719v96h242v363q0 116 -7 139q-9 33 -45 44q-21 6 -124 19v54h679q368 0 559 -177t191 -499q0 -123 -35 -236t-104 -208t-165 -165t-225.5 -109.5t-277.5 -39.5h-622v53q112 14 133 23q33 13 39 53q4 23 4 127v463h-242zM440 295q0 -55 4 -92t17 -63.5t28 -40.5 t47 -21.5t63 -9.5t87 -2q100 0 185 22t159 73.5t125.5 130t81 197t29.5 269.5q0 293 -156.5 451.5t-450.5 158.5h-219v-553h379v-96h-379v-424z" />
<glyph unicode="&#xd1;" horiz-adv-x="1630" d="M23 1380v54h372q153 -186 464 -559.5t464 -559.5h4v842q0 19 -2 38t-5.5 41.5t-4.5 31.5q-7 54 -58.5 79t-156.5 33v54h502v-54q-164 -17 -177 -112q-1 -9 -4.5 -31.5t-5.5 -41.5t-2 -38v-1157h-70q-139 164 -477 565.5t-520 616.5v-906q0 -19 2 -38t5.5 -41t4.5 -31 q7 -54 58.5 -79.5t156.5 -33.5v-53h-501v53q79 8 124 34t52 79q1 9 4.5 31t5.5 41t2 38v965q-52 67 -104.5 103t-132.5 36zM469 1540q22 95 79 153t148 58q37 0 129 -45q11 -5 43.5 -23t55 -26t47.5 -8q50 0 85 36t46 76h59q-8 -88 -71 -154.5t-148 -66.5q-84 0 -156 47 q-25 17 -38.5 25t-40.5 16t-58 8q-41 0 -76.5 -30.5t-40.5 -65.5h-63z" />
<glyph unicode="&#xd2;" horiz-adv-x="1669" d="M98 690q0 163 60.5 306t164 244t245.5 159.5t300 58.5q129 0 243 -42t196.5 -113t143 -161t90.5 -188.5t30 -193.5q0 -215 -98.5 -394t-277 -285t-400.5 -106q-192 0 -352.5 95.5t-252.5 259.5t-92 360zM332 797q0 -180 43.5 -325.5t117 -236.5t165 -139.5t192.5 -48.5 q110 0 196.5 42t140 108t88.5 154t48.5 173.5t13.5 173.5q0 142 -29.5 259t-79 195t-116.5 132t-139.5 78t-149.5 24q-101 0 -184.5 -34.5t-139 -92t-94.5 -134.5t-56 -159.5t-17 -168.5zM578 1819q0 35 18 56t49 21q28 0 64.5 -20.5t58.5 -48.5l285 -287h-84l-297 184 q-67 42 -84 66q-10 15 -10 29z" />
<glyph unicode="&#xd3;" horiz-adv-x="1669" d="M98 690q0 163 60.5 306t164 244t245.5 159.5t300 58.5q129 0 243 -42t196.5 -113t143 -161t90.5 -188.5t30 -193.5q0 -215 -98.5 -394t-277 -285t-400.5 -106q-192 0 -352.5 95.5t-252.5 259.5t-92 360zM332 797q0 -180 43.5 -325.5t117 -236.5t165 -139.5t192.5 -48.5 q110 0 196.5 42t140 108t88.5 154t48.5 173.5t13.5 173.5q0 142 -29.5 259t-79 195t-116.5 132t-139.5 78t-149.5 24q-101 0 -184.5 -34.5t-139 -92t-94.5 -134.5t-56 -159.5t-17 -168.5zM649 1540l285 287q22 28 58.5 48.5t64.5 20.5q31 0 49 -21t18 -56q0 -14 -8 -27 t-27 -27.5t-27 -20t-32 -20.5l-297 -184h-84z" />
<glyph unicode="&#xd4;" horiz-adv-x="1669" d="M98 690q0 163 60.5 306t164 244t245.5 159.5t300 58.5q129 0 243 -42t196.5 -113t143 -161t90.5 -188.5t30 -193.5q0 -215 -98.5 -394t-277 -285t-400.5 -106q-192 0 -352.5 95.5t-252.5 259.5t-92 360zM332 797q0 -180 43.5 -325.5t117 -236.5t165 -139.5t192.5 -48.5 q110 0 196.5 42t140 108t88.5 154t48.5 173.5t13.5 173.5q0 142 -29.5 259t-79 195t-116.5 132t-139.5 78t-149.5 24q-101 0 -184.5 -34.5t-139 -92t-94.5 -134.5t-56 -159.5t-17 -168.5zM508 1540l262 342h129l262 -342h-76l-251 209l-254 -209h-72z" />
<glyph unicode="&#xd5;" horiz-adv-x="1669" d="M98 690q0 163 60.5 306t164 244t245.5 159.5t300 58.5q129 0 243 -42t196.5 -113t143 -161t90.5 -188.5t30 -193.5q0 -215 -98.5 -394t-277 -285t-400.5 -106q-192 0 -352.5 95.5t-252.5 259.5t-92 360zM332 797q0 -180 43.5 -325.5t117 -236.5t165 -139.5t192.5 -48.5 q110 0 196.5 42t140 108t88.5 154t48.5 173.5t13.5 173.5q0 142 -29.5 259t-79 195t-116.5 132t-139.5 78t-149.5 24q-101 0 -184.5 -34.5t-139 -92t-94.5 -134.5t-56 -159.5t-17 -168.5zM487 1540q22 95 79.5 153t148.5 58q37 0 129 -45q11 -5 43 -23t54.5 -26t47.5 -8 q50 0 85 36t46 76h60q-8 -88 -71 -154.5t-148 -66.5q-84 0 -156 47q-25 17 -38.5 25t-40.5 16t-58 8q-41 0 -76.5 -30.5t-40.5 -65.5h-64z" />
<glyph unicode="&#xd6;" horiz-adv-x="1669" d="M98 690q0 163 60.5 306t164 244t245.5 159.5t300 58.5q129 0 243 -42t196.5 -113t143 -161t90.5 -188.5t30 -193.5q0 -215 -98.5 -394t-277 -285t-400.5 -106q-192 0 -352.5 95.5t-252.5 259.5t-92 360zM332 797q0 -180 43.5 -325.5t117 -236.5t165 -139.5t192.5 -48.5 q110 0 196.5 42t140 108t88.5 154t48.5 173.5t13.5 173.5q0 142 -29.5 259t-79 195t-116.5 132t-139.5 78t-149.5 24q-101 0 -184.5 -34.5t-139 -92t-94.5 -134.5t-56 -159.5t-17 -168.5zM526 1655q0 38 32.5 71t70.5 33q42 0 73 -31t31 -73q0 -43 -30.5 -73t-73.5 -30 q-40 0 -71.5 31t-31.5 72zM938 1655q0 38 32 71t70 33q42 0 73.5 -31.5t31.5 -72.5q0 -43 -31 -73t-74 -30q-40 0 -71 31t-31 72z" />
<glyph unicode="&#xd7;" d="M145 172l344 348l-344 344l99 97l340 -347l348 347l98 -97l-348 -344l348 -348l-98 -96l-348 348l-340 -348z" />
<glyph unicode="&#xd8;" horiz-adv-x="1669" d="M98 690q0 163 60.5 306t164 244t245.5 159.5t300 58.5q239 0 418 -141l154 176l71 -49l-159 -182q104 -103 161.5 -237t57.5 -265q0 -215 -98.5 -394t-277 -285t-400.5 -106q-246 0 -437 154l-176 -207l-65 60l180 206q-94 97 -146.5 227.5t-52.5 274.5zM332 797 q0 -272 102 -465l756 870q-69 94 -165 139t-202 45q-101 0 -184.5 -34.5t-139 -92t-94.5 -134.5t-56 -159.5t-17 -168.5zM479 254q70 -103 166.5 -155t204.5 -52q110 0 196.5 42t140 108t88.5 154t48.5 173.5t13.5 173.5q0 260 -100 428z" />
<glyph unicode="&#xd9;" horiz-adv-x="1595" d="M57 1380v54h551v-54q-111 -14 -133 -22q-32 -13 -39 -53q-4 -24 -4 -127v-600q0 -91 10.5 -163.5t37 -138t69 -109.5t110 -69.5t156.5 -25.5q209 0 318.5 134t109.5 382v569q0 19 -2 38t-5.5 41.5t-4.5 31.5q-13 95 -176 112v54h483v-54q-79 -8 -124 -33.5t-52 -78.5 q-1 -9 -4.5 -31.5t-5.5 -41.5t-2 -38v-577q0 -128 -31.5 -231.5t-84 -172t-123.5 -115t-147.5 -66.5t-158.5 -20q-161 0 -273 39.5t-177 118.5t-93.5 184.5t-28.5 249.5v611q0 116 -7 139q-9 33 -45 44q-21 6 -124 19zM541 1819q0 35 18 56t49 21q28 0 64.5 -20.5 t58.5 -48.5l285 -287h-84l-297 184q-67 42 -84 66q-10 15 -10 29z" />
<glyph unicode="&#xda;" horiz-adv-x="1595" d="M57 1380v54h551v-54q-111 -14 -133 -22q-32 -13 -39 -53q-4 -24 -4 -127v-600q0 -91 10.5 -163.5t37 -138t69 -109.5t110 -69.5t156.5 -25.5q209 0 318.5 134t109.5 382v569q0 19 -2 38t-5.5 41.5t-4.5 31.5q-13 95 -176 112v54h483v-54q-79 -8 -124 -33.5t-52 -78.5 q-1 -9 -4.5 -31.5t-5.5 -41.5t-2 -38v-577q0 -128 -31.5 -231.5t-84 -172t-123.5 -115t-147.5 -66.5t-158.5 -20q-161 0 -273 39.5t-177 118.5t-93.5 184.5t-28.5 249.5v611q0 116 -7 139q-9 33 -45 44q-21 6 -124 19zM612 1540l285 287q22 28 58.5 48.5t64.5 20.5 q31 0 49 -21t18 -56q0 -14 -8 -27t-27 -27.5t-27 -20t-32 -20.5l-297 -184h-84z" />
<glyph unicode="&#xdb;" horiz-adv-x="1595" d="M57 1380v54h551v-54q-111 -14 -133 -22q-32 -13 -39 -53q-4 -24 -4 -127v-600q0 -91 10.5 -163.5t37 -138t69 -109.5t110 -69.5t156.5 -25.5q209 0 318.5 134t109.5 382v569q0 19 -2 38t-5.5 41.5t-4.5 31.5q-13 95 -176 112v54h483v-54q-79 -8 -124 -33.5t-52 -78.5 q-1 -9 -4.5 -31.5t-5.5 -41.5t-2 -38v-577q0 -128 -31.5 -231.5t-84 -172t-123.5 -115t-147.5 -66.5t-158.5 -20q-161 0 -273 39.5t-177 118.5t-93.5 184.5t-28.5 249.5v611q0 116 -7 139q-9 33 -45 44q-21 6 -124 19zM471 1540l262 342h129l262 -342h-75l-252 209 l-254 -209h-72z" />
<glyph unicode="&#xdc;" horiz-adv-x="1595" d="M57 1380v54h551v-54q-111 -14 -133 -22q-32 -13 -39 -53q-4 -24 -4 -127v-600q0 -91 10.5 -163.5t37 -138t69 -109.5t110 -69.5t156.5 -25.5q209 0 318.5 134t109.5 382v569q0 19 -2 38t-5.5 41.5t-4.5 31.5q-13 95 -176 112v54h483v-54q-79 -8 -124 -33.5t-52 -78.5 q-1 -9 -4.5 -31.5t-5.5 -41.5t-2 -38v-577q0 -128 -31.5 -231.5t-84 -172t-123.5 -115t-147.5 -66.5t-158.5 -20q-161 0 -273 39.5t-177 118.5t-93.5 184.5t-28.5 249.5v611q0 116 -7 139q-9 33 -45 44q-21 6 -124 19zM489 1655q0 38 32.5 71t70.5 33q42 0 73 -31t31 -73 q0 -43 -30.5 -73t-73.5 -30q-40 0 -71.5 31t-31.5 72zM901 1655q0 38 32.5 71t70.5 33q42 0 73 -31t31 -73q0 -43 -30.5 -73t-73.5 -30q-40 0 -71.5 31t-31.5 72z" />
<glyph unicode="&#xdd;" horiz-adv-x="1325" d="M29 1380v54h522v-54q-46 0 -74 -9.5t-40 -24.5t-11 -40t9.5 -50t25.5 -60l248 -514l282 514q35 62 27.5 103t-45 61t-99.5 20v54h422v-54q-98 0 -168 -125l-342 -620q-24 -49 -24 -150v-229q0 -116 6 -139q10 -33 46 -45q21 -6 124 -19v-53h-551v53q112 14 133 23 q33 13 39 53q4 23 4 127v315l-315 625q-52 101 -100.5 142.5t-118.5 41.5zM457 1540l284 287q22 28 58.5 48.5t64.5 20.5q31 0 49.5 -21t18.5 -56q0 -14 -8 -27t-27 -27.5t-27 -20t-32 -20.5l-297 -184h-84z" />
<glyph unicode="&#xde;" horiz-adv-x="1140" d="M82 0v53q112 14 133 23q33 13 39 53q4 23 4 127v922q0 116 -7 139q-9 33 -45 44q-21 6 -124 19v54h551v-54q-111 -14 -133 -22q-32 -13 -39 -53q-4 -24 -4 -127v-52h164q114 0 199.5 -23.5t132.5 -57.5t75.5 -82t36.5 -87.5t8 -84.5q0 -75 -30 -142.5t-85 -119.5 t-138.5 -82.5t-184.5 -30.5h-178v-160q0 -116 6 -139q10 -33 46 -45q21 -6 124 -19v-53h-551zM457 481h155q49 0 91 14t81 45.5t61.5 93t22.5 146.5q0 149 -72 215t-223 66h-116v-580z" />
<glyph unicode="&#xdf;" horiz-adv-x="1282" d="M61 0v53q105 15 127 26q30 15 35 60q2 19 2 117v610h-119v58l119 41v116q0 83 26 156.5t78 134.5t140.5 97t202.5 36q32 0 62.5 -2.5t74.5 -10.5t80 -26t69 -44.5t51.5 -71t18.5 -101.5q0 -43 -25 -90t-60.5 -88.5t-71 -82t-60.5 -83.5t-25 -80q0 -13 2.5 -25.5t5.5 -23 t11.5 -22.5t14.5 -20t20.5 -20.5t23 -19.5t29 -22t32 -23t38.5 -26.5t41 -28.5q56 -40 96.5 -82t60.5 -75t31.5 -71.5t13.5 -61t2 -52.5q0 -120 -98.5 -198.5t-235.5 -78.5q-145 0 -247 62l-47 151q-5 16 6 29l32 31q18 24 27 10l70 -117q3 -3 19.5 -23.5t29.5 -33t41.5 -25 t62.5 -12.5q81 0 126.5 51.5t45.5 120.5q0 23 -7 46t-14 39.5t-27.5 39t-30 33t-40.5 35t-40 31t-47 33.5q-17 12 -25 18q-63 46 -102.5 82t-56.5 65t-22 47.5t-5 44.5q0 46 18.5 88.5t46 74t60 69t60 72.5t46 85t18.5 107q0 115 -56.5 160t-147.5 45q-18 0 -32.5 -1 t-43 -7.5t-50.5 -18.5t-48 -36.5t-43 -58t-29 -86.5t-12 -120v-850q0 -115 5 -136q8 -34 44 -46q22 -8 114 -21v-53h-512z" />
<glyph unicode="&#xe0;" horiz-adv-x="1042" d="M82 244q0 58 15 102.5t39.5 77t72.5 63t97 53t130 54.5l221 86q0 297 -174 297q-30 0 -56.5 -9.5t-44 -22t-36.5 -34.5t-29.5 -38t-26.5 -43t-24 -39q-7 -12 -26 -9l-70 17q-19 6 -16 26l30 109q15 49 60 63q132 52 254 52q179 0 261.5 -80.5t82.5 -249.5v-455 q0 -38 1.5 -60.5t9.5 -48t22.5 -35.5t42 -10t67.5 15l12 -57l-292 -93q-48 57 -48 162l-159 -106q-85 -56 -168 -56q-102 0 -175 78.5t-73 190.5zM264 1450q0 35 18.5 56.5t49.5 21.5q28 0 64.5 -21t58.5 -49l284 -287h-84l-297 185q-64 40 -81 61q-13 17 -13 33zM266 276 q0 -73 44.5 -123.5t113.5 -50.5q43 0 81.5 16t74 52t56.5 106t21 166v160q-20 -8 -67.5 -25t-70.5 -25.5t-64 -27t-62 -33t-49.5 -38t-42.5 -48t-24.5 -58t-10.5 -71.5z" />
<glyph unicode="&#xe1;" horiz-adv-x="1042" d="M82 244q0 58 15 102.5t39.5 77t72.5 63t97 53t130 54.5l221 86q0 297 -174 297q-30 0 -56.5 -9.5t-44 -22t-36.5 -34.5t-29.5 -38t-26.5 -43t-24 -39q-7 -12 -26 -9l-70 17q-19 6 -16 26l30 109q15 49 60 63q132 52 254 52q179 0 261.5 -80.5t82.5 -249.5v-455 q0 -38 1.5 -60.5t9.5 -48t22.5 -35.5t42 -10t67.5 15l12 -57l-292 -93q-48 57 -48 162l-159 -106q-85 -56 -168 -56q-102 0 -175 78.5t-73 190.5zM266 276q0 -73 44.5 -123.5t113.5 -50.5q43 0 81.5 16t74 52t56.5 106t21 166v160q-20 -8 -67.5 -25t-70.5 -25.5t-64 -27 t-62 -33t-49.5 -38t-42.5 -48t-24.5 -58t-10.5 -71.5zM295 1171l285 287q22 28 58.5 49t63.5 21q31 0 49.5 -21.5t18.5 -56.5q0 -17 -16 -35t-29.5 -28t-40.5 -26q-2 -2 -4 -3l-4 -2l-297 -185h-84z" />
<glyph unicode="&#xe2;" horiz-adv-x="1042" d="M82 244q0 58 15 102.5t39.5 77t72.5 63t97 53t130 54.5l221 86q0 297 -174 297q-30 0 -56.5 -9.5t-44 -22t-36.5 -34.5t-29.5 -38t-26.5 -43t-24 -39q-7 -12 -26 -9l-70 17q-19 6 -16 26l30 109q15 49 60 63q132 52 254 52q179 0 261.5 -80.5t82.5 -249.5v-455 q0 -38 1.5 -60.5t9.5 -48t22.5 -35.5t42 -10t67.5 15l12 -57l-292 -93q-48 57 -48 162l-159 -106q-85 -56 -168 -56q-102 0 -175 78.5t-73 190.5zM174 1171l262 342h129l262 -342h-75l-252 209l-254 -209h-72zM266 276q0 -73 44.5 -123.5t113.5 -50.5q43 0 81.5 16t74 52 t56.5 106t21 166v160q-20 -8 -67.5 -25t-70.5 -25.5t-64 -27t-62 -33t-49.5 -38t-42.5 -48t-24.5 -58t-10.5 -71.5z" />
<glyph unicode="&#xe3;" horiz-adv-x="1042" d="M82 244q0 58 15 102.5t39.5 77t72.5 63t97 53t130 54.5l221 86q0 297 -174 297q-30 0 -56.5 -9.5t-44 -22t-36.5 -34.5t-29.5 -38t-26.5 -43t-24 -39q-7 -12 -26 -9l-70 17q-19 6 -16 26l30 109q15 49 60 63q132 52 254 52q179 0 261.5 -80.5t82.5 -249.5v-455 q0 -38 1.5 -60.5t9.5 -48t22.5 -35.5t42 -10t67.5 15l12 -57l-292 -93q-48 57 -48 162l-159 -106q-85 -56 -168 -56q-102 0 -175 78.5t-73 190.5zM154 1171q22 95 79 153t148 58q37 0 129 -45q11 -5 43 -23t54.5 -26t47.5 -8q50 0 85 36.5t46 76.5h60q-8 -88 -71 -155 t-148 -67q-83 0 -156 48q-25 17 -38.5 25t-40.5 16t-58 8q-41 0 -76.5 -31t-40.5 -66h-63zM266 276q0 -73 44.5 -123.5t113.5 -50.5q43 0 81.5 16t74 52t56.5 106t21 166v160q-20 -8 -67.5 -25t-70.5 -25.5t-64 -27t-62 -33t-49.5 -38t-42.5 -48t-24.5 -58t-10.5 -71.5z" />
<glyph unicode="&#xe4;" horiz-adv-x="1042" d="M82 244q0 58 15 102.5t39.5 77t72.5 63t97 53t130 54.5l221 86q0 297 -174 297q-30 0 -56.5 -9.5t-44 -22t-36.5 -34.5t-29.5 -38t-26.5 -43t-24 -39q-7 -12 -26 -9l-70 17q-19 6 -16 26l30 109q15 49 60 63q132 52 254 52q179 0 261.5 -80.5t82.5 -249.5v-455 q0 -38 1.5 -60.5t9.5 -48t22.5 -35.5t42 -10t67.5 15l12 -57l-292 -93q-48 57 -48 162l-159 -106q-85 -56 -168 -56q-102 0 -175 78.5t-73 190.5zM193 1286q0 38 32 71.5t70 33.5q42 0 73 -31.5t31 -73.5q0 -43 -30.5 -72.5t-73.5 -29.5q-40 0 -71 30.5t-31 71.5zM266 276 q0 -73 44.5 -123.5t113.5 -50.5q43 0 81.5 16t74 52t56.5 106t21 166v160q-20 -8 -67.5 -25t-70.5 -25.5t-64 -27t-62 -33t-49.5 -38t-42.5 -48t-24.5 -58t-10.5 -71.5zM604 1286q0 38 32.5 71.5t70.5 33.5q42 0 73 -31.5t31 -73.5q0 -43 -30.5 -72.5t-73.5 -29.5 q-40 0 -71.5 30.5t-31.5 71.5z" />
<glyph unicode="&#xe5;" horiz-adv-x="1042" d="M82 244q0 58 15 102.5t39.5 77t72.5 63t97 53t130 54.5l221 86q0 297 -174 297q-30 0 -56.5 -9.5t-44 -22t-36.5 -34.5t-29.5 -38t-26.5 -43t-24 -39q-7 -12 -26 -9l-70 17q-19 6 -16 26l30 109q15 49 60 63q132 52 254 52q179 0 261.5 -80.5t82.5 -249.5v-455 q0 -38 1.5 -60.5t9.5 -48t22.5 -35.5t42 -10t67.5 15l12 -57l-292 -93q-48 57 -48 162l-159 -106q-85 -56 -168 -56q-102 0 -175 78.5t-73 190.5zM266 276q0 -73 44.5 -123.5t113.5 -50.5q43 0 81.5 16t74 52t56.5 106t21 166v160q-20 -8 -67.5 -25t-70.5 -25.5t-64 -27 t-62 -33t-49.5 -38t-42.5 -48t-24.5 -58t-10.5 -71.5zM297 1354q0 82 61 143.5t144 61.5t143 -61t60 -144t-60 -143t-143 -60t-144 60t-61 143zM377 1354q0 -49 38.5 -86t86.5 -37q49 0 86 37.5t37 85.5t-36.5 86.5t-86.5 38.5t-87.5 -37.5t-37.5 -87.5z" />
<glyph unicode="&#xe6;" horiz-adv-x="1593" d="M82 244q0 58 15 102.5t39.5 77t72.5 63t97 53t130 54.5l221 86q0 297 -174 297q-30 0 -56.5 -9.5t-44 -22t-36.5 -34.5t-29.5 -38t-26.5 -43t-24 -39q-7 -12 -26 -9l-56 15q-19 6 -16 26l31 109q10 32 18.5 45.5t26.5 19.5q132 52 254 52q227 0 297 -142q128 142 340 142 q174 0 277.5 -116t103.5 -310v-58h-660q0 -75 9.5 -139.5t35 -128.5t65.5 -109t105 -72.5t150 -27.5q33 0 62.5 5t55 14.5t41.5 17t39.5 20.5t30.5 17l35 -64l-271 -123h-86q-34 -2 -80.5 6t-105.5 28.5t-119 66t-102 110.5l-223 -155q-85 -56 -168 -56q-102 0 -175 78.5 t-73 190.5zM266 276q0 -73 44.5 -123.5t113.5 -50.5q43 0 81.5 16t74 52t56.5 106t21 166v160q-20 -8 -67.5 -25t-70.5 -25.5t-64 -27t-62 -33t-49.5 -38t-42.5 -48t-24.5 -58t-10.5 -71.5zM856 637h379q40 0 71 29t31 90q0 96 -63.5 158.5t-151.5 62.5q-54 0 -99.5 -17.5 t-84 -55t-60.5 -106t-22 -161.5z" />
<glyph unicode="&#xe7;" horiz-adv-x="993" d="M78 516q0 119 43.5 219.5t118 169t175.5 106.5t214 38q64 0 134.5 -13.5t117.5 -40.5l71 -137q10 -13 0 -20l-71 -45q-19 -11 -31 -2l-105 120q-58 66 -161 66q-39 0 -78.5 -12t-80.5 -41.5t-72.5 -72.5t-51.5 -112.5t-20 -154.5q0 -69 12 -135t41.5 -131.5t73.5 -115 t112.5 -80t153.5 -30.5q32 0 61 4.5t55 15t41.5 17.5t40.5 21.5t31 17.5l35 -64l-272 -129q-93 0 -142 7l-45 -115q27 6 60 6q71 0 120.5 -36t49.5 -105q0 -53 -40 -93.5t-99 -59.5t-126 -19q-72 0 -163 32l28 64q73 -25 125 -25q56 0 87.5 21.5t31.5 64.5q0 35 -20.5 55.5 t-53.5 22.5q-33 4 -92 -8l-14 10l82 197q-141 29 -240 139q-54 59 -95.5 167.5t-41.5 215.5z" />
<glyph unicode="&#xe8;" horiz-adv-x="1013" d="M78 516q0 75 16 148t52.5 143.5t90 123.5t135.5 85.5t183 32.5q173 0 277 -116t104 -310v-58h-664q0 -91 22.5 -172.5t68 -150.5t126 -109.5t185.5 -40.5q32 0 61 4.5t55.5 14.5t42 17.5t40 21t30.5 16.5l33 -64l-268 -127h-64l-28 -1q-27 -1 -43 0t-50 5t-62.5 14.5 t-64 27t-71.5 45t-70 65.5q-52 59 -94.5 168.5t-42.5 216.5zM270 1450q0 35 18.5 56.5t49.5 21.5q28 0 64.5 -21t58.5 -49l284 -287h-83l-297 185q-2 1 -12.5 7.5t-14.5 9t-14 9t-14.5 10.5t-12 10.5t-11.5 11.5t-8 11t-6 12.5t-2 12.5zM272 637h383q40 0 71.5 29t31.5 90 q0 96 -63.5 158.5t-151.5 62.5q-54 0 -100.5 -17.5t-86 -55t-62 -106t-22.5 -161.5z" />
<glyph unicode="&#xe9;" horiz-adv-x="1013" d="M78 516q0 75 16 148t52.5 143.5t90 123.5t135.5 85.5t183 32.5q173 0 277 -116t104 -310v-58h-664q0 -91 22.5 -172.5t68 -150.5t126 -109.5t185.5 -40.5q32 0 61 4.5t55.5 14.5t42 17.5t40 21t30.5 16.5l33 -64l-268 -127h-64l-28 -1q-27 -1 -43 0t-50 5t-62.5 14.5 t-64 27t-71.5 45t-70 65.5q-52 59 -94.5 168.5t-42.5 216.5zM272 637h383q40 0 71.5 29t31.5 90q0 96 -63.5 158.5t-151.5 62.5q-54 0 -100.5 -17.5t-86 -55t-62 -106t-22.5 -161.5zM301 1171l285 287q22 28 58.5 49t64.5 21q31 0 49 -21.5t18 -56.5q0 -17 -16 -35 t-29.5 -28t-40.5 -26q-2 -2 -4 -3l-4 -2l-297 -185h-84z" />
<glyph unicode="&#xea;" horiz-adv-x="1013" d="M78 516q0 75 16 148t52.5 143.5t90 123.5t135.5 85.5t183 32.5q173 0 277 -116t104 -310v-58h-664q0 -91 22.5 -172.5t68 -150.5t126 -109.5t185.5 -40.5q32 0 61 4.5t55.5 14.5t42 17.5t40 21t30.5 16.5l33 -64l-268 -127h-64l-28 -1q-27 -1 -43 0t-50 5t-62.5 14.5 t-64 27t-71.5 45t-70 65.5q-52 59 -94.5 168.5t-42.5 216.5zM180 1171l262 342h129l263 -342h-76l-252 209l-254 -209h-72zM272 637h383q40 0 71.5 29t31.5 90q0 96 -63.5 158.5t-151.5 62.5q-54 0 -100.5 -17.5t-86 -55t-62 -106t-22.5 -161.5z" />
<glyph unicode="&#xeb;" horiz-adv-x="1013" d="M78 516q0 75 16 148t52.5 143.5t90 123.5t135.5 85.5t183 32.5q173 0 277 -116t104 -310v-58h-664q0 -91 22.5 -172.5t68 -150.5t126 -109.5t185.5 -40.5q32 0 61 4.5t55.5 14.5t42 17.5t40 21t30.5 16.5l33 -64l-268 -127h-64l-28 -1q-27 -1 -43 0t-50 5t-62.5 14.5 t-64 27t-71.5 45t-70 65.5q-52 59 -94.5 168.5t-42.5 216.5zM199 1286q0 38 32 71.5t70 33.5q42 0 73.5 -31.5t31.5 -73.5t-31 -72t-74 -30q-40 0 -71 30.5t-31 71.5zM272 637h383q40 0 71.5 29t31.5 90q0 96 -63.5 158.5t-151.5 62.5q-54 0 -100.5 -17.5t-86 -55t-62 -106 t-22.5 -161.5zM610 1286q0 38 32.5 71.5t70.5 33.5q42 0 73 -31.5t31 -73.5q0 -43 -30.5 -72.5t-73.5 -29.5q-40 0 -71.5 30.5t-31.5 71.5z" />
<glyph unicode="&#xec;" horiz-adv-x="634" d="M61 0v53q105 15 127 26q30 15 35 60q2 19 2 117v567q0 26 -7.5 42.5t-16 25.5t-32 13t-37.5 4.5t-49 0.5h-22v54q216 8 345 86l4 -5v-788q0 -115 5 -136q8 -34 44 -46q22 -8 114 -21v-53h-512zM80 1450q0 35 18 56.5t49 21.5q28 0 64.5 -21t58.5 -49l285 -287h-84 l-297 185q-64 40 -81 61q-13 17 -13 33z" />
<glyph unicode="&#xed;" horiz-adv-x="634" d="M61 0v53q105 15 127 26q30 15 35 60q2 19 2 117v567q0 26 -7.5 42.5t-16 25.5t-32 13t-37.5 4.5t-49 0.5h-22v54q216 8 345 86l4 -5v-788q0 -115 5 -136q8 -34 44 -46q22 -8 114 -21v-53h-512zM111 1171l284 287q22 28 58.5 49t64.5 21q31 0 49.5 -21.5t18.5 -56.5 q0 -17 -16 -35t-29.5 -28t-40.5 -26q-5 -3 -8 -5l-297 -185h-84z" />
<glyph unicode="&#xee;" horiz-adv-x="634" d="M-10 1171l262 342h129l262 -342h-76l-252 209l-254 -209h-71zM61 0v53q105 15 127 26q30 15 35 60q2 19 2 117v567q0 26 -7.5 42.5t-16 25.5t-32 13t-37.5 4.5t-49 0.5h-22v54q216 8 345 86l4 -5v-788q0 -115 5 -136q8 -34 44 -46q22 -8 114 -21v-53h-512z" />
<glyph unicode="&#xef;" horiz-adv-x="634" d="M8 1286q0 38 32.5 71.5t70.5 33.5q42 0 73 -31.5t31 -73.5q0 -43 -30.5 -72.5t-73.5 -29.5q-40 0 -71.5 30.5t-31.5 71.5zM61 0v53q105 15 127 26q30 15 35 60q2 19 2 117v567q0 26 -7.5 42.5t-16 25.5t-32 13t-37.5 4.5t-49 0.5h-22v54q216 8 345 86l4 -5v-788 q0 -115 5 -136q8 -34 44 -46q22 -8 114 -21v-53h-512zM420 1286q0 38 32 71.5t70 33.5q42 0 73.5 -31.5t31.5 -73.5t-31 -72t-74 -30q-40 0 -71 30.5t-31 71.5z" />
<glyph unicode="&#xf0;" horiz-adv-x="1202" d="M78 500q0 164 72.5 290.5t194 192.5t271.5 66q116 0 224 -54q-71 154 -193 260l-266 -104l-107 70l279 110q-90 65 -221 127l125 47q136 -50 239 -116l258 106l105 -78l-258 -100q161 -130 245 -323.5t84 -407.5q0 -140 -34.5 -250.5t-88 -176.5t-125 -109t-138.5 -59 t-136 -16q-112 0 -204 32.5t-151 85t-99.5 122t-58 141t-17.5 144.5zM281 541q0 -140 35.5 -249.5t111 -177t182.5 -67.5q149 0 234.5 120.5t85.5 369.5q0 203 -97 321.5t-243 118.5q-97 0 -168.5 -61t-106 -158.5t-34.5 -216.5z" />
<glyph unicode="&#xf1;" horiz-adv-x="1347" d="M61 0v53q105 15 127 26q30 15 35 60q2 19 2 117v567q0 26 -7.5 42.5t-16 25.5t-32 13t-37.5 4.5t-49 0.5h-22v54q216 8 345 86l4 -5v-176q70 81 177.5 131t235.5 50q91 0 151.5 -25.5t92 -77t43.5 -112.5t12 -148v-430v-28q0 -114 18.5 -135.5t133.5 -37.5q8 -1 12 -2 v-53h-512v53q105 15 127 26q30 15 35 60q2 19 2 117v377q0 41 -2 68.5t-8 68t-21 67.5t-39 53t-63.5 39t-91.5 13q-76 0 -132 -26t-88 -66t-51.5 -100t-25.5 -116.5t-6 -127.5v-250q0 -115 5 -136q8 -34 44 -46q22 -8 114 -21v-53h-512zM328 1171q22 95 79 153t148 58 q37 0 129 -45q11 -5 43 -23t54.5 -26t47.5 -8q50 0 85.5 36.5t46.5 76.5h59q-8 -88 -71 -155t-148 -67q-83 0 -156 48q-25 17 -38.5 25t-40.5 16t-58 8q-41 0 -76.5 -31t-40.5 -66h-63z" />
<glyph unicode="&#xf2;" horiz-adv-x="1212" d="M78 504q0 144 64.5 267t191.5 200.5t291 77.5q98 0 188 -33.5t162.5 -97.5t116 -167t43.5 -231q0 -148 -67.5 -272t-193.5 -198.5t-286 -74.5q-100 0 -190.5 34t-162.5 98.5t-114.5 167t-42.5 229.5zM281 512q0 -204 89 -334.5t251 -130.5q136 0 223.5 118t87.5 345 q0 89 -19.5 169.5t-58 148.5t-105.5 108.5t-153 40.5q-139 0 -227 -119t-88 -346zM369 1450q0 35 18 56.5t49 21.5q28 0 64.5 -21t58.5 -49l285 -287h-84l-297 185q-64 40 -81 61q-13 17 -13 33z" />
<glyph unicode="&#xf3;" horiz-adv-x="1212" d="M78 504q0 144 64.5 267t191.5 200.5t291 77.5q98 0 188 -33.5t162.5 -97.5t116 -167t43.5 -231q0 -148 -67.5 -272t-193.5 -198.5t-286 -74.5q-100 0 -190.5 34t-162.5 98.5t-114.5 167t-42.5 229.5zM281 512q0 -204 89 -334.5t251 -130.5q136 0 223.5 118t87.5 345 q0 89 -19.5 169.5t-58 148.5t-105.5 108.5t-153 40.5q-139 0 -227 -119t-88 -346zM399 1171l285 287q22 28 58.5 49t64.5 21q31 0 49 -21.5t18 -56.5q0 -17 -16 -35t-29.5 -28t-40.5 -26q-2 -2 -4 -3l-4 -2l-297 -185h-84z" />
<glyph unicode="&#xf4;" horiz-adv-x="1212" d="M78 504q0 144 64.5 267t191.5 200.5t291 77.5q98 0 188 -33.5t162.5 -97.5t116 -167t43.5 -231q0 -148 -67.5 -272t-193.5 -198.5t-286 -74.5q-100 0 -190.5 34t-162.5 98.5t-114.5 167t-42.5 229.5zM279 1171l262 342h129l262 -342h-76l-252 209l-254 -209h-71zM281 512 q0 -204 89 -334.5t251 -130.5q136 0 223.5 118t87.5 345q0 89 -19.5 169.5t-58 148.5t-105.5 108.5t-153 40.5q-139 0 -227 -119t-88 -346z" />
<glyph unicode="&#xf5;" horiz-adv-x="1212" d="M78 504q0 144 64.5 267t191.5 200.5t291 77.5q98 0 188 -33.5t162.5 -97.5t116 -167t43.5 -231q0 -148 -67.5 -272t-193.5 -198.5t-286 -74.5q-100 0 -190.5 34t-162.5 98.5t-114.5 167t-42.5 229.5zM260 1171q22 95 79 153t148 58q37 0 129 -45q11 -5 43.5 -23t55 -26 t47.5 -8q50 0 85 36.5t46 76.5h59q-8 -88 -71 -155t-148 -67q-37 0 -68.5 8t-47.5 16.5t-39 23.5q-25 17 -39 25t-41 16t-58 8q-41 0 -76 -31t-40 -66h-64zM281 512q0 -204 89 -334.5t251 -130.5q136 0 223.5 118t87.5 345q0 89 -19.5 169.5t-58 148.5t-105.5 108.5 t-153 40.5q-139 0 -227 -119t-88 -346z" />
<glyph unicode="&#xf6;" horiz-adv-x="1212" d="M78 504q0 144 64.5 267t191.5 200.5t291 77.5q98 0 188 -33.5t162.5 -97.5t116 -167t43.5 -231q0 -148 -67.5 -272t-193.5 -198.5t-286 -74.5q-100 0 -190.5 34t-162.5 98.5t-114.5 167t-42.5 229.5zM281 512q0 -204 89 -334.5t251 -130.5q136 0 223.5 118t87.5 345 q0 89 -19.5 169.5t-58 148.5t-105.5 108.5t-153 40.5q-139 0 -227 -119t-88 -346zM297 1286q0 38 32 71.5t70 33.5q42 0 73.5 -31.5t31.5 -73.5t-31 -72t-74 -30q-40 0 -71 30.5t-31 71.5zM709 1286q0 38 32 71.5t70 33.5q42 0 73 -31.5t31 -73.5q0 -43 -30.5 -72.5 t-73.5 -29.5q-40 0 -71 30.5t-31 71.5z" />
<glyph unicode="&#xf7;" d="M72 451v135h1032v-135h-1032zM455 168q0 54 39 92.5t92 38.5q52 0 91.5 -39.5t39.5 -91.5q0 -51 -39 -91t-90 -40q-54 0 -93.5 38.5t-39.5 92.5zM455 868q0 54 39 92.5t92 38.5q52 0 91.5 -39.5t39.5 -91.5q0 -51 -39 -91t-90 -40q-54 0 -93.5 38.5t-39.5 92.5z" />
<glyph unicode="&#xf8;" horiz-adv-x="1212" d="M78 -18l133 151q-133 143 -133 371q0 144 64.5 267t191.5 200.5t291 77.5q197 0 313 -101l121 131l65 -57l-116 -131q57 -65 92 -166t35 -211q0 -73 -20.5 -147.5t-64.5 -145t-107 -125t-155 -88t-200 -33.5q-179 0 -314 99l-133 -148zM272 512q0 -132 56 -254l520 586 q-85 133 -252 133q-140 0 -232 -119.5t-92 -345.5zM371 180q81 -133 250 -133q73 0 130.5 30t92 77.5t57 113t31 129.5t8.5 133q0 96 -53 230z" />
<glyph unicode="&#xf9;" horiz-adv-x="1251" d="M25 909v54q212 8 344 86l4 -5v-651q0 -52 4 -91t16.5 -79.5t34.5 -67t60 -43t90 -16.5q146 0 213 92t67 314v321q0 26 -7.5 42.5t-16 25.5t-32 13t-37.5 4.5t-49 0.5h-22v54q215 8 344 86l4 -5v-780q0 -31 1 -50.5t5.5 -43t14 -35.5t25 -20.5t40.5 -5.5t58 16l12 -57 l-293 -93q-47 53 -47 158l-180 -104q-59 -34 -99.5 -44t-91.5 -10q-86 0 -146 29.5t-92.5 85.5t-46.5 125t-14 160v448q0 26 -7.5 42.5t-16 25.5t-31.5 13t-37 4.5t-49 0.5h-22zM389 1450q0 35 18.5 56.5t49.5 21.5q28 0 64.5 -21t58.5 -49l284 -287h-84l-297 185 q-64 40 -81 61q-13 17 -13 33z" />
<glyph unicode="&#xfa;" horiz-adv-x="1251" d="M25 909v54q212 8 344 86l4 -5v-651q0 -52 4 -91t16.5 -79.5t34.5 -67t60 -43t90 -16.5q146 0 213 92t67 314v321q0 26 -7.5 42.5t-16 25.5t-32 13t-37.5 4.5t-49 0.5h-22v54q215 8 344 86l4 -5v-780q0 -31 1 -50.5t5.5 -43t14 -35.5t25 -20.5t40.5 -5.5t58 16l12 -57 l-293 -93q-47 53 -47 158l-180 -104q-59 -34 -99.5 -44t-91.5 -10q-86 0 -146 29.5t-92.5 85.5t-46.5 125t-14 160v448q0 26 -7.5 42.5t-16 25.5t-31.5 13t-37 4.5t-49 0.5h-22zM420 1171l285 287q22 28 58.5 49t63.5 21q31 0 49.5 -21.5t18.5 -56.5q0 -17 -16 -35 t-29.5 -28t-40.5 -26q-2 -2 -4 -3l-4 -2l-297 -185h-84z" />
<glyph unicode="&#xfb;" horiz-adv-x="1251" d="M25 909v54q212 8 344 86l4 -5v-651q0 -52 4 -91t16.5 -79.5t34.5 -67t60 -43t90 -16.5q146 0 213 92t67 314v321q0 26 -7.5 42.5t-16 25.5t-32 13t-37.5 4.5t-49 0.5h-22v54q215 8 344 86l4 -5v-780q0 -31 1 -50.5t5.5 -43t14 -35.5t25 -20.5t40.5 -5.5t58 16l12 -57 l-293 -93q-47 53 -47 158l-180 -104q-59 -34 -99.5 -44t-91.5 -10q-86 0 -146 29.5t-92.5 85.5t-46.5 125t-14 160v448q0 26 -7.5 42.5t-16 25.5t-31.5 13t-37 4.5t-49 0.5h-22zM299 1171l262 342h129l262 -342h-75l-252 209l-254 -209h-72z" />
<glyph unicode="&#xfc;" horiz-adv-x="1251" d="M25 909v54q212 8 344 86l4 -5v-651q0 -52 4 -91t16.5 -79.5t34.5 -67t60 -43t90 -16.5q146 0 213 92t67 314v321q0 26 -7.5 42.5t-16 25.5t-32 13t-37.5 4.5t-49 0.5h-22v54q215 8 344 86l4 -5v-780q0 -31 1 -50.5t5.5 -43t14 -35.5t25 -20.5t40.5 -5.5t58 16l12 -57 l-293 -93q-47 53 -47 158l-180 -104q-59 -34 -99.5 -44t-91.5 -10q-86 0 -146 29.5t-92.5 85.5t-46.5 125t-14 160v448q0 26 -7.5 42.5t-16 25.5t-31.5 13t-37 4.5t-49 0.5h-22zM317 1286q0 38 32.5 71.5t70.5 33.5q42 0 73 -31.5t31 -73.5q0 -43 -30.5 -72.5t-73.5 -29.5 q-40 0 -71.5 30.5t-31.5 71.5zM729 1286q0 38 32 71.5t70 33.5q42 0 73.5 -31.5t31.5 -73.5t-31 -72t-74 -30q-40 0 -71 30.5t-31 71.5z" />
<glyph unicode="&#xfd;" horiz-adv-x="1138" d="M0 971v53h535v-53q-10 0 -32 0.5t-32 0.5t-29 -1t-27.5 -3.5t-22 -6.5t-18.5 -10.5t-11 -16t-6 -22.5t3 -30t11 -38l245 -606l256 569q15 36 17.5 63.5t-7.5 44.5t-25.5 29t-40.5 17.5t-48 7.5t-53 2v53h424v-53q-27 0 -50.5 -11t-38.5 -23.5t-33 -41.5t-24.5 -42.5 t-23.5 -49.5q-5 -11 -8 -17l-545 -1167q-34 -71 -63.5 -101t-84.5 -30h-151q-11 0 -17 12t-6 27v35q0 33 25 41l121 43q123 48 170 145l106 223l-344 797q-43 98 -75 129t-97 31zM362 1171l285 287q22 28 58.5 49t64.5 21q31 0 49.5 -21.5t18.5 -56.5q0 -6 -2 -12.5 t-6 -12.5t-8 -11t-11.5 -11.5t-12 -10.5t-14.5 -10.5t-14 -9t-14.5 -9t-12.5 -7.5l-297 -185h-84z" />
<glyph unicode="&#xfe;" horiz-adv-x="1202" d="M4 -459q105 15 127 26q30 15 35 60q2 19 2 117v1536q0 26 -7.5 42.5t-16 25.5t-32 13t-37.5 4.5t-49 0.5h-22v53q215 8 344 86l4 -4v-586l154 89q33 19 86.5 32t107.5 13q90 0 163.5 -26.5t133.5 -84.5t93.5 -161t33.5 -245q0 -54 -14.5 -114.5t-42.5 -123.5t-73.5 -120 t-101.5 -101.5t-132.5 -71t-161.5 -26.5q-132 0 -246 45v-276q0 -96 8 -145q6 -33 81 -45q34 -6 130 -13v-53h-567v53zM352 141q101 -94 236 -94q71 0 127.5 22.5t91.5 62.5t59 86.5t35.5 105t16 106t4.5 100.5q0 114 -26 198t-72.5 131.5t-102 70t-121.5 22.5 q-72 0 -131.5 -42t-83.5 -113q-33 -98 -33 -308v-348z" />
<glyph unicode="&#xff;" horiz-adv-x="1138" d="M0 971v53h535v-53q-10 0 -32 0.5t-32 0.5t-29 -1t-27.5 -3.5t-22 -6.5t-18.5 -10.5t-11 -16t-6 -22.5t3 -30t11 -38l245 -606l256 569q15 36 17.5 63.5t-7.5 44.5t-25.5 29t-40.5 17.5t-48 7.5t-53 2v53h424v-53q-27 0 -50.5 -11t-38.5 -23.5t-33 -41.5t-24.5 -42.5 t-23.5 -49.5q-5 -11 -8 -17l-545 -1167q-34 -71 -63.5 -101t-84.5 -30h-151q-11 0 -17 12t-6 27v35q0 33 25 41l121 43q123 48 170 145l106 223l-344 797q-43 98 -75 129t-97 31zM260 1286q0 38 32 71.5t70 33.5q42 0 73.5 -31.5t31.5 -73.5t-31 -72t-74 -30q-40 0 -71 30.5 t-31 71.5zM672 1286q0 38 32 71.5t70 33.5q42 0 73.5 -31.5t31.5 -73.5t-31 -72t-74 -30q-40 0 -71 30.5t-31 71.5z" />
<glyph unicode="&#x152;" horiz-adv-x="2127" d="M98 696q0 162 61.5 303.5t169.5 242t262.5 158.5t334.5 58q136 -12 329 -17.5t311.5 -6t381.5 -0.5v-330h-54q-8 62 -20.5 106t-35 82t-60 57t-90.5 19h-279v-588h172q98 0 143.5 43.5t44.5 137.5h54v-439h-54q3 193 -188 193h-172v-461q0 -43 6 -74t22 -52t34.5 -33.5 t51.5 -18.5t65 -8t83 -2q45 0 81 3t64 7t51 14t39.5 19t31 26.5t24 31.5t21 40t19.5 46t21.5 55t24.5 61h53l-61 -369q-314 0 -458.5 -1t-331.5 -6.5t-357 -17.5q-184 0 -336 57.5t-251.5 156t-153.5 229t-54 278.5zM326 778q0 -174 47.5 -314t131 -230.5t195 -138.5 t242.5 -48q121 0 186.5 38.5t73.5 80.5q8 51 8 149v807q0 99 -8 150q-8 41 -74 78t-188 36q-137 0 -245 -35t-176 -92.5t-112.5 -137.5t-62.5 -164.5t-18 -178.5z" />
<glyph unicode="&#x153;" horiz-adv-x="1857" d="M78 504q0 144 63 267t186.5 200.5t282.5 77.5q131 0 237.5 -51.5t172.5 -147.5q123 199 379 199q173 0 277 -116t104 -310v-58h-666q0 -75 10 -140t36 -128.5t66.5 -108.5t107 -72.5t151.5 -27.5q40 0 78.5 9t57.5 17t53.5 27t39.5 21l33 -64l-270 -123h-84 q-34 -2 -80.5 6t-105.5 27.5t-117.5 64.5t-98.5 107q-59 -92 -173 -148.5t-243 -56.5q-97 0 -185 34t-158.5 98.5t-112 167t-41.5 229.5zM272 512q0 -202 89.5 -333.5t250.5 -131.5q99 0 168 67t100 174.5t31 246.5q0 199 -84 320.5t-239 121.5q-137 0 -226.5 -119.5 t-89.5 -345.5zM1114 637h379q40 0 71 29t31 90q0 96 -63.5 158.5t-151.5 62.5q-54 0 -99.5 -17.5t-84 -55t-60.5 -106t-22 -161.5z" />
<glyph unicode="&#x178;" horiz-adv-x="1325" d="M29 1380v54h522v-54q-46 0 -74 -9.5t-40 -24.5t-11 -40t9.5 -50t25.5 -60l248 -514l282 514q35 62 27.5 103t-45 61t-99.5 20v54h422v-54q-98 0 -168 -125l-342 -620q-24 -49 -24 -150v-229q0 -116 6 -139q10 -33 46 -45q21 -6 124 -19v-53h-551v53q112 14 133 23 q33 13 39 53q4 23 4 127v315l-315 625q-52 101 -100.5 142.5t-118.5 41.5zM354 1655q0 38 32.5 71t70.5 33q42 0 73 -31t31 -73q0 -43 -30.5 -73t-73.5 -30q-40 0 -71.5 31t-31.5 72zM766 1655q0 38 32 71t70 33q42 0 73.5 -31.5t31.5 -72.5q0 -43 -31 -73t-74 -30 q-40 0 -71 31t-31 72z" />
<glyph unicode="&#x2c6;" horiz-adv-x="909" d="M127 1171l262 342h129l262 -342h-75l-252 209l-254 -209h-72z" />
<glyph unicode="&#x2dc;" horiz-adv-x="948" d="M127 1171q22 95 79 153t148 58q37 0 129 -45q11 -5 43.5 -23t55 -26t47.5 -8q50 0 85 36.5t46 76.5h59q-8 -88 -71 -155t-148 -67q-83 0 -156 48q-25 17 -38.5 25t-40.5 16t-58 8q-41 0 -76.5 -31t-40.5 -66h-63z" />
<glyph unicode="&#x2000;" horiz-adv-x="963" />
<glyph unicode="&#x2001;" horiz-adv-x="1927" />
<glyph unicode="&#x2002;" horiz-adv-x="963" />
<glyph unicode="&#x2003;" horiz-adv-x="1927" />
<glyph unicode="&#x2004;" horiz-adv-x="642" />
<glyph unicode="&#x2005;" horiz-adv-x="481" />
<glyph unicode="&#x2006;" horiz-adv-x="321" />
<glyph unicode="&#x2007;" horiz-adv-x="321" />
<glyph unicode="&#x2008;" horiz-adv-x="240" />
<glyph unicode="&#x2009;" horiz-adv-x="385" />
<glyph unicode="&#x200a;" horiz-adv-x="107" />
<glyph unicode="&#x2010;" horiz-adv-x="681" d="M86 403v168h510v-168h-510z" />
<glyph unicode="&#x2011;" horiz-adv-x="681" d="M86 403v168h510v-168h-510z" />
<glyph unicode="&#x2012;" horiz-adv-x="681" d="M86 403v168h510v-168h-510z" />
<glyph unicode="&#x2013;" horiz-adv-x="1024" d="M0 424v127h1024v-127h-1024z" />
<glyph unicode="&#x2014;" horiz-adv-x="2048" d="M0 424v127h2048v-127h-2048z" />
<glyph unicode="&#x2018;" horiz-adv-x="569" d="M115 1030q0 74 270 475l70 -67q-42 -51 -69.5 -102.5t-40.5 -86.5t-17 -83t-3.5 -65.5t7 -64t6.5 -49.5q3 -21 -58 -73t-75 -52q-24 0 -57 61.5t-33 106.5z" />
<glyph unicode="&#x2019;" horiz-adv-x="569" d="M115 930q42 51 69.5 102.5t40.5 86.5t16.5 82.5t3 66t-6.5 63t-7 49.5q-3 21 58.5 73t75.5 52q24 0 57 -61.5t33 -106.5q0 -72 -271 -475z" />
<glyph unicode="&#x201a;" horiz-adv-x="569" d="M88 -322q42 51 69.5 102.5t40.5 86.5t17 83t3.5 65.5t-7 64t-6.5 49.5q-3 21 58 73t75 52q24 0 57 -61.5t33 -106.5q0 -74 -270 -475z" />
<glyph unicode="&#x201c;" horiz-adv-x="1024" d="M145 1030q0 72 271 475l69 -67q-42 -51 -69.5 -102.5t-40.5 -86.5t-16.5 -82.5t-3 -66.5t6.5 -63.5t7 -49.5q3 -21 -58 -73t-75 -52q-24 0 -57.5 61.5t-33.5 106.5zM537 1030q0 74 270 475l70 -67q-42 -51 -69.5 -102.5t-40.5 -86.5t-17 -83t-3.5 -65.5t7 -64t6.5 -49.5 q3 -21 -58 -73t-75 -52q-24 0 -57 61.5t-33 106.5z" />
<glyph unicode="&#x201d;" horiz-adv-x="1024" d="M145 930q42 51 69.5 102.5t40.5 86t17 82.5t3.5 66t-7 63.5t-6.5 49.5q-3 21 58 73t75 52q24 0 57 -61.5t33 -106.5q0 -74 -270 -475zM541 930q42 51 69.5 102.5t40.5 86.5t16.5 82.5t3 66t-6.5 63t-7 49.5q-3 21 58.5 73t75.5 52q24 0 57 -61.5t33 -106.5 q0 -72 -271 -475z" />
<glyph unicode="&#x201e;" horiz-adv-x="1024" d="M113 -322q42 51 69.5 102.5t40.5 86.5t16.5 82.5t3 66.5t-6.5 63.5t-7 49.5q-3 21 58 73t75 52q24 0 57.5 -61.5t33.5 -106.5q0 -72 -271 -475zM504 -322q42 51 69.5 102.5t40.5 86.5t17 83t3.5 65.5t-7 64t-6.5 49.5q-3 21 58 73t75 52q24 0 57 -61.5t33 -106.5 q0 -72 -271 -475z" />
<glyph unicode="&#x2022;" horiz-adv-x="1024" d="M154 717q-2 149 102.5 253.5t255.5 104.5q149 0 253.5 -104.5t104.5 -253.5t-104.5 -254t-253.5 -105q-150 0 -254 104t-104 255z" />
<glyph unicode="&#x2026;" horiz-adv-x="2048" d="M211 106q0 54 39 93t92 39q52 0 91.5 -39.5t39.5 -92.5q0 -51 -39 -91t-90 -40q-54 0 -93.5 38.5t-39.5 92.5zM893 106q0 54 39 93t92 39q52 0 91.5 -39.5t39.5 -92.5q0 -51 -39 -91t-90 -40q-54 0 -93.5 38.5t-39.5 92.5zM1575 106q0 54 39 93t92 39q52 0 91.5 -39.5 t39.5 -92.5q0 -51 -39 -91t-90 -40q-54 0 -93.5 38.5t-39.5 92.5z" />
<glyph unicode="&#x202f;" horiz-adv-x="385" />
<glyph unicode="&#x2039;" horiz-adv-x="569" d="M74 487l334 310l10.5 10.5t14.5 15t14 14t14.5 11.5t9.5 4q14 0 14 -18q0 -34 -87 -151.5t-154 -195.5q42 -46 145.5 -184t104.5 -160q0 -20 -17 -20q-15 0 -74 59z" />
<glyph unicode="&#x203a;" horiz-adv-x="569" d="M76 831q0 21 14 21q15 0 74 -59l332 -306l-334 -309q-4 -3 -20.5 -19t-28.5 -26t-17 -10q-12 0 -12 18q0 34 87 151t153 195q-47 54 -147.5 188t-100.5 156z" />
<glyph unicode="&#x205f;" horiz-adv-x="481" />
<glyph unicode="&#x20ac;" d="M18 563v82h164q-2 27 -2 80q0 26 4 84h-166v82h177q14 88 45 169.5t81 154t114 126.5t149 85.5t180 31.5q93 0 152 -15.5t126 -47.5q58 -28 58 -80v-260h-53q-12 61 -24.5 105t-36 90.5t-53 76t-76 48t-105.5 18.5q-308 0 -349 -502h469v-82h-473q-2 -23 -2 -68 q0 -65 2 -96h473v-82h-469q47 -522 367 -522q124 0 200 81t126 232h53l-49 -256q0 -7 -1 -12.5t-2 -10t-4.5 -9t-4.5 -7.5t-6.5 -7t-7.5 -5.5t-9.5 -5t-9.5 -4.5t-11.5 -5t-11.5 -5q-106 -52 -284 -52q-104 0 -194.5 32.5t-167 100t-128.5 184t-70 271.5h-170z" />
<glyph unicode="&#x2122;" horiz-adv-x="2009" d="M41 1231l14 203h740l14 -203h-45q-17 85 -52.5 115t-119.5 30h-88v-614q0 -41 1.5 -57t14.5 -31t37.5 -18t73.5 -3v-47h-412v47q46 0 70 3.5t37.5 17t16.5 31.5t3 57v614h-88q-84 0 -119.5 -30t-52.5 -115h-45zM889 1391v43h272l279 -580l272 580h254v-43 q-50 0 -75 -25.5t-25 -89.5v-526q0 -64 16 -80.5t84 -16.5v-47h-364v47q69 0 87.5 16t18.5 79v501h-4l-295 -643h-25l-303 615h-4v-457q0 -73 19.5 -92t81.5 -19v-47h-273v47q62 0 81.5 19t19.5 92v520q-23 45 -56 76t-61 31z" />
<glyph unicode="&#x25fc;" horiz-adv-x="1024" d="M0 0v1024h1024v-1024h-1024z" />
</font>
</defs>
</svg>
